<svg xmlns="http://www.w3.org/2000/svg" viewBox="0 0 24 24"><defs><style>.cls-1{fill:none;}.cls-2{fill:#1d1d1b;}</style></defs><g id="Слой_2" data-name="Слой 2"><g id="Line"><g id="_Accept_Line" data-name=" Accept/Line"><rect class="cls-1" width="24" height="24"/><path class="cls-2" d="M12,20.77A8.77,8.77,0,0,1,10.29,3.4,8.77,8.77,0,1,1,12,20.77ZM12,4.15A7.87,7.87,0,0,0,4.75,9a7.83,7.83,0,0,0,1.7,8.55,8,8,0,0,0,4,2.15,7.85,7.85,0,0,0,8-3.34A7.8,7.8,0,0,0,19.85,12,7.87,7.87,0,0,0,12,4.15Z"/><path class="cls-2" d="M11.1,14.29a1.23,1.23,0,0,1-.53-.11,1.32,1.32,0,0,1-.44-.3l-1.6-1.63a.49.49,0,0,1-.1-.15.43.43,0,0,1,0-.36.65.65,0,0,1,.1-.15.46.46,0,0,1,.64,0l1.61,1.61a.48.48,0,0,0,.66,0l3.38-3.4L15,9.7a.47.47,0,0,1,.17,0l.18,0a.56.56,0,0,1,.15.1.65.65,0,0,1,.1.15.56.56,0,0,1,0,.36.49.49,0,0,1-.1.15l-3.4,3.39a1.43,1.43,0,0,1-.44.32A1.25,1.25,0,0,1,11.1,14.29Z"/></g></g></g></svg>