<svg xmlns="http://www.w3.org/2000/svg" viewBox="0 0 24 24"><defs><style>.cls-1{fill:none;}.cls-2{fill:#1d1d1b;}</style></defs><g id="Слой_2" data-name="Слой 2"><g id="Line"><g id="AirPods_Line" data-name="AirPods/Line"><rect class="cls-1" width="24" height="24"/><path class="cls-2" d="M15.62,4.3A4.6,4.6,0,0,0,12.5,3.23a4.65,4.65,0,0,0-3,1.28A5.27,5.27,0,0,0,7.85,8.32V19.21A1.51,1.51,0,0,0,8,19.8a1.72,1.72,0,0,0,.33.51,1.85,1.85,0,0,0,.5.34,1.53,1.53,0,0,0,.6.12h1.08a1.52,1.52,0,0,0,.59-.12,1.58,1.58,0,0,0,.5-.34,1.54,1.54,0,0,0,.33-.51,1.52,1.52,0,0,0,.12-.59V12.9h.62a4.75,4.75,0,0,0,2.9-1,1.53,1.53,0,0,0,.45-.56,1.58,1.58,0,0,0,.17-.71V5.47a1.49,1.49,0,0,0-.53-1.17ZM11.09,19.21a.67.67,0,0,1-.18.44.69.69,0,0,1-.44.2H9.39a.61.61,0,0,1-.24-.06.7.7,0,0,1-.34-.34.67.67,0,0,1,0-.24V18h2.32Zm4.14-8.53a.82.82,0,0,1-.07.3.91.91,0,0,1-.2.24,3.85,3.85,0,0,1-2.33.79,3.71,3.71,0,0,1-.93-.12l-.58-.18V17H8.77V8.32a4.27,4.27,0,0,1,.35-1.7,4.18,4.18,0,0,1,1-1.43,3.68,3.68,0,0,1,2.53-1h.2A3.89,3.89,0,0,1,15,5a.6.6,0,0,1,.14.21.56.56,0,0,1,.05.25Z"/><path class="cls-2" d="M13.85,10.29a.49.49,0,0,1-.33-.13.47.47,0,0,1-.14-.33V6.14a.45.45,0,0,1,.14-.33.49.49,0,0,1,.33-.13.46.46,0,0,1,.32.13.45.45,0,0,1,.14.33V9.83a.47.47,0,0,1-.14.33A.46.46,0,0,1,13.85,10.29Z"/></g></g></g></svg>