<svg xmlns="http://www.w3.org/2000/svg" viewBox="0 0 24 24"><defs><style>.cls-1{fill:none;}.cls-2{fill:#1d1d1b;}</style></defs><g id="Слой_2" data-name="Слой 2"><g id="Line"><g id="AirplaneMode_Line" data-name="AirplaneMode/Line"><rect class="cls-1" width="24" height="24"/><path class="cls-2" d="M19.82,9.23H15.74a1.52,1.52,0,0,0-.06-.2l-3-7.26A1.39,1.39,0,0,0,12,1a1.4,1.4,0,0,0-1.78.56,1.34,1.34,0,0,0-.15,1l1.49,6.63H5.84L3.36,8a1.43,1.43,0,0,0-.68-.14A1.41,1.41,0,0,0,2,8a1.38,1.38,0,0,0-.48.51,1.35,1.35,0,0,0-.18.67v5.54a1.4,1.4,0,0,0,1.39,1.4A1.66,1.66,0,0,0,3.37,16l2.45-1.25h5.75L10.08,21.4a1.34,1.34,0,0,0,.13,1A1.29,1.29,0,0,0,11,23a1.23,1.23,0,0,0,.42.07,1.42,1.42,0,0,0,.78-.23,1.36,1.36,0,0,0,.5-.63l3-7.26a1.52,1.52,0,0,0,.06-.2h4.07a2.77,2.77,0,0,0,2-4.73,2.82,2.82,0,0,0-2-.81ZM11,2.39A.45.45,0,0,1,11,2a.47.47,0,0,1,.28-.24.52.52,0,0,1,.37,0,.45.45,0,0,1,.23.29l2.92,7.11H12.51Zm.92,19.5a.43.43,0,0,1-.23.25.5.5,0,0,1-.34,0,.44.44,0,0,1-.15-.08.49.49,0,0,1-.12-.13.48.48,0,0,1-.05-.17.35.35,0,0,1,0-.17l1.53-6.84h2.26Zm9.23-8.59a1.78,1.78,0,0,1-.6.41,1.87,1.87,0,0,1-.71.14H5.59L3,15.22a.59.59,0,0,1-.23,0,.54.54,0,0,1-.22,0,.55.55,0,0,1-.17-.17.46.46,0,0,1-.06-.23V9.28A.58.58,0,0,1,2.42,9a.5.5,0,0,1,.33-.14.46.46,0,0,1,.2,0l2.64,1.3H19.82A1.84,1.84,0,0,1,21.67,12,1.81,1.81,0,0,1,21.13,13.3Z"/></g></g></g></svg>