<svg xmlns="http://www.w3.org/2000/svg" viewBox="0 0 24 24"><defs><style>.cls-1{fill:none;}.cls-2{fill:#1d1d1b;}</style></defs><g id="Слой_2" data-name="Слой 2"><g id="Line"><g id="AlarmClock_Line" data-name="AlarmClock/Line"><rect class="cls-1" width="24" height="24"/><path class="cls-2" d="M21.8,6.92a4.15,4.15,0,0,0-4.16-4.15A3.81,3.81,0,0,0,16,3.12a4,4,0,0,0-1.38,1,8.83,8.83,0,0,0-5.19,0A4,4,0,0,0,8,3.12a3.82,3.82,0,0,0-1.67-.35A4.11,4.11,0,0,0,2.57,8.59,4,4,0,0,0,3.6,10a8.11,8.11,0,0,0-.36,2.49A8.46,8.46,0,0,0,4,16.1a8.66,8.66,0,0,0,2.23,3,8.79,8.79,0,0,0,10.49.75,9,9,0,0,0,2.64-2.64,8.73,8.73,0,0,0,1-7.22,4.17,4.17,0,0,0,1-1.38A4.24,4.24,0,0,0,21.8,6.92Zm-18.68,0A3.22,3.22,0,0,1,8.45,4.48,8.76,8.76,0,0,0,3.94,9.09,3.16,3.16,0,0,1,3.12,6.92ZM12,20.33a7.73,7.73,0,0,1-3-.6A7.89,7.89,0,0,1,6.45,18a7.81,7.81,0,0,1-1.7-2.55,8,8,0,0,1-.59-3,8.24,8.24,0,0,1,.2-1.92,6.17,6.17,0,0,1,.3-.92A7.75,7.75,0,0,1,9.09,5.17,4.74,4.74,0,0,1,10,4.86a7.9,7.9,0,0,1,4,0,7.21,7.21,0,0,1,.93.3,7.82,7.82,0,0,1,4.41,4.47,5.79,5.79,0,0,1,.29.92,8.18,8.18,0,0,1,.17,1.91A7.94,7.94,0,0,1,12,20.33ZM15.55,4.42A3.26,3.26,0,0,1,19,4a3.26,3.26,0,0,1,1.86,3A3.19,3.19,0,0,1,20.07,9,8.83,8.83,0,0,0,15.55,4.42Z"/><path class="cls-2" d="M17.64,12.39H12.85a1.4,1.4,0,0,1-1-.41,1.38,1.38,0,0,1-.4-1V8.77a.49.49,0,0,1,.13-.33.48.48,0,0,1,.66,0,.49.49,0,0,1,.13.33V11a.47.47,0,0,0,.14.33.46.46,0,0,0,.32.13h4.79a.45.45,0,0,1,.33.14.43.43,0,0,1,.14.32.43.43,0,0,1-.47.44Z"/></g></g></g></svg>