<svg xmlns="http://www.w3.org/2000/svg" viewBox="0 0 24 24"><defs><style>.cls-1{fill:none;}.cls-2{fill:#1d1d1b;}</style></defs><g id="Слой_2" data-name="Слой 2"><g id="Line"><g id="_Apps_Line" data-name=" Apps/Line"><rect class="cls-1" width="24" height="24"/><path class="cls-2" d="M9.71,11.4H5.1A1.4,1.4,0,0,1,3.71,10V5.4A1.4,1.4,0,0,1,5.1,4H9.71A1.4,1.4,0,0,1,11.1,5.4V10A1.4,1.4,0,0,1,9.71,11.4ZM5.1,4.93a.48.48,0,0,0-.47.47V10a.47.47,0,0,0,.14.33.49.49,0,0,0,.33.13H9.71a.44.44,0,0,0,.46-.46V5.4A.49.49,0,0,0,10,5.07a.47.47,0,0,0-.33-.14Z"/><path class="cls-2" d="M18.91,11.4H14.29A1.38,1.38,0,0,1,12.91,10V5.4A1.38,1.38,0,0,1,14.29,4h4.62A1.4,1.4,0,0,1,20.29,5.4V10a1.4,1.4,0,0,1-1.38,1.39ZM14.29,4.93a.47.47,0,0,0-.33.14.49.49,0,0,0-.13.33V10a.44.44,0,0,0,.46.46h4.62a.46.46,0,0,0,.32-.13.47.47,0,0,0,.14-.33V5.4a.5.5,0,0,0-.14-.33.55.55,0,0,0-.32-.14Z"/><path class="cls-2" d="M9.71,20H5.1A1.4,1.4,0,0,1,3.71,18.6V14A1.4,1.4,0,0,1,5.1,12.6H9.71A1.4,1.4,0,0,1,11.1,14V18.6A1.4,1.4,0,0,1,9.71,20ZM5.1,13.53a.49.49,0,0,0-.33.13.47.47,0,0,0-.14.33V18.6a.48.48,0,0,0,.47.47H9.71a.47.47,0,0,0,.33-.14.49.49,0,0,0,.13-.33V14a.44.44,0,0,0-.46-.46Z"/><path class="cls-2" d="M18.91,20H14.29a1.38,1.38,0,0,1-1.38-1.39V14a1.38,1.38,0,0,1,1.38-1.39h4.62A1.4,1.4,0,0,1,20.29,14V18.6A1.4,1.4,0,0,1,18.91,20Zm-4.62-6.46a.44.44,0,0,0-.46.46V18.6a.49.49,0,0,0,.13.33.47.47,0,0,0,.33.14h4.62a.43.43,0,0,0,.32-.14.45.45,0,0,0,.14-.33V14a.47.47,0,0,0-.14-.33.46.46,0,0,0-.32-.13Z"/></g></g></g></svg>