<svg xmlns="http://www.w3.org/2000/svg" viewBox="0 0 24 24"><defs><style>.cls-1{fill:none;}.cls-2{fill:#1d1d1b;}</style></defs><g id="Слой_2" data-name="Слой 2"><g id="Line"><g id="Attach_Line" data-name="Attach/Line"><rect class="cls-1" width="24" height="24"/><path class="cls-2" d="M11.52,9a.44.44,0,0,1-.33.13A.44.44,0,0,1,10.87,9L8,6.15a.43.43,0,0,1-.14-.32A.45.45,0,0,1,8,5.5a.43.43,0,0,1,.32-.14.45.45,0,0,1,.33.14l2.87,2.87a.46.46,0,0,1,.11.32A.49.49,0,0,1,11.52,9Z"/><path class="cls-2" d="M5.86,4.31a3.15,3.15,0,0,0,0,4.45l3.32,3.32A3.24,3.24,0,0,0,8.87,14a3.15,3.15,0,0,0,.88,1.75l3.81,3.81a3.18,3.18,0,0,0,1,.75,3.13,3.13,0,0,0,1.24.29,3.19,3.19,0,0,0,1.26-.22,3.26,3.26,0,0,0,1.06-.7,3.2,3.2,0,0,0,.7-1.07,3.17,3.17,0,0,0-.07-2.49,3.18,3.18,0,0,0-.75-1l-3.33-3.32A3.17,3.17,0,0,0,15,9.86a3.1,3.1,0,0,0-.89-1.75L10.32,4.3a3.17,3.17,0,0,0-4.46,0ZM17.34,15.79a2.13,2.13,0,0,1,.54.72,2.27,2.27,0,0,1,.21.88,2.3,2.3,0,0,1-.15.9,2.1,2.1,0,0,1-.5.75,2.14,2.14,0,0,1-.76.5,2.26,2.26,0,0,1-.89.16,2.2,2.2,0,0,1-.88-.22,2.28,2.28,0,0,1-.73-.54l-3.8-3.81a2.23,2.23,0,0,1-.52-2.34,3.14,3.14,0,0,0,4.23-.2Zm-7-3.78a2.21,2.21,0,0,1,1.53-.66,2.31,2.31,0,0,1,1.56.58,2.25,2.25,0,0,1-1.53.64A2.16,2.16,0,0,1,10.39,12Zm3.09-3.22A2.25,2.25,0,0,1,14,11.13a3.14,3.14,0,0,0-4.23.2L6.51,8.12A2.22,2.22,0,0,1,6,6.57,2.24,2.24,0,0,1,9.66,5Z"/></g></g></g></svg>