<svg xmlns="http://www.w3.org/2000/svg" viewBox="0 0 24 24"><defs><style>.cls-1{fill:none;}.cls-2{fill:#1d1d1b;}</style></defs><g id="Слой_2" data-name="Слой 2"><g id="Line"><g id="Attention_Line" data-name="Attention/Line"><rect class="cls-1" width="24" height="24"/><path class="cls-2" d="M19.86,20.77H4.13a1.36,1.36,0,0,1-.68-.18,1.36,1.36,0,0,1-.69-1.17A1.34,1.34,0,0,1,3,18.74L10.79,4a1.47,1.47,0,0,1,.51-.54,1.36,1.36,0,0,1,1.42,0,1.39,1.39,0,0,1,.51.54l7.85,14.77a1.45,1.45,0,0,1,.16.68,1.49,1.49,0,0,1-.2.68,1.47,1.47,0,0,1-.5.49A1.36,1.36,0,0,1,19.86,20.77ZM12,4.15a.48.48,0,0,0-.23.07.48.48,0,0,0-.17.18L3.72,19.17a.46.46,0,0,0-.06.23.4.4,0,0,0,.06.22.55.55,0,0,0,.17.17.6.6,0,0,0,.23.06H19.81a.6.6,0,0,0,.23-.06.46.46,0,0,0,.17-.17.4.4,0,0,0,.06-.22.46.46,0,0,0-.06-.23L12.36,4.4a.37.37,0,0,0-.16-.17A.45.45,0,0,0,12,4.15Z"/><path class="cls-2" d="M12,15.23a.46.46,0,0,1-.32-.13.47.47,0,0,1-.14-.33V11.08a.45.45,0,0,1,.14-.33.42.42,0,0,1,.32-.13.43.43,0,0,1,.33.13.45.45,0,0,1,.14.33v3.69a.46.46,0,0,1-.47.46Z"/><path class="cls-2" d="M12,18a.93.93,0,1,0-.92-.92A.93.93,0,0,0,12,18Z"/></g></g></g></svg>