<svg xmlns="http://www.w3.org/2000/svg" viewBox="0 0 24 24"><defs><style>.cls-1{fill:none;}.cls-2{fill:#1d1d1b;}</style></defs><g id="Слой_2" data-name="Слой 2"><g id="Line"><g id="Back_Fast_Line" data-name="Back/Fast/Line"><rect class="cls-1" width="24" height="24"/><path class="cls-2" d="M15.33,15.69a.41.41,0,0,1-.19,0,.48.48,0,0,1-.16-.12l-2.53-3.07a.71.71,0,0,1,0-.92L15,8.47a.47.47,0,0,1,.31-.16.44.44,0,0,1,.33.1.44.44,0,0,1,.17.31.49.49,0,0,1-.1.34L13.3,12l2.42,2.93a.53.53,0,0,1,.1.35.44.44,0,0,1-.17.31A.46.46,0,0,1,15.33,15.69Z"/><path class="cls-2" d="M11.25,15.69a.41.41,0,0,1-.19,0,.48.48,0,0,1-.16-.12L8.37,12.46a.71.71,0,0,1,0-.92l2.52-3.07a.46.46,0,0,1,.81.25.45.45,0,0,1-.1.34L9.18,12l2.42,2.93a.48.48,0,0,1,.1.35.47.47,0,0,1-.16.31A.48.48,0,0,1,11.25,15.69Z"/><path class="cls-2" d="M12,20.77a8.77,8.77,0,1,1,6.2-2.57A8.81,8.81,0,0,1,12,20.77ZM12,4.15a7.84,7.84,0,0,0-7.69,9.38,7.84,7.84,0,0,0,14.21,2.83,7.82,7.82,0,0,0-1-9.91A7.88,7.88,0,0,0,12,4.15Z"/></g></g></g></svg>