<svg xmlns="http://www.w3.org/2000/svg" viewBox="0 0 24 24"><defs><style>.cls-1{fill:none;}.cls-2{fill:#1d1d1b;}</style></defs><g id="Слой_2" data-name="Слой 2"><g id="Line"><g id="Back_Line" data-name="Back/Line"><rect class="cls-1" width="24" height="24"/><path class="cls-2" d="M18.42,20.77H5.49a2.31,2.31,0,0,1-2.26-2.31V5.54A2.32,2.32,0,0,1,5.54,3.23H18.46a2.28,2.28,0,0,1,.89.18,2.15,2.15,0,0,1,.74.5,2.1,2.1,0,0,1,.5.75,2.2,2.2,0,0,1,.18.88V18.46a2.33,2.33,0,0,1-.18.9,2.27,2.27,0,0,1-.51.75,2.33,2.33,0,0,1-.77.5A2.26,2.26,0,0,1,18.42,20.77ZM5.49,4.15a1.42,1.42,0,0,0-1,.43,1.47,1.47,0,0,0-.39,1V18.46a1.4,1.4,0,0,0,1.39,1.39H18.46a1.4,1.4,0,0,0,1.39-1.39V5.54a1.4,1.4,0,0,0-1.39-1.39Z"/><path class="cls-2" d="M13.25,15.69a.45.45,0,0,1-.2,0,.61.61,0,0,1-.16-.12l-2.51-3.07a.68.68,0,0,1,0-.92l2.51-3.07L13,8.36a.61.61,0,0,1,.18,0,.37.37,0,0,1,.18,0,.46.46,0,0,1,.15.09.41.41,0,0,1,.12.14.48.48,0,0,1,.05.17.37.37,0,0,1,0,.18.48.48,0,0,1-.08.16L11.19,12,13.61,15a.44.44,0,0,1,.08.15.37.37,0,0,1,0,.18.48.48,0,0,1-.05.17.41.41,0,0,1-.12.14A.4.4,0,0,1,13.25,15.69Z"/></g></g></g></svg>