<svg xmlns="http://www.w3.org/2000/svg" viewBox="0 0 24 24"><defs><style>.cls-1{fill:none;}.cls-2{fill:#1d1d1b;}</style></defs><g id="Слой_2" data-name="Слой 2"><g id="Line"><g id="Basket_Open_Line" data-name="Basket/Open/Line"><rect class="cls-1" width="24" height="24"/><path class="cls-2" d="M19.86,5.45H14.65a2.68,2.68,0,0,0-.91-1.59,2.68,2.68,0,0,0-3.45,0,2.68,2.68,0,0,0-.91,1.59H4.17a.45.45,0,0,0-.33.14.46.46,0,0,0-.13.32.44.44,0,0,0,.46.46h.74v12.1a2.32,2.32,0,0,0,.67,1.62,2.3,2.3,0,0,0,1.61.68h9.6a2.42,2.42,0,0,0,.88-.17,2.3,2.3,0,0,0,1.25-1.25,2.42,2.42,0,0,0,.17-.88V6.37h.74a.44.44,0,0,0,.33-.13.49.49,0,0,0,.13-.33.45.45,0,0,0-.12-.31A.46.46,0,0,0,19.86,5.45ZM12,4.16a1.76,1.76,0,0,1,1.7,1.29H10.33A1.75,1.75,0,0,1,11,4.52,1.78,1.78,0,0,1,12,4.16ZM18.2,18.47a1.4,1.4,0,0,1-.41,1,1.38,1.38,0,0,1-1,.4H7.19A1.4,1.4,0,0,1,5.8,18.47V6.37H18.17Z"/><path class="cls-2" d="M12,17.53a.42.42,0,0,1-.32-.13.45.45,0,0,1-.14-.33V8.76a.45.45,0,0,1,.14-.32A.43.43,0,0,1,12,8.3a.45.45,0,0,1,.33.14.44.44,0,0,1,.13.32v8.31a.51.51,0,0,1-.13.33A.49.49,0,0,1,12,17.53Z"/><path class="cls-2" d="M14.78,17.53a.42.42,0,0,1-.32-.13.45.45,0,0,1-.14-.33V8.76a.45.45,0,0,1,.14-.32.43.43,0,0,1,.32-.14.45.45,0,0,1,.33.14.44.44,0,0,1,.13.32v8.31a.51.51,0,0,1-.13.33A.49.49,0,0,1,14.78,17.53Z"/><path class="cls-2" d="M9.24,17.53a.44.44,0,0,1-.32-.13.45.45,0,0,1-.14-.33V8.76a.48.48,0,0,1,.46-.46.45.45,0,0,1,.33.14.45.45,0,0,1,.14.32v8.31a.58.58,0,0,1-.14.33A.49.49,0,0,1,9.24,17.53Z"/></g></g></g></svg>