<svg xmlns="http://www.w3.org/2000/svg" viewBox="0 0 24 24"><defs><style>.cls-1{fill:none;}.cls-2{fill:#1d1d1b;}</style></defs><g id="Слой_2" data-name="Слой 2"><g id="Line"><g id="Basket_Closed_Line" data-name="Basket/Closed/Line"><rect class="cls-1" width="24" height="24"/><path class="cls-2" d="M8.75,17a.44.44,0,0,1-.46-.46V8.26a.46.46,0,0,1,.13-.32.46.46,0,0,1,.66,0,.46.46,0,0,1,.13.32v8.31a.44.44,0,0,1-.46.46Z"/><path class="cls-2" d="M11.58,17a.49.49,0,0,1-.33-.13.47.47,0,0,1-.14-.33V8.26a.43.43,0,0,1,.14-.32.45.45,0,0,1,.33-.14.48.48,0,0,1,.46.46v8.31a.47.47,0,0,1-.14.33A.46.46,0,0,1,11.58,17Z"/><path class="cls-2" d="M5.93,17a.49.49,0,0,1-.33-.13.47.47,0,0,1-.14-.33V8.26a.43.43,0,0,1,.14-.32.45.45,0,0,1,.33-.14.45.45,0,0,1,.32.14.43.43,0,0,1,.14.32v8.31a.47.47,0,0,1-.14.33A.48.48,0,0,1,5.93,17Z"/><path class="cls-2" d="M22.33,19.66,20,14.19A2.53,2.53,0,0,0,21,13a2.6,2.6,0,0,0,.21-1,2.64,2.64,0,0,0-.21-1,2.69,2.69,0,0,0-3.08-1.53L15.52,4a.49.49,0,0,0-.26-.25.47.47,0,0,0-.35,0,.46.46,0,0,0-.25.26.47.47,0,0,0,0,.35l.27.65H1.64V18a2.32,2.32,0,0,0,.68,1.63A2.28,2.28,0,0,0,4,20.31h9.57A2.32,2.32,0,0,0,15.83,18V7L17,9.69l2.13,4.91L21.45,20a.51.51,0,0,0,.17.21.59.59,0,0,0,.26.07,1.37,1.37,0,0,0,.19,0,.47.47,0,0,0,.25-.23A.5.5,0,0,0,22.33,19.66ZM14.94,18a1.38,1.38,0,0,1-1.38,1.39H4A1.38,1.38,0,0,1,2.57,18V5.87H14.93Zm3.32-7.74a1.7,1.7,0,0,1,.92.11,1.66,1.66,0,0,1,.58.36,1.82,1.82,0,0,1,.39.56,1.75,1.75,0,0,1,0,1.35,1.83,1.83,0,0,1-.54.72Z"/></g></g></g></svg>