<svg xmlns="http://www.w3.org/2000/svg" viewBox="0 0 24 24"><defs><style>.cls-1{fill:none;}.cls-2{fill:#1d1d1b;}</style></defs><g id="Слой_2" data-name="Слой 2"><g id="Line"><g id="Battery_Charging_Line" data-name="Battery/Charging/Line"><rect class="cls-1" width="24" height="24"/><path class="cls-2" d="M21.1,9.23h-2V8.31a2.36,2.36,0,0,0-.68-1.63A2.32,2.32,0,0,0,16.75,6H3.83a2.3,2.3,0,0,0-1.63.68,2.28,2.28,0,0,0-.68,1.63v7.38a2.28,2.28,0,0,0,.68,1.63A2.3,2.3,0,0,0,3.83,18H16.75a2.23,2.23,0,0,0,.88-.18,2.1,2.1,0,0,0,.75-.5,2.2,2.2,0,0,0,.5-.74,2.28,2.28,0,0,0,.18-.89v-.92h2a1.4,1.4,0,0,0,1-.41,1.38,1.38,0,0,0,.4-1V10.61a1.35,1.35,0,0,0-.4-1A1.4,1.4,0,0,0,21.1,9.23Zm-3,6.46a1.38,1.38,0,0,1-1.38,1.39H3.83a1.4,1.4,0,0,1-1.39-1.39V8.31A1.4,1.4,0,0,1,3.83,6.92H16.75a1.38,1.38,0,0,1,1.38,1.39Zm3.43-2.31a.45.45,0,0,1-.14.33.43.43,0,0,1-.32.14h-2v-3.7h2a.43.43,0,0,1,.32.14.45.45,0,0,1,.14.32Z"/><path class="cls-2" d="M6.32,14.44a.33.33,0,0,1-.17,0A.38.38,0,0,1,6,14.31L3.94,12.25A.47.47,0,0,1,3.81,12a.46.46,0,0,1,0-.26A.52.52,0,0,1,4,11.54a.5.5,0,0,1,.26-.08H5.84L4.71,10.28A.49.49,0,0,1,4.58,10a.43.43,0,0,1,.14-.32.42.42,0,0,1,.33-.13.47.47,0,0,1,.33.14l1.84,2a.47.47,0,0,1,.13.24.63.63,0,0,1,0,.27.55.55,0,0,1-.17.2.5.5,0,0,1-.26.08H5.38l1.26,1.26a.65.65,0,0,1,.1.15.43.43,0,0,1,0,.36.65.65,0,0,1-.1.15.56.56,0,0,1-.15.1A.47.47,0,0,1,6.32,14.44Z"/></g></g></g></svg>