<svg xmlns="http://www.w3.org/2000/svg" viewBox="0 0 24 24"><defs><style>.cls-1{fill:none;}.cls-2{fill:#1d1d1b;}</style></defs><g id="Слой_2" data-name="Слой 2"><g id="Line"><g id="Battery_Discharged_Line" data-name="Battery/Discharged/Line"><rect class="cls-1" width="24" height="24"/><path class="cls-2" d="M21.09,9.26h-2V8.33a2.22,2.22,0,0,0-.17-.88,2.06,2.06,0,0,0-.5-.76A2.3,2.3,0,0,0,16.75,6H3.83a2.32,2.32,0,0,0-1.63.68,2.36,2.36,0,0,0-.68,1.63v7.38a2.32,2.32,0,0,0,.68,1.63A2.28,2.28,0,0,0,3.83,18H16.75a2.25,2.25,0,0,0,.89-.18,2.19,2.19,0,0,0,.75-.5,2.36,2.36,0,0,0,.5-.74,2.47,2.47,0,0,0,.17-.89v-.92h2a1.4,1.4,0,0,0,1.39-1.39V10.61a1.41,1.41,0,0,0-.42-1A1.39,1.39,0,0,0,21.09,9.26Zm-2.95,6.46a1.38,1.38,0,0,1-1.39,1.38H3.83a1.37,1.37,0,0,1-1.38-1.38V8.33a1.38,1.38,0,0,1,.09-.53,1.31,1.31,0,0,1,.3-.46A1.39,1.39,0,0,1,3.29,7a1.45,1.45,0,0,1,.54-.11H16.75a1.4,1.4,0,0,1,1.39,1.39Zm3.41-2.31a.46.46,0,0,1-.13.33.44.44,0,0,1-.33.13h-2V10.18h2a.45.45,0,0,1,.33.14.42.42,0,0,1,.13.32Z"/><path class="cls-2" d="M7.44,13a.4.4,0,0,1,.1.15.33.33,0,0,1,0,.17.47.47,0,0,1-.29.43.33.33,0,0,1-.17,0,.39.39,0,0,1-.18,0,.65.65,0,0,1-.15-.1l-1-1-1,1a.4.4,0,0,1-.15.1.33.33,0,0,1-.17,0,.37.37,0,0,1-.18,0,.4.4,0,0,1-.15-.1.56.56,0,0,1-.1-.15.57.57,0,0,1,0-.18.47.47,0,0,1,0-.17.56.56,0,0,1,.1-.15l1-1-1-1a.56.56,0,0,1-.1-.15.47.47,0,0,1,0-.17.57.57,0,0,1,0-.18.78.78,0,0,1,.1-.15.49.49,0,0,1,.33-.13.51.51,0,0,1,.17,0,.56.56,0,0,1,.15.1l1,1,1-1a.51.51,0,0,1,.33-.13.46.46,0,0,1,.32.13.44.44,0,0,1,.13.33.44.44,0,0,1-.13.32l-1,1Z"/></g></g></g></svg>