<svg xmlns="http://www.w3.org/2000/svg" viewBox="0 0 24 24"><defs><style>.cls-1{fill:none;}.cls-2{fill:#1d1d1b;}</style></defs><g id="Слой_2" data-name="Слой 2"><g id="Line"><g id="Battery_Full_Line" data-name="Battery/Full/Line"><rect class="cls-1" width="24" height="24"/><path class="cls-2" d="M21.09,9.23h-2V8.31A2.29,2.29,0,0,0,16.75,6H3.83a2.31,2.31,0,0,0-1.63.67,2.36,2.36,0,0,0-.68,1.64v7.38a2.32,2.32,0,0,0,.68,1.63A2.28,2.28,0,0,0,3.83,18H16.75a2.3,2.3,0,0,0,2.31-2.31v-.92h2a1.4,1.4,0,0,0,1.39-1.39V10.61a1.36,1.36,0,0,0-.41-1A1.39,1.39,0,0,0,21.09,9.23Zm-2.95,6.46a1.4,1.4,0,0,1-1.39,1.39H3.83a1.38,1.38,0,0,1-1.38-1.39V8.31A1.38,1.38,0,0,1,3.83,6.92H16.75a1.4,1.4,0,0,1,1.39,1.39Zm3.41-2.31a.44.44,0,0,1-.13.33.47.47,0,0,1-.33.14h-2v-3.7h2a.47.47,0,0,1,.33.14.44.44,0,0,1,.13.32Z"/><path class="cls-2" d="M5.33,14.56A.5.5,0,0,1,5,14.42a.55.55,0,0,1-.14-.32V9.92A.43.43,0,0,1,5,9.6a.45.45,0,0,1,.33-.14.48.48,0,0,1,.46.46V14.1a.45.45,0,0,1-.14.32A.43.43,0,0,1,5.33,14.56Z"/><path class="cls-2" d="M8.63,14.56a.47.47,0,0,1-.33-.14.48.48,0,0,1-.13-.32V9.92A.46.46,0,0,1,8.3,9.6.46.46,0,0,1,9,9.6a.46.46,0,0,1,.13.32V14.1a.45.45,0,0,1-.14.32A.47.47,0,0,1,8.63,14.56Z"/><path class="cls-2" d="M11.94,14.56a.43.43,0,0,1-.32-.14.45.45,0,0,1-.14-.32V9.92a.48.48,0,0,1,.46-.46.45.45,0,0,1,.33.14.43.43,0,0,1,.14.32V14.1a.45.45,0,0,1-.14.32A.45.45,0,0,1,11.94,14.56Z"/><path class="cls-2" d="M15.27,14.56a.47.47,0,0,1-.33-.14.44.44,0,0,1-.13-.32V9.92a.42.42,0,0,1,.13-.32.47.47,0,0,1,.33-.14.48.48,0,0,1,.46.46V14.1a.45.45,0,0,1-.14.32A.47.47,0,0,1,15.27,14.56Z"/></g></g></g></svg>