<svg xmlns="http://www.w3.org/2000/svg" viewBox="0 0 24 24"><defs><style>.cls-1{fill:none;}.cls-2{fill:#1d1d1b;}</style></defs><g id="Слой_2" data-name="Слой 2"><g id="Line"><g id="Bell_Off_Line" data-name="Bell/Off/Line"><rect class="cls-1" width="24" height="24"/><path class="cls-2" d="M20.64,20l-1.38-1.42h.62a.45.45,0,0,0,.33-.14.43.43,0,0,0,.14-.32.47.47,0,0,0-.14-.33.44.44,0,0,0-.33-.13h-.79v-7.3a7.14,7.14,0,0,0-1.27-4.12,7,7,0,0,0-3.43-2.62A7.09,7.09,0,0,0,6.47,5.82L4,3.38a.46.46,0,0,0-.66,0,.4.4,0,0,0-.1.15.47.47,0,0,0,0,.17.48.48,0,0,0,0,.18.4.4,0,0,0,.1.15L5.93,6.59a6.88,6.88,0,0,0-1.09,3.77v7.29H4.15a.46.46,0,0,0-.32.13.45.45,0,0,0,0,.65.45.45,0,0,0,.32.14H9.31a2.73,2.73,0,0,0,.91,1.6,2.68,2.68,0,0,0,3.45,0,2.73,2.73,0,0,0,.91-1.6h3.33L20,20.65a.45.45,0,0,0,.14.1.58.58,0,0,0,.18,0,.47.47,0,0,0,.33-.78ZM12,19.88a1.79,1.79,0,0,1-1.07-.36,1.75,1.75,0,0,1-.62-.93h3.38A1.76,1.76,0,0,1,12,19.88ZM5.76,17.67v-7.3A6.13,6.13,0,0,1,6.6,7.28L17,17.67Zm12.37-.17-11-11A6,6,0,0,1,9.27,4.8,6.08,6.08,0,0,1,12,4.19a6.18,6.18,0,0,1,6.18,6.18Z"/></g></g></g></svg>