<svg xmlns="http://www.w3.org/2000/svg" viewBox="0 0 24 24"><defs><style>.cls-1{fill:none;}.cls-2{fill:#1d1d1b;}</style></defs><g id="Слой_2" data-name="Слой 2"><g id="Line"><g id="Bell_On_Line" data-name="Bell/On/Line"><rect class="cls-1" width="24" height="24"/><path class="cls-2" d="M19.73,16.56a.47.47,0,0,1-.33-.14.45.45,0,0,1-.14-.32V11.93a.43.43,0,0,1,.14-.32.47.47,0,0,1,.33-.14.48.48,0,0,1,.46.46V16.1a.45.45,0,0,1-.14.32A.52.52,0,0,1,19.73,16.56Z"/><path class="cls-2" d="M22.85,17.47h-.79V10.21a7.08,7.08,0,0,0-14.15,0v7.26H7.23a.47.47,0,0,0-.33.14.46.46,0,0,0-.13.32.44.44,0,0,0,.46.46h5.13A2.68,2.68,0,0,0,13.27,20a2.65,2.65,0,0,0,4.33-1.59h5.25a.46.46,0,0,0,.32-.13.47.47,0,0,0,.14-.33.48.48,0,0,0-.46-.46ZM15,19.68a1.73,1.73,0,0,1-1.05-.36,1.71,1.71,0,0,1-.63-.93h3.4a1.72,1.72,0,0,1-.64.94A1.81,1.81,0,0,1,15,19.68ZM8.84,17.47V10.21a6.15,6.15,0,0,1,12.3,0v7.26Z"/><path class="cls-2" d="M3.28,4.71l.59.58a7.48,7.48,0,0,0-1.73,2.5,7.58,7.58,0,0,0,1.73,8.45l-.59.58a8.38,8.38,0,0,1-1.91-2.77A8.38,8.38,0,0,1,3.28,4.71Z"/><path class="cls-2" d="M5.56,6.93l.59.57A4.35,4.35,0,0,0,5.13,9a4.48,4.48,0,0,0-.36,1.77,4.53,4.53,0,0,0,.36,1.78,4.45,4.45,0,0,0,1,1.49l-.59.57a5.29,5.29,0,0,1-1.21-1.75,5.27,5.27,0,0,1,0-4.17A5.19,5.19,0,0,1,5.56,6.93Z"/></g></g></g></svg>