<svg xmlns="http://www.w3.org/2000/svg" viewBox="0 0 24 24"><defs><style>.cls-1{fill:none;}.cls-2{fill:#1d1d1b;}</style></defs><g id="Слой_2" data-name="Слой 2"><g id="Line"><g id="Bell_Line" data-name="Bell/Line"><rect class="cls-1" width="24" height="24"/><path class="cls-2" d="M16.75,16.7a.44.44,0,0,1-.33-.14.43.43,0,0,1-.14-.32V12.06a.43.43,0,0,1,.14-.32.44.44,0,0,1,.33-.14.45.45,0,0,1,.32.14.43.43,0,0,1,.14.32v4.18a.43.43,0,0,1-.14.32A.45.45,0,0,1,16.75,16.7Z"/><path class="cls-2" d="M19.85,17.63h-.8v-7.3a7.11,7.11,0,1,0-14.21,0v7.3H4.15a.48.48,0,0,0-.46.46.47.47,0,0,0,.14.33.42.42,0,0,0,.32.13H9.31a2.67,2.67,0,0,0,4.36,1.6,2.64,2.64,0,0,0,.9-1.6h5.28a.42.42,0,0,0,.32-.13.47.47,0,0,0,.14-.33.48.48,0,0,0-.46-.46Zm-7.91,2.21a1.78,1.78,0,0,1-1.06-.36,1.83,1.83,0,0,1-.63-.93h3.38a1.71,1.71,0,0,1-.63.93A1.74,1.74,0,0,1,11.94,19.84Zm6.19-2.21H5.76v-7.3A6.15,6.15,0,0,1,7.57,6a6.35,6.35,0,0,1,2-1.35,6.19,6.19,0,0,1,4.73,0,6.35,6.35,0,0,1,2,1.35,6.15,6.15,0,0,1,1.81,4.37Z"/></g></g></g></svg>