<svg xmlns="http://www.w3.org/2000/svg" viewBox="0 0 24 24"><defs><style>.cls-1{fill:none;}.cls-2{fill:#1d1d1b;}</style></defs><g id="Слой_2" data-name="Слой 2"><g id="Line"><g id="Binoculars_Line" data-name="Binoculars/Line"><rect class="cls-1" width="24" height="24"/><path class="cls-2" d="M19.2,3.23H4.8a1.54,1.54,0,0,0-1.11.47,1.57,1.57,0,0,0-.46,1.11V17.54a3.24,3.24,0,0,0,3.23,3.23,3.23,3.23,0,0,0,3.23-3.23V13h4.62v4.52a3.23,3.23,0,0,0,3.23,3.23,3.24,3.24,0,0,0,3.23-3.23V4.81a1.57,1.57,0,0,0-.46-1.11A1.54,1.54,0,0,0,19.2,3.23ZM6.46,19.85a2.31,2.31,0,0,1-2.13-1.43,2.24,2.24,0,0,1-.13-1.33,2.31,2.31,0,0,1,.63-1.18A2.17,2.17,0,0,1,6,15.28a2.28,2.28,0,0,1,1.34.13,2.25,2.25,0,0,1,1,.85,2.32,2.32,0,0,1,.39,1.28,2.23,2.23,0,0,1-.18.88,2.1,2.1,0,0,1-.5.75,2.3,2.3,0,0,1-1.63.68Zm2.31-4.56a3.07,3.07,0,0,0-1.06-.72,3.15,3.15,0,0,0-1.25-.26,2.91,2.91,0,0,0-.92.15l-.24.09a3,3,0,0,0-1.11.74V4.81a.7.7,0,0,1,0-.25.6.6,0,0,1,.14-.21.8.8,0,0,1,.21-.15.7.7,0,0,1,.25,0h4Zm5.54-3.2H9.69V4.15h4.62Zm3.23,7.76a2.31,2.31,0,0,1-2.13-1.43,2.24,2.24,0,0,1-.13-1.33,2.3,2.3,0,0,1,1.81-1.81,2.24,2.24,0,0,1,1.33.13,2.31,2.31,0,0,1,1.43,2.13,2.23,2.23,0,0,1-.18.88,2.1,2.1,0,0,1-.5.75,2.34,2.34,0,0,1-1.63.68Zm2.31-4.56a3.07,3.07,0,0,0-1.06-.72,3.15,3.15,0,0,0-1.25-.26,2.91,2.91,0,0,0-.92.15l-.24.09-.16.07-.18.09a1.86,1.86,0,0,0-.35.22,2.05,2.05,0,0,0-.42.36V4.15h4a.74.74,0,0,1,.46.2.65.65,0,0,1,.18.46Z"/><path class="cls-2" d="M18.19,11.54a.48.48,0,0,1-.46-.46V7.39a.45.45,0,0,1,.14-.33.43.43,0,0,1,.32-.14.48.48,0,0,1,.47.47v3.69a.43.43,0,0,1-.14.32A.45.45,0,0,1,18.19,11.54Z"/></g></g></g></svg>