<svg xmlns="http://www.w3.org/2000/svg" viewBox="0 0 24 24"><defs><style>.cls-1{fill:none;}.cls-2{fill:#1d1d1b;}</style></defs><g id="Слой_2" data-name="Слой 2"><g id="Line"><g id="Blood_Line" data-name="Blood/Line"><rect class="cls-1" width="24" height="24"/><path class="cls-2" d="M12,20.79a5.65,5.65,0,0,1-1.53-.21,5.81,5.81,0,0,1-2.13-1,6,6,0,0,1-1.57-1.75A5.84,5.84,0,0,1,6,14a10.07,10.07,0,0,1,.72-2c.13-.29.25-.52.33-.68L10.78,4a1.4,1.4,0,0,1,.52-.56,1.36,1.36,0,0,1,1.45,0,1.45,1.45,0,0,1,.51.56L17,11.36c.09.17.22.43.37.75A8.45,8.45,0,0,1,18,14a6.13,6.13,0,0,1-1.49,4.81,5.92,5.92,0,0,1-2,1.45,6.08,6.08,0,0,1-2.41.53ZM12,4.17a.48.48,0,0,0-.24.07.47.47,0,0,0-.18.19L7.91,11.82c-.09.15-.19.36-.31.62A10.43,10.43,0,0,0,7,14.22a5.07,5.07,0,0,0,6.47,5.5,5.25,5.25,0,0,0,2.31-1.45A5.28,5.28,0,0,0,17,14.21a7.56,7.56,0,0,0-.59-1.65c-.13-.29-.26-.53-.35-.7L12.4,4.48a.76.76,0,0,0-.17-.24A.25.25,0,0,0,12,4.17Z"/><path class="cls-2" d="M15.1,14.77a.42.42,0,0,1-.24-.07.39.39,0,0,1-.17-.19l-1.55-3.12a.48.48,0,0,1,0-.35.49.49,0,0,1,.24-.27A.47.47,0,0,1,14,11l1.54,3.12a.61.61,0,0,1,.05.18.37.37,0,0,1,0,.18.46.46,0,0,1-.09.15.36.36,0,0,1-.14.11A.54.54,0,0,1,15.1,14.77Z"/></g></g></g></svg>