<svg xmlns="http://www.w3.org/2000/svg" viewBox="0 0 24 24"><defs><style>.cls-1{fill:none;}.cls-2{fill:#1d1d1b;}</style></defs><g id="Слой_2" data-name="Слой 2"><g id="Line"><g id="Bluetooth_Line" data-name="Bluetooth/Line"><rect class="cls-1" width="24" height="24"/><path class="cls-2" d="M16.26,8.87,12,3.43l-.07-.07a.44.44,0,0,0-.32-.13.44.44,0,0,0-.33.13.46.46,0,0,0-.13.33v7.5l-2.61-2a.46.46,0,0,0-.34-.1.5.5,0,0,0-.31.18.45.45,0,0,0-.09.34.44.44,0,0,0,.17.31L10.58,12,7.9,14a.42.42,0,0,0-.15.3.49.49,0,0,0,.09.33.48.48,0,0,0,.29.17.5.5,0,0,0,.34-.07l2.58-1.94L11,20.31a.58.58,0,0,0,.14.33.49.49,0,0,0,.33.13.47.47,0,0,0,.17,0,.56.56,0,0,0,.15-.1l.07-.09,4.36-5.37L12.1,12ZM12,5,15,8.69,12,11Zm2.9,10.32-3,3.69V13.08Z"/></g></g></g></svg>