<svg xmlns="http://www.w3.org/2000/svg" viewBox="0 0 24 24"><defs><style>.cls-1{fill:none;}.cls-2{fill:#1d1d1b;}</style></defs><g id="Слой_2" data-name="Слой 2"><g id="Line"><g id="Book_Line" data-name="Book/Line"><rect class="cls-1" width="24" height="24"/><path class="cls-2" d="M17.07,3.23H4.62V20.77H17.07a2.25,2.25,0,0,0,.89-.18,2.06,2.06,0,0,0,.74-.5,2.15,2.15,0,0,0,.5-.74,2.25,2.25,0,0,0,.18-.89V5.54a2.32,2.32,0,0,0-2.31-2.31Zm-1.38.92V7.72L14.58,6.65l-1.06,1V4.15ZM7.44,19.85H5.54V4.15h1.9Zm11-1.39a1.4,1.4,0,0,1-1.39,1.39H8.37V4.15H12.6v4A.75.75,0,0,0,13,8.9a.6.6,0,0,0,.35,0,.58.58,0,0,0,.31-.16l.93-.86.92.87a.6.6,0,0,0,.66.12.72.72,0,0,0,.32-.3.7.7,0,0,0,.11-.42v-4h.44a1.4,1.4,0,0,1,1.39,1.39Z"/></g></g></g></svg>