<svg xmlns="http://www.w3.org/2000/svg" viewBox="0 0 24 24"><defs><style>.cls-1{fill:none;}.cls-2{fill:#1d1d1b;}</style></defs><g id="Слой_2" data-name="Слой 2"><g id="Line"><g id="Box_Line" data-name="Box/Line"><rect class="cls-1" width="24" height="24"/><path class="cls-2" d="M19.38,3.69H4.61a1.42,1.42,0,0,0-1,.41,1.39,1.39,0,0,0-.41,1V6a1.34,1.34,0,0,0,.12.56A1.45,1.45,0,0,0,3.69,7V18A2.32,2.32,0,0,0,6,20.31H18a2.28,2.28,0,0,0,1.63-.68A2.32,2.32,0,0,0,20.31,18V7a1.45,1.45,0,0,0,.34-.47A1.34,1.34,0,0,0,20.77,6V5.08a1.4,1.4,0,0,0-1.39-1.39ZM4.15,5.08a.58.58,0,0,1,.14-.33.48.48,0,0,1,.32-.13H19.38a.44.44,0,0,1,.33.13.47.47,0,0,1,.14.33V6a.48.48,0,0,1-.07.23.42.42,0,0,1-.17.18.59.59,0,0,1-.23,0H4.61a.59.59,0,0,1-.22,0A.46.46,0,0,1,4.16,6ZM19.38,18A1.38,1.38,0,0,1,18,19.39H6A1.4,1.4,0,0,1,4.61,18V7.39H19.38Z"/><path class="cls-2" d="M13.74,10.19H10.26a.46.46,0,0,1-.32-.13.46.46,0,0,1,0-.66.46.46,0,0,1,.32-.13h3.48a.49.49,0,0,1,.33.13.46.46,0,0,1,0,.66A.49.49,0,0,1,13.74,10.19Z"/></g></g></g></svg>