<svg xmlns="http://www.w3.org/2000/svg" viewBox="0 0 24 24"><defs><style>.cls-1{fill:none;}.cls-2{fill:#1d1d1b;}</style></defs><g id="Слой_2" data-name="Слой 2"><g id="Line"><g id="Calculator_Line" data-name="Calculator/Line"><rect class="cls-1" width="24" height="24"/><path class="cls-2" d="M17.08,20.77H6.92a2.28,2.28,0,0,1-1.63-.68,2.31,2.31,0,0,1-.67-1.63V5.54a2.31,2.31,0,0,1,.67-1.63,2.28,2.28,0,0,1,1.63-.68H17.08a2.28,2.28,0,0,1,1.63.68,2.32,2.32,0,0,1,.68,1.63V18.46a2.32,2.32,0,0,1-.68,1.63A2.28,2.28,0,0,1,17.08,20.77ZM6.92,4.15a1.4,1.4,0,0,0-1,.41,1.38,1.38,0,0,0-.4,1V18.46a1.38,1.38,0,0,0,.4,1,1.4,1.4,0,0,0,1,.41H17.08a1.4,1.4,0,0,0,1-.41,1.38,1.38,0,0,0,.4-1V5.54a1.38,1.38,0,0,0-.4-1,1.4,1.4,0,0,0-1-.41Z"/><path class="cls-2" d="M15.69,11.59H8.31a1.38,1.38,0,0,1-1.39-1.38V7.44A1.38,1.38,0,0,1,8.31,6.06h7.38a1.38,1.38,0,0,1,1.39,1.38v2.77a1.38,1.38,0,0,1-1.39,1.38ZM8.31,7a.44.44,0,0,0-.46.46v2.77a.44.44,0,0,0,.46.46h7.38a.49.49,0,0,0,.33-.13.46.46,0,0,0,.13-.33V7.44A.46.46,0,0,0,16,7.12.47.47,0,0,0,15.69,7Z"/><path class="cls-2" d="M8.77,12.55H7.85a.46.46,0,0,0-.46.47v.92a.46.46,0,0,0,.46.46h.92a.47.47,0,0,0,.46-.46V13A.47.47,0,0,0,8.77,12.55Z"/><path class="cls-2" d="M12.46,12.55h-.92a.46.46,0,0,0-.46.47v.92a.46.46,0,0,0,.46.46h.92a.46.46,0,0,0,.46-.46V13A.46.46,0,0,0,12.46,12.55Z"/><path class="cls-2" d="M16.15,12.55h-.92a.47.47,0,0,0-.46.47v.92a.47.47,0,0,0,.46.46h.92a.47.47,0,0,0,.47-.46V13A.47.47,0,0,0,16.15,12.55Z"/><path class="cls-2" d="M8.77,16.25H7.85a.45.45,0,0,0-.46.46v.92a.45.45,0,0,0,.46.46h.92a.46.46,0,0,0,.46-.46v-.92A.46.46,0,0,0,8.77,16.25Z"/><path class="cls-2" d="M12.46,16.25h-.92a.45.45,0,0,0-.46.46v.92a.45.45,0,0,0,.46.46h.92a.45.45,0,0,0,.46-.46v-.92A.45.45,0,0,0,12.46,16.25Z"/><path class="cls-2" d="M16.15,16.25h-.92a.46.46,0,0,0-.46.46v.92a.46.46,0,0,0,.46.46h.92a.46.46,0,0,0,.47-.46v-.92A.46.46,0,0,0,16.15,16.25Z"/></g></g></g></svg>