<svg xmlns="http://www.w3.org/2000/svg" viewBox="0 0 24 24"><defs><style>.cls-1{fill:none;}.cls-2{fill:#1d1d1b;}</style></defs><g id="Слой_2" data-name="Слой 2"><g id="Line"><g id="Call_Reject_Line" data-name="Call/Reject/Line"><rect class="cls-1" width="24" height="24"/><path class="cls-2" d="M17.14,20.94a4.87,4.87,0,0,1-3.3-1.3L4.35,10.15a4.41,4.41,0,0,1-1-1.5A4.23,4.23,0,0,1,3,6.89,3.76,3.76,0,0,1,3.4,5.38a3.86,3.86,0,0,1,.93-1.26A4,4,0,0,1,6.6,3.06a1.39,1.39,0,0,1,1.07.41l3.06,3.07a1.37,1.37,0,0,1,.4,1.17A3.94,3.94,0,0,1,10,10.06a4,4,0,0,1-.32.28l4,4c.09-.11.19-.22.29-.32a4.06,4.06,0,0,1,2.35-1.15,1.35,1.35,0,0,1,.63.06,1.43,1.43,0,0,1,.54.33l3.07,3.07a1.34,1.34,0,0,1,.32.49,1.26,1.26,0,0,1,.08.58,4,4,0,0,1-1,2.28,3.94,3.94,0,0,1-1.28.93A3.89,3.89,0,0,1,17.14,20.94ZM6.71,4A3.05,3.05,0,0,0,5,4.76,3,3,0,0,0,4,6.92a3.54,3.54,0,0,0,.25,1.4A3.46,3.46,0,0,0,5,9.49L14.49,19a3.51,3.51,0,0,0,2.58,1,2.81,2.81,0,0,0,1.21-.27,2.91,2.91,0,0,0,1-.76A3,3,0,0,0,20,17.28a.39.39,0,0,0,0-.18.49.49,0,0,0-.1-.15l-3.06-3.06a.52.52,0,0,0-.19-.11.38.38,0,0,0-.21,0,3,3,0,0,0-1.85.92,3,3,0,0,0-.49.62l-.3.51L8.19,10.17l.53-.3a2.36,2.36,0,0,0,.62-.47,3.09,3.09,0,0,0,.92-1.84.41.41,0,0,0,0-.22.39.39,0,0,0-.12-.19L7,4.12A.47.47,0,0,0,6.71,4Z"/><path class="cls-2" d="M8.83,8a.51.51,0,0,1-.33-.13L6.34,5.6a.4.4,0,0,1-.1-.15.58.58,0,0,1,0-.18.58.58,0,0,1,0-.18.65.65,0,0,1,.1-.15.48.48,0,0,1,.32-.13A.51.51,0,0,1,7,4.94L9.16,7.12l.1.15a.56.56,0,0,1,0,.36l-.1.15A.44.44,0,0,1,9,7.9.35.35,0,0,1,8.83,8Z"/><path class="cls-2" d="M18.71,17.78a.38.38,0,0,1-.18,0,.31.31,0,0,1-.15-.1l-2.17-2.17a.44.44,0,0,1-.1-.15.42.42,0,0,1,0-.36.36.36,0,0,1,.1-.15.46.46,0,0,1,.64,0L19,17a.45.45,0,0,1,.14.33.43.43,0,0,1-.14.32.31.31,0,0,1-.15.1A.32.32,0,0,1,18.71,17.78Z"/><path class="cls-2" d="M17.42,9.71a.4.4,0,0,1-.15.1.58.58,0,0,1-.18,0,.47.47,0,0,1-.17,0,.4.4,0,0,1-.15-.1l-1-1-1,1a.48.48,0,0,1-.66,0,.65.65,0,0,1-.1-.15.42.42,0,0,1,0-.36.65.65,0,0,1,.1-.15l1-.92-1-1A.65.65,0,0,1,14,7a.58.58,0,0,1,0-.18.58.58,0,0,1,0-.18.4.4,0,0,1,.1-.15.48.48,0,0,1,.66,0l1,1,.93-.93A.49.49,0,0,1,17,6.36a.46.46,0,0,1,.32.13.44.44,0,0,1,.1.15.39.39,0,0,1,0,.18.33.33,0,0,1,0,.17.31.31,0,0,1-.1.15l-.93.93,1,1,.1.15a.55.55,0,0,1,0,.36Z"/></g></g></g></svg>