<svg xmlns="http://www.w3.org/2000/svg" viewBox="0 0 24 24"><defs><style>.cls-1{fill:none;}.cls-2{fill:#1d1d1b;}</style></defs><g id="Слой_2" data-name="Слой 2"><g id="Line"><g id="Call_Line" data-name="Call/Line"><rect class="cls-1" width="24" height="24"/><path class="cls-2" d="M20.55,16.33l-3.07-3.07a1.61,1.61,0,0,0-.52-.34,1.45,1.45,0,0,0-.62-.07A4,4,0,0,0,14,14c-.1.11-.2.21-.29.32l-4-4,.32-.3a4,4,0,0,0,1.12-2.34,1.35,1.35,0,0,0-.05-.63,1.4,1.4,0,0,0-.32-.55L7.71,3.47a1.46,1.46,0,0,0-.49-.33,1.46,1.46,0,0,0-.58-.08,4,4,0,0,0-2.3,1A3.92,3.92,0,0,0,3,6.84a4.5,4.5,0,0,0,1.34,3.3l9.49,9.49a4.41,4.41,0,0,0,1.44,1,4.52,4.52,0,0,0,1.7.34h.12a3.89,3.89,0,0,0,1.54-.35A3.83,3.83,0,0,0,20,19.65a4,4,0,0,0,1-2.28,1.39,1.39,0,0,0-.09-.57A1.25,1.25,0,0,0,20.55,16.33ZM19.26,19.1a3,3,0,0,1-1,.68A3,3,0,0,1,17.1,20a3.42,3.42,0,0,1-1.41-.25,3.3,3.3,0,0,1-1.2-.79L5,9.49a3.6,3.6,0,0,1-.79-1.18A3.37,3.37,0,0,1,4,6.91,3,3,0,0,1,5,4.75,3.14,3.14,0,0,1,6.72,4a.43.43,0,0,1,.3.14l3.1,3.07a.42.42,0,0,1,.11.18.58.58,0,0,1,0,.22,3.16,3.16,0,0,1-.93,1.85,2.83,2.83,0,0,1-.61.47l-.54.3,5.62,5.61.3-.52a3.21,3.21,0,0,1,2.33-1.54.49.49,0,0,1,.21,0,.62.62,0,0,1,.19.12l3.06,3a.45.45,0,0,1,.1.14.42.42,0,0,1,0,.16A3.32,3.32,0,0,1,19.26,19.1Z"/><path class="cls-2" d="M8.86,7.91a.43.43,0,0,1-.32-.14L6.36,5.6a.46.46,0,0,1-.13-.33A.42.42,0,0,1,6.36,5a.42.42,0,0,1,.15-.11l.18,0a.47.47,0,0,1,.17,0A.42.42,0,0,1,7,5L9.19,7.1a.46.46,0,0,1,0,.64A.44.44,0,0,1,9,7.86.53.53,0,0,1,8.86,7.91Z"/><path class="cls-2" d="M18.74,17.79a.58.58,0,0,1-.18,0,.65.65,0,0,1-.15-.1l-2.17-2.18a.45.45,0,0,1-.14-.33.45.45,0,0,1,.14-.32.4.4,0,0,1,.15-.1.47.47,0,0,1,.17,0,.58.58,0,0,1,.18,0,.4.4,0,0,1,.15.1L19.11,17a.48.48,0,0,1,0,.66.62.62,0,0,1-.17.11A.69.69,0,0,1,18.74,17.79Z"/></g></g></g></svg>