<svg xmlns="http://www.w3.org/2000/svg" viewBox="0 0 24 24"><defs><style>.cls-1{fill:none;}.cls-2{fill:#1d1d1b;}</style></defs><g id="Слой_2" data-name="Слой 2"><g id="Line"><g id="Call_Accept_Line" data-name="Call/Accept/Line"><rect class="cls-1" width="24" height="24"/><path class="cls-2" d="M16.55,21.41a4.68,4.68,0,0,1-3.25-1.28L3.81,10.66a4.41,4.41,0,0,1-1-1.5A4.26,4.26,0,0,1,2.5,7.4a3.89,3.89,0,0,1,.35-1.54,3.83,3.83,0,0,1,.94-1.28,3.93,3.93,0,0,1,2.27-1,1.28,1.28,0,0,1,.58.08A1.33,1.33,0,0,1,7.13,4l3.06,3.07a1.28,1.28,0,0,1,.34.54,1.35,1.35,0,0,1,.06.63,4,4,0,0,1-1.14,2.35,4.09,4.09,0,0,1-.33.28l4,4c.09-.11.19-.22.29-.32a4,4,0,0,1,2.34-1.16,1.5,1.5,0,0,1,.63.07,1.42,1.42,0,0,1,.53.34L20,16.82a1.31,1.31,0,0,1,.32.48,1.49,1.49,0,0,1,.09.59,4.08,4.08,0,0,1-1,2.24,3.79,3.79,0,0,1-2.82,1.28ZM6.17,4.49a3.08,3.08,0,0,0-1.74.78,3.18,3.18,0,0,0-.73,1,3.05,3.05,0,0,0-.28,1.19,3.45,3.45,0,0,0,.26,1.38A3.53,3.53,0,0,0,4.46,10L14,19.49a3.6,3.6,0,0,0,1.18.79,3.52,3.52,0,0,0,1.4.26,3.31,3.31,0,0,0,1.2-.26,3.12,3.12,0,0,0,1-.72,3.06,3.06,0,0,0,.77-1.77.57.57,0,0,0,0-.18.49.49,0,0,0-.11-.14l-3.1-3.06a.47.47,0,0,0-.19-.12.54.54,0,0,0-.22,0A3,3,0,0,0,14,15.2a3.26,3.26,0,0,0-.49.62l-.3.51L7.66,10.68l.53-.3a2.32,2.32,0,0,0,.61-.47,3,3,0,0,0,.92-1.85.5.5,0,0,0,0-.21.44.44,0,0,0-.12-.18l-3.12-3A.47.47,0,0,0,6.17,4.49Z"/><path class="cls-2" d="M8.29,8.42a.47.47,0,0,1-.17,0A.56.56,0,0,1,8,8.29L5.81,6.11a.5.5,0,0,1-.14-.33.33.33,0,0,1,0-.17A.46.46,0,0,1,6,5.36a.58.58,0,0,1,.18,0,.58.58,0,0,1,.18,0,.45.45,0,0,1,.14.1L8.58,7.63a.4.4,0,0,1,.1.15.55.55,0,0,1,0,.36.65.65,0,0,1-.1.15A.41.41,0,0,1,8.29,8.42Z"/><path class="cls-2" d="M18.17,18.28a.57.57,0,0,1-.18,0,.31.31,0,0,1-.15-.1L15.67,16a.44.44,0,0,1-.1-.15.42.42,0,0,1,0-.36.31.31,0,0,1,.1-.15.46.46,0,0,1,.64,0l2.18,2.18a.31.31,0,0,1,.1.15.37.37,0,0,1,0,.18.33.33,0,0,1,0,.17.31.31,0,0,1-.1.15.33.33,0,0,1-.14.1A.57.57,0,0,1,18.17,18.28Z"/><path class="cls-2" d="M21.5,11.21h-.82A7.63,7.63,0,0,0,12.9,3.43V2.59a8.39,8.39,0,0,1,8,5.29A8.43,8.43,0,0,1,21.5,11.21Z"/><path class="cls-2" d="M18.26,11.25h-.82a4.54,4.54,0,0,0-.33-1.78,4.63,4.63,0,0,0-1-1.51A4.53,4.53,0,0,0,14.6,7a4.69,4.69,0,0,0-1.78-.33V5.8a5.63,5.63,0,0,1,2.11.38,5.32,5.32,0,0,1,1.78,1.18,5.43,5.43,0,0,1,1.18,1.78,5.26,5.26,0,0,1,.38,2.11Z"/></g></g></g></svg>