<svg xmlns="http://www.w3.org/2000/svg" viewBox="0 0 24 24"><defs><style>.cls-1{fill:none;}.cls-2{fill:#1d1d1b;}</style></defs><g id="Слой_2" data-name="Слой 2"><g id="Line"><g id="Camera_Line" data-name="Camera/Line"><rect class="cls-1" width="24" height="24"/><path class="cls-2" d="M18.45,19.39H5.53A2.37,2.37,0,0,1,3.9,18.7a2.32,2.32,0,0,1-.68-1.64V9.67A2.32,2.32,0,0,1,5.53,7.36h.74V6a1.39,1.39,0,0,1,.41-1,1.41,1.41,0,0,1,1-.4h8.68a1.22,1.22,0,0,1,.53.1,1.38,1.38,0,0,1,.46.29,1.62,1.62,0,0,1,.31.46,1.39,1.39,0,0,1,.1.53V7.39h.74A2.32,2.32,0,0,1,20.78,9.7v7.39a2.32,2.32,0,0,1-2.33,2.3ZM5.53,8.31A1.4,1.4,0,0,0,4.14,9.7v7.39a1.42,1.42,0,0,0,1.39,1.4H18.45a1.41,1.41,0,0,0,.54-.11,1.3,1.3,0,0,0,.74-.76,1.4,1.4,0,0,0,.11-.53V9.7a1.4,1.4,0,0,0-1.39-1.39H16.81V6a.47.47,0,0,0-.14-.33.46.46,0,0,0-.32-.13H7.65A.48.48,0,0,0,7.19,6V8.31Z"/><path class="cls-2" d="M12,16.15A4.15,4.15,0,1,1,16.14,12a4.1,4.1,0,0,1-.31,1.59,4.14,4.14,0,0,1-2.25,2.25A4.1,4.1,0,0,1,12,16.15Zm0-7.38a3.25,3.25,0,0,0-1.79.54A3.18,3.18,0,0,0,9,10.76a3.23,3.23,0,0,0-.19,1.87,3.27,3.27,0,0,0,2.54,2.54A3.23,3.23,0,0,0,13.23,15a3.18,3.18,0,0,0,1.45-1.19,3.23,3.23,0,0,0-2.69-5Z"/></g></g></g></svg>