<svg xmlns="http://www.w3.org/2000/svg" viewBox="0 0 24 24"><defs><style>.cls-1{fill:none;}.cls-2{fill:#1d1d1b;}</style></defs><g id="Слой_2" data-name="Слой 2"><g id="Line"><g id="Card_Line" data-name="Card/Line"><rect class="cls-1" width="24" height="24"/><path class="cls-2" d="M20.82,12.34,11.68,3.2a2.32,2.32,0,0,0-3.27,0L3.19,8.43a2.19,2.19,0,0,0-.5.75,2.42,2.42,0,0,0-.17.88,2.23,2.23,0,0,0,.18.88,2.06,2.06,0,0,0,.5.74l9.14,9.14a2.29,2.29,0,0,0,2.46.51,2.4,2.4,0,0,0,.75-.5l5.23-5.22A2.37,2.37,0,0,0,21.47,14,2.33,2.33,0,0,0,20.82,12.34ZM15,20.17a1.39,1.39,0,0,1-2,0L3.84,11a1.38,1.38,0,0,1-.35-.95,1.22,1.22,0,0,1,.1-.53,1.38,1.38,0,0,1,.29-.46L6.76,6.23l11.09,11.1Zm3.53-3.53L7.38,5.54,8,4.88,19.14,16ZM20.13,15l-.31.31L8.72,4.2,9,3.89a1.36,1.36,0,0,1,1-.41,1.38,1.38,0,0,1,.94.37L20.1,13a1.22,1.22,0,0,1,.31.44,1.44,1.44,0,0,1,.1.54,1.33,1.33,0,0,1-.09.55A1.36,1.36,0,0,1,20.13,15Z"/></g></g></g></svg>