<svg xmlns="http://www.w3.org/2000/svg" viewBox="0 0 24 24"><defs><style>.cls-1{fill:none;}.cls-2{fill:#1d1d1b;}</style></defs><g id="Слой_2" data-name="Слой 2"><g id="Line"><g id="Cash_Line" data-name="Cash/Line"><rect class="cls-1" width="24" height="24"/><path class="cls-2" d="M22.21,12.33,19.44,5.78a2.36,2.36,0,0,0-.5-.74,2.17,2.17,0,0,0-.74-.49,2.28,2.28,0,0,0-1.74,0L8.15,8H3.89a2.23,2.23,0,0,0-1.6.66,2.27,2.27,0,0,0-.68,1.6v7.1a2.15,2.15,0,0,0,.18.87,2,2,0,0,0,.49.73,2.61,2.61,0,0,0,.74.5,2.35,2.35,0,0,0,.87.16h12.7a2.32,2.32,0,0,0,.87-.16,2.36,2.36,0,0,0,.74-.5,2.21,2.21,0,0,0,.5-.73,2.32,2.32,0,0,0,.17-.87V16.14L21,15.27a2.24,2.24,0,0,0,1.4-2.08A2.28,2.28,0,0,0,22.21,12.33ZM2.54,10.26A1.35,1.35,0,0,1,3.89,8.92h1A4.2,4.2,0,0,1,4,10.36a4.15,4.15,0,0,1-1.44.93ZM3.89,18.7a1.29,1.29,0,0,1-.51-.1,1.21,1.21,0,0,1-.44-.29,1.28,1.28,0,0,1-.3-.43,1.34,1.34,0,0,1-.1-.52v-1A4.11,4.11,0,0,1,4,17.27a4.21,4.21,0,0,1,1,1.43ZM18,17.36a1.55,1.55,0,0,1-.1.52,1.4,1.4,0,0,1-.74.72,1.3,1.3,0,0,1-.52.1h-.92a4.18,4.18,0,0,1,.91-1.4A4.32,4.32,0,0,1,18,16.38Zm0-1.94a5.11,5.11,0,0,0-3.27,3.28H5.9a5.08,5.08,0,0,0-1.28-2.07A5,5,0,0,0,2.54,15.4V12.24A5.13,5.13,0,0,0,4.63,11,5.14,5.14,0,0,0,5.9,8.92h8.78A5.07,5.07,0,0,0,15.92,11a5,5,0,0,0,2,1.24Zm0-4.17a4.07,4.07,0,0,1-1.39-.92,4.15,4.15,0,0,1-.92-1.41h.93a1.37,1.37,0,0,1,.95.39,1.35,1.35,0,0,1,.4.95Zm3.43,2.46a1.43,1.43,0,0,1-.3.44,1.46,1.46,0,0,1-.44.29l-1.77.72v-4.9a2.22,2.22,0,0,0-.67-1.6A2.27,2.27,0,0,0,16.59,8H10.51l6.31-2.61a1.55,1.55,0,0,1,1,0,1.3,1.3,0,0,1,.44.29,1.23,1.23,0,0,1,.3.44l2.77,6.56A1.46,1.46,0,0,1,21.38,13.71Z"/><path class="cls-2" d="M10.23,16.24A2.34,2.34,0,0,1,9,15.86a2.4,2.4,0,0,1-.85-1A2.33,2.33,0,0,1,8,13.49a2.33,2.33,0,0,1,1.81-1.82,2.36,2.36,0,0,1,1.34.14,2.25,2.25,0,0,1,1,.85,2.22,2.22,0,0,1,.39,1.28,2.31,2.31,0,0,1-.67,1.63A2.33,2.33,0,0,1,10.23,16.24Zm0-3.69a1.35,1.35,0,0,0-.77.24,1.33,1.33,0,0,0-.5.62,1.29,1.29,0,0,0-.08.8,1.39,1.39,0,0,0,.37.71,1.49,1.49,0,0,0,.71.38,1.45,1.45,0,0,0,.8-.08,1.5,1.5,0,0,0,.63-.51,1.42,1.42,0,0,0,.23-.77,1.4,1.4,0,0,0-1.39-1.39Z"/></g></g></g></svg>