<svg xmlns="http://www.w3.org/2000/svg" viewBox="0 0 24 24"><defs><style>.cls-1{fill:none;}.cls-2{fill:#1d1d1b;}</style></defs><g id="Слой_2" data-name="Слой 2"><g id="Line"><g id="Chart_Line" data-name="Chart/Line"><rect class="cls-1" width="24" height="24"/><path class="cls-2" d="M20.31,20.77H4.73a1.5,1.5,0,0,1-1.5-1.5V3.69a.48.48,0,0,1,.46-.46A.45.45,0,0,1,4,3.37a.46.46,0,0,1,.13.32V19.27a.58.58,0,0,0,.58.58H20.31a.46.46,0,0,1,.32.13.46.46,0,0,1,0,.66A.46.46,0,0,1,20.31,20.77Z"/><path class="cls-2" d="M10,18H6V7a1.38,1.38,0,0,1,.4-1,1.4,1.4,0,0,1,1-.41H8.66A1.38,1.38,0,0,1,10,7Zm-3.11-.92H9.12V7A.45.45,0,0,0,9,6.68a.43.43,0,0,0-.32-.14H7.39a.43.43,0,0,0-.32.14A.45.45,0,0,0,6.93,7Z"/><path class="cls-2" d="M15.21,18H11V9.08a1.4,1.4,0,0,1,.41-1,1.42,1.42,0,0,1,1-.4h1.45a1.4,1.4,0,0,1,1.38,1.38Zm-3.29-.92h2.37v-8a.45.45,0,0,0-.14-.32.43.43,0,0,0-.32-.14H12.38a.47.47,0,0,0-.33.14.42.42,0,0,0-.13.32Z"/><path class="cls-2" d="M20.2,18H16.15V11.16a1.43,1.43,0,0,1,.41-1,1.38,1.38,0,0,1,1-.4h1.27a1.38,1.38,0,0,1,1.39,1.38Zm-3.12-.92h2.19V11.16a.46.46,0,0,0-.13-.32.47.47,0,0,0-.33-.14H17.54a.47.47,0,0,0-.33.14.46.46,0,0,0-.13.32Z"/></g></g></g></svg>