<svg xmlns="http://www.w3.org/2000/svg" viewBox="0 0 24 24"><defs><style>.cls-1{fill:none;}.cls-2{fill:#1d1d1b;}</style></defs><g id="Слой_2" data-name="Слой 2"><g id="Line"><g id="Cloudy_Line" data-name="Cloudy/Line"><rect class="cls-1" width="24" height="24"/><path class="cls-2" d="M18.54,16.25H14.72a.43.43,0,0,1-.32-.14.44.44,0,0,1-.14-.33.48.48,0,0,1,.46-.46h3.82a.45.45,0,0,1,.33.14.43.43,0,0,1,.14.32.44.44,0,0,1-.14.33A.45.45,0,0,1,18.54,16.25Z"/><path class="cls-2" d="M5.63,10.07a2.13,2.13,0,0,1-1.2-.35,2.27,2.27,0,0,1-.8-1A2.15,2.15,0,0,1,3.5,7.51a2.18,2.18,0,0,1,.58-1.1,2.15,2.15,0,0,1,2.35-.48,2.13,2.13,0,0,1,1.33,2,2.1,2.1,0,0,1-.16.82,2,2,0,0,1-.46.7,2,2,0,0,1-.69.46A2.11,2.11,0,0,1,5.63,10.07Zm0-3.28A1.13,1.13,0,0,0,4.5,7.92a1.14,1.14,0,0,0,.33.8,1.15,1.15,0,0,0,.8.33A1.13,1.13,0,0,0,6.76,7.92a1.15,1.15,0,0,0-.33-.8A1.14,1.14,0,0,0,5.63,6.79Z"/><path class="cls-2" d="M18.54,16.25H14.72a.43.43,0,0,1-.32-.14.44.44,0,0,1-.14-.33.48.48,0,0,1,.46-.46h3.82a.45.45,0,0,1,.33.14.43.43,0,0,1,.14.32.44.44,0,0,1-.14.33A.45.45,0,0,1,18.54,16.25Z"/><path class="cls-2" d="M5.63,10.07a2.13,2.13,0,0,1-1.2-.35,2.27,2.27,0,0,1-.8-1A2.15,2.15,0,0,1,3.5,7.51a2.18,2.18,0,0,1,.58-1.1,2.15,2.15,0,0,1,2.35-.48,2.13,2.13,0,0,1,1.33,2,2.1,2.1,0,0,1-.16.82,2,2,0,0,1-.46.7,2,2,0,0,1-.69.46A2.11,2.11,0,0,1,5.63,10.07Zm0-3.28A1.13,1.13,0,0,0,4.5,7.92a1.14,1.14,0,0,0,.33.8,1.15,1.15,0,0,0,.8.33A1.13,1.13,0,0,0,6.76,7.92a1.15,1.15,0,0,0-.33-.8A1.14,1.14,0,0,0,5.63,6.79Z"/><path class="cls-2" d="M22.15,17.31H21a6.7,6.7,0,0,0-.34-5.92,6.56,6.56,0,0,0-9.77-1.85,6.54,6.54,0,0,0-2.12,3.05,4.46,4.46,0,0,0-2.07-.37,4.52,4.52,0,0,0-2,.6,4.62,4.62,0,0,0-2.2,4.49H1.85a.45.45,0,0,0-.33.14.52.52,0,0,0-.14.32.47.47,0,0,0,.14.33.49.49,0,0,0,.33.13h20.3a.49.49,0,0,0,.33-.13.46.46,0,0,0,0-.66A.49.49,0,0,0,22.15,17.31Zm-2.17,0H3.42a3.73,3.73,0,0,1,.32-2.11,3.65,3.65,0,0,1,1.43-1.58,3.59,3.59,0,0,1,3.69,0l.55.33.14-.62a5.62,5.62,0,0,1,10.3-1.47,5.88,5.88,0,0,1,.76,2.71A5.69,5.69,0,0,1,20,17.31Z"/></g></g></g></svg>