<svg xmlns="http://www.w3.org/2000/svg" viewBox="0 0 24 24"><defs><style>.cls-1{fill:none;}.cls-2{fill:#1d1d1b;}</style></defs><g id="Слой_2" data-name="Слой 2"><g id="Line"><g id="Cloud_Line" data-name="Cloud/Line"><rect class="cls-1" width="24" height="24"/><path class="cls-2" d="M21.58,9.31A7.64,7.64,0,0,0,7.8,10.49c0,.13-.09.25-.13.37a4.12,4.12,0,0,0-2.06-.52,4.23,4.23,0,0,0-4.23,4.15A4.28,4.28,0,0,0,1.7,16a4.15,4.15,0,0,0,.88,1.3,4.06,4.06,0,0,0,2.86,1.16H18.15a4.46,4.46,0,0,0,2.27-.65,4.06,4.06,0,0,0,1.76-2.19,6.05,6.05,0,0,0,.4-1.78A7.51,7.51,0,0,0,21.58,9.31Zm.08,4.47a5.17,5.17,0,0,1-.33,1.55,3.48,3.48,0,0,1-.47.92,3.17,3.17,0,0,1-.92.83,3.44,3.44,0,0,1-2,.47H5.44A3.09,3.09,0,0,1,2.31,14.5a3.27,3.27,0,0,1,1-2.3,3.3,3.3,0,0,1,2.32-.93,3.19,3.19,0,0,1,2,.72l.58.45.16-.72a7.45,7.45,0,0,1,.27-.92,6.52,6.52,0,0,1,2.92-3.47,6.65,6.65,0,0,1,5.11-.71,7,7,0,0,1,2.37,1.15,6.77,6.77,0,0,1,1.75,2A6.52,6.52,0,0,1,21.66,13.78Z"/></g></g></g></svg>