<svg xmlns="http://www.w3.org/2000/svg" viewBox="0 0 24 24"><defs><style>.cls-1{fill:none;}.cls-2{fill:#1d1d1b;}</style></defs><g id="Слой_2" data-name="Слой 2"><g id="Line"><g id="CloudStorage_Line" data-name="CloudStorage/Line"><rect class="cls-1" width="24" height="24"/><path class="cls-2" d="M22.58,12.6v.05a6.05,6.05,0,0,1-.4,1.78,4.12,4.12,0,0,1-1.76,2.18,4.43,4.43,0,0,1-2.27.62H15.23v-.92H18a3.65,3.65,0,0,0,1.94-.47,3.13,3.13,0,0,0,1.39-1.75,5,5,0,0,0,.33-1.54,6.53,6.53,0,0,0-.92-4,6.76,6.76,0,0,0-9.23-2.41A6.57,6.57,0,0,0,8.66,9.58a7.45,7.45,0,0,0-.27.92l-.16.72-.58-.46A3.27,3.27,0,0,0,6,10.07a3.2,3.2,0,0,0-1.78.28,3.25,3.25,0,0,0-1.36,1.18,3.21,3.21,0,0,0-.54,1.72,3.06,3.06,0,0,0,.93,2.17,3.13,3.13,0,0,0,2.19.89H8.77v.92H5.43a4,4,0,0,1-2.84-1.16,4,4,0,0,1-1.21-2.82,4.28,4.28,0,0,1,1.27-2.94,4.21,4.21,0,0,1,5-.69c0-.12.08-.25.14-.37A7.56,7.56,0,0,1,11.11,5.3,7.67,7.67,0,0,1,21.57,8.07,7.41,7.41,0,0,1,22.58,12.6Z"/><path class="cls-2" d="M15,13.76l-.15.1a.57.57,0,0,1-.18,0,.51.51,0,0,1-.33-.13l-2-2v7.51a.52.52,0,0,1-.14.32.45.45,0,0,1-.33.14.46.46,0,0,1-.32-.13.47.47,0,0,1-.14-.33V11.76l-2,2a.49.49,0,0,1-.15.1.42.42,0,0,1-.36,0,.65.65,0,0,1-.15-.1.48.48,0,0,1,0-.66l2.77-2.76a.61.61,0,0,1,.16-.12.25.25,0,0,1,.17,0,.23.23,0,0,1,.14,0,.4.4,0,0,1,.15.1L15,13.11a.48.48,0,0,1,.15.32A.44.44,0,0,1,15,13.76Z"/></g></g></g></svg>