<svg xmlns="http://www.w3.org/2000/svg" viewBox="0 0 24 24"><defs><style>.cls-1{fill:none;}.cls-2{fill:#1d1d1b;}</style></defs><g id="Слой_2" data-name="Слой 2"><g id="Line"><g id="Compass_Line" data-name="Compass/Line"><rect class="cls-1" width="24" height="24"/><path class="cls-2" d="M12,14.31a2.3,2.3,0,0,1-2.25-1.86A2.23,2.23,0,0,1,10,10.91a2.31,2.31,0,0,1,2.7-1.12,2.38,2.38,0,0,1,1.25.93,2.29,2.29,0,0,1-.29,2.91,2.27,2.27,0,0,1-.75.51A2.43,2.43,0,0,1,12,14.31Zm0-3.69a1.38,1.38,0,0,0-1,.4,1.41,1.41,0,0,0-.38.71,1.45,1.45,0,0,0,.08.8,1.39,1.39,0,0,0,2.56,0,1.45,1.45,0,0,0,.08-.8A1.34,1.34,0,0,0,13,11,1.38,1.38,0,0,0,12,10.62Z"/><path class="cls-2" d="M18.19,5.8A8.76,8.76,0,1,0,8.65,20.09a8.77,8.77,0,0,0,9.54-1.89,8.76,8.76,0,0,0,0-12.4ZM5.46,15.65a2.43,2.43,0,0,0-.14.48,7.83,7.83,0,0,1-.2-8,7.81,7.81,0,0,1,6.87-4,7.69,7.69,0,0,1,4.09,1.18,1.55,1.55,0,0,0-.48.13L9.26,8A2.27,2.27,0,0,0,8,9.27ZM6.6,17.49a1.35,1.35,0,0,1-.38-.68A1.39,1.39,0,0,1,6.29,16L8.86,9.66a1.27,1.27,0,0,1,.74-.74l6.34-2.65a1.24,1.24,0,0,1,.5-.1,1.4,1.4,0,0,1,.93.39,1.34,1.34,0,0,1,.37.69,1.27,1.27,0,0,1-.08.77L15.1,14.39a1.43,1.43,0,0,1-.74.75L8.09,17.72a1.34,1.34,0,0,1-.79.1A1.27,1.27,0,0,1,6.6,17.49Zm10.94.11a7.83,7.83,0,0,1-9.62,1.09,2.18,2.18,0,0,0,.48-.14L14.73,16A2.26,2.26,0,0,0,16,14.72l2.56-6.37a2.54,2.54,0,0,0,.14-.47,7.87,7.87,0,0,1,1.12,5A8,8,0,0,1,17.54,17.6Z"/></g></g></g></svg>