<svg xmlns="http://www.w3.org/2000/svg" viewBox="0 0 24 24"><defs><style>.cls-1{fill:none;}.cls-2{fill:#1d1d1b;}</style></defs><g id="Слой_2" data-name="Слой 2"><g id="Line"><g id="Computer_Line" data-name="Computer/Line"><rect class="cls-1" width="24" height="24"/><path class="cls-2" d="M21.23,19H2.77a.47.47,0,0,1-.33-.14.48.48,0,0,1-.13-.32.49.49,0,0,1,.13-.33A.47.47,0,0,1,2.77,18H21.23a.47.47,0,0,1,.33.14.49.49,0,0,1,.13.33.45.45,0,0,1-.14.32A.52.52,0,0,1,21.23,19Z"/><path class="cls-2" d="M18.46,5.05H5.54A2.32,2.32,0,0,0,3.23,7.33v7.38a2.28,2.28,0,0,0,.68,1.63A2.32,2.32,0,0,0,5.54,17H18.46a2.32,2.32,0,0,0,1.63-.68,2.28,2.28,0,0,0,.68-1.63V7.33a2.32,2.32,0,0,0-2.31-2.28ZM5.54,6H18.46a1.4,1.4,0,0,1,.8.25,1.39,1.39,0,0,1,.5.67H4.24a1.39,1.39,0,0,1,.5-.67A1.4,1.4,0,0,1,5.54,6Zm14.31,8.73a1.38,1.38,0,0,1-1.39,1.38H5.54a1.38,1.38,0,0,1-1.39-1.38V7.82h15.7Z"/></g></g></g></svg>