<svg xmlns="http://www.w3.org/2000/svg" viewBox="0 0 24 24"><defs><style>.cls-1{fill:none;}.cls-2{fill:#1d1d1b;}</style></defs><g id="Слой_2" data-name="Слой 2"><g id="Line"><g id="Diagram_Line" data-name="Diagram/Line"><rect class="cls-1" width="24" height="24"/><path class="cls-2" d="M11.14,21.69a8.77,8.77,0,0,1,0-17.54h.46V12a.47.47,0,0,0,.14.33.44.44,0,0,0,.32.13H19.9v.47a8.74,8.74,0,0,1-.66,3.35,8.58,8.58,0,0,1-1.9,2.85A8.67,8.67,0,0,1,14.5,21,8.83,8.83,0,0,1,11.14,21.69ZM10.68,5.12A7.93,7.93,0,0,0,6.52,6.64,7.83,7.83,0,1,0,19,13.43H12.06a1.41,1.41,0,0,1-1-.4,1.44,1.44,0,0,1-.4-1Z"/><path class="cls-2" d="M21.63,11.53H13.79a1.38,1.38,0,0,1-1.37-1.38V2.31h.46a8.77,8.77,0,0,1,8.75,8.76ZM13.32,3.22v6.9a.47.47,0,0,0,0,.17.4.4,0,0,0,.1.15.31.31,0,0,0,.15.1.33.33,0,0,0,.17,0h6.91a7.89,7.89,0,0,0-2.29-5,7.55,7.55,0,0,0-4.92-2.3Z"/></g></g></g></svg>