<svg xmlns="http://www.w3.org/2000/svg" viewBox="0 0 24 24"><defs><style>.cls-1{fill:none;}.cls-2{fill:#1d1d1b;}</style></defs><g id="Слой_2" data-name="Слой 2"><g id="Line"><g id="Diamond_Line" data-name="Diamond/Line"><rect class="cls-1" width="24" height="24"/><path class="cls-2" d="M12,15.45a.44.44,0,0,1-.46-.46V11.3a.46.46,0,1,1,.92,0V15a.44.44,0,0,1-.46.46Z"/><path class="cls-2" d="M20.47,8.11,17.38,4.22a1.29,1.29,0,0,0-.48-.39,1.43,1.43,0,0,0-.61-.14H7.73a1.43,1.43,0,0,0-.61.14,1.29,1.29,0,0,0-.48.39L3.52,8.11A1.39,1.39,0,0,0,3.23,9a1.36,1.36,0,0,0,.29.84l7.38,10a1.29,1.29,0,0,0,.49.41,1.32,1.32,0,0,0,.62.15,1.35,1.35,0,0,0,.62-.15,1.29,1.29,0,0,0,.49-.41L20.5,9.8A1.35,1.35,0,0,0,20.77,9,1.43,1.43,0,0,0,20.47,8.11ZM16.74,5l2.88,3.64H13.15Zm-1-.29L12,8.44,8.34,4.66ZM7.25,5l3.59,3.64H4.38ZM12.34,19.2a.4.4,0,0,1-.16.13.54.54,0,0,1-.21.05.46.46,0,0,1-.2-.05.43.43,0,0,1-.17-.13L4.39,9.46h15.2Z"/></g></g></g></svg>