<svg xmlns="http://www.w3.org/2000/svg" viewBox="0 0 24 24"><defs><style>.cls-1{fill:none;}.cls-2{fill:#1d1d1b;}</style></defs><g id="Слой_2" data-name="Слой 2"><g id="Line"><g id="Disk_Line" data-name="Disk/Line"><rect class="cls-1" width="24" height="24"/><path class="cls-2" d="M12,20.77a8.77,8.77,0,1,1,6.2-2.57A8.72,8.72,0,0,1,12,20.77ZM12,4.15a7.84,7.84,0,0,0-7.69,9.38,7.84,7.84,0,0,0,14.21,2.83A7.8,7.8,0,0,0,19.85,12,7.89,7.89,0,0,0,12,4.15Z"/><path class="cls-2" d="M12,14.31a2.32,2.32,0,0,1-1.28-.39,2.31,2.31,0,0,1-1-2.37,2.3,2.3,0,0,1,1.81-1.81,2.31,2.31,0,0,1,2.37,1A2.32,2.32,0,0,1,14.31,12,2.32,2.32,0,0,1,12,14.31Zm0-3.69a1.38,1.38,0,0,0-1.28.85A1.38,1.38,0,0,0,11,13a1.41,1.41,0,0,0,.71.38,1.45,1.45,0,0,0,.8-.08,1.34,1.34,0,0,0,.62-.51A1.38,1.38,0,0,0,12,10.62Z"/><path class="cls-2" d="M14.79,10a.39.39,0,0,1-.18,0,.45.45,0,0,1-.14-.1.42.42,0,0,1-.11-.15.55.55,0,0,1,0-.36.72.72,0,0,1,.11-.15l1.84-1.84a.44.44,0,0,1,.32-.13.44.44,0,0,1,.33.13.4.4,0,0,1,.1.15.48.48,0,0,1,0,.18.47.47,0,0,1,0,.17A.4.4,0,0,1,17,8L15.11,9.86A.4.4,0,0,1,15,10,.33.33,0,0,1,14.79,10Z"/></g></g></g></svg>