<svg xmlns="http://www.w3.org/2000/svg" viewBox="0 0 24 24"><defs><style>.cls-1{fill:none;}.cls-2{fill:#1d1d1b;}</style></defs><g id="Слой_2" data-name="Слой 2"><g id="Line"><g id="Diskette_Line" data-name="Diskette/Line"><rect class="cls-1" width="24" height="24"/><path class="cls-2" d="M16.15,15.38H7.85a.45.45,0,0,1-.33-.14.42.42,0,0,1-.13-.32.46.46,0,0,1,.13-.33.44.44,0,0,1,.33-.13h8.3a.44.44,0,0,1,.33.13.46.46,0,0,1,.13.33.42.42,0,0,1-.13.32A.45.45,0,0,1,16.15,15.38Z"/><path class="cls-2" d="M16.15,18.19H7.85a.44.44,0,0,1-.46-.46.42.42,0,0,1,.13-.32.45.45,0,0,1,.33-.14h8.3a.45.45,0,0,1,.33.14.42.42,0,0,1,.13.32.44.44,0,0,1-.46.46Z"/><path class="cls-2" d="M18.46,3.23H5.54A2.32,2.32,0,0,0,3.23,5.54V18.46a2.32,2.32,0,0,0,2.31,2.31H18.46a2.32,2.32,0,0,0,2.31-2.31V5.54a2.32,2.32,0,0,0-2.31-2.31Zm-2.31.92v6a.44.44,0,0,1-.13.33.45.45,0,0,1-.33.14H8.31A.45.45,0,0,1,8,10.48a.44.44,0,0,1-.13-.33v-6Zm3.7,14.31a1.4,1.4,0,0,1-1.39,1.39H5.54a1.4,1.4,0,0,1-1.39-1.39V5.54A1.4,1.4,0,0,1,5.54,4.15H6.92v6a1.4,1.4,0,0,0,1.39,1.39h7.38a1.4,1.4,0,0,0,1.39-1.39v-6h1.38a1.4,1.4,0,0,1,1.39,1.39Z"/><path class="cls-2" d="M14.78,9.73a.47.47,0,0,1-.33-.14.42.42,0,0,1-.13-.32V5.58a.44.44,0,0,1,.13-.33.46.46,0,0,1,.66,0,.49.49,0,0,1,.13.33V9.27a.48.48,0,0,1-.46.46Z"/></g></g></g></svg>