<svg xmlns="http://www.w3.org/2000/svg" viewBox="0 0 24 24"><defs><style>.cls-1{fill:none;}.cls-2{fill:#1d1d1b;}</style></defs><g id="Слой_2" data-name="Слой 2"><g id="Line"><g id="Document_NotFound_Line" data-name="Document/NotFound/Line"><rect class="cls-1" width="24" height="24"/><path class="cls-2" d="M13.54,10H7.08a.42.42,0,0,1-.32-.13.45.45,0,0,1-.14-.33.48.48,0,0,1,.46-.46h6.46a.47.47,0,0,1,.33.14.55.55,0,0,1,.14.32.45.45,0,0,1-.14.33A.44.44,0,0,1,13.54,10Z"/><path class="cls-2" d="M13.54,12.87H7.08a.43.43,0,0,1-.32-.14.45.45,0,0,1-.14-.33.48.48,0,0,1,.46-.46h6.46a.45.45,0,0,1,.33.14.43.43,0,0,1,.14.32.48.48,0,0,1-.47.47Z"/><path class="cls-2" d="M13.54,7.13H7.08A.42.42,0,0,1,6.76,7a.47.47,0,0,1-.14-.33.48.48,0,0,1,.46-.46h6.46a.45.45,0,0,1,.33.14.43.43,0,0,1,.14.32.47.47,0,0,1-.14.33A.44.44,0,0,1,13.54,7.13Z"/><path class="cls-2" d="M18.39,18.71a.4.4,0,0,1,.12.23.5.5,0,0,1,0,.27.55.55,0,0,1-.17.2.46.46,0,0,1-.58-.05l-1-1-1,1a.47.47,0,0,1-.34.13.44.44,0,0,1-.32-.13.45.45,0,0,1-.1-.14.43.43,0,0,1,0-.36.4.4,0,0,1,.1-.15l1-1-1-1a.44.44,0,0,1-.14-.33.43.43,0,0,1,.14-.32.46.46,0,0,1,.66,0l1,1,1-1A.42.42,0,0,1,17.9,16l.18,0a.47.47,0,0,1,.17,0,.42.42,0,0,1,.15.11.4.4,0,0,1,.1.15.47.47,0,0,1,0,.17.48.48,0,0,1,0,.18.4.4,0,0,1-.1.15l-1,1Z"/><path class="cls-2" d="M17.88,13.62V4.54a2.3,2.3,0,0,0-2.31-2.31H5.42A2.32,2.32,0,0,0,3.11,4.54V17.46a2.32,2.32,0,0,0,2.31,2.31h7.76a4.16,4.16,0,0,0,1.42,1.41,4.06,4.06,0,0,0,1.91.58,4.11,4.11,0,0,0,2-.37A4.24,4.24,0,0,0,20,20.14a4.06,4.06,0,0,0,.8-1.84,4.2,4.2,0,0,0-.15-2,4.19,4.19,0,0,0-2.8-2.69Zm-5.12,5.23H5.42A1.38,1.38,0,0,1,4,17.46V4.54A1.37,1.37,0,0,1,5.42,3.16H15.57A1.38,1.38,0,0,1,17,4.54v8.93h-.19a4.18,4.18,0,0,0-1.87.44,4.32,4.32,0,0,0-1.47,1.25,4.1,4.1,0,0,0-.75,1.77,4.2,4.2,0,0,0,.12,1.93Zm4,2a3.23,3.23,0,0,1-1.3-.28,3.06,3.06,0,0,1-1.09-.79,3.08,3.08,0,0,1-.82-2.48,3.15,3.15,0,0,1,.53-1.47,3.28,3.28,0,0,1,1.16-1.06,3.23,3.23,0,0,1,1.52-.38H17a3.3,3.3,0,0,1,.92.2A3.25,3.25,0,0,1,20,18.2a3.27,3.27,0,0,1-1.12,1.9A3.2,3.2,0,0,1,16.77,20.84Z"/></g></g></g></svg>