<svg xmlns="http://www.w3.org/2000/svg" viewBox="0 0 24 24"><defs><style>.cls-1{fill:none;}.cls-2{fill:#1d1d1b;}</style></defs><g id="Слой_2" data-name="Слой 2"><g id="Line"><g id="Document_Search_Line" data-name="Document/Search/Line"><rect class="cls-1" width="24" height="24"/><path class="cls-2" d="M6.71,8.89H5.79a.46.46,0,0,0-.46.46v.92a.47.47,0,0,0,.46.46h.92a.47.47,0,0,0,.47-.46V9.35A.46.46,0,0,0,6.71,8.89Z"/><path class="cls-2" d="M10.41,8.89H9.48A.46.46,0,0,0,9,9.35v.92a.47.47,0,0,0,.46.46h.93a.47.47,0,0,0,.46-.46V9.35A.46.46,0,0,0,10.41,8.89Z"/><path class="cls-2" d="M14.1,8.89h-.92a.46.46,0,0,0-.47.46v.92a.47.47,0,0,0,.47.46h.92a.47.47,0,0,0,.46-.46V9.35A.46.46,0,0,0,14.1,8.89Z"/><path class="cls-2" d="M21.2,21.49l-1.72-1.72a4.2,4.2,0,0,0,.88-1.84,4.27,4.27,0,0,0-.1-2,4.17,4.17,0,0,0-2.82-2.77V4a2.32,2.32,0,0,0-2.31-2.31H5A2.32,2.32,0,0,0,2.67,4V17A2.32,2.32,0,0,0,5,19.27h7.76a4.14,4.14,0,0,0,1.51,1.46,4.17,4.17,0,0,0,4.56-.32l1.73,1.73a.54.54,0,0,0,.16.1.47.47,0,0,0,.17,0,.57.57,0,0,0,.18,0,.65.65,0,0,0,.15-.1.51.51,0,0,0,.13-.33A.46.46,0,0,0,21.2,21.49Zm-8.88-3.14H4.93a1.4,1.4,0,0,1-1-.41,1.38,1.38,0,0,1-.4-1V4a1.39,1.39,0,0,1,.41-1,1.42,1.42,0,0,1,1-.41H15.09a1.4,1.4,0,0,1,1,.41,1.38,1.38,0,0,1,.4,1V13h-.23a4.06,4.06,0,0,0-1.87.45,4.18,4.18,0,0,0-2.23,3,4.35,4.35,0,0,0,.13,1.93Zm1.58.92a3.14,3.14,0,0,1-.61-.92,3.32,3.32,0,0,1-.22-1.56,3.27,3.27,0,0,1,.53-1.47,3.36,3.36,0,0,1,1.16-1.06,3.27,3.27,0,0,1,1.53-.38h.23a3.22,3.22,0,0,1,.92.2,3.28,3.28,0,0,1,1.21.8,3.17,3.17,0,0,1,.73,1.25,3.25,3.25,0,0,1,.12,1.45,3.25,3.25,0,0,1-3,2.75,3.18,3.18,0,0,1-2.61-1.07Z"/></g></g></g></svg>