<svg xmlns="http://www.w3.org/2000/svg" viewBox="0 0 24 24"><defs><style>.cls-1{fill:none;}.cls-2{fill:#1d1d1b;}</style></defs><g id="Слой_2" data-name="Слой 2"><g id="Line"><g id="Document_Found_Line" data-name="Document/Found/Line"><rect class="cls-1" width="24" height="24"/><path class="cls-2" d="M13.54,10H7.08a.42.42,0,0,1-.32-.13.45.45,0,0,1-.14-.33.48.48,0,0,1,.46-.46h6.46a.47.47,0,0,1,.33.14.48.48,0,0,1,.13.32.44.44,0,0,1-.46.46Z"/><path class="cls-2" d="M13.54,12.87H7.08a.43.43,0,0,1-.32-.14.45.45,0,0,1-.14-.33.45.45,0,0,1,.14-.32.43.43,0,0,1,.32-.14h6.46a.45.45,0,0,1,.33.14.44.44,0,0,1,.13.32.44.44,0,0,1-.13.33A.45.45,0,0,1,13.54,12.87Z"/><path class="cls-2" d="M13.54,7.13H7.08A.42.42,0,0,1,6.76,7a.47.47,0,0,1-.14-.33.48.48,0,0,1,.46-.46h6.46a.45.45,0,0,1,.33.14.42.42,0,0,1,.13.32.46.46,0,0,1-.13.33A.44.44,0,0,1,13.54,7.13Z"/><path class="cls-2" d="M17.88,13.62V4.54a2.31,2.31,0,0,0-.67-1.63,2.34,2.34,0,0,0-1.64-.68H5.42a2.36,2.36,0,0,0-1.63.68,2.32,2.32,0,0,0-.68,1.63V17.46a2.32,2.32,0,0,0,2.31,2.31h7.76a4.16,4.16,0,0,0,1.42,1.41,4.06,4.06,0,0,0,1.91.58,4.11,4.11,0,0,0,2-.37A4.24,4.24,0,0,0,20,20.14a4.16,4.16,0,0,0-2.15-6.52Zm-5.12,5.23H5.42A1.38,1.38,0,0,1,4,17.46V4.54A1.37,1.37,0,0,1,5.42,3.16H15.57A1.38,1.38,0,0,1,17,4.54v8.93h-.19a4.06,4.06,0,0,0-1.87.45,4.19,4.19,0,0,0-1.47,1.24,4.1,4.1,0,0,0-.75,1.77,4.19,4.19,0,0,0,.12,1.93Zm4,2a3.32,3.32,0,0,1-1.31-.28,3.11,3.11,0,0,1-1.08-.79,3.32,3.32,0,0,1-.6-.92,3.19,3.19,0,0,1-.22-1.56,3.15,3.15,0,0,1,.53-1.47,3.19,3.19,0,0,1,1.16-1.06,3.23,3.23,0,0,1,1.52-.38H17a3.29,3.29,0,0,1,.93.2A3.25,3.25,0,0,1,19.61,16,3.19,3.19,0,0,1,20,18.2a3.27,3.27,0,0,1-1.12,1.9A3.2,3.2,0,0,1,16.77,20.84Z"/><path class="cls-2" d="M16.72,18.88a.84.84,0,0,1-.35-.07,1,1,0,0,1-.3-.2l-.82-.83a.45.45,0,1,1,.64-.64l.82.81,1.76-1.74a.47.47,0,0,1,.33-.13.46.46,0,0,1,.32.13.47.47,0,0,1,.14.33.45.45,0,0,1-.14.33l-1.73,1.74a1.1,1.1,0,0,1-.31.2A.86.86,0,0,1,16.72,18.88Z"/></g></g></g></svg>