<svg xmlns="http://www.w3.org/2000/svg" viewBox="0 0 24 24"><defs><style>.cls-1{fill:none;}.cls-2{fill:#1d1d1b;}</style></defs><g id="Слой_2" data-name="Слой 2"><g id="Line"><g id="Document_Favorites_Line" data-name="Document/Favorites/Line"><rect class="cls-1" width="24" height="24"/><path class="cls-2" d="M11.93,3.23h-5a2.28,2.28,0,0,0-1.63.68,2.32,2.32,0,0,0-.68,1.63V18.46a2.32,2.32,0,0,0,.68,1.63,2.28,2.28,0,0,0,1.63.68H17.08a2.28,2.28,0,0,0,1.63-.68,2.32,2.32,0,0,0,.68-1.63V10.7Zm.21,1.52,5.74,5.75H12.14Zm6.32,13.71a1.38,1.38,0,0,1-.4,1,1.4,1.4,0,0,1-1,.41H6.92a1.4,1.4,0,0,1-1-.41,1.38,1.38,0,0,1-.4-1V5.54a1.38,1.38,0,0,1,.4-1,1.4,1.4,0,0,1,1-.41h4.29v7.27h7.25Z"/></g></g></g></svg>