<svg xmlns="http://www.w3.org/2000/svg" viewBox="0 0 24 24"><defs><style>.cls-1{fill:none;}.cls-2{fill:#1d1d1b;}</style></defs><g id="Слой_2" data-name="Слой 2"><g id="Line"><g id="Document_Line" data-name="Document/Line"><rect class="cls-1" width="24" height="24"/><path class="cls-2" d="M17.08,20.77H6.92a2.34,2.34,0,0,1-1.63-.68,2.36,2.36,0,0,1-.68-1.63V5.54a2.32,2.32,0,0,1,.68-1.63,2.28,2.28,0,0,1,1.63-.68H17.08a2.3,2.3,0,0,1,2.3,2.31V18.46a2.31,2.31,0,0,1-.67,1.63A2.34,2.34,0,0,1,17.08,20.77ZM6.92,4.15A1.38,1.38,0,0,0,5.54,5.54V18.46a1.39,1.39,0,0,0,.41,1,1.42,1.42,0,0,0,1,.41H17.08a1.4,1.4,0,0,0,1-.41,1.42,1.42,0,0,0,.4-1V5.54a1.42,1.42,0,0,0-.4-1,1.4,1.4,0,0,0-1-.41Z"/><path class="cls-2" d="M15.23,11.12H8.77A.46.46,0,0,1,8.44,11a.51.51,0,0,1-.13-.33.46.46,0,0,1,.13-.32.47.47,0,0,1,.33-.14h6.46a.47.47,0,0,1,.33.14.46.46,0,0,1,.13.32.51.51,0,0,1-.13.33A.46.46,0,0,1,15.23,11.12Z"/><path class="cls-2" d="M15.23,14H8.77a.44.44,0,0,1-.46-.46.46.46,0,0,1,.13-.32.47.47,0,0,1,.33-.14h6.46a.47.47,0,0,1,.33.14.46.46,0,0,1,.13.32.49.49,0,0,1-.13.33A.46.46,0,0,1,15.23,14Z"/><path class="cls-2" d="M15.23,8.26H8.77a.47.47,0,0,1-.33-.79.51.51,0,0,1,.33-.13h6.46a.47.47,0,0,1,.33.79A.51.51,0,0,1,15.23,8.26Z"/></g></g></g></svg>