<svg xmlns="http://www.w3.org/2000/svg" viewBox="0 0 24 24"><defs><style>.cls-1{fill:none;}.cls-2{fill:#1d1d1b;}</style></defs><g id="Слой_2" data-name="Слой 2"><g id="Line"><g id="Edit_Line" data-name="Edit/Line"><rect class="cls-1" width="24" height="24"/><path class="cls-2" d="M21.42,3.8,21,3.24a1.31,1.31,0,0,0-.36-.3,1.19,1.19,0,0,0-.44-.14,1.24,1.24,0,0,0-.47.05,1.17,1.17,0,0,0-.41.22L12.5,8.54a1.29,1.29,0,0,0-.39.56.74.74,0,0,0-.46.31l-1.4,2.08a.68.68,0,0,0-.12.44.74.74,0,0,0,.16.41.67.67,0,0,0,.22.19.79.79,0,0,0,.26.08.82.82,0,0,0,.35,0l2.33-.93a.6.6,0,0,0,.25-.16.8.8,0,0,0,.16-.26,1.19,1.19,0,0,0,.59-.25l6.79-5.5a1.16,1.16,0,0,0,.3-.36,1.26,1.26,0,0,0,.14-.44A1.23,1.23,0,0,0,21.42,3.8Zm-10,7.66.93-1.3.5.62.08.1Zm2.49-1.22a.28.28,0,0,1-.19.07.26.26,0,0,1-.19-.07L13,9.68a.31.31,0,0,1,0-.21.14.14,0,0,1,0-.09.16.16,0,0,1,.06-.08l5.84-4.73L19.64,4l.23-.19a.29.29,0,0,1,.18-.07.32.32,0,0,1,.19.07l.46.57a.26.26,0,0,1,.06.19.3.3,0,0,1-.1.19l-.23.18Z"/><path class="cls-2" d="M19.86,9.43V18.9a2.3,2.3,0,0,1-2.31,2.3H4.63A2.33,2.33,0,0,1,3,20.53a2.31,2.31,0,0,1-.67-1.63V6a2.32,2.32,0,0,1,2.31-2.3H15v.92H4.63a1.38,1.38,0,0,0-1,.4,1.42,1.42,0,0,0-.41,1V18.9a1.4,1.4,0,0,0,.41,1,1.38,1.38,0,0,0,1,.4H17.55a1.38,1.38,0,0,0,1-.4,1.39,1.39,0,0,0,.4-1V9.43Z"/></g></g></g></svg>