<svg xmlns="http://www.w3.org/2000/svg" viewBox="0 0 24 24"><defs><style>.cls-1{fill:none;}.cls-2{fill:#1d1d1b;}</style></defs><g id="Слой_2" data-name="Слой 2"><g id="Line"><g id="Entrance_Line" data-name="Entrance/Line"><rect class="cls-1" width="24" height="24"/><path class="cls-2" d="M19.36,5.54V18.46a2.3,2.3,0,0,1-2.31,2.31H9.67a2.32,2.32,0,0,1-2.31-2.31V14.77h.92v3.69a1.4,1.4,0,0,0,1.39,1.39h7.38a1.4,1.4,0,0,0,1.39-1.39V5.54a1.39,1.39,0,0,0-.41-1,1.43,1.43,0,0,0-1-.41H9.67A1.4,1.4,0,0,0,8.28,5.54V9.23H7.36V5.54A2.32,2.32,0,0,1,9.67,3.23h7.38a2.3,2.3,0,0,1,2.31,2.31Z"/><path class="cls-2" d="M13.87,12.08a.77.77,0,0,1-.19.34l-.15.14L11.06,15a.45.45,0,0,1-.14.1.39.39,0,0,1-.18,0,.47.47,0,0,1-.3-.14.53.53,0,0,1-.11-.15.56.56,0,0,1,0-.36.72.72,0,0,1,.11-.15l1.84-1.89H5.1a.46.46,0,1,1,0-.92h7.24l-1.9-1.93a.53.53,0,0,1-.11-.15.56.56,0,0,1,0-.36A.72.72,0,0,1,10.44,9a.45.45,0,0,1,.14-.1.58.58,0,0,1,.18,0,.47.47,0,0,1,.17,0,.4.4,0,0,1,.15.1l2.61,2.61a.65.65,0,0,1,.15.23A.63.63,0,0,1,13.87,12.08Z"/></g></g></g></svg>