<svg xmlns="http://www.w3.org/2000/svg" viewBox="0 0 24 24"><defs><style>.cls-1{fill:none;}.cls-2{fill:#1d1d1b;}</style></defs><g id="Слой_2" data-name="Слой 2"><g id="Line"><g id="Error_Line" data-name="Error/Line"><rect class="cls-1" width="24" height="24"/><path class="cls-2" d="M19.85,20.77H4.15a1.38,1.38,0,0,1-.68-.18A1.47,1.47,0,0,1,3,20.1a1.37,1.37,0,0,1-.19-.68,1.34,1.34,0,0,1,.16-.68L10.77,4a1.47,1.47,0,0,1,.51-.54,1.38,1.38,0,0,1,1.43,0,1.47,1.47,0,0,1,.51.54l7.85,14.77a1.33,1.33,0,0,1,.15.68,1.37,1.37,0,0,1-.19.68,1.47,1.47,0,0,1-.5.49A1.36,1.36,0,0,1,19.85,20.77ZM12,4.15a.51.51,0,0,0-.24.07.49.49,0,0,0-.17.18L3.75,19.17a.46.46,0,0,0-.06.23.4.4,0,0,0,.06.22.37.37,0,0,0,.17.16.62.62,0,0,0,.23.07H19.84a.57.57,0,0,0,.22-.07.37.37,0,0,0,.17-.16.4.4,0,0,0,.06-.22.46.46,0,0,0-.06-.23L12.39,4.4a.44.44,0,0,0-.16-.17A.49.49,0,0,0,12,4.15Z"/><path class="cls-2" d="M13.6,15.66a.55.55,0,0,1,.12.24.39.39,0,0,1,0,.26.42.42,0,0,1-.16.21.5.5,0,0,1-.26.08.48.48,0,0,1-.32-.13l-1-1-1,1a.46.46,0,0,1-.64,0,.31.31,0,0,1-.1-.15.43.43,0,0,1,0-.36.44.44,0,0,1,.1-.15l1-1-1-1a.44.44,0,0,1-.1-.15.43.43,0,0,1,0-.36.36.36,0,0,1,.1-.15.46.46,0,0,1,.64,0l1,1,1-1a.48.48,0,0,1,.32-.13.46.46,0,0,1,.32.13.53.53,0,0,1,.11.15.56.56,0,0,1,0,.36.72.72,0,0,1-.11.15l-.95,1Z"/></g></g></g></svg>