<svg xmlns="http://www.w3.org/2000/svg" viewBox="0 0 24 24"><defs><style>.cls-1{fill:none;}.cls-2{fill:#1d1d1b;}</style></defs><g id="Слой_2" data-name="Слой 2"><g id="Line"><g id="Exit_Line" data-name="Exit/Line"><rect class="cls-1" width="24" height="24"/><path class="cls-2" d="M20.75,5.54V18.46a2.32,2.32,0,0,1-.68,1.63,2.28,2.28,0,0,1-1.63.68H11.05a2.3,2.3,0,0,1-2.3-2.31V14.77h.92v3.69a1.42,1.42,0,0,0,.4,1,1.4,1.4,0,0,0,1,.41h7.39a1.38,1.38,0,0,0,1.38-1.39V5.54a1.38,1.38,0,0,0-1.38-1.39H11.05a1.4,1.4,0,0,0-1,.41,1.42,1.42,0,0,0-.4,1V9.23H8.75V5.54a2.3,2.3,0,0,1,2.3-2.31h7.39a2.28,2.28,0,0,1,1.63.68A2.32,2.32,0,0,1,20.75,5.54Z"/><path class="cls-2" d="M3.26,11.92a.72.72,0,0,1,.19-.34l.15-.14L6.06,9a.49.49,0,0,1,.15-.1.39.39,0,0,1,.18,0,.49.49,0,0,1,.3.14.36.36,0,0,1,.1.15.43.43,0,0,1,0,.36.44.44,0,0,1-.1.15L4.85,11.52H12a.46.46,0,0,1,.32.13.46.46,0,0,1,0,.66.46.46,0,0,1-.32.13H4.79l1.9,1.93a.36.36,0,0,1,.1.15.43.43,0,0,1,0,.36.44.44,0,0,1-.1.15.4.4,0,0,1-.15.1.47.47,0,0,1-.17,0,.58.58,0,0,1-.18,0,.45.45,0,0,1-.14-.1L3.43,12.41a.64.64,0,0,1-.14-.22A.63.63,0,0,1,3.26,11.92Z"/></g></g></g></svg>