<svg xmlns="http://www.w3.org/2000/svg" viewBox="0 0 24 24"><defs><style>.cls-1{fill:none;}.cls-2{fill:#1d1d1b;}</style></defs><g id="Слой_2" data-name="Слой 2"><g id="Line"><g id="Film_Line" data-name="Film/Line"><rect class="cls-1" width="24" height="24"/><path class="cls-2" d="M18.46,19.39H5.54a2.36,2.36,0,0,1-1.63-.68,2.34,2.34,0,0,1-.68-1.63V6.92a2.34,2.34,0,0,1,.68-1.63,2.36,2.36,0,0,1,1.63-.68H18.46a2.32,2.32,0,0,1,1.63.68,2.28,2.28,0,0,1,.68,1.63V17.08a2.28,2.28,0,0,1-.68,1.63A2.32,2.32,0,0,1,18.46,19.39ZM5.54,5.54a1.39,1.39,0,0,0-1,.41,1.42,1.42,0,0,0-.41,1V17.08a1.4,1.4,0,0,0,.41,1,1.38,1.38,0,0,0,1,.4H18.46a1.38,1.38,0,0,0,1-.4,1.4,1.4,0,0,0,.41-1V6.92a1.4,1.4,0,0,0-.41-1,1.38,1.38,0,0,0-1-.4Z"/><path class="cls-2" d="M13.85,12.46h-3.7a.46.46,0,0,1-.32-.13A.47.47,0,0,1,9.69,12a.43.43,0,0,1,.14-.32.45.45,0,0,1,.32-.14h3.7a.48.48,0,0,1,.32.13.46.46,0,0,1,0,.66A.48.48,0,0,1,13.85,12.46Z"/><path class="cls-2" d="M7.84,8.77V7.85a.46.46,0,0,0-.46-.46H6.45A.46.46,0,0,0,6,7.85v.92a.47.47,0,0,0,.46.46h.93A.47.47,0,0,0,7.84,8.77Z"/><path class="cls-2" d="M7.84,12.46v-.92a.46.46,0,0,0-.46-.46H6.45a.46.46,0,0,0-.46.46v.92a.46.46,0,0,0,.46.46h.93A.46.46,0,0,0,7.84,12.46Z"/><path class="cls-2" d="M7.84,16.15v-.92a.47.47,0,0,0-.46-.46H6.45a.47.47,0,0,0-.46.46v.92a.46.46,0,0,0,.46.46h.93A.46.46,0,0,0,7.84,16.15Z"/><path class="cls-2" d="M18,8.77V7.85a.46.46,0,0,0-.46-.46h-.93a.46.46,0,0,0-.46.46v.92a.47.47,0,0,0,.46.46h.93A.47.47,0,0,0,18,8.77Z"/><path class="cls-2" d="M18,12.46v-.92a.46.46,0,0,0-.46-.46h-.93a.46.46,0,0,0-.46.46v.92a.46.46,0,0,0,.46.46h.93A.46.46,0,0,0,18,12.46Z"/><path class="cls-2" d="M18,16.15v-.92a.47.47,0,0,0-.46-.46h-.93a.47.47,0,0,0-.46.46v.92a.46.46,0,0,0,.46.46h.93A.46.46,0,0,0,18,16.15Z"/></g></g></g></svg>