<svg xmlns="http://www.w3.org/2000/svg" viewBox="0 0 24 24"><defs><style>.cls-1{fill:none;}.cls-2{fill:#1d1d1b;}</style></defs><g id="Слой_2" data-name="Слой 2"><g id="Line"><g id="Filter_Line" data-name="Filter/Line"><rect class="cls-1" width="24" height="24"/><path class="cls-2" d="M20.31,7.44H11a2,2,0,0,0-.67-1.13,1.93,1.93,0,0,0-2.48,0,2,2,0,0,0-.67,1.13H3.69a.43.43,0,0,0-.32.14.45.45,0,0,0-.14.33.45.45,0,0,0,.14.32.47.47,0,0,0,.32.14H7.15a2,2,0,0,0,.68,1.11,1.94,1.94,0,0,0,2.46,0A2,2,0,0,0,11,8.37h9.34a.48.48,0,0,0,.46-.46.45.45,0,0,0-.14-.33A.43.43,0,0,0,20.31,7.44ZM10,8.37a1.24,1.24,0,0,1-.42.4,1,1,0,0,1-1.06,0,1.09,1.09,0,0,1-.37-.4A.93.93,0,0,1,8,7.91a.94.94,0,0,1,.12-.47A1.07,1.07,0,0,1,8.52,7a1,1,0,0,1,.54-.15A1,1,0,0,1,9.61,7a1.07,1.07,0,0,1,.38.41.94.94,0,0,1,.12.47A.93.93,0,0,1,10,8.37Z"/><path class="cls-2" d="M20.31,11.58H18.74a2,2,0,0,0-.67-1.12A1.91,1.91,0,0,0,16.84,10a1.89,1.89,0,0,0-1.23.44,1.87,1.87,0,0,0-.67,1.12H3.69a.46.46,0,0,0,0,.92H15a1.9,1.9,0,0,0,.71,1,1.94,1.94,0,0,0,1.14.37A2,2,0,0,0,18,13.46a1.89,1.89,0,0,0,.7-1h1.61a.44.44,0,0,0,.46-.46.43.43,0,0,0-.12-.31A.46.46,0,0,0,20.31,11.58Zm-2.62.92a1,1,0,0,1-.37.35,1,1,0,0,1-.48.13,1.05,1.05,0,0,1-.49-.13A.93.93,0,0,1,16,12.5a1,1,0,0,1-.17-.55,1,1,0,0,1,.08-.37.93.93,0,0,1,.37-.44,1,1,0,0,1,.55-.17,1,1,0,0,1,.55.17,1.06,1.06,0,0,1,.37.44,1.17,1.17,0,0,1,.08.37A1,1,0,0,1,17.69,12.5Z"/><path class="cls-2" d="M20.31,15.75H9.55a2,2,0,0,0-.68-1.08,1.94,1.94,0,0,0-2.41,0,2,2,0,0,0-.68,1.08H3.69a.48.48,0,0,0-.46.46.45.45,0,0,0,.14.33.46.46,0,0,0,.32.13H5.78a1.94,1.94,0,0,0,3.08,1.06,1.87,1.87,0,0,0,.69-1.06H20.31a.42.42,0,0,0,.32-.13.45.45,0,0,0,.14-.33.48.48,0,0,0-.46-.46ZM7.66,17.23a1.11,1.11,0,0,1-.54-.14,1,1,0,0,1-.38-.42.88.88,0,0,1-.13-.46.94.94,0,0,1,.13-.46,1,1,0,0,1,.38-.42.93.93,0,0,1,.54-.14,1,1,0,0,1,.54.15.94.94,0,0,1,.38.41.84.84,0,0,1,.13.46.8.8,0,0,1-.13.46,1,1,0,0,1-.38.4A1.17,1.17,0,0,1,7.66,17.23Z"/></g></g></g></svg>