<svg xmlns="http://www.w3.org/2000/svg" viewBox="0 0 24 24"><defs><style>.cls-1{fill:none;}.cls-2{fill:#1d1d1b;}</style></defs><g id="Слой_2" data-name="Слой 2"><g id="Line"><g id="Flag_Rectangular_Line" data-name="Flag/Rectangular/Line"><rect class="cls-1" width="24" height="24"/><path class="cls-2" d="M14.83,7.56l1.85-2a.73.73,0,0,0,.16-.76,1.1,1.1,0,0,0-.41-.42,1,1,0,0,0-.57-.13H8V3.69a.48.48,0,0,0-.46-.46.47.47,0,0,0-.33.14.46.46,0,0,0-.13.32V20.31a.42.42,0,0,0,.13.32.45.45,0,0,0,.33.14A.48.48,0,0,0,8,20.31V10.86h7.8a.94.94,0,0,0,.57-.12,1,1,0,0,0,.42-.41.89.89,0,0,0,0-.43.75.75,0,0,0-.2-.37ZM8,9.94V5.13h7.79L13.57,7.56l2.24,2.36Z"/></g></g></g></svg>