<svg xmlns="http://www.w3.org/2000/svg" viewBox="0 0 24 24"><defs><style>.cls-1{fill:none;}.cls-2{fill:#1d1d1b;}</style></defs><g id="Слой_2" data-name="Слой 2"><g id="Line"><g id="Flag_Triangular_Line" data-name="Flag/Triangular/Line"><rect class="cls-1" width="24" height="24"/><path class="cls-2" d="M16,7.38,9.26,4a1.42,1.42,0,0,0-1.09-.07v-.2A.42.42,0,0,0,8,3.37a.45.45,0,0,0-.33-.14.48.48,0,0,0-.46.46V20.31a.48.48,0,0,0,.46.46A.47.47,0,0,0,8,20.63a.46.46,0,0,0,.13-.32v-7a1.5,1.5,0,0,0,.47.08,1.35,1.35,0,0,0,.62-.15L16,9.85a1.38,1.38,0,0,0,.56-.51,1.35,1.35,0,0,0,.21-.73A1.39,1.39,0,0,0,16,7.38ZM15.56,9l-6.72,3.4a.36.36,0,0,1-.22.07.34.34,0,0,1-.22-.07.37.37,0,0,1-.17-.16.46.46,0,0,1-.06-.22V5.2a.52.52,0,0,1,.14-.32.47.47,0,0,1,.33-.14.29.29,0,0,1,.2,0L15.56,8.2a.44.44,0,0,1,.19.17.42.42,0,0,1,.07.24.45.45,0,0,1-.07.25A.55.55,0,0,1,15.56,9Z"/></g></g></g></svg>