<svg xmlns="http://www.w3.org/2000/svg" viewBox="0 0 24 24"><defs><style>.cls-1{fill:none;}.cls-2{fill:#1d1d1b;}</style></defs><g id="Слой_2" data-name="Слой 2"><g id="Line"><g id="Folder_Line" data-name="Folder/Line"><rect class="cls-1" width="24" height="24"/><path class="cls-2" d="M17.1,7.38H13.4a.48.48,0,0,1-.46-.46.45.45,0,0,1,.14-.33.52.52,0,0,1,.32-.14h3.7a.45.45,0,0,1,.32.14.45.45,0,0,1,.14.33.43.43,0,0,1-.14.32A.45.45,0,0,1,17.1,7.38Z"/><path class="cls-2" d="M17.1,9.18H13.4a.48.48,0,0,1-.46-.46.45.45,0,0,1,.14-.33.52.52,0,0,1,.32-.14h3.7a.45.45,0,0,1,.32.14.45.45,0,0,1,.14.33.43.43,0,0,1-.14.32A.45.45,0,0,1,17.1,9.18Z"/><path class="cls-2" d="M17.1,12.49H13.4a.46.46,0,0,1-.32-.13.47.47,0,0,1-.14-.33.48.48,0,0,1,.46-.46h3.7a.48.48,0,0,1,.32.13.46.46,0,0,1,0,.66A.48.48,0,0,1,17.1,12.49Z"/><path class="cls-2" d="M17.1,14.29H13.4a.46.46,0,0,1-.32-.13.47.47,0,0,1-.14-.33.48.48,0,0,1,.46-.46h3.7a.48.48,0,0,1,.32.13.46.46,0,0,1,0,.66A.48.48,0,0,1,17.1,14.29Z"/><path class="cls-2" d="M17.1,17.61H13.4a.43.43,0,0,1-.32-.14.45.45,0,0,1-.14-.33.45.45,0,0,1,.14-.32.43.43,0,0,1,.32-.14h3.7a.45.45,0,0,1,.32.14.43.43,0,0,1,.14.32.45.45,0,0,1-.14.33A.45.45,0,0,1,17.1,17.61Z"/><path class="cls-2" d="M17.1,19.41H13.4a.43.43,0,0,1-.32-.14.45.45,0,0,1-.14-.33.45.45,0,0,1,.14-.32.43.43,0,0,1,.32-.14h3.7a.45.45,0,0,1,.32.14.43.43,0,0,1,.14.32.45.45,0,0,1-.14.33A.45.45,0,0,1,17.1,19.41Z"/><path class="cls-2" d="M19.38,4.16H14.26a2.33,2.33,0,0,0-.8-1.33A2.31,2.31,0,0,0,9.74,4.16H4.61a.44.44,0,0,0-.32.13.45.45,0,0,0-.14.33.43.43,0,0,0,.14.32.45.45,0,0,0,.32.14h.47a2.3,2.3,0,0,0-.47,1.38V19.39a2.3,2.3,0,0,0,2.31,2.3H17.08a2.29,2.29,0,0,0,2.3-2.3V6.46a2.29,2.29,0,0,0-.46-1.38h.46a.45.45,0,0,0,.33-.14.43.43,0,0,0,.14-.32.45.45,0,0,0-.14-.33A.44.44,0,0,0,19.38,4.16ZM12,3.23a1.34,1.34,0,0,1,.8.26,1.42,1.42,0,0,1,.51.67H10.7a1.34,1.34,0,0,1,.5-.67A1.36,1.36,0,0,1,12,3.23Zm6.46,3.23V19.39a1.39,1.39,0,0,1-.4,1,1.44,1.44,0,0,1-1,.4H6.92a1.44,1.44,0,0,1-1-.4,1.39,1.39,0,0,1-.4-1V6.46A1.37,1.37,0,0,1,6.92,5.08H17.08a1.39,1.39,0,0,1,.53.1,1.68,1.68,0,0,1,.45.3,1.68,1.68,0,0,1,.3.45A1.39,1.39,0,0,1,18.46,6.46Z"/><path class="cls-2" d="M8.76,9.67H7.84A1.4,1.4,0,0,1,6.45,8.28V7.36A1.4,1.4,0,0,1,7.84,6h.92a1.38,1.38,0,0,1,1.38,1.39v.92A1.38,1.38,0,0,1,8.76,9.67ZM7.84,6.9A.49.49,0,0,0,7.51,7a.46.46,0,0,0-.13.33v.92a.46.46,0,0,0,.13.33.44.44,0,0,0,.33.13h.92a.46.46,0,0,0,.33-.13.51.51,0,0,0,.13-.33V7.36a.44.44,0,0,0-.46-.46Z"/><path class="cls-2" d="M8.76,14.78H7.84a1.42,1.42,0,0,1-1-.4,1.4,1.4,0,0,1-.41-1v-.93a1.4,1.4,0,0,1,.41-1,1.38,1.38,0,0,1,1-.4h.92a1.38,1.38,0,0,1,1,.4,1.39,1.39,0,0,1,.4,1v.93a1.39,1.39,0,0,1-.4,1A1.42,1.42,0,0,1,8.76,14.78ZM7.84,12a.45.45,0,0,0-.33.14.42.42,0,0,0-.13.32v.93a.42.42,0,0,0,.13.32.45.45,0,0,0,.33.14h.92a.47.47,0,0,0,.33-.14.46.46,0,0,0,.13-.32v-.93a.46.46,0,0,0-.13-.32A.47.47,0,0,0,8.76,12Z"/><path class="cls-2" d="M8.76,19.89H7.84a1.38,1.38,0,0,1-1.39-1.38v-.92A1.4,1.4,0,0,1,7.84,16.2h.92a1.38,1.38,0,0,1,1.38,1.39v.92a1.37,1.37,0,0,1-1.38,1.38Zm-.92-2.77a.45.45,0,0,0-.33.14.44.44,0,0,0-.13.33v.92a.46.46,0,0,0,.13.33.49.49,0,0,0,.33.13h.92a.44.44,0,0,0,.46-.46v-.92a.49.49,0,0,0-.13-.33.47.47,0,0,0-.33-.14Z"/></g></g></g></svg>