<svg xmlns="http://www.w3.org/2000/svg" viewBox="0 0 24 24"><defs><style>.cls-1{fill:none;}.cls-2{fill:#1d1d1b;}</style></defs><g id="Слой_2" data-name="Слой 2"><g id="Line"><g id="Folder_Line" data-name="Folder/Line"><rect class="cls-1" width="24" height="24"/><path class="cls-2" d="M19.85,7.92a2,2,0,0,0-1.06-.46H11.6L10.22,5.54l-.68-.92h-4a2.31,2.31,0,0,0-1.63.67,2.28,2.28,0,0,0-.68,1.63V17.08a2.28,2.28,0,0,0,.68,1.63,2.31,2.31,0,0,0,1.63.67H18.46a2.31,2.31,0,0,0,1.63-.67,2.28,2.28,0,0,0,.68-1.63V9.77a2.27,2.27,0,0,0-.92-1.85Zm-15.7-1a1.4,1.4,0,0,1,.41-1,1.38,1.38,0,0,1,1-.4H9.07l1.39,1.92H5.2a1.81,1.81,0,0,0-1.06.43Zm15.7,10.16a1.4,1.4,0,0,1-.41,1,1.38,1.38,0,0,1-1,.4H5.54a1.38,1.38,0,0,1-1-.4,1.4,1.4,0,0,1-.41-1V9.77A1.4,1.4,0,0,1,5.54,8.38H18.46a1.4,1.4,0,0,1,1.39,1.39Z"/></g></g></g></svg>