<svg xmlns="http://www.w3.org/2000/svg" viewBox="0 0 24 24"><defs><style>.cls-1{fill:none;}.cls-2{fill:#1d1d1b;}</style></defs><g id="Слой_2" data-name="Слой 2"><g id="Line"><g id="Forward_Line" data-name="Forward/Line"><rect class="cls-1" width="24" height="24"/><path class="cls-2" d="M18.46,20.77H5.54a2.32,2.32,0,0,1-2.31-2.31V5.54A2.32,2.32,0,0,1,5.54,3.23H18.46a2.32,2.32,0,0,1,2.31,2.31V18.46a2.32,2.32,0,0,1-2.31,2.31ZM5.54,4.15A1.4,1.4,0,0,0,4.15,5.54V18.46a1.4,1.4,0,0,0,1.39,1.39H18.46a1.4,1.4,0,0,0,1.39-1.39V5.54a1.4,1.4,0,0,0-1.39-1.39Z"/><path class="cls-2" d="M10.71,15.69a.44.44,0,0,1-.46-.41.45.45,0,0,1,.1-.34L12.77,12,10.36,9.07a.65.65,0,0,1-.09-.16.58.58,0,0,1,0-.19.49.49,0,0,1,.06-.17.49.49,0,0,1,.11-.14.43.43,0,0,1,.34-.1.41.41,0,0,1,.18,0l.14.11,2.52,3.07a.74.74,0,0,1,0,.92l-2.52,3.07a.66.66,0,0,1-.17.12A.45.45,0,0,1,10.71,15.69Z"/></g></g></g></svg>