<svg xmlns="http://www.w3.org/2000/svg" viewBox="0 0 24 24"><defs><style>.cls-1{fill:none;}.cls-2{fill:#1d1d1b;}</style></defs><g id="Слой_2" data-name="Слой 2"><g id="Line"><g id="Forward_Fast_Line" data-name="Forward/Fast/Line"><rect class="cls-1" width="24" height="24"/><path class="cls-2" d="M8.67,15.69a.48.48,0,0,1-.29-.1.36.36,0,0,1-.11-.14.49.49,0,0,1-.06-.17.58.58,0,0,1,0-.19.65.65,0,0,1,.09-.16L10.74,12,8.32,9.06a.42.42,0,0,1-.09-.16.52.52,0,0,1,0-.18.49.49,0,0,1,.06-.17.3.3,0,0,1,.11-.14A.47.47,0,0,1,9,8.47l2.51,3.07a.71.71,0,0,1,0,.92L9,15.53a.48.48,0,0,1-.16.12A.43.43,0,0,1,8.67,15.69Z"/><path class="cls-2" d="M12.75,15.69a.48.48,0,0,1-.29-.1.36.36,0,0,1-.11-.14.49.49,0,0,1-.06-.17.58.58,0,0,1,0-.19.65.65,0,0,1,.09-.16L14.82,12,12.4,9.06a.42.42,0,0,1-.09-.16.52.52,0,0,1,0-.18.49.49,0,0,1,.06-.17.3.3,0,0,1,.11-.14.47.47,0,0,1,.65.06l2.52,3.07a.71.71,0,0,1,0,.92l-2.52,3.07a.61.61,0,0,1-.16.12A.48.48,0,0,1,12.75,15.69Z"/><path class="cls-2" d="M12,20.77a8.77,8.77,0,1,1,6.2-2.57A8.72,8.72,0,0,1,12,20.77ZM12,4.15A7.87,7.87,0,0,0,4.75,9a7.84,7.84,0,0,0,13.77,7.36A7.8,7.8,0,0,0,19.85,12,7.85,7.85,0,0,0,12,4.15Z"/></g></g></g></svg>