<svg xmlns="http://www.w3.org/2000/svg" viewBox="0 0 24 24"><defs><style>.cls-1{fill:none;}.cls-2{fill:#1d1d1b;}</style></defs><g id="Слой_2" data-name="Слой 2"><g id="Line"><g id="Graph_Line" data-name="Graph/Line"><rect class="cls-1" width="24" height="24"/><path class="cls-2" d="M20.56,20.31a.44.44,0,0,1-.46.46H4.91a1.46,1.46,0,0,1-1-.45,1.48,1.48,0,0,1-.43-1.05V3.69a.46.46,0,0,1,.13-.32.46.46,0,0,1,.66,0,.46.46,0,0,1,.13.32v8.49L7.25,8.94l2.68,2.89L13.62,8.3V7.65a.46.46,0,0,1,.13-.32.47.47,0,0,1,.33-.14H15a.45.45,0,0,1,.33.14.43.43,0,0,1,.14.32v.93a.43.43,0,0,1-.14.32A.45.45,0,0,1,15,9h-.81L9.94,13.15,7.26,10.34l-2.9,3.21V19l5.94-2.87,2.86,1.43,5.23-5.37v-.44a.45.45,0,0,1,.14-.33.43.43,0,0,1,.32-.14h.93a.43.43,0,0,1,.32.14.45.45,0,0,1,.14.33v.92a.47.47,0,0,1-.14.33.46.46,0,0,1-.32.13h-1l-5.42,5.54L10.3,17.11,4.76,19.82H20.1a.39.39,0,0,1,.18,0,.54.54,0,0,1,.16.1.51.51,0,0,1,.09.16A.31.31,0,0,1,20.56,20.31Z"/></g></g></g></svg>