<svg xmlns="http://www.w3.org/2000/svg" viewBox="0 0 24 24"><defs><style>.cls-1{fill:none;}.cls-2{fill:#1d1d1b;}</style></defs><g id="Слой_2" data-name="Слой 2"><g id="Line"><g id="Group_Line" data-name="Group/Line"><rect class="cls-1" width="24" height="24"/><path class="cls-2" d="M12,5.61A2.36,2.36,0,0,0,10.66,6a2.33,2.33,0,0,0-.89,1.09,2.4,2.4,0,0,0-.14,1.4,2.48,2.48,0,0,0,.67,1.24A2.43,2.43,0,0,0,14.44,8,2.44,2.44,0,0,0,12,5.61Zm0,3.93a1.55,1.55,0,0,1-.83-.25,1.51,1.51,0,0,1,.55-2.73,1.61,1.61,0,0,1,.87.09,1.46,1.46,0,0,1,.67.56,1.43,1.43,0,0,1,.26.83,1.55,1.55,0,0,1-.45,1.06A1.52,1.52,0,0,1,12,9.54Z"/><path class="cls-2" d="M22.59,17a4.86,4.86,0,0,0-.83-1.89,4.71,4.71,0,0,0-1.55-1.36,4.75,4.75,0,0,0-4-.28,6.12,6.12,0,0,0-8.36,0,4.8,4.8,0,0,0-5.58,1.64A4.72,4.72,0,0,0,1.41,17a1.16,1.16,0,0,0,0,.49,1.22,1.22,0,0,0,.22.44,1.3,1.3,0,0,0,.41.32,1.27,1.27,0,0,0,.51.12H21.43a1.16,1.16,0,0,0,.51-.12,1.3,1.3,0,0,0,.41-.32,1.1,1.1,0,0,0,.23-.44A1.16,1.16,0,0,0,22.59,17Zm-20,.48a.32.32,0,0,1-.22-.1.26.26,0,0,1,0-.17A3.87,3.87,0,0,1,6.1,14.12a4.43,4.43,0,0,1,1.08.13A5.91,5.91,0,0,0,6,16.79a1.32,1.32,0,0,0,0,.71ZM17,17.32a.53.53,0,0,1-.19.13.5.5,0,0,1-.21.05H7.39a.54.54,0,0,1-.22-.05A.7.7,0,0,1,7,17.32a.56.56,0,0,1-.09-.17.37.37,0,0,1,0-.18A5.14,5.14,0,0,1,8,14.62,4.71,4.71,0,0,1,8.71,14a5.19,5.19,0,0,1,6.59,0,4.19,4.19,0,0,1,.68.65A5.07,5.07,0,0,1,17.12,17a.37.37,0,0,1,0,.18A.4.4,0,0,1,17,17.32Zm4.62.08a.34.34,0,0,1-.23.1H18a1.32,1.32,0,0,0,.05-.71,5.92,5.92,0,0,0-1.15-2.54,3.92,3.92,0,0,1,1-.14,3.88,3.88,0,0,1,3.8,3.11.28.28,0,0,1,0,.09A.13.13,0,0,1,21.64,17.4Z"/><path class="cls-2" d="M17.89,8.42a2,2,0,0,0-1.09.33,2,2,0,0,0-.72.89A2,2,0,0,0,16,10.77a2.08,2.08,0,0,0,.54,1,2,2,0,0,0,1,.53,1.94,1.94,0,0,0,1.14-.11,2,2,0,0,0,1.21-1.81A2,2,0,0,0,19.29,9,2,2,0,0,0,17.89,8.42Zm0,3a1.07,1.07,0,0,1-.57-.18,1,1,0,0,1-.39-.47,1.11,1.11,0,0,1-.05-.6,1,1,0,0,1,.29-.54,1.05,1.05,0,0,1,.53-.28,1,1,0,0,1,.6.06,1.11,1.11,0,0,1,.47.39,1.06,1.06,0,0,1,.17.58,1.06,1.06,0,0,1-1.05,1Z"/><path class="cls-2" d="M6.11,8.42A1.92,1.92,0,0,0,5,8.76a2,2,0,0,0-.72.89,1.89,1.89,0,0,0-.1,1.13,1.86,1.86,0,0,0,.54,1,1.94,1.94,0,0,0,1,.53,1.9,1.9,0,0,0,1.13-.11,2,2,0,0,0,.88-.72,2,2,0,0,0,.33-1.09,2,2,0,0,0-.16-.76A1.85,1.85,0,0,0,7.51,9a1.83,1.83,0,0,0-.64-.42A2,2,0,0,0,6.11,8.42Zm0,3a1.08,1.08,0,0,1-.57-.19,1,1,0,0,1-.38-.47,1.11,1.11,0,0,1,0-.6,1,1,0,0,1,.29-.53,1.08,1.08,0,0,1,.54-.28,1,1,0,0,1,.6.06A1.09,1.09,0,0,1,7,9.81a1.07,1.07,0,0,1,.18.58,1.16,1.16,0,0,1-.09.4,1.08,1.08,0,0,1-.23.34,1.11,1.11,0,0,1-.34.22A1.15,1.15,0,0,1,6.11,11.43Z"/></g></g></g></svg>