<svg xmlns="http://www.w3.org/2000/svg" viewBox="0 0 24 24"><defs><style>.cls-1{fill:none;}.cls-2{fill:#1d1d1b;}</style></defs><g id="Слой_2" data-name="Слой 2"><g id="Line"><g id="Hearts_Line" data-name="Hearts/Line"><rect class="cls-1" width="24" height="24"/><path class="cls-2" d="M8.51,20.68a1.6,1.6,0,0,1-.68-.15,1.54,1.54,0,0,1-.57-.41L2.65,15a4,4,0,0,1-1.13-2.07,4.1,4.1,0,0,1,.18-2.35A4.21,4.21,0,0,1,3.15,8.7a4.07,4.07,0,0,1,2.23-.76A3.9,3.9,0,0,1,7,8.28a4,4,0,0,1,1.36,1,4,4,0,0,1,1.36-1,3.9,3.9,0,0,1,1.65-.34,4.09,4.09,0,0,1,2.22.69,4.06,4.06,0,0,1,1.77,4.08,4.08,4.08,0,0,1-1,2.09l-.17.21L9.78,20.14a1.46,1.46,0,0,1-1.27.54ZM5.38,8.86a3.23,3.23,0,0,0-1.77.59,3.17,3.17,0,0,0-1.14,1.47,3.2,3.2,0,0,0,.8,3.48L8,19.57a.79.79,0,0,0,.25.19.81.81,0,0,0,.31.06.88.88,0,0,0,.32-.07.86.86,0,0,0,.26-.2l4.62-5.32A3.2,3.2,0,0,0,11.4,8.86a3,3,0,0,0-1.5.4,3.1,3.1,0,0,0-1.12,1.07L8.39,11,8,10.33A3,3,0,0,0,6.88,9.26,3,3,0,0,0,5.38,8.86Z"/><path class="cls-2" d="M18.89,10.15a1.18,1.18,0,0,1-.45-.1,1,1,0,0,1-.36-.26L15.76,7.23a2.27,2.27,0,0,1-.62-1.16,2.31,2.31,0,0,1,.11-1.3,2.23,2.23,0,0,1,.81-1,2.34,2.34,0,0,1,1.25-.42,2.21,2.21,0,0,1,1.5.59,2.26,2.26,0,0,1,1.52-.59,2.35,2.35,0,0,1,1.23.39,2.31,2.31,0,0,1,.83,1A2.25,2.25,0,0,1,22.54,6,2.29,2.29,0,0,1,22,7.15l-.06.06L19.69,9.79a1.22,1.22,0,0,1-.36.27A1,1,0,0,1,18.89,10.15Zm-1.58-5.9a1.35,1.35,0,0,0-1.25.86,1.46,1.46,0,0,0-.07.8,1.45,1.45,0,0,0,.39.69l2.36,2.6a.16.16,0,0,0,.11.05l.06,0s0,0,.06,0l2.3-2.67a1.44,1.44,0,0,0,.36-.93,1.35,1.35,0,0,0-1.3-1.34,1.18,1.18,0,0,0-.64.17,1.3,1.3,0,0,0-.48.45l-.39.62-.4-.63A1.27,1.27,0,0,0,18,4.41,1.22,1.22,0,0,0,17.31,4.25Z"/></g></g></g></svg>