<svg xmlns="http://www.w3.org/2000/svg" viewBox="0 0 24 24"><defs><style>.cls-1{fill:none;}.cls-2{fill:#1d1d1b;}</style></defs><g id="Слой_2" data-name="Слой 2"><g id="Line"><g id="Home_Line" data-name="Home/Line"><rect class="cls-1" width="24" height="24"/><path class="cls-2" d="M20.6,10.19l-.75-.61-.93-.74L16.1,6.57,15,5.64,12.74,3.85a1.14,1.14,0,0,0-1.45,0L9.05,5.64l-1.16.93L5.08,8.84l-.93.74-.74.6a.44.44,0,0,0-.17.32.43.43,0,0,0,.1.34.45.45,0,0,0,.31.16A.43.43,0,0,0,4,10.9l.16-.12V18.1a2.34,2.34,0,0,0,.68,1.63,2.29,2.29,0,0,0,1.63.68H17.54a2.31,2.31,0,0,0,1.63-.67,2.34,2.34,0,0,0,.68-1.64V10.77l.17.13a.43.43,0,0,0,.55,0,.41.41,0,0,0,.17-.22.5.5,0,0,0,0-.27A.45.45,0,0,0,20.6,10.19ZM18.92,18.1a1.38,1.38,0,0,1-1.38,1.39H6.46a1.36,1.36,0,0,1-1-.41,1.39,1.39,0,0,1-.41-1v-8l4.3-3.49,1.14-.93,1.34-1.08a.25.25,0,0,1,.15,0,.24.24,0,0,1,.14,0l1.34,1.08,1.14.93,4.29,3.49Z"/><path class="cls-2" d="M13.39,16.52H10.62a1.4,1.4,0,0,1-1.39-1.39V12.36A1.4,1.4,0,0,1,10.62,11h2.77a1.37,1.37,0,0,1,1,.4,1.4,1.4,0,0,1,.41,1v2.77a1.4,1.4,0,0,1-1.38,1.39ZM10.62,11.9a.45.45,0,0,0-.33.14.52.52,0,0,0-.14.32v2.77a.47.47,0,0,0,.14.33.49.49,0,0,0,.33.13h2.77a.48.48,0,0,0,.32-.13.47.47,0,0,0,.14-.33V12.36a.43.43,0,0,0-.14-.32.45.45,0,0,0-.32-.14Z"/></g></g></g></svg>