<svg xmlns="http://www.w3.org/2000/svg" viewBox="0 0 24 24"><defs><style>.cls-1{fill:none;}.cls-2{fill:#1d1d1b;}</style></defs><g id="Слой_2" data-name="Слой 2"><g id="Line"><g id="Internet_Line" data-name="Internet/Line"><rect class="cls-1" width="24" height="24"/><path class="cls-2" d="M20.29,11.64a8.32,8.32,0,0,0-4.61-7.08,8.7,8.7,0,0,0-1.91-.68,8.54,8.54,0,0,0-3.56,0,8.78,8.78,0,0,0-1.92.68A8.32,8.32,0,0,0,4.93,16.37a8.4,8.4,0,0,0,3.36,3.06,8.78,8.78,0,0,0,1.92.68,8.22,8.22,0,0,0,3.56,0,8.6,8.6,0,0,0,1.92-.68,8.3,8.3,0,0,0,4.62-6.92V12A3.21,3.21,0,0,0,20.29,11.64ZM12.45,5.76a7.44,7.44,0,0,1,3.4,5.88h-3.4Zm-2.24-1A8,8,0,0,1,11,5a8.3,8.3,0,0,0-3.78,6.6H4.57a7.47,7.47,0,0,1,5.64-6.86Zm0,14.43a7.46,7.46,0,0,1-5.64-6.7h2.7a8.1,8.1,0,0,0,1.11,3.68A8.32,8.32,0,0,0,11,19,6,6,0,0,1,10.21,19.21Zm1.32-1a7.25,7.25,0,0,1-2.37-2.46,7.38,7.38,0,0,1-1-3.26h3.39Zm0-6.59H8.13a7.44,7.44,0,0,1,3.4-5.88Zm.92.87h3.39a7.36,7.36,0,0,1-1,3.26,7.27,7.27,0,0,1-2.38,2.46Zm1.32,6.7a8,8,0,0,1-.83-.26,8.25,8.25,0,0,0,3.77-6.46H19.4a7.26,7.26,0,0,1-1.71,4.28A7.34,7.34,0,0,1,13.77,19.21Zm2.95-7.57A8.23,8.23,0,0,0,12.94,5c.28-.1.55-.19.83-.26a7.45,7.45,0,0,1,4,2.5,7.33,7.33,0,0,1,1.68,4.36Z"/></g></g></g></svg>