<svg xmlns="http://www.w3.org/2000/svg" viewBox="0 0 24 24"><defs><style>.cls-1{fill:none;}.cls-2{fill:#1d1d1b;}</style></defs><g id="Слой_2" data-name="Слой 2"><g id="Line"><g id="Key_Line" data-name="Key/Line"><rect class="cls-1" width="24" height="24"/><path class="cls-2" d="M15.38,12.42a4.2,4.2,0,1,1,3-1.23A4.2,4.2,0,0,1,15.38,12.42Zm0-7.4a3.19,3.19,0,0,0-3.2,3.2,3.15,3.15,0,0,0,.94,2.26A3.2,3.2,0,1,0,15.38,5Z"/><path class="cls-2" d="M16.25,7.89l-.54-.53a.46.46,0,0,0-.65,0l-.54.53a.46.46,0,0,0,0,.65l.54.54a.46.46,0,0,0,.65,0l.54-.54A.46.46,0,0,0,16.25,7.89Z"/><path class="cls-2" d="M10.4,19.23a.42.42,0,0,1-.32.13.46.46,0,0,1-.33-.13L7.39,16.87,6.25,18a.43.43,0,0,1-.32.14A.45.45,0,0,1,5.6,18a.48.48,0,0,1-.13-.32.49.49,0,0,1,.13-.33l6.76-6.76a.46.46,0,0,1,.66,0,.46.46,0,0,1,.13.32.49.49,0,0,1-.13.33L9.5,14.75l2.37,2.36a.47.47,0,0,1-.66.66L8.85,15.4,8,16.21l2.36,2.37a.31.31,0,0,1,.1.15.33.33,0,0,1,0,.17.39.39,0,0,1,0,.18A.31.31,0,0,1,10.4,19.23Z"/></g></g></g></svg>