<svg xmlns="http://www.w3.org/2000/svg" viewBox="0 0 24 24"><defs><style>.cls-1{fill:none;}.cls-2{fill:#1d1d1b;}</style></defs><g id="Слой_2" data-name="Слой 2"><g id="Line"><g id="Keyboard_Line" data-name="Keyboard/Line"><rect class="cls-1" width="24" height="24"/><path class="cls-2" d="M18.46,18H5.54a2.3,2.3,0,0,1-1.64-.69,2.14,2.14,0,0,1-.5-.76,2.27,2.27,0,0,1-.17-.89V8.29A2.28,2.28,0,0,1,3.9,6.66a2.38,2.38,0,0,1,.75-.51A2.47,2.47,0,0,1,5.54,6H18.46a2.32,2.32,0,0,1,2.31,2.31v7.39a2.47,2.47,0,0,1-.17.89,2.23,2.23,0,0,1-.5.76,2.3,2.3,0,0,1-1.64.69ZM5.54,7A1.4,1.4,0,0,0,4.15,8.34v7.38a1.41,1.41,0,0,0,.11.54,1.23,1.23,0,0,0,.3.45A1.29,1.29,0,0,0,5,17a1.36,1.36,0,0,0,.53.11H18.46A1.42,1.42,0,0,0,19,17a1.39,1.39,0,0,0,.75-.78,1.49,1.49,0,0,0,.1-.55V8.29a1.4,1.4,0,0,0-.41-1,1.39,1.39,0,0,0-1-.41Z"/><path class="cls-2" d="M8.77,9.25H7.85a.46.46,0,0,0-.46.47v.92a.46.46,0,0,0,.46.46h.92a.47.47,0,0,0,.46-.46V9.72A.47.47,0,0,0,8.77,9.25Z"/><path class="cls-2" d="M12.46,9.25h-.92a.46.46,0,0,0-.46.47v.92a.46.46,0,0,0,.46.46h.92a.46.46,0,0,0,.46-.46V9.72A.46.46,0,0,0,12.46,9.25Z"/><path class="cls-2" d="M16.15,9.25h-.92a.47.47,0,0,0-.46.47v.92a.47.47,0,0,0,.46.46h.92a.46.46,0,0,0,.46-.46V9.72A.46.46,0,0,0,16.15,9.25Z"/><path class="cls-2" d="M8.77,13H7.85a.45.45,0,0,0-.46.46v.92a.45.45,0,0,0,.46.46h.92a.46.46,0,0,0,.46-.46v-.92A.46.46,0,0,0,8.77,13Z"/><path class="cls-2" d="M12.46,13h-.92a.45.45,0,0,0-.46.46v.92a.45.45,0,0,0,.46.46h.92a.45.45,0,0,0,.46-.46v-.92A.45.45,0,0,0,12.46,13Z"/><path class="cls-2" d="M16.15,13h-.92a.46.46,0,0,0-.46.46v.92a.46.46,0,0,0,.46.46h.92a.45.45,0,0,0,.46-.46v-.92A.45.45,0,0,0,16.15,13Z"/></g></g></g></svg>