<svg xmlns="http://www.w3.org/2000/svg" viewBox="0 0 24 24"><defs><style>.cls-1{fill:none;}.cls-2{fill:#1d1d1b;}</style></defs><g id="Слой_2" data-name="Слой 2"><g id="Line"><g id="Keyhole_Line" data-name="Keyhole/Line"><rect class="cls-1" width="24" height="24"/><path class="cls-2" d="M16.51,13.14a5.94,5.94,0,0,0,1.32-2.55A6,6,0,1,0,6,9.19a5.91,5.91,0,0,0,1.49,3.94l-1.24,6a1.4,1.4,0,0,0,0,.61,1.42,1.42,0,0,0,.27.55,1.29,1.29,0,0,0,.47.37,1.39,1.39,0,0,0,.6.14h8.8a1.39,1.39,0,0,0,.6-.14,1.37,1.37,0,0,0,.48-.38,1.42,1.42,0,0,0,.27-.55,1.35,1.35,0,0,0,0-.6Zm.25,6.58a.42.42,0,0,1-.16.13.45.45,0,0,1-.2,0H7.59a.45.45,0,0,1-.2,0,.47.47,0,0,1-.15-.13.31.31,0,0,1-.09-.18.45.45,0,0,1,0-.2l1.13-5.46.21-1a4.1,4.1,0,0,1-.74-.92,4.85,4.85,0,0,1-.81-2.58,4.94,4.94,0,0,1,.65-2.63,5.07,5.07,0,1,1,8.68,5.23,4.44,4.44,0,0,1-.75.92l.22,1,1.13,5.46a.41.41,0,0,1,0,.19A.38.38,0,0,1,16.76,19.72Z"/><path class="cls-2" d="M15.3,18.32a.38.38,0,0,1-.29-.1.43.43,0,0,1-.17-.26l-.77-3.6a.5.5,0,0,1,.06-.36.48.48,0,0,1,.3-.2.51.51,0,0,1,.36.06.52.52,0,0,1,.2.3l.78,3.61a.37.37,0,0,1,0,.18.51.51,0,0,1-.07.17.53.53,0,0,1-.13.13l-.16.07Z"/></g></g></g></svg>