<svg xmlns="http://www.w3.org/2000/svg" viewBox="0 0 24 24"><defs><style>.cls-1{fill:none;}.cls-2{fill:#1d1d1b;}</style></defs><g id="Слой_2" data-name="Слой 2"><g id="Line"><g id="Lightbulb_On_Line" data-name="Lightbulb/On/Line"><rect class="cls-1" width="24" height="24"/><path class="cls-2" d="M17.52,9.76A6.47,6.47,0,0,0,8.8,7.58a6,6,0,0,0-3.09,6,7.62,7.62,0,0,0,.73,1.91,6.83,6.83,0,0,0,.39.75l.92,1.85a1.76,1.76,0,0,0-.82.68,1.83,1.83,0,0,0-.31,1,1.91,1.91,0,0,0,2,1.84h1A2.47,2.47,0,0,0,10.48,23a2.44,2.44,0,0,0,3,0,2.47,2.47,0,0,0,.86-1.35H15.4a1.91,1.91,0,0,0,2-1.84,1.88,1.88,0,0,0-.3-1,1.82,1.82,0,0,0-.82-.68l1-1.85a3.78,3.78,0,0,0,.33-.63,8.21,8.21,0,0,0,.71-2A5.54,5.54,0,0,0,17.52,9.76ZM12,22.62a1.5,1.5,0,0,1-.85-.24,1.55,1.55,0,0,1-.56-.68h2.77a1.54,1.54,0,0,1-.54.67A1.52,1.52,0,0,1,12,22.62Zm4.39-2.77a.8.8,0,0,1-.08.37.86.86,0,0,1-.53.5.93.93,0,0,1-.37.06H8.58a1.19,1.19,0,0,1-.37-.06.87.87,0,0,1-.31-.2.93.93,0,0,1-.22-.3,1.16,1.16,0,0,1-.07-.37.87.87,0,0,1,.17-.51A1,1,0,0,1,8.21,19a1.19,1.19,0,0,1,.36-.09h6.91a1.09,1.09,0,0,1,.31.08.92.92,0,0,1,.42.33A1,1,0,0,1,16.37,19.85Zm.94-6.45a9.83,9.83,0,0,1-.66,1.84l-.33.63L15.22,18H8.76l-1.1-2.1c-.09-.19-.23-.43-.36-.71a8,8,0,0,1-.63-1.69,5.13,5.13,0,0,1,.22-2.2A5.21,5.21,0,0,1,8,9.37,5.38,5.38,0,0,1,10.08,8a5.52,5.52,0,0,1,2.45-.32,5.43,5.43,0,0,1,2.34.79,5.55,5.55,0,0,1,1.76,1.75A4.76,4.76,0,0,1,17.31,13.4Z"/><path class="cls-2" d="M11.82,5.84a.44.44,0,0,1-.46-.46V.93A.51.51,0,0,1,11.49.6a.48.48,0,0,1,.66,0,.51.51,0,0,1,.13.33V5.39a.45.45,0,0,1-.14.32A.46.46,0,0,1,11.82,5.84Z"/><path class="cls-2" d="M14.56,5.91a.59.59,0,0,1-.26-.07.44.44,0,0,1-.19-.29.48.48,0,0,1,.06-.35L15.67,3a.5.5,0,0,1,.29-.2.48.48,0,0,1,.35.07.47.47,0,0,1,.2.29.48.48,0,0,1-.07.35L14.94,5.7a.46.46,0,0,1-.16.15A.43.43,0,0,1,14.56,5.91Z"/><path class="cls-2" d="M9.08,5.91a.43.43,0,0,1-.22-.06.35.35,0,0,1-.17-.15L7.22,3.47a.47.47,0,0,1-.06-.35.5.5,0,0,1,.2-.29.51.51,0,0,1,.17-.07h.18a.46.46,0,0,1,.16.07A.53.53,0,0,1,8,3L9.46,5.19a.51.51,0,0,1,.07.17.54.54,0,0,1,0,.18.51.51,0,0,1-.07.17.49.49,0,0,1-.13.12A.57.57,0,0,1,9.08,5.91Z"/></g></g></g></svg>