<svg xmlns="http://www.w3.org/2000/svg" viewBox="0 0 24 24"><defs><style>.cls-1{fill:none;}.cls-2{fill:#1d1d1b;}</style></defs><g id="Слой_2" data-name="Слой 2"><g id="Line"><g id="Lightbulb_Off_Line" data-name="Lightbulb/Off/Line"><rect class="cls-1" width="24" height="24"/><path class="cls-2" d="M13.76,10.39H10.28a.46.46,0,0,1-.32-.13.46.46,0,0,1,0-.66.46.46,0,0,1,.32-.13h3.48a.49.49,0,0,1,.33.13.46.46,0,0,1,0,.66A.49.49,0,0,1,13.76,10.39Z"/><path class="cls-2" d="M17.21,6.65A6,6,0,0,0,9,4.5,5.78,5.78,0,0,0,7.58,5.65a6,6,0,0,0-1.51,4.81,8.68,8.68,0,0,0,.66,1.85l.37.75L8,14.9A1.84,1.84,0,0,0,7,17a1.81,1.81,0,0,0,.64,1,1.84,1.84,0,0,0,1.15.41h.92a2.37,2.37,0,0,0,.79,1.36,2.3,2.3,0,0,0,3,0,2.26,2.26,0,0,0,.79-1.36h.92a1.81,1.81,0,0,0,1.31-.54,1.84,1.84,0,0,0,.54-1.3,1.78,1.78,0,0,0-.28-1,1.85,1.85,0,0,0-.75-.69l.92-1.84c.08-.17.2-.38.31-.63a10.77,10.77,0,0,0,.68-2A5.81,5.81,0,0,0,17.21,6.65ZM12,19.39a1.43,1.43,0,0,1-.8-.25,1.39,1.39,0,0,1-.5-.67h2.61a1.39,1.39,0,0,1-.51.66A1.36,1.36,0,0,1,12,19.39Zm4.15-2.81a.91.91,0,0,1-.27.65.93.93,0,0,1-.65.27H8.79a.93.93,0,0,1,0-1.85h6.46a.81.81,0,0,1,.37.09.9.9,0,0,1,.55.84Zm.89-6.32a9.34,9.34,0,0,1-.62,1.8c-.1.23-.2.43-.31.63l-1,2H12.49V11.62a.49.49,0,0,0-.13-.33.48.48,0,0,0-.66,0,.49.49,0,0,0-.13.33v3.13H9l-1-2.08L7.57,12A8.12,8.12,0,0,1,7,10.32a5.25,5.25,0,0,1,.21-2.16,5.49,5.49,0,0,1,1.07-1.9,5.39,5.39,0,0,1,1.2-.92,5.24,5.24,0,0,1,1.88-.64,4.91,4.91,0,0,1,2,.13A5,5,0,0,1,16.4,7.19,4.92,4.92,0,0,1,17.06,10.26Z"/></g></g></g></svg>