<svg xmlns="http://www.w3.org/2000/svg" viewBox="0 0 24 24"><defs><style>.cls-1{fill:none;}.cls-2{fill:#1d1d1b;}</style></defs><g id="Слой_2" data-name="Слой 2"><g id="Line"><g id="Like_Line" data-name="Like/Line"><rect class="cls-1" width="24" height="24"/><path class="cls-2" d="M12.16,20.77a2.25,2.25,0,0,1-.88-.19,2.11,2.11,0,0,1-.73-.53L4,12.85A5.59,5.59,0,0,1,7.78,3.23a5.41,5.41,0,0,1,2.34.53A5.33,5.33,0,0,1,12,5.25a5.41,5.41,0,0,1,4.22-2,5.53,5.53,0,0,1,5.48,5.58,5.63,5.63,0,0,1-1.46,3.77l-.22.25L13.81,20a2.35,2.35,0,0,1-.74.55,2.3,2.3,0,0,1-.9.19ZM7.78,4.15a4.67,4.67,0,0,0-4.22,3,4.61,4.61,0,0,0-.19,2.7A4.67,4.67,0,0,0,4.7,12.2l6.55,7.24a1.25,1.25,0,0,0,.42.3,1.11,1.11,0,0,0,.51.1,1.08,1.08,0,0,0,.5-.12,1.18,1.18,0,0,0,.42-.31L19.56,12a4.69,4.69,0,0,0,1.23-3.14,4.55,4.55,0,0,0-8.41-2.52L12,6.91l-.39-.62A4.53,4.53,0,0,0,7.78,4.15Z"/><path class="cls-2" d="M13.93,16.75a.57.57,0,0,1-.28-.11.48.48,0,0,1,0-.66l2.44-2.77a.48.48,0,0,1,.66,0,.54.54,0,0,1,.1.16.47.47,0,0,1,0,.17.58.58,0,0,1,0,.18.4.4,0,0,1-.1.15l-2.45,2.77a.38.38,0,0,1-.15.09A.37.37,0,0,1,13.93,16.75Z"/></g></g></g></svg>