<svg xmlns="http://www.w3.org/2000/svg" viewBox="0 0 24 24"><defs><style>.cls-1{fill:none;}.cls-2{fill:#1d1d1b;}</style></defs><g id="Слой_2" data-name="Слой 2"><g id="Line"><g id="Loading_Start_Line" data-name="Loading/Start/Line"><rect class="cls-1" width="24" height="24"/><path class="cls-2" d="M11.69,20.76a.49.49,0,0,1-.33-.13.47.47,0,0,1-.14-.33v-.46a.47.47,0,0,1,.14-.33.49.49,0,0,1,.33-.13.46.46,0,0,1,.32.13.47.47,0,0,1,.14.33v.49a.46.46,0,0,1-.15.31A.45.45,0,0,1,11.69,20.76Z"/><path class="cls-2" d="M11.69,6.34a.49.49,0,0,1-.33-.13.47.47,0,0,1-.14-.33V3.7a.47.47,0,0,1,.14-.33.49.49,0,0,1,.33-.13.46.46,0,0,1,.32.13.47.47,0,0,1,.14.33V5.88a.47.47,0,0,1-.14.33A.46.46,0,0,1,11.69,6.34Z"/><path class="cls-2" d="M4.63,12.9H3.71a.52.52,0,0,1-.32-.14.45.45,0,0,1-.14-.33.48.48,0,0,1,.13-.32A.47.47,0,0,1,3.71,12h.92a.45.45,0,0,1,.33.14.45.45,0,0,1,.14.32.48.48,0,0,1-.47.47Z"/><path class="cls-2" d="M20.29,12.9H18.15a.45.45,0,0,1-.33-.14.44.44,0,0,1-.13-.33.44.44,0,0,1,.13-.32.45.45,0,0,1,.33-.14h2.14a.43.43,0,0,1,.32.14.45.45,0,0,1,.14.32.45.45,0,0,1-.14.33A.43.43,0,0,1,20.29,12.9Z"/><path class="cls-2" d="M6.84,8a.49.49,0,0,1-.33-.13l-.93-.93a.58.58,0,0,1-.11-.15.39.39,0,0,1,0-.18.32.32,0,0,1,0-.19.4.4,0,0,1,.1-.15.57.57,0,0,1,.16-.11.63.63,0,0,1,.19,0,.61.61,0,0,1,.18.05.44.44,0,0,1,.15.12l.92.92a.31.31,0,0,1,.1.15.33.33,0,0,1,0,.17.39.39,0,0,1,0,.18.44.44,0,0,1-.1.15.56.56,0,0,1-.15.1A.47.47,0,0,1,6.84,8Z"/><path class="cls-2" d="M6.12,18.54a.46.46,0,0,1-.32-.13.44.44,0,0,1-.1-.15.43.43,0,0,1,0-.36.44.44,0,0,1,.1-.15l.47-.48a.4.4,0,0,1,.15-.1.47.47,0,0,1,.17,0,.39.39,0,0,1,.18,0,.38.38,0,0,1,.15.09.44.44,0,0,1,.1.15.39.39,0,0,1,0,.18.57.57,0,0,1,0,.18.36.36,0,0,1-.1.15l-.48.48A.47.47,0,0,1,6.12,18.54Z"/><path class="cls-2" d="M16.26,8.26a.48.48,0,0,1-.18,0,.42.42,0,0,1-.15-.11.4.4,0,0,1-.1-.15.47.47,0,0,1,0-.17.57.57,0,0,1,0-.18.45.45,0,0,1,.1-.14l1.52-1.55.15-.1a.57.57,0,0,1,.18,0,.47.47,0,0,1,.17,0,.56.56,0,0,1,.15.1.65.65,0,0,1,.1.15.43.43,0,0,1,0,.36.49.49,0,0,1-.1.15L16.58,8.13a.4.4,0,0,1-.15.1A.47.47,0,0,1,16.26,8.26Z"/></g></g></g></svg>