<svg xmlns="http://www.w3.org/2000/svg" viewBox="0 0 24 24"><defs><style>.cls-1{fill:none;}.cls-2{fill:#1d1d1b;}</style></defs><g id="Слой_2" data-name="Слой 2"><g id="Line"><g id="Location_Line" data-name="Location/Line"><rect class="cls-1" width="24" height="24"/><path class="cls-2" d="M12,20.77a1.38,1.38,0,0,1-.71-.22A1.31,1.31,0,0,1,10.8,20L7.1,12.62c-.09-.17-.22-.43-.36-.75A8.46,8.46,0,0,1,6.06,10a6.16,6.16,0,0,1,.23-2.56A6,6,0,0,1,7.57,5.2,5.84,5.84,0,0,1,9.86,3.63a5.95,5.95,0,0,1,5.39.56,6.15,6.15,0,0,1,1.92,2A5.72,5.72,0,0,1,17.92,10a10.7,10.7,0,0,1-.66,2c-.13.29-.24.52-.32.67L13.24,20a1.29,1.29,0,0,1-.52.54A1.42,1.42,0,0,1,12,20.77ZM12,4.15a4.93,4.93,0,0,0-2.54.7,4.49,4.49,0,0,0-1.2,1A5.11,5.11,0,0,0,7.19,7.7,5,5,0,0,0,7,9.87a6.64,6.64,0,0,0,.59,1.65c.13.3.25.53.34.7L11.6,19.6a.4.4,0,0,0,.41.25.46.46,0,0,0,.25-.06.61.61,0,0,0,.17-.19l3.69-7.39c.09-.16.19-.37.31-.63a10.14,10.14,0,0,0,.62-1.78,4.87,4.87,0,0,0-.65-3.14,5.09,5.09,0,0,0-3.09-2.35A5.36,5.36,0,0,0,12,4.15Z"/><path class="cls-2" d="M12,12.12a2.32,2.32,0,0,1-1.28-.39,2.25,2.25,0,0,1-.85-1,2.28,2.28,0,0,1-.13-1.34,2.17,2.17,0,0,1,.63-1.18,2.31,2.31,0,0,1,3.94,1.63,2.36,2.36,0,0,1-.68,1.63A2.32,2.32,0,0,1,12,12.12Zm0-3.69a1.39,1.39,0,0,0-.77.23,1.34,1.34,0,0,0-.51.62,1.38,1.38,0,0,0,1.81,1.81,1.34,1.34,0,0,0,.62-.51A1.39,1.39,0,0,0,13,8.83,1.38,1.38,0,0,0,12,8.43Z"/></g></g></g></svg>