<svg xmlns="http://www.w3.org/2000/svg" viewBox="0 0 24 24"><defs><style>.cls-1{fill:none;}.cls-2{fill:#1d1d1b;}</style></defs><g id="Слой_2" data-name="Слой 2"><g id="Line"><g id="Lock_Open_Line" data-name="Lock/Open/Line"><rect class="cls-1" width="24" height="24"/><path class="cls-2" d="M12.68,17.67H11.33a1.21,1.21,0,0,1-.61-.16,1.41,1.41,0,0,1-.69-1,1.39,1.39,0,0,1,.09-.64l.42-1a1.85,1.85,0,0,1-.22-.85,1.64,1.64,0,0,1,.18-.76,1.9,1.9,0,0,1,.49-.6,1.7,1.7,0,0,1,.71-.32,1.72,1.72,0,0,1,.78,0,1.68,1.68,0,0,1,.68.37,1.59,1.59,0,0,1,.45.63,1.79,1.79,0,0,1,.13.76,1.73,1.73,0,0,1-.23.74l.44,1a1.17,1.17,0,0,1,.09.64,1.23,1.23,0,0,1-.23.61,1.33,1.33,0,0,1-.49.45A1.3,1.3,0,0,1,12.68,17.67ZM12,13.14a.82.82,0,0,0-.3.07.85.85,0,0,0-.25.17,1.06,1.06,0,0,0-.17.26.81.81,0,0,0,0,.31.82.82,0,0,0,.17.5l.17.22L11,16.17a.42.42,0,0,0,0,.4.57.57,0,0,0,.14.13.45.45,0,0,0,.19.05h1.35a.41.41,0,0,0,.19-.05.39.39,0,0,0,.14-.53l-.61-1.51.19-.22a.79.79,0,0,0,.17-.49.8.8,0,0,0-.2-.54A.83.83,0,0,0,12,13.14Z"/><path class="cls-2" d="M16.72,9.11H9.16V7.26A2.86,2.86,0,0,1,9.89,5.2a2.81,2.81,0,0,1,2-1A2.9,2.9,0,0,1,13.93,5a2.94,2.94,0,0,1,1,2h.92a3.72,3.72,0,1,0-7.43.34V9.14H7.27a2.17,2.17,0,0,0-1.55.66,2.23,2.23,0,0,0-.63,1.55v7a2.17,2.17,0,0,0,.63,1.55,2.14,2.14,0,0,0,1.55.66h9.45A2.2,2.2,0,0,0,18.27,20a2.24,2.24,0,0,0,.64-1.56V11.32a2.24,2.24,0,0,0-.64-1.56A2.2,2.2,0,0,0,16.72,9.11ZM18,18.34a1.33,1.33,0,0,1-.09.49,1.36,1.36,0,0,1-.27.43,1.19,1.19,0,0,1-.42.28,1.17,1.17,0,0,1-.49.11H7.27a1.38,1.38,0,0,1-.49-.1,1.46,1.46,0,0,1-.41-.29,1.62,1.62,0,0,1-.27-.41A1.37,1.37,0,0,1,6,18.36v-7a1.41,1.41,0,0,1,.09-.49,1.22,1.22,0,0,1,.27-.41,1.46,1.46,0,0,1,.41-.29,1.38,1.38,0,0,1,.49-.1h9.45A1.3,1.3,0,0,1,18,11.32Z"/></g></g></g></svg>