<svg xmlns="http://www.w3.org/2000/svg" viewBox="0 0 24 24"><defs><style>.cls-1{fill:none;}.cls-2{fill:#1d1d1b;}</style></defs><g id="Слой_2" data-name="Слой 2"><g id="Line"><g id="Lock_Closed_Line" data-name="Lock/Closed/Line"><rect class="cls-1" width="24" height="24"/><path class="cls-2" d="M12.62,17.67H11.28a1.33,1.33,0,0,1-.62-.16,1.25,1.25,0,0,1-.48-.43A1.4,1.4,0,0,1,10,15.82l.43-1a1.7,1.7,0,0,1-.24-.75,1.74,1.74,0,0,1,.13-.78,1.78,1.78,0,0,1,.45-.64,1.85,1.85,0,0,1,.69-.37,1.76,1.76,0,0,1,.79,0,1.71,1.71,0,0,1,.71.33,1.62,1.62,0,0,1,.49.61,1.58,1.58,0,0,1,.17.77,1.69,1.69,0,0,1-.23.85l.42,1a1.39,1.39,0,0,1,.09.64,1.32,1.32,0,0,1-.22.61,1.36,1.36,0,0,1-.48.44A1.33,1.33,0,0,1,12.62,17.67ZM12,13.13a.77.77,0,0,0-.3.06.68.68,0,0,0-.26.18.78.78,0,0,0-.17.26,1.06,1.06,0,0,0-.05.31.82.82,0,0,0,.17.5l.17.21-.61,1.51a.43.43,0,0,0,0,.4.38.38,0,0,0,.14.14.33.33,0,0,0,.19,0h1.34a.31.31,0,0,0,.19,0,.32.32,0,0,0,.14-.14.36.36,0,0,0,.08-.19.39.39,0,0,0,0-.21l-.62-1.51.19-.21a.82.82,0,0,0,.17-.5.76.76,0,0,0-.21-.55A.75.75,0,0,0,12,13.13Z"/><path class="cls-2" d="M16.69,9.09h-.54V7.62a4.17,4.17,0,0,0-1.22-2.95A4.24,4.24,0,0,0,12,3.44a4.34,4.34,0,0,0-1.6.31A4.11,4.11,0,0,0,9,4.66,4,4,0,0,0,8.1,6a4.07,4.07,0,0,0-.33,1.61V9.09H7.21a2.21,2.21,0,0,0-1.52.68,2.19,2.19,0,0,0-.61,1.54v7a2.18,2.18,0,0,0,.63,1.56,2.24,2.24,0,0,0,1.55.66h9.43a2.21,2.21,0,0,0,1.58-.64,2.36,2.36,0,0,0,.49-.72,2.3,2.3,0,0,0,.16-.86v-7a2.13,2.13,0,0,0-.65-1.58,2.21,2.21,0,0,0-1.58-.64Zm-8-1.47a3.25,3.25,0,0,1,2-3,3.25,3.25,0,0,1,1.87-.18,3.2,3.2,0,0,1,1.66.88,3,3,0,0,1,.69,1,3.26,3.26,0,0,1,.24,1.24V9.09H8.7ZM18,18.34a1.29,1.29,0,0,1-.37.91,1.25,1.25,0,0,1-.89.38H7.21A1.26,1.26,0,0,1,6,18.34v-7a1.37,1.37,0,0,1,.09-.49,1.17,1.17,0,0,1,.27-.42,1.42,1.42,0,0,1,.41-.28,1.16,1.16,0,0,1,.49-.1h9.43a1.08,1.08,0,0,1,.5.09,1.11,1.11,0,0,1,.43.28,1.19,1.19,0,0,1,.28.42,1.24,1.24,0,0,1,.1.5Z"/></g></g></g></svg>