<svg xmlns="http://www.w3.org/2000/svg" viewBox="0 0 24 24"><defs><style>.cls-1{fill:none;}.cls-2{fill:#1d1d1b;}</style></defs><g id="Слой_2" data-name="Слой 2"><g id="Line"><g id="Mail_Closed_Line" data-name="Mail/Closed/Line"><rect class="cls-1" width="24" height="24"/><path class="cls-2" d="M18.46,19.39H5.54a2.32,2.32,0,0,1-1.63-.68,2.28,2.28,0,0,1-.68-1.63V6.92a2.28,2.28,0,0,1,.68-1.63,2.31,2.31,0,0,1,1.63-.67H18.46a2.31,2.31,0,0,1,1.63.67,2.34,2.34,0,0,1,.68,1.63V17.08a2.34,2.34,0,0,1-.68,1.63A2.36,2.36,0,0,1,18.46,19.39ZM5.54,5.54a1.42,1.42,0,0,0-1,.4,1.4,1.4,0,0,0-.41,1V17.08a1.4,1.4,0,0,0,.41,1,1.38,1.38,0,0,0,1,.4H18.46a1.38,1.38,0,0,0,1-.4,1.4,1.4,0,0,0,.41-1V6.92a1.42,1.42,0,0,0-.41-1,1.39,1.39,0,0,0-1-.41Z"/><path class="cls-2" d="M12,12.11a.86.86,0,0,1-.53-.19L7.09,8.32A.53.53,0,0,1,7,8.18a.61.61,0,0,1,0-.18.37.37,0,0,1,0-.18A.48.48,0,0,1,7,7.66a.47.47,0,0,1,.31-.16.45.45,0,0,1,.34.1L12,11.16,16.32,7.6a.46.46,0,0,1,.34-.1.47.47,0,0,1,.31.16.35.35,0,0,1,.08.16.37.37,0,0,1,0,.18.41.41,0,0,1-.05.18.53.53,0,0,1-.12.14l-4.37,3.59A.82.82,0,0,1,12,12.11Z"/></g></g></g></svg>