<svg xmlns="http://www.w3.org/2000/svg" viewBox="0 0 24 24"><defs><style>.cls-1{fill:none;}.cls-2{fill:#1d1d1b;}</style></defs><g id="Слой_2" data-name="Слой 2"><g id="Line"><g id="Mail_Open_Line" data-name="Mail/Open/Line"><rect class="cls-1" width="24" height="24"/><path class="cls-2" d="M20.2,7.68l-.71-.51L12.81,2.33a1.35,1.35,0,0,0-1.62,0L4.5,7.17l-.7.51a1.39,1.39,0,0,0-.42.48,1.36,1.36,0,0,0-.15.63V19.63a2.32,2.32,0,0,0,2.31,2.31H18.46a2.32,2.32,0,0,0,2.31-2.31V8.79a1.37,1.37,0,0,0-.57-1.11Zm-.35,12a1.4,1.4,0,0,1-.41,1,1.38,1.38,0,0,1-1,.4H5.54a1.38,1.38,0,0,1-1-.4,1.4,1.4,0,0,1-.41-1V8.79a.64.64,0,0,1,.06-.18.47.47,0,0,1,.14-.14l.46-.33,1.27-.92,5.65-4.09a.41.41,0,0,1,.54,0l5.65,4.09,1.27.92.46.33a.5.5,0,0,1,.2.36Z"/><path class="cls-2" d="M12,14.65a.76.76,0,0,1-.54-.19L7.09,10.85a.46.46,0,0,1-.17-.31.48.48,0,0,1,.1-.33A.51.51,0,0,1,7.34,10a.52.52,0,0,1,.34.1L12,13.71l4.32-3.57a.51.51,0,0,1,.34-.1.44.44,0,0,1,.31.17.31.31,0,0,1,.08.15.37.37,0,0,1,0,.18.34.34,0,0,1-.05.17.3.3,0,0,1-.11.14l-4.37,3.61A.85.85,0,0,1,12,14.65Z"/></g></g></g></svg>