<svg xmlns="http://www.w3.org/2000/svg" viewBox="0 0 24 24"><defs><style>.cls-1{fill:none;}.cls-2{fill:#1d1d1b;}</style></defs><g id="Слой_2" data-name="Слой 2"><g id="Line"><g id="Medicine_Line" data-name="Medicine/Line"><rect class="cls-1" width="24" height="24"/><path class="cls-2" d="M6.72,15.57l-.47.8a.47.47,0,0,0,.17.63l.8.46a.46.46,0,0,0,.63-.17l.46-.8a.46.46,0,0,0-.16-.63l-.8-.46A.46.46,0,0,0,6.72,15.57Z"/><path class="cls-2" d="M8.56,12.37l-.46.8a.46.46,0,0,0,.17.63l.8.46a.46.46,0,0,0,.63-.17l.46-.8a.46.46,0,0,0-.17-.63l-.8-.46A.46.46,0,0,0,8.56,12.37Z"/><path class="cls-2" d="M9.91,17.41l-.46.8a.46.46,0,0,0,.17.63l.8.47a.47.47,0,0,0,.63-.17l.46-.8a.46.46,0,0,0-.17-.63l-.8-.47A.47.47,0,0,0,9.91,17.41Z"/><path class="cls-2" d="M11.76,14.22l-.46.8a.46.46,0,0,0,.17.63l.8.46a.47.47,0,0,0,.63-.17l.46-.8a.46.46,0,0,0-.17-.63l-.8-.46A.46.46,0,0,0,11.76,14.22Z"/><path class="cls-2" d="M9.18,21.89a5,5,0,0,1-2.55-.69,5.12,5.12,0,0,1-1.87-7L10.3,4.62a5.11,5.11,0,0,1,7-1.87,5.12,5.12,0,0,1,1.88,7l-5.54,9.59a5.17,5.17,0,0,1-4.44,2.56Zm2-16.77L5.62,14.71a4.12,4.12,0,1,0,7.13,4.12l5.54-9.59a4.12,4.12,0,1,0-7.13-4.12Z"/><rect class="cls-2" x="11.5" y="7.25" width="1" height="9.5" transform="translate(-4.39 16.39) rotate(-60)"/></g></g></g></svg>