<svg xmlns="http://www.w3.org/2000/svg" viewBox="0 0 24 24"><defs><style>.cls-1{fill:none;}.cls-2{fill:#1d1d1b;}</style></defs><g id="Слой_2" data-name="Слой 2"><g id="Line"><g id="Message_Favorites_Line" data-name="Message/Favorites/Line"><rect class="cls-1" width="24" height="24"/><path class="cls-2" d="M22.4,11l-.77-1.14a6.09,6.09,0,0,0-3.58-7.1,6.07,6.07,0,0,0-4.24-.16,6.14,6.14,0,0,0-3.32,2.65l-.09.16A8.14,8.14,0,0,0,4.24,7.33a8.15,8.15,0,0,0-2,2.6,8,8,0,0,0-.83,3.18A8.14,8.14,0,0,0,6.33,21a8.13,8.13,0,0,0,8.81-1.58l1.95.2a1.59,1.59,0,0,0,.86-.15,1.56,1.56,0,0,0,.85-1.43,1.44,1.44,0,0,0-.27-.83l-1.1-1.63a7.61,7.61,0,0,0,.27-1.5,6,6,0,0,0,2.15-1.27l1.38.15a1.17,1.17,0,0,0,.69-.13,1.15,1.15,0,0,0,.52-.48,1.29,1.29,0,0,0,0-1.38Zm-4.61,6.75a.63.63,0,0,1,.12.33.73.73,0,0,1-.09.35.67.67,0,0,1-.26.24.6.6,0,0,1-.35.05l-2.4-.24-.15.15a7.3,7.3,0,0,1-3,1.78A7.26,7.26,0,0,1,5,19.07a7.23,7.23,0,0,1-2.08-2.81A7.21,7.21,0,0,1,3.56,9.5,7.24,7.24,0,0,1,6.15,7.14a7.15,7.15,0,0,1,3.38-.88,7.42,7.42,0,0,1,3.7,1,1.11,1.11,0,0,1,.24.16l.14.1a7.26,7.26,0,0,1,2.4,2.7,7.18,7.18,0,0,1,.77,3.53,6.24,6.24,0,0,1-.29,1.77l-.06.2Zm-.58-7.39-.14-.08a7.73,7.73,0,0,0-2.14-3,.9.9,0,0,0,.44-.42l.49-1,.48,1a.89.89,0,0,0,.27.31.87.87,0,0,0,.38.17l1.11.16-.83.86a.94.94,0,0,0-.2.35.79.79,0,0,0,0,.4Zm4.44,1.56a.43.43,0,0,1-.14.13.31.31,0,0,1-.19,0l-1.84-.19-.16.16a4.84,4.84,0,0,1-1.62,1.06,7.58,7.58,0,0,0-.27-1.77.78.78,0,0,0,.35-.15.81.81,0,0,0,.3-.36.8.8,0,0,0,.06-.48l-.22-1.27.92-.92a1,1,0,0,0,.21-.4.86.86,0,0,0,0-.45.87.87,0,0,0-.26-.39,1,1,0,0,0-.43-.2l-1.19-.16-.53-1.14a.8.8,0,0,0-.3-.38.82.82,0,0,0-.45-.16,1,1,0,0,0-.47.13.88.88,0,0,0-.32.37L14.58,6.5l-.64.11-.19-.12c-.19-.11-.38-.22-.59-.32L12.68,6l-.13-.06a4,4,0,0,0-.49-.16c-.17-.06-.48-.1-.65-.14a5.16,5.16,0,0,1,9.27,4.21l-.07.2,1,1.5a.38.38,0,0,1,.07.21A.39.39,0,0,1,21.65,11.93Z"/><path class="cls-2" d="M6.5,12.64H5.71a.47.47,0,0,0-.46.46v.79a.47.47,0,0,0,.46.46H6.5A.47.47,0,0,0,7,13.89V13.1A.47.47,0,0,0,6.5,12.64Z"/><path class="cls-2" d="M9.92,12.64H9.14a.46.46,0,0,0-.46.46v.79a.46.46,0,0,0,.46.46h.78a.46.46,0,0,0,.46-.46V13.1A.46.46,0,0,0,9.92,12.64Z"/><path class="cls-2" d="M13.34,12.64h-.79a.47.47,0,0,0-.46.46v.79a.47.47,0,0,0,.46.46h.79a.47.47,0,0,0,.46-.46V13.1A.47.47,0,0,0,13.34,12.64Z"/><path class="cls-2" d="M13.54,7.47l.11.1Z"/></g></g></g></svg>