<svg xmlns="http://www.w3.org/2000/svg" viewBox="0 0 24 24"><defs><style>.cls-1{fill:none;}.cls-2{fill:#1d1d1b;}</style></defs><g id="Слой_2" data-name="Слой 2"><g id="Line"><g id="Message_Line" data-name="Message/Line"><rect class="cls-1" width="24" height="24"/><path class="cls-2" d="M11.41,20.77a8.86,8.86,0,0,1-4.49-1.23,8.78,8.78,0,1,1,12.93-5.28L21.07,16a1.64,1.64,0,0,1-.61,2.39,1.57,1.57,0,0,1-.9.17l-2.13-.23A8.67,8.67,0,0,1,11.41,20.77Zm0-16.61a8,8,0,0,0-3.7.92,7.85,7.85,0,0,0-1.29,13,7.85,7.85,0,0,0,7.26,1.46,8,8,0,0,0,3.27-2l.13-.16,2.55.26a.65.65,0,0,0,.39-.07.75.75,0,0,0,.29-.27.67.67,0,0,0,.1-.39.77.77,0,0,0-.12-.38l-1.44-2.14.07-.24a7.75,7.75,0,0,0-7.49-10Z"/><path class="cls-2" d="M8.15,11.07H7.23a.46.46,0,0,0-.46.46v.93a.46.46,0,0,0,.46.46h.92a.46.46,0,0,0,.46-.46v-.93A.46.46,0,0,0,8.15,11.07Z"/><path class="cls-2" d="M11.84,11.07h-.92a.46.46,0,0,0-.46.46v.93a.46.46,0,0,0,.46.46h.92a.46.46,0,0,0,.46-.46v-.93A.46.46,0,0,0,11.84,11.07Z"/><path class="cls-2" d="M15.53,11.07h-.92a.47.47,0,0,0-.46.46v.93a.47.47,0,0,0,.46.46h.92a.47.47,0,0,0,.47-.46v-.93A.47.47,0,0,0,15.53,11.07Z"/></g></g></g></svg>