<svg xmlns="http://www.w3.org/2000/svg" viewBox="0 0 24 24"><defs><style>.cls-1{fill:none;}.cls-2{fill:#1d1d1b;}</style></defs><g id="Слой_2" data-name="Слой 2"><g id="Line"><g id="Microphone_Line" data-name="Microphone/Line"><rect class="cls-1" width="24" height="24"/><path class="cls-2" d="M19.85,11.81A7.66,7.66,0,0,0,19,8.42a7.75,7.75,0,0,0-2.2-2.69A4.91,4.91,0,0,0,12,1.65,4.91,4.91,0,0,0,8.84,2.81,5,5,0,0,0,7.17,5.73a7.79,7.79,0,0,0-3,6.1,7.82,7.82,0,0,0,7.39,7.74v1.85H10.15a.43.43,0,0,0-.32.14.45.45,0,0,0-.14.33.48.48,0,0,0,.46.46h3.7a.48.48,0,0,0,.46-.46.47.47,0,0,0-.14-.33.55.55,0,0,0-.32-.14H12.46V19.58a7.82,7.82,0,0,0,7.39-7.77Zm-2.94-1.46V7.07a6.73,6.73,0,0,1,2,4.74,6.81,6.81,0,0,1-6.41,6.75v-3.4a4.89,4.89,0,0,0,4.45-4.81ZM8.08,6.46a.74.74,0,0,1,0-.21,3.75,3.75,0,0,1,.31-1.32,3.93,3.93,0,0,1,7.2,0,3.36,3.36,0,0,1,.31,1.32.74.74,0,0,1,0,.21v3.89a3.92,3.92,0,0,1-7.84,0Zm3.46,12.1A6.77,6.77,0,0,1,7,16.45,6.76,6.76,0,0,1,5.64,9.24,6.77,6.77,0,0,1,7.09,7.07v3.28a4.89,4.89,0,0,0,4.44,4.82Z"/><path class="cls-2" d="M13.38,10.89h.93a.46.46,0,0,0,.46-.46V9.51a.46.46,0,0,0-.46-.46h-.93a.46.46,0,0,0-.46.46v.92A.46.46,0,0,0,13.38,10.89Z"/><path class="cls-2" d="M9.69,10.89h.93a.46.46,0,0,0,.46-.46V9.51a.46.46,0,0,0-.46-.46H9.69a.46.46,0,0,0-.46.46v.92A.46.46,0,0,0,9.69,10.89Z"/><path class="cls-2" d="M13.38,7.2h.93a.47.47,0,0,0,.46-.46V5.82a.47.47,0,0,0-.46-.47h-.93a.47.47,0,0,0-.46.47v.92A.47.47,0,0,0,13.38,7.2Z"/><path class="cls-2" d="M9.69,7.2h.93a.47.47,0,0,0,.46-.46V5.82a.47.47,0,0,0-.46-.47H9.69a.47.47,0,0,0-.46.47v.92A.47.47,0,0,0,9.69,7.2Z"/></g></g></g></svg>