<svg xmlns="http://www.w3.org/2000/svg" viewBox="0 0 24 24"><defs><style>.cls-1{fill:none;}.cls-2{fill:#1d1d1b;}</style></defs><g id="Слой_2" data-name="Слой 2"><g id="Line"><g id="MobileInternet_Line" data-name="MobileInternet/Line"><rect class="cls-1" width="24" height="24"/><path class="cls-2" d="M4.84,1.86l.59.57a7.58,7.58,0,0,0-1.74,8.5,7.5,7.5,0,0,0,1.74,2.51l-.59.6a8.24,8.24,0,0,1-1.93-2.77,8.37,8.37,0,0,1,0-6.61A8.24,8.24,0,0,1,4.84,1.89Z"/><path class="cls-2" d="M7.13,4.08l.59.58a4.53,4.53,0,0,0-1,1.49,4.58,4.58,0,0,0-.37,1.78,4.61,4.61,0,0,0,1.4,3.28l-.59.57A5.24,5.24,0,0,1,5.9,10,5.3,5.3,0,0,1,7.13,4.08Z"/><path class="cls-2" d="M19.16,13.87l-.59-.58a7.58,7.58,0,0,0,1.74-8.5,7.37,7.37,0,0,0-1.74-2.5l.59-.59a8.39,8.39,0,0,1,0,12.17Z"/><path class="cls-2" d="M16.87,11.64l-.59-.58a4.53,4.53,0,0,0,1-1.49,4.58,4.58,0,0,0,.37-1.78,4.61,4.61,0,0,0-1.4-3.28l.59-.57A5.24,5.24,0,0,1,18.1,5.69a5.3,5.3,0,0,1-1.23,6Z"/><path class="cls-2" d="M12,22.8a.5.5,0,0,1-.5-.5V9.72a.5.5,0,0,1,.5-.5.5.5,0,0,1,.5.5V22.3A.51.51,0,0,1,12,22.8Z"/><path class="cls-2" d="M12,10.08a2.35,2.35,0,1,1,2.34-2.35A2.35,2.35,0,0,1,12,10.08Zm0-3.69a1.35,1.35,0,1,0,1.34,1.34A1.34,1.34,0,0,0,12,6.39Z"/></g></g></g></svg>