<svg xmlns="http://www.w3.org/2000/svg" viewBox="0 0 24 24"><defs><style>.cls-1{fill:none;}.cls-2{fill:#1d1d1b;}</style></defs><g id="Слой_2" data-name="Слой 2"><g id="Line"><g id="Moon_Line" data-name="Moon/Line"><rect class="cls-1" width="24" height="24"/><path class="cls-2" d="M12.7,20.31h-.16A9,9,0,0,1,9,19.52a8.75,8.75,0,0,1-2.93-2.11A9.22,9.22,0,0,1,6.44,4.68,9.55,9.55,0,0,1,7.28,4,1.4,1.4,0,0,1,8,3.69a1.33,1.33,0,0,1,.78.19,1.5,1.5,0,0,1,.57.6,1.46,1.46,0,0,1,.14.82A8.2,8.2,0,0,0,9.86,9a8,8,0,0,0,2,3.15,8.13,8.13,0,0,0,3.16,2,8,8,0,0,0,3.7.36,1.45,1.45,0,0,1,.82.12,1.39,1.39,0,0,1,.6.55,1.43,1.43,0,0,1,.19.78,1.36,1.36,0,0,1-.29.75,10.58,10.58,0,0,1-.83.93,9,9,0,0,1-3,2A8.8,8.8,0,0,1,12.7,20.31ZM8.09,4.62a.47.47,0,0,0-.28.09,9.06,9.06,0,0,0-.75.64,8.31,8.31,0,0,0-.32,11.43A8.13,8.13,0,0,0,18.47,17a7,7,0,0,0,.76-.87.44.44,0,0,0,.08-.25.47.47,0,0,0-.08-.26.48.48,0,0,0-.21-.19.57.57,0,0,0-.29,0,9.07,9.07,0,0,1-4.1-.42,9.16,9.16,0,0,1-3.49-2.18A9.1,9.1,0,0,1,8.59,5.18a.49.49,0,0,0-.05-.29.57.57,0,0,0-.19-.22A.47.47,0,0,0,8.09,4.62Z"/></g></g></g></svg>