<svg xmlns="http://www.w3.org/2000/svg" viewBox="0 0 24 24"><defs><style>.cls-1{fill:none;}.cls-2{fill:#1d1d1b;}</style></defs><g id="Слой_2" data-name="Слой 2"><g id="Line"><g id="MostlyCloudy_Line" data-name="MostlyCloudy/Line"><rect class="cls-1" width="24" height="24"/><path class="cls-2" d="M18.6,18.64H14.72a.43.43,0,0,1-.32-.14.45.45,0,0,1-.14-.32.45.45,0,0,1,.14-.33.55.55,0,0,1,.32-.14H18.6a.47.47,0,0,1,.33.14.49.49,0,0,1,.13.33.48.48,0,0,1-.13.32A.47.47,0,0,1,18.6,18.64Z"/><path class="cls-2" d="M18.6,18.64H14.72a.43.43,0,0,1-.32-.14.45.45,0,0,1-.14-.32.45.45,0,0,1,.14-.33.55.55,0,0,1,.32-.14H18.6a.47.47,0,0,1,.33.14.49.49,0,0,1,.13.33.48.48,0,0,1-.13.32A.47.47,0,0,1,18.6,18.64Z"/><path class="cls-2" d="M22.15,19.71H21a6.71,6.71,0,0,0,.52-3,6.78,6.78,0,0,0-.86-2.92,6.58,6.58,0,0,0-6-3.26,4.44,4.44,0,0,0-1.48-2,4.59,4.59,0,0,0-3.39-.94A4.64,4.64,0,0,0,6.69,9.3a4.56,4.56,0,0,0-1,2.62,4.61,4.61,0,0,0,.72,2.71,4.87,4.87,0,0,0-1.69.59A4.59,4.59,0,0,0,3,17.14a4.66,4.66,0,0,0-.44,2.57h-.7a.49.49,0,0,0-.33.13.48.48,0,0,0,0,.66.49.49,0,0,0,.33.13h20.3a.49.49,0,0,0,.33-.13.46.46,0,0,0,0-.66A.49.49,0,0,0,22.15,19.71ZM7.41,9.91a3.68,3.68,0,0,1,5.18-.63,3.67,3.67,0,0,1,1.1,1.37l-.54.11-.29.1a3.83,3.83,0,0,0-.56.22,5.65,5.65,0,0,0-.6.31A6.43,6.43,0,0,0,8.8,15l-.29-.11a1.61,1.61,0,0,0-.29-.09,1.63,1.63,0,0,0-.3-.07l-.3-.06a3.71,3.71,0,0,1-.21-4.71ZM5.18,16a3.44,3.44,0,0,1,2.19-.47,3.43,3.43,0,0,1,1.48.5l.52.33.14-.63a5.58,5.58,0,0,1,2.63-3.54,5.31,5.31,0,0,1,2.19-.73,5.74,5.74,0,0,1,3.18.56,5.63,5.63,0,0,1,2.35,2.21A5.76,5.76,0,0,1,20.62,17,5.7,5.7,0,0,1,20,19.71H3.38a3.69,3.69,0,0,1,.34-2.12A3.63,3.63,0,0,1,5.18,16Z"/><path class="cls-2" d="M10.29,6.36a.48.48,0,0,1-.46-.46V3.83a.48.48,0,0,1,.46-.46.47.47,0,0,1,.33.14.42.42,0,0,1,.13.32V5.9a.42.42,0,0,1-.13.32A.47.47,0,0,1,10.29,6.36Z"/><path class="cls-2" d="M4.08,12.6H2a.43.43,0,0,1-.32-.14.43.43,0,0,1-.14-.32.47.47,0,0,1,.14-.33A.46.46,0,0,1,2,11.68h2.1a.44.44,0,0,1,.46.46.46.46,0,0,1-.13.32A.47.47,0,0,1,4.08,12.6Z"/><path class="cls-2" d="M5.91,8.19a.45.45,0,0,1-.32-.12L4.12,6.59A.45.45,0,0,1,4,6.26a.43.43,0,0,1,.14-.32.31.31,0,0,1,.15-.1.34.34,0,0,1,.18,0,.33.33,0,0,1,.17,0,.31.31,0,0,1,.15.1L6.24,7.4a.46.46,0,0,1,.13.33.44.44,0,0,1-.13.32A.47.47,0,0,1,5.91,8.19Z"/><path class="cls-2" d="M14.72,8.19a.44.44,0,0,1-.25-.08.51.51,0,0,1-.17-.21.5.5,0,0,1,.1-.5l1.43-1.46a.31.31,0,0,1,.15-.1.42.42,0,0,1,.36,0,.44.44,0,0,1,.15.1.46.46,0,0,1,.13.32.49.49,0,0,1-.13.33L15.06,8.07A.5.5,0,0,1,14.72,8.19Z"/></g></g></g></svg>