<svg xmlns="http://www.w3.org/2000/svg" viewBox="0 0 24 24"><defs><style>.cls-1{fill:none;}.cls-2{fill:#1d1d1b;}</style></defs><g id="Слой_2" data-name="Слой 2"><g id="Line"><g id="Mouse_Line" data-name="Mouse/Line"><rect class="cls-1" width="24" height="24"/><path class="cls-2" d="M18.2,18.2a6,6,0,0,1-8.48,0L5.8,14.28a5.81,5.81,0,0,1-1.3-1.94A6.05,6.05,0,0,1,4,10a6,6,0,0,1,6-6,6.05,6.05,0,0,1,2.3.46,6,6,0,0,1,1.95,1.3L18.2,9.72a6,6,0,0,1,0,8.48ZM6.45,6.45a5.09,5.09,0,0,0,0,7.18l3.92,3.92a5.08,5.08,0,1,0,7.18-7.18L13.63,6.45a5.09,5.09,0,0,0-7.18,0Z"/><path class="cls-2" d="M11.26,11.71l-.18,0a.4.4,0,0,1-.15-.1L8.32,9a.43.43,0,0,1-.14-.32.48.48,0,0,1,.47-.47A.43.43,0,0,1,9,8.32l2.61,2.61a.44.44,0,0,1,.13.24.58.58,0,0,1,0,.26.55.55,0,0,1-.17.2A.46.46,0,0,1,11.26,11.71Z"/></g></g></g></svg>