<svg xmlns="http://www.w3.org/2000/svg" viewBox="0 0 24 24"><defs><style>.cls-1{fill:none;}.cls-2{fill:#1d1d1b;}</style></defs><g id="Слой_2" data-name="Слой 2"><g id="Line"><g id="Music_Line" data-name="Music/Line"><rect class="cls-1" width="24" height="24"/><path class="cls-2" d="M19.41,4.2a1.65,1.65,0,0,0-.92-.27H9.26A1.83,1.83,0,0,0,7.41,5.65V15.93a2.2,2.2,0,0,0-1.23-.47,2.32,2.32,0,0,0-1.9,3.83,2.33,2.33,0,0,0,1.59.78H6a2.33,2.33,0,0,0,1.56-.64,2.29,2.29,0,0,0,.71-1.54V7.33a1.76,1.76,0,0,0,.92.24h9.23a1.87,1.87,0,0,0,.93-.24v7.18a2.3,2.3,0,0,0-3.7,1.68,2.31,2.31,0,0,0,2.15,2.46H18A2.29,2.29,0,0,0,19.56,18a2.31,2.31,0,0,0,.73-1.53V5.73a1.93,1.93,0,0,0-.24-.88A1.9,1.9,0,0,0,19.41,4.2Zm-12,13.63a1.49,1.49,0,0,1-.14.51,1.2,1.2,0,0,1-.33.41,1.41,1.41,0,0,1-.73.34A1.43,1.43,0,0,1,5.39,19a1.36,1.36,0,0,1-.59-.55,1.34,1.34,0,0,1-.18-.78,1.29,1.29,0,0,1,.14-.51,1.34,1.34,0,0,1,.33-.42A1.35,1.35,0,0,1,6,16.35H6.1a1.4,1.4,0,0,1,.92.43,1.36,1.36,0,0,1,.37.94Zm12-1.4a1.43,1.43,0,0,1-.14.5,1.44,1.44,0,0,1-.79.69,1.26,1.26,0,0,1-.54.07,1.39,1.39,0,0,1-1.29-1.47,1.29,1.29,0,0,1,.14-.51,1.2,1.2,0,0,1,.33-.41A1.35,1.35,0,0,1,18,15h.09a1.37,1.37,0,0,1,1.29,1.37Zm-.93-9.78H9.22a.92.92,0,0,1-.92-.92.91.91,0,0,1,.27-.65.9.9,0,0,1,.65-.28h9.23a1,1,0,0,1,.93.93.9.9,0,0,1-.28.65A.91.91,0,0,1,18.45,6.65Z"/></g></g></g></svg>