<svg xmlns="http://www.w3.org/2000/svg" viewBox="0 0 24 24"><defs><style>.cls-1{fill:none;}.cls-2{fill:#1d1d1b;}</style></defs><g id="Слой_2" data-name="Слой 2"><g id="Line"><g id="Notification_Line" data-name="Notification/Line"><rect class="cls-1" width="24" height="24"/><path class="cls-2" d="M18.22,3.79a3.69,3.69,0,0,0-1.75.44,3.63,3.63,0,0,0-1.33,1.22H4.48a2.32,2.32,0,0,0-.9.17,2.1,2.1,0,0,0-.75.5,2.3,2.3,0,0,0-.69,1.64V17.91a2.32,2.32,0,0,0,2.31,2.31H17.37a2.32,2.32,0,0,0,2.31-2.31V10.84a3.65,3.65,0,0,0,1.78-1.69,3.74,3.74,0,0,0,.32-2.44,3.69,3.69,0,0,0-3.59-2.93Zm.54,14.12a1.4,1.4,0,0,1-1.39,1.39H4.45a1.4,1.4,0,0,1-1.39-1.39V7.76A1.4,1.4,0,0,1,4.45,6.37H14.69a1.16,1.16,0,0,0,0,.18,1.87,1.87,0,0,0-.09.46,3.68,3.68,0,0,0,0,.47,3.69,3.69,0,0,0,3.69,3.69,2.62,2.62,0,0,0,.56,0Zm.33-7.81a2.5,2.5,0,0,1-.9.15A2.73,2.73,0,0,1,15.8,6.13a2.85,2.85,0,0,1,.91-1A3,3,0,0,1,18,4.71a2.84,2.84,0,0,1,1.32.2,3,3,0,0,1,1.07.79,2.78,2.78,0,0,1,.58,1.21,2.74,2.74,0,0,1-.72,2.48A2.75,2.75,0,0,1,19.09,10.1Z"/><path class="cls-2" d="M18.22,8a.44.44,0,0,1-.46-.46V5.64a.46.46,0,0,1,.13-.32.46.46,0,0,1,.66,0,.46.46,0,0,1,.13.32V7.49a.47.47,0,0,1-.14.33A.46.46,0,0,1,18.22,8Z"/><path class="cls-2" d="M18.21,9.31a.46.46,0,0,0,.46-.46.45.45,0,0,0-.46-.46.46.46,0,0,0-.46.46A.47.47,0,0,0,18.21,9.31Z"/></g></g></g></svg>