<svg xmlns="http://www.w3.org/2000/svg" viewBox="0 0 24 24"><defs><style>.cls-1{fill:none;}.cls-2{fill:#1d1d1b;}</style></defs><g id="Слой_2" data-name="Слой 2"><g id="Line"><g id="On_Off_Line" data-name="On/Off/Line"><rect class="cls-1" width="24" height="24"/><path class="cls-2" d="M20.77,12.93a8.79,8.79,0,0,1-1.38,4.73A8.78,8.78,0,0,1,6.31,19.61a8.76,8.76,0,0,1-2.75-9,8.8,8.8,0,0,1,7.06-6.29V5.2a7.85,7.85,0,1,0,2.77,0V4.27a8.8,8.8,0,0,1,7.38,8.66Z"/><path class="cls-2" d="M12,9.68a.44.44,0,0,1-.46-.46V2.76A.48.48,0,0,1,12,2.3a.51.51,0,0,1,.33.13.51.51,0,0,1,.13.33V9.22a.44.44,0,0,1-.46.46Z"/></g></g></g></svg>