<svg xmlns="http://www.w3.org/2000/svg" viewBox="0 0 24 24"><defs><style>.cls-1{fill:none;}.cls-2{fill:#1d1d1b;}</style></defs><g id="Слой_2" data-name="Слой 2"><g id="Line"><g id="Pause_Line" data-name="Pause/Line"><rect class="cls-1" width="24" height="24"/><path class="cls-2" d="M18.46,20.77H5.54a2.32,2.32,0,0,1-2.31-2.31V5.54A2.32,2.32,0,0,1,5.54,3.23H18.46a2.32,2.32,0,0,1,2.31,2.31V18.46a2.32,2.32,0,0,1-2.31,2.31ZM5.54,4.15A1.4,1.4,0,0,0,4.15,5.54V18.46a1.4,1.4,0,0,0,1.39,1.39H18.46a1.4,1.4,0,0,0,1.39-1.39V5.54a1.4,1.4,0,0,0-1.39-1.39Z"/><path class="cls-2" d="M14.2,15.69a.51.51,0,0,1-.33-.13.46.46,0,0,1-.13-.33V8.77a.46.46,0,0,1,.13-.33.51.51,0,0,1,.33-.13.46.46,0,0,1,.32.13.47.47,0,0,1,.14.33v6.46a.43.43,0,0,1-.14.32A.45.45,0,0,1,14.2,15.69Z"/><path class="cls-2" d="M9.8,15.69a.46.46,0,0,1-.32-.13.47.47,0,0,1-.14-.33V8.77a.47.47,0,0,1,.14-.33.46.46,0,0,1,.32-.13.49.49,0,0,1,.33.13.47.47,0,0,1,.14.33v6.46a.52.52,0,0,1-.14.32A.47.47,0,0,1,9.8,15.69Z"/></g></g></g></svg>