<svg xmlns="http://www.w3.org/2000/svg" viewBox="0 0 24 24"><defs><style>.cls-1{fill:none;}.cls-2{fill:#1d1d1b;}</style></defs><g id="Слой_2" data-name="Слой 2"><g id="Line"><g id="Percent_Line" data-name="Percent/Line"><rect class="cls-1" width="24" height="24"/><path class="cls-2" d="M7.6,19.62a8.74,8.74,0,0,1-4.31-8.74A8.76,8.76,0,0,1,14.8,3.72a8.76,8.76,0,0,1,4.77,12.69,8.8,8.8,0,0,1-12,3.21ZM15.9,5.23A7.84,7.84,0,1,0,11,19.8a7.93,7.93,0,0,0,4.5-.74A7.85,7.85,0,0,0,15.9,5.23Z"/><path class="cls-2" d="M12.6,15.5a.47.47,0,0,1-.13-.11.38.38,0,0,1-.08-.17L10.74,8.94a.48.48,0,0,1,0-.35.46.46,0,0,1,.28-.21.45.45,0,0,1,.34,0,.43.43,0,0,1,.21.27L13.34,15a.55.55,0,0,1,0,.18.34.34,0,0,1,0,.17.5.5,0,0,1-.12.13.53.53,0,0,1-.17.08.46.46,0,0,1-.21,0A.48.48,0,0,1,12.6,15.5Z"/><path class="cls-2" d="M7.16,12.86a1.35,1.35,0,0,1-.69-1.11,1.27,1.27,0,0,1,.12-.66A1.33,1.33,0,0,1,7,10.56a1.44,1.44,0,0,1,.62-.27,1.51,1.51,0,0,1,.67.06,1.42,1.42,0,0,1,.57.36,1.36,1.36,0,0,1,.32.59,1.32,1.32,0,0,1,0,.81,1.44,1.44,0,0,1-.47.65,1.31,1.31,0,0,1-.75.28A1.33,1.33,0,0,1,7.16,12.86Zm.92-1.6a.49.49,0,0,0-.17-.06.55.55,0,0,0-.18,0,.4.4,0,0,0-.22.14.44.44,0,0,0-.11.24.47.47,0,0,0,.23.45.51.51,0,0,0,.25.06A.5.5,0,0,0,8.12,12a.44.44,0,0,0,.16-.22.46.46,0,0,0,0-.26.35.35,0,0,0-.08-.16A.37.37,0,0,0,8.08,11.26Z"/><path class="cls-2" d="M15.48,13.52a1.39,1.39,0,0,1-.57-.58,1.45,1.45,0,0,1-.14-.8,1.31,1.31,0,0,1,.33-.74,1.41,1.41,0,0,1,1.22-.47,1.38,1.38,0,0,1,.52.17,1.52,1.52,0,0,1,.4.36,1.4,1.4,0,0,1,.24.49A1.43,1.43,0,0,1,17.34,13a1.36,1.36,0,0,1-.84.64A1.39,1.39,0,0,1,15.48,13.52Zm.93-1.6a.37.37,0,0,0-.17-.05.36.36,0,0,0-.18,0,.53.53,0,0,0-.17.08.5.5,0,0,0-.12.13.34.34,0,0,0,0,.17.55.55,0,0,0,0,.18.51.51,0,0,0,.22.26.49.49,0,0,0,.34,0,.45.45,0,0,0,.27-.2.48.48,0,0,0,.06-.33A.51.51,0,0,0,16.41,11.92Z"/></g></g></g></svg>