<svg xmlns="http://www.w3.org/2000/svg" viewBox="0 0 24 24"><defs><style>.cls-1{fill:none;}.cls-2{fill:#1d1d1b;}</style></defs><g id="Слой_2" data-name="Слой 2"><g id="Line"><g id="Pharmacy_Line" data-name="Pharmacy/Line"><rect class="cls-1" width="24" height="24"/><path class="cls-2" d="M12,20.77A2.77,2.77,0,0,1,9.23,18V14.77H6A2.77,2.77,0,1,1,6,9.23H9.23V6A2.77,2.77,0,0,1,12,3.23,2.81,2.81,0,0,1,14,4a2.94,2.94,0,0,1,.6.91A2.75,2.75,0,0,1,14.77,6V9.23H18a2.77,2.77,0,1,1,0,5.54H14.77V18A2.77,2.77,0,0,1,12,20.77ZM6,10.15A1.84,1.84,0,0,0,4.15,12,1.86,1.86,0,0,0,6,13.85h4.15V18A1.86,1.86,0,0,0,12,19.85,1.88,1.88,0,0,0,13.85,18V13.85H18a1.74,1.74,0,0,0,.71-.15A1.85,1.85,0,0,0,18,10.15H13.85V6a1.91,1.91,0,0,0-.14-.71,2.06,2.06,0,0,0-.41-.6,1.84,1.84,0,0,0-.94-.5,1.86,1.86,0,0,0-1.07.1A1.84,1.84,0,0,0,10.15,6v4.15Z"/></g></g></g></svg>