<svg xmlns="http://www.w3.org/2000/svg" viewBox="0 0 24 24"><defs><style>.cls-1{fill:none;}.cls-2{fill:#1d1d1b;}</style></defs><g id="Слой_2" data-name="Слой 2"><g id="Line"><g id="Phone_Line" data-name="Phone/Line"><rect class="cls-1" width="24" height="24"/><path class="cls-2" d="M15.69,3.23H8.31A2.32,2.32,0,0,0,6,5.54V18.46a2.3,2.3,0,0,0,2.31,2.31h7.38A2.32,2.32,0,0,0,18,18.46V5.54a2.32,2.32,0,0,0-2.31-2.31ZM6.92,5.54A1.4,1.4,0,0,1,8.31,4.15h7.38a1.4,1.4,0,0,1,1.39,1.39V15.6H6.92ZM17.08,18.46a1.4,1.4,0,0,1-1.39,1.39H8.31a1.4,1.4,0,0,1-1.39-1.39V16.52H17.08Z"/><path class="cls-2" d="M12.46,17.31h-.92a.45.45,0,0,0-.46.46v.92a.45.45,0,0,0,.46.46h.92a.45.45,0,0,0,.46-.46v-.92A.45.45,0,0,0,12.46,17.31Z"/></g></g></g></svg>