<svg xmlns="http://www.w3.org/2000/svg" viewBox="0 0 24 24"><defs><style>.cls-1{fill:none;}.cls-2{fill:#1d1d1b;}</style></defs><g id="Слой_2" data-name="Слой 2"><g id="Line"><g id="Picture_Line" data-name="Picture/Line"><rect class="cls-1" width="24" height="24"/><path class="cls-2" d="M18.46,19.39H5.54a2.32,2.32,0,0,1-1.63-.68,2.28,2.28,0,0,1-.68-1.63V6.92a2.34,2.34,0,0,1,.68-1.63,2.36,2.36,0,0,1,1.63-.68H18.46a2.36,2.36,0,0,1,1.63.68,2.34,2.34,0,0,1,.68,1.63V17.08a2.28,2.28,0,0,1-.68,1.63A2.32,2.32,0,0,1,18.46,19.39ZM5.54,5.54a1.38,1.38,0,0,0-1,.4,1.4,1.4,0,0,0-.41,1V17.08a1.4,1.4,0,0,0,.41,1,1.38,1.38,0,0,0,1,.4H18.46a1.38,1.38,0,0,0,1-.4,1.4,1.4,0,0,0,.41-1V6.92a1.4,1.4,0,0,0-.41-1,1.38,1.38,0,0,0-1-.4Z"/><path class="cls-2" d="M16.11,10.76a1.81,1.81,0,0,1-1-.31,1.84,1.84,0,0,1,.67-3.34,1.74,1.74,0,0,1,1.06.1,1.85,1.85,0,0,1,.83.68,1.85,1.85,0,0,1-1.53,2.87Zm0-2.77a.93.93,0,0,0-.51.16.92.92,0,0,0-.35.41,1,1,0,0,0-.05.54,1,1,0,0,0,.26.47.83.83,0,0,0,.47.25.88.88,0,0,0,.53-.05,1,1,0,0,0,.42-.34A.92.92,0,0,0,17,8.92a1,1,0,0,0-.27-.66A.93.93,0,0,0,16.11,8Z"/><path class="cls-2" d="M6.07,16.48a.54.54,0,0,1-.21-.05.37.37,0,0,1-.15-.13.42.42,0,0,1-.09-.16.55.55,0,0,1,0-.18.49.49,0,0,1,.06-.17.37.37,0,0,1,.12-.13l4.37-3.43a.87.87,0,0,1,1.06,0l4.37,3.43a.4.4,0,0,1,.17.3.46.46,0,0,1-.1.34.45.45,0,0,1-.3.18.52.52,0,0,1-.34-.09L10.63,13,6.35,16.39A.47.47,0,0,1,6.07,16.48Z"/></g></g></g></svg>