<svg xmlns="http://www.w3.org/2000/svg" viewBox="0 0 24 24"><defs><style>.cls-1{fill:none;}.cls-2{fill:#1d1d1b;}</style></defs><g id="Слой_2" data-name="Слой 2"><g id="Line"><g id="Pin_Line" data-name="Pin/Line"><rect class="cls-1" width="24" height="24"/><path class="cls-2" d="M18.79,8.47,15.62,5.31A1.05,1.05,0,0,0,15.23,5a1.27,1.27,0,0,0-.94,0,1.14,1.14,0,0,0-.39.27L10.54,8.66a.33.33,0,0,1-.21.09l-.83.16a1.24,1.24,0,0,0-.61.29,1.26,1.26,0,0,0-.37.57,1.11,1.11,0,0,0,0,.65,1.19,1.19,0,0,0,.31.56l1.73,1.74L5,18.26a.4.4,0,0,0-.1.15.48.48,0,0,0,0,.18.47.47,0,0,0,0,.17.4.4,0,0,0,.1.15.45.45,0,0,0,.32.14.48.48,0,0,0,.34-.14l5.53-5.54,1.92,1.92a1.21,1.21,0,0,0,.39.26,1.27,1.27,0,0,0,.46.1,1.11,1.11,0,0,0,.37-.07,1.28,1.28,0,0,0,.55-.37,1.22,1.22,0,0,0,.27-.6l.15-.86a.52.52,0,0,1,.1-.18l3.37-3.37a1.27,1.27,0,0,0,.37-.86A1.25,1.25,0,0,0,18.79,8.47Zm-4.56,6a.33.33,0,0,1-.07.16.35.35,0,0,1-.31.1.27.27,0,0,1-.14-.07L9.44,10.37a.35.35,0,0,1-.06-.14.26.26,0,0,1,0-.15.24.24,0,0,1,.09-.15.35.35,0,0,1,.16-.08l.77-.14,4,4Zm3.89-4.87-3.28,3.28-3.57-3.6L14.54,6a.36.36,0,0,1,.24-.09A.3.3,0,0,1,15,6l3.18,3.18a.33.33,0,0,1,.06.1.51.51,0,0,1,0,.13.36.36,0,0,1,0,.11A.23.23,0,0,1,18.12,9.58Z"/></g></g></g></svg>