<svg xmlns="http://www.w3.org/2000/svg" viewBox="0 0 24 24"><defs><style>.cls-1{fill:none;}.cls-2{fill:#1d1d1b;}</style></defs><g id="Слой_2" data-name="Слой 2"><g id="Line"><g id="Play_Line" data-name="Play/Line"><rect class="cls-1" width="24" height="24"/><path class="cls-2" d="M18.46,20.77H5.54a2.32,2.32,0,0,1-2.31-2.31V5.54A2.32,2.32,0,0,1,5.54,3.23H18.46a2.32,2.32,0,0,1,2.31,2.31V18.46a2.32,2.32,0,0,1-2.31,2.31ZM5.54,4.15A1.4,1.4,0,0,0,4.15,5.54V18.46a1.4,1.4,0,0,0,1.39,1.39H18.46a1.4,1.4,0,0,0,1.39-1.39V5.54a1.4,1.4,0,0,0-1.39-1.39Z"/><path class="cls-2" d="M9.69,15.73a1.42,1.42,0,0,1-.72-.2A1.5,1.5,0,0,1,8.48,15a1.43,1.43,0,0,1-.17-.68V9.65A1.39,1.39,0,0,1,9,8.48a1.42,1.42,0,0,1,.67-.2,1.33,1.33,0,0,1,.68.15l4.61,2.34a1.45,1.45,0,0,1,.56.51,1.37,1.37,0,0,1,.2.72,1.43,1.43,0,0,1-.2.73,1.45,1.45,0,0,1-.56.51l-4.61,2.34A1.39,1.39,0,0,1,9.69,15.73Zm0-6.54a.43.43,0,0,0-.24.08.41.41,0,0,0-.16.16.46.46,0,0,0-.06.22v4.69a.46.46,0,0,0,.06.23.44.44,0,0,0,.16.17.47.47,0,0,0,.46,0l4.61-2.34a.47.47,0,0,0,.19-.18.48.48,0,0,0,.06-.24.42.42,0,0,0-.07-.24.35.35,0,0,0-.18-.16L9.87,9.25Z"/></g></g></g></svg>