<svg xmlns="http://www.w3.org/2000/svg" viewBox="0 0 24 24"><defs><style>.cls-1{fill:none;}.cls-2{fill:#1d1d1b;}</style></defs><g id="Слой_2" data-name="Слой 2"><g id="Line"><g id="Portfolio_Line" data-name="Portfolio/Line"><rect class="cls-1" width="24" height="24"/><path class="cls-2" d="M18.46,7.37h-.74V6A1.38,1.38,0,0,0,16.34,4.6H7.66A1.38,1.38,0,0,0,6.28,6V7.37H5.54A2.32,2.32,0,0,0,3.23,9.69v7.38A2.43,2.43,0,0,0,3.4,18a2.4,2.4,0,0,0,.5.75,2.38,2.38,0,0,0,.75.51,2.25,2.25,0,0,0,.89.18H18.46a2.25,2.25,0,0,0,.89-.18,2.38,2.38,0,0,0,.75-.51,2.4,2.4,0,0,0,.5-.75,2.43,2.43,0,0,0,.17-.89V9.69a2.32,2.32,0,0,0-2.31-2.32ZM7.2,6a.45.45,0,0,1,.14-.33.42.42,0,0,1,.32-.13h8.68a.42.42,0,0,1,.32.13A.45.45,0,0,1,16.8,6V7.37H7.2Zm-3,3.69A1.4,1.4,0,0,1,5.54,8.29H18.46a1.44,1.44,0,0,1,1,.42,1.39,1.39,0,0,1,.41,1v3.08h-6a1.92,1.92,0,0,0-.68-1.06,1.92,1.92,0,0,0-2.4,0,1.92,1.92,0,0,0-.68,1.06h-6ZM13,13.21a.94.94,0,0,1-.12.47,1,1,0,0,1-.37.4,1,1,0,0,1-1.06,0,1,1,0,0,1-.37-.4.94.94,0,0,1-.12-.47.93.93,0,0,1,.12-.46,1,1,0,0,1,.37-.4,1,1,0,0,1,1.06,0,1,1,0,0,1,.37.4A.93.93,0,0,1,13,13.21Zm6.83,3.84a1.4,1.4,0,0,1-.11.53,1.37,1.37,0,0,1-.3.45,1.29,1.29,0,0,1-.45.31,1.36,1.36,0,0,1-.53.11H5.54A1.36,1.36,0,0,1,5,18.34,1.29,1.29,0,0,1,4.56,18a1.37,1.37,0,0,1-.3-.45,1.4,1.4,0,0,1-.11-.53V13.69h6a1.91,1.91,0,0,0,.68,1.07,2,2,0,0,0,2.4,0,1.91,1.91,0,0,0,.68-1.07h6Z"/></g></g></g></svg>