<svg xmlns="http://www.w3.org/2000/svg" viewBox="0 0 24 24"><defs><style>.cls-1{fill:none;}.cls-2{fill:#1d1d1b;}</style></defs><g id="Слой_2" data-name="Слой 2"><g id="Line"><g id="Precipitation_Line" data-name="Precipitation/Line"><rect class="cls-1" width="24" height="24"/><path class="cls-2" d="M17.56,10.39A3.13,3.13,0,0,1,16,10a3.25,3.25,0,0,1-1.17-1.16,3.11,3.11,0,0,1-.44-2.06,5.44,5.44,0,0,1,.35-1q.11-.23.18-.36l1.85-3.69a.76.76,0,0,1,.33-.38.87.87,0,0,1,.5-.13,1,1,0,0,1,.48.14,1,1,0,0,1,.34.37l1.85,3.69.19.39a4,4,0,0,1,.34,1A3.39,3.39,0,0,1,20,9.33a2.88,2.88,0,0,1-.77.62A3.12,3.12,0,0,1,17.56,10.39Zm0-8.3L15.71,5.78c-.06.1-.11.21-.16.31a4.9,4.9,0,0,0-.29.84,2.3,2.3,0,0,0,.21,1.24,2.32,2.32,0,0,0,3.23,1,2.22,2.22,0,0,0,.56-.45,2.38,2.38,0,0,0,.57-1.84,3,3,0,0,0-.28-.77,2,2,0,0,0-.16-.33Z"/><path class="cls-2" d="M9.25,22.86a5.52,5.52,0,0,1-1.52-.21,5.81,5.81,0,0,1-2.13-1A5.89,5.89,0,0,1,4,19.88a5.68,5.68,0,0,1-.75-3.78,10.87,10.87,0,0,1,.68-2c.13-.27.24-.5.33-.67L8,6.06a1.47,1.47,0,0,1,.54-.54,1.43,1.43,0,0,1,.73-.2,1.39,1.39,0,0,1,.72.2,1.42,1.42,0,0,1,.51.55l3.69,7.39c.09.16.22.43.37.75a8.28,8.28,0,0,1,.65,1.89,6.17,6.17,0,0,1-1.49,4.82,6.47,6.47,0,0,1-1.42,1.14A6,6,0,0,1,9.25,22.86ZM4.19,16.27a4.8,4.8,0,0,0,.65,3.14,5,5,0,0,0,1.3,1.49,5.09,5.09,0,0,0,1.78.87,4.85,4.85,0,0,0,2,.13,5.19,5.19,0,0,0,1.87-.64,4.91,4.91,0,0,0,1.2-1,5.17,5.17,0,0,0,1.27-4.05,7.35,7.35,0,0,0-.58-1.65c-.14-.3-.26-.53-.35-.7L9.61,6.5a.42.42,0,0,0-.17-.18.4.4,0,0,0-.24-.07A.48.48,0,0,0,9,6.32a.44.44,0,0,0-.16.17l-3.7,7.39c-.08.15-.18.36-.3.62A10,10,0,0,0,4.19,16.27Z"/></g></g></g></svg>