<svg xmlns="http://www.w3.org/2000/svg" viewBox="0 0 24 24"><defs><style>.cls-1{fill:none;}.cls-2{fill:#1d1d1b;}</style></defs><g id="Слой_2" data-name="Слой 2"><g id="Line"><g id="Presentation_Line" data-name="Presentation/Line"><rect class="cls-1" width="24" height="24"/><path class="cls-2" d="M18.47,4.15H5.54a2.38,2.38,0,0,0-1.63.68,2.33,2.33,0,0,0-.67,1.63v7.29a2.33,2.33,0,0,0,.67,1.64,2.31,2.31,0,0,0,1.63.67H9.85l-2.91,3a.31.31,0,0,0-.1.15.33.33,0,0,0,0,.17.39.39,0,0,0,0,.18.44.44,0,0,0,.1.15.71.71,0,0,0,.14.1.57.57,0,0,0,.18,0,.47.47,0,0,0,.33-.14l3.54-3.65h1.73l3.55,3.65a.44.44,0,0,0,.33.14.47.47,0,0,0,.17,0,.56.56,0,0,0,.15-.1.44.44,0,0,0,.1-.15.39.39,0,0,0,0-.18.33.33,0,0,0,0-.17.31.31,0,0,0-.1-.15l-2.91-3h4.31a2.42,2.42,0,0,0,.88-.17,2.3,2.3,0,0,0,1.25-1.25,2.43,2.43,0,0,0,.17-.89V6.46a2.29,2.29,0,0,0-.67-1.62A2.32,2.32,0,0,0,18.47,4.15Zm1.38,9.6a1.4,1.4,0,0,1-1.38,1.39H5.54a1.38,1.38,0,0,1-1.38-1.39V6.46a1.39,1.39,0,0,1,.4-1,1.38,1.38,0,0,1,1-.4H18.47a1.37,1.37,0,0,1,1,.4,1.4,1.4,0,0,1,.41,1Z"/><path class="cls-2" d="M7.08,12.67a.35.35,0,0,1-.17,0,.71.71,0,0,1-.14-.1.4.4,0,0,1-.1-.15.47.47,0,0,1,0-.17.53.53,0,0,1,0-.18.4.4,0,0,1,.1-.15l3.4-3.65,2.44,2.56,4-3.76a.45.45,0,0,1,.14-.1.43.43,0,0,1,.36,0,.45.45,0,0,1,.14.1.44.44,0,0,1,.1.15.39.39,0,0,1,0,.18.33.33,0,0,1,0,.17.31.31,0,0,1-.1.15l-4.74,4.4-2.4-2.5L7.38,12.54A.42.42,0,0,1,7.08,12.67Z"/></g></g></g></svg>