<svg xmlns="http://www.w3.org/2000/svg" viewBox="0 0 24 24"><defs><style>.cls-1{fill:none;}.cls-2{fill:#1d1d1b;}</style></defs><g id="Слой_2" data-name="Слой 2"><g id="Line"><g id="Previous_Line" data-name="Previous/Line"><rect class="cls-1" width="24" height="24"/><path class="cls-2" d="M15.32,20.77a.46.46,0,0,1-.2-.05A.33.33,0,0,1,15,20.6L8.49,12.73A1.15,1.15,0,0,1,8.22,12a1.13,1.13,0,0,1,.27-.73L15,3.4a.44.44,0,0,1,.31-.17.47.47,0,0,1,.34.11.3.3,0,0,1,.11.14.34.34,0,0,1,0,.17.37.37,0,0,1,0,.18.35.35,0,0,1-.08.16L9.2,11.86a.22.22,0,0,0,0,.28L15.67,20a.51.51,0,0,1,.1.34.49.49,0,0,1-.16.32A.51.51,0,0,1,15.32,20.77Z"/></g></g></g></svg>