<svg xmlns="http://www.w3.org/2000/svg" viewBox="0 0 24 24"><defs><style>.cls-1{fill:none;}.cls-2{fill:#1d1d1b;}</style></defs><g id="Слой_2" data-name="Слой 2"><g id="Line"><g id="Printer_Line" data-name="Printer/Line"><rect class="cls-1" width="24" height="24"/><path class="cls-2" d="M19.19,10.66a.49.49,0,0,1-.2-.18.48.48,0,0,1-.07-.26V8.74a1.37,1.37,0,0,0-1.38-1.38H16.15V5.66a1.38,1.38,0,0,0-1.38-1.39H9.23A1.38,1.38,0,0,0,7.85,5.66V7.32H6.46a1.45,1.45,0,0,0-.54.11,1.41,1.41,0,0,0-.75.77,1.26,1.26,0,0,0-.09.54v1.48a.48.48,0,0,1-.07.26.44.44,0,0,1-.2.18,2.3,2.3,0,0,0-1.14.85,2.25,2.25,0,0,0-.44,1.35v4.56a2.32,2.32,0,0,0,.68,1.63,2.36,2.36,0,0,0,1.63.68H18.46a2.36,2.36,0,0,0,1.63-.68,2.32,2.32,0,0,0,.68-1.63V12.86a2.25,2.25,0,0,0-.44-1.35A2.3,2.3,0,0,0,19.19,10.66Zm-10.42-5a.44.44,0,0,1,.46-.46h5.54a.44.44,0,0,1,.46.46v5.08H8.77ZM19.85,17.42a1.38,1.38,0,0,1-1.39,1.38H5.54a1.38,1.38,0,0,1-1.39-1.38V12.86a1.46,1.46,0,0,1,.25-.81,1.33,1.33,0,0,1,.68-.51A1.36,1.36,0,0,0,5.75,11,1.32,1.32,0,0,0,6,10.22V8.74a.48.48,0,0,1,.46-.46H7.85v2.49H7.38a.48.48,0,0,0-.46.46.45.45,0,0,0,.14.33.43.43,0,0,0,.32.14h9.24a.43.43,0,0,0,.32-.14.45.45,0,0,0,.14-.33.48.48,0,0,0-.46-.46h-.47V8.24h1.39a.43.43,0,0,1,.32.14A.45.45,0,0,1,18,8.7v1.52a1.35,1.35,0,0,0,.92,1.32,1.42,1.42,0,0,1,.67.51,1.39,1.39,0,0,1,.26.81Z"/><path class="cls-2" d="M17.76,16.58h-.68v-.93a1.4,1.4,0,0,0-1.39-1.38H8.31a1.4,1.4,0,0,0-1.39,1.38v.93H6.24a.44.44,0,0,0-.46.46.48.48,0,0,0,.46.46H17.76a.48.48,0,0,0,.46-.46.44.44,0,0,0-.46-.46Zm-1.61,0H7.85v-.93A.44.44,0,0,1,8,15.33a.47.47,0,0,1,.33-.14h7.38a.47.47,0,0,1,.33.14.44.44,0,0,1,.13.32Z"/><path class="cls-2" d="M13.62,8.8H10.38a.48.48,0,0,1-.46-.46A.45.45,0,0,1,10.06,8a.43.43,0,0,1,.32-.14h3.24a.43.43,0,0,1,.32.14.45.45,0,0,1,.14.33.48.48,0,0,1-.46.46Z"/><path class="cls-2" d="M13.62,7.1H10.38a.48.48,0,0,1-.46-.46.45.45,0,0,1,.14-.33.42.42,0,0,1,.32-.13h3.24a.42.42,0,0,1,.32.13.45.45,0,0,1,.14.33.49.49,0,0,1-.14.32A.45.45,0,0,1,13.62,7.1Z"/></g></g></g></svg>