<svg xmlns="http://www.w3.org/2000/svg" viewBox="0 0 24 24"><defs><style>.cls-1{fill:none;}.cls-2{fill:#1d1d1b;}</style></defs><g id="Слой_2" data-name="Слой 2"><g id="Line"><g id="Purse_Line" data-name="Purse/Line"><rect class="cls-1" width="24" height="24"/><path class="cls-2" d="M18.46,4.62H5.54a2.31,2.31,0,0,0-1.63.67,2.28,2.28,0,0,0-.68,1.63V17.08a2.28,2.28,0,0,0,.68,1.63,2.32,2.32,0,0,0,1.63.68H18.46a2.32,2.32,0,0,0,1.63-.68,2.28,2.28,0,0,0,.68-1.63V6.92a2.28,2.28,0,0,0-.68-1.63A2.31,2.31,0,0,0,18.46,4.62ZM4.15,6.92a1.42,1.42,0,0,1,.41-1,1.39,1.39,0,0,1,1-.41H18.46a1.38,1.38,0,0,1,1,.4,1.4,1.4,0,0,1,.41,1v3.35H13.38a1.22,1.22,0,0,1,0,.92,1.39,1.39,0,0,1-.5.67,1.4,1.4,0,0,1-.8.25,1.34,1.34,0,0,1-.79-.26,1.39,1.39,0,0,1-.51-.66,1.32,1.32,0,0,1,0-.92H4.19Zm15.7,10.16a1.4,1.4,0,0,1-.41,1,1.38,1.38,0,0,1-1,.4H5.54a1.38,1.38,0,0,1-1-.4,1.4,1.4,0,0,1-.41-1V11.19H9.78A2.32,2.32,0,0,0,12.05,13a2.3,2.3,0,0,0,2.26-1.85h5.54Z"/></g></g></g></svg>