<svg xmlns="http://www.w3.org/2000/svg" viewBox="0 0 24 24"><defs><style>.cls-1{fill:none;}.cls-2{fill:#1d1d1b;}</style></defs><g id="Слой_2" data-name="Слой 2"><g id="Line"><g id="QRCode_Line" data-name="QRCode/Line"><rect class="cls-1" width="24" height="24"/><path class="cls-2" d="M18.46,20.77H5.54a2.32,2.32,0,0,1-2.31-2.31V5.54A2.32,2.32,0,0,1,5.54,3.23H18.46a2.23,2.23,0,0,1,.88.18,2.1,2.1,0,0,1,.75.5,2.1,2.1,0,0,1,.5.75,2.16,2.16,0,0,1,.18.88V18.46a2.25,2.25,0,0,1-.18.89,2.15,2.15,0,0,1-.5.74,2.1,2.1,0,0,1-.75.5A2.23,2.23,0,0,1,18.46,20.77ZM5.54,4.15A1.4,1.4,0,0,0,4.15,5.54V18.46a1.4,1.4,0,0,0,1.39,1.39H18.46a1.4,1.4,0,0,0,1.39-1.39V5.54a1.4,1.4,0,0,0-1.39-1.39Z"/><path class="cls-2" d="M17.33,11.08H14.56a1.4,1.4,0,0,1-1.39-1.39V6.92a1.4,1.4,0,0,1,.41-1,1.38,1.38,0,0,1,1-.4h2.77a1.38,1.38,0,0,1,1.38,1.38V9.69a1.4,1.4,0,0,1-.11.53,1.23,1.23,0,0,1-.3.45,1.32,1.32,0,0,1-.44.3A1.4,1.4,0,0,1,17.33,11.08ZM14.56,6.46a.45.45,0,0,0-.33.14.42.42,0,0,0-.13.32V9.69a.44.44,0,0,0,.13.33.49.49,0,0,0,.33.13h2.77a.48.48,0,0,0,.32-.13.47.47,0,0,0,.14-.33V6.92a.48.48,0,0,0-.46-.46Z"/><path class="cls-2" d="M16.4,7.39h-.92a.46.46,0,0,0-.46.46v.92a.47.47,0,0,0,.46.46h.92a.46.46,0,0,0,.46-.46V7.85A.45.45,0,0,0,16.4,7.39Z"/><path class="cls-2" d="M7.13,5.54H6.21A.46.46,0,0,0,5.75,6v.92a.47.47,0,0,0,.46.47h.92a.47.47,0,0,0,.47-.47V6A.46.46,0,0,0,7.13,5.54Z"/><path class="cls-2" d="M10.83,5.54H9.9A.46.46,0,0,0,9.44,6v.92a.47.47,0,0,0,.46.47h.93a.47.47,0,0,0,.46-.47V6A.46.46,0,0,0,10.83,5.54Z"/><path class="cls-2" d="M7.13,9.23H6.21a.47.47,0,0,0-.46.46v.92a.47.47,0,0,0,.46.47h.92a.47.47,0,0,0,.47-.47V9.69A.47.47,0,0,0,7.13,9.23Z"/><path class="cls-2" d="M10.83,9.23H9.9a.47.47,0,0,0-.46.46v.92a.47.47,0,0,0,.46.47h.93a.47.47,0,0,0,.46-.47V9.69A.47.47,0,0,0,10.83,9.23Z"/><path class="cls-2" d="M9.48,18.46H6.71a1.38,1.38,0,0,1-1-.4,1.39,1.39,0,0,1-.4-1V14.31a1.38,1.38,0,0,1,1.38-1.39H9.48a1.38,1.38,0,0,1,1.38,1.39v2.77a1.39,1.39,0,0,1-.4,1A1.38,1.38,0,0,1,9.48,18.46ZM6.71,13.85a.51.51,0,0,0-.33.13.49.49,0,0,0-.13.33v2.77a.48.48,0,0,0,.46.46H9.48a.47.47,0,0,0,.33-.14.46.46,0,0,0,.13-.32V14.31A.49.49,0,0,0,9.81,14a.51.51,0,0,0-.33-.13Z"/><path class="cls-2" d="M7.6,16.61h.92A.46.46,0,0,0,9,16.15v-.92a.47.47,0,0,0-.46-.46H7.6a.47.47,0,0,0-.47.46v.92A.46.46,0,0,0,7.6,16.61Z"/><path class="cls-2" d="M16.86,18.46h.93a.46.46,0,0,0,.46-.46v-.92a.47.47,0,0,0-.46-.47h-.93a.47.47,0,0,0-.46.47V18A.46.46,0,0,0,16.86,18.46Z"/><path class="cls-2" d="M13.17,18.46h.93a.46.46,0,0,0,.46-.46v-.92a.47.47,0,0,0-.46-.47h-.93a.47.47,0,0,0-.46.47V18A.46.46,0,0,0,13.17,18.46Z"/><path class="cls-2" d="M16.86,14.77h.93a.47.47,0,0,0,.46-.46v-.92a.47.47,0,0,0-.46-.47h-.93a.47.47,0,0,0-.46.47v.92A.47.47,0,0,0,16.86,14.77Z"/><path class="cls-2" d="M13.17,14.77h.93a.47.47,0,0,0,.46-.46v-.92a.47.47,0,0,0-.46-.47h-.93a.47.47,0,0,0-.46.47v.92A.47.47,0,0,0,13.17,14.77Z"/></g></g></g></svg>