<svg xmlns="http://www.w3.org/2000/svg" viewBox="0 0 24 24"><defs><style>.cls-1{fill:none;}.cls-2{fill:#1d1d1b;}</style></defs><g id="Слой_2" data-name="Слой 2"><g id="Line"><g id="Rain_Line" data-name="Rain/Line"><rect class="cls-1" width="24" height="24"/><path class="cls-2" d="M18,10.6H14.47a.49.49,0,0,1-.33-.13.52.52,0,0,1-.14-.33.43.43,0,0,1,.14-.32.44.44,0,0,1,.33-.14H18a.45.45,0,0,1,.32.14.43.43,0,0,1,.14.32.45.45,0,0,1-.14.33A.48.48,0,0,1,18,10.6Z"/><path class="cls-2" d="M21.23,11.43h-1a5.89,5.89,0,0,0-.36-5.25,6,6,0,0,0-8.19-2.13A5.87,5.87,0,0,0,9.07,7.21,4.06,4.06,0,0,0,7.19,6.9a4.05,4.05,0,0,0-1.82.54,4.15,4.15,0,0,0-2,4H2.77a.47.47,0,0,0-.33.14.49.49,0,0,0-.13.33.45.45,0,0,0,.14.32.47.47,0,0,0,.32.14H21.23a.47.47,0,0,0,.33-.14.46.46,0,0,0,.13-.32.49.49,0,0,0-.13-.33A.47.47,0,0,0,21.23,11.43Zm-2,0h-15a3.13,3.13,0,0,1,.3-1.83A3.23,3.23,0,0,1,5.81,8.23a3.25,3.25,0,0,1,3.3,0l.54.32.14-.61a5.06,5.06,0,0,1,.87-1.81,4.75,4.75,0,0,1,1.5-1.32,5.11,5.11,0,0,1,7,1.84A5,5,0,0,1,19.78,9,4.88,4.88,0,0,1,19.22,11.43Z"/><path class="cls-2" d="M16.29,17.29a1.58,1.58,0,0,1-.77-.2,1.46,1.46,0,0,1-.57-.56,1.43,1.43,0,0,1-.2-1,2.6,2.6,0,0,1,.16-.47L15,14.9l.72-1.43a.85.85,0,0,1,.24-.26.67.67,0,0,1,.34-.09.67.67,0,0,1,.34.1.61.61,0,0,1,.23.25l.73,1.44.09.16a1.36,1.36,0,0,1,.15.47,1.52,1.52,0,0,1-.06.67,1.68,1.68,0,0,1-.33.58,2.06,2.06,0,0,1-.37.29A1.55,1.55,0,0,1,16.29,17.29Zm0-2.91-.54,1.06a1.43,1.43,0,0,0-.09.27.48.48,0,0,0,.08.35.67.67,0,0,0,.39.29.61.61,0,0,0,.48-.07.44.44,0,0,0,.15-.12.61.61,0,0,0,.13-.22.58.58,0,0,0,0-.26,1.43,1.43,0,0,0-.08-.22l-.06-.12Z"/><path class="cls-2" d="M11.56,17.29a1.65,1.65,0,0,1-.78-.2,1.7,1.7,0,0,1-.57-.56,1.49,1.49,0,0,1-.22-1,2,2,0,0,1,.16-.47,1.09,1.09,0,0,1,.08-.15L11,13.47a.64.64,0,0,1,.24-.25.63.63,0,0,1,.68,0,.61.61,0,0,1,.23.25l.73,1.44.08.16a1.62,1.62,0,0,1,.14,1.13,1.48,1.48,0,0,1-.29.59,2.06,2.06,0,0,1-.37.29A1.73,1.73,0,0,1,11.56,17.29Zm0-2.91L11,15.44a1.25,1.25,0,0,0-.1.27.6.6,0,0,0,.08.35.7.7,0,0,0,.18.2.66.66,0,0,0,.24.11.57.57,0,0,0,.26,0,.77.77,0,0,0,.25-.1.53.53,0,0,0,.14-.12.64.64,0,0,0,.14-.22.58.58,0,0,0,0-.26l-.09-.22a.34.34,0,0,0-.06-.12Z"/><path class="cls-2" d="M13.93,20.76a1.55,1.55,0,0,1-.78-.21,1.61,1.61,0,0,1-.57-.56,1.48,1.48,0,0,1-.19-1,2.74,2.74,0,0,1,.15-.46l.08-.14.73-1.44a.55.55,0,0,1,.24-.26.65.65,0,0,1,.66,0,.6.6,0,0,1,.24.26l.73,1.44a.71.71,0,0,1,.07.15,1.66,1.66,0,0,1,.17.47,1.51,1.51,0,0,1-.06.67,1.59,1.59,0,0,1-.33.58,1.28,1.28,0,0,1-.37.29A1.52,1.52,0,0,1,13.93,20.76Zm0-2.92-.54,1.07c-.06.13-.1.24-.11.27a.64.64,0,0,0,.1.35.55.55,0,0,0,.16.18.51.51,0,0,0,.22.11.71.71,0,0,0,.25,0,.92.92,0,0,0,.23-.09.33.33,0,0,0,.15-.11.48.48,0,0,0,.13-.23.75.75,0,0,0,0-.26l-.09-.22-.06-.11Z"/></g></g></g></svg>