<svg xmlns="http://www.w3.org/2000/svg" viewBox="0 0 24 24"><defs><style>.cls-1{fill:none;}.cls-2{fill:#1d1d1b;}</style></defs><g id="Слой_2" data-name="Слой 2"><g id="Line"><g id="Reject_Line" data-name="Reject/Line"><rect class="cls-1" width="24" height="24"/><path class="cls-2" d="M12,3.23A8.77,8.77,0,1,0,18.2,5.8,8.81,8.81,0,0,0,12,3.23Zm0,.92a7.86,7.86,0,0,1,5.93,13L6.72,6.21A7.81,7.81,0,0,1,12,4.15Zm0,15.7A7.89,7.89,0,0,1,4.15,12,7.78,7.78,0,0,1,6.07,6.88L17.28,17.8A7.82,7.82,0,0,1,12,19.85Z"/></g></g></g></svg>