<svg xmlns="http://www.w3.org/2000/svg" viewBox="0 0 24 24"><defs><style>.cls-1{fill:none;}.cls-2{fill:#1d1d1b;}</style></defs><g id="Слой_2" data-name="Слой 2"><g id="Line"><g id="Rhythm_Line" data-name="Rhythm/Line"><rect class="cls-1" width="24" height="24"/><path class="cls-2" d="M22.58,11.63h-1.5a5.62,5.62,0,0,0,.76-2.77,5.53,5.53,0,0,0-5.4-5.62,5.37,5.37,0,0,0-4.16,2,5.35,5.35,0,0,0-1.85-1.49,5.28,5.28,0,0,0-2.31-.53A5.6,5.6,0,0,0,3,10.67H1.39a.45.45,0,0,0-.33.14.43.43,0,0,0-.14.32.45.45,0,0,0,.14.33.49.49,0,0,0,.33.13H3.45a5.42,5.42,0,0,0,.93,1.25l6.46,7.21a2.14,2.14,0,0,0,.71.52,2,2,0,0,0,.87.19,2.15,2.15,0,0,0,.9-.2A2.07,2.07,0,0,0,14,20l6.18-7.17.19-.21.05-.07h2.15a.44.44,0,0,0,.33-.13.47.47,0,0,0,.14-.33.53.53,0,0,0,0-.18.46.46,0,0,0-.11-.16l-.16-.1A.62.62,0,0,0,22.58,11.63Zm-9.23,7.79a1.18,1.18,0,0,1-.42.32,1.27,1.27,0,0,1-1,0,1.25,1.25,0,0,1-.42-.3L5,12.22a3.75,3.75,0,0,1-.51-.61H6.27L8.66,9.23l2.39,2.39,3.69,3.69,2.77-2.77h1.7ZM20,11.63H17.14L14.75,14,8.66,7.92,5.89,10.69H4a4.9,4.9,0,0,1-.38-1.85A4.63,4.63,0,0,1,8.12,4.16a4.44,4.44,0,0,1,3.8,2.14l.39.63.35-.63a4.46,4.46,0,0,1,3.78-2.14,4.63,4.63,0,0,1,4.48,4.66A4.75,4.75,0,0,1,20,11.63Z"/></g></g></g></svg>