<svg xmlns="http://www.w3.org/2000/svg" viewBox="0 0 24 24"><defs><style>.cls-1{fill:none;}.cls-2{fill:#1d1d1b;}</style></defs><g id="Слой_2" data-name="Слой 2"><g id="Line"><g id="Rocket_Line" data-name="Rocket/Line"><rect class="cls-1" width="24" height="24"/><path class="cls-2" d="M18.6,10.12,13.85,7.36l-.16-.48c0-.16-.13-.41-.24-.69a9.88,9.88,0,0,0-.92-1.84,5.66,5.66,0,0,0-3.14-2.1,5.82,5.82,0,0,0-2.72,0A5.88,5.88,0,0,0,4.23,3.38,5.88,5.88,0,0,0,2.06,8.2a6,6,0,0,0,2.28,4.36,7.72,7.72,0,0,0,1.76.85l.77.27.47.16,2.77,4.76a1.31,1.31,0,0,0,.5.49,1.29,1.29,0,0,0,.67.18h.09a1.28,1.28,0,0,0,.7-.24,1.42,1.42,0,0,0,.48-.58l1.07-2.52.86.29a1.54,1.54,0,0,0,.43.06,1.32,1.32,0,0,0,.92-.4,1.27,1.27,0,0,0,.38-.65,1.37,1.37,0,0,0,0-.75l-.28-.87,2.52-1.07a1.31,1.31,0,0,0,.57-.47,1.4,1.4,0,0,0,.24-.71,1.35,1.35,0,0,0-.14-.71A1.38,1.38,0,0,0,18.6,10.12Zm-6.89,8a.49.49,0,0,1-.16.19.48.48,0,0,1-.23.07.37.37,0,0,1-.23,0,.37.37,0,0,1-.18-.17L8.72,14.34l4,1.35Zm3.51-2.86a.36.36,0,0,1-.2.11.49.49,0,0,1-.24,0l-7.6-2.54-.72-.24a7.48,7.48,0,0,1-1.54-.73A5.11,5.11,0,0,1,3,8.16,5,5,0,0,1,4,4.93,4.9,4.9,0,0,1,5.46,3.65,4.69,4.69,0,0,1,7.28,3a4.79,4.79,0,0,1,1.92.12,4.66,4.66,0,0,1,2.59,1.7,9.39,9.39,0,0,1,.8,1.66c.1.25.17.48.22.64l2.53,7.62a.46.46,0,0,1,0,.26A.44.44,0,0,1,15.22,15.25Zm3.13-3.93a.41.41,0,0,1-.08.24.38.38,0,0,1-.18.15l-2.41,1.06-1.35-4L18.14,11a.35.35,0,0,1,.16.16A.31.31,0,0,1,18.35,11.32Z"/><path class="cls-2" d="M8.35,10.6a2,2,0,0,1-.87-.17,2.23,2.23,0,0,1-.73-.49,2.27,2.27,0,0,1-.66-1.6A2.26,2.26,0,0,1,7.48,6.26a2.14,2.14,0,0,1,1.72,0,2,2,0,0,1,.73.49,2.26,2.26,0,0,1,0,3.19,2.09,2.09,0,0,1-.72.49A2,2,0,0,1,8.35,10.6ZM8.35,7a1.31,1.31,0,0,0-.93.39,1.33,1.33,0,0,0-.28,1.45,1.29,1.29,0,0,0,1.94.6,1.41,1.41,0,0,0,.48-.6,1.35,1.35,0,0,0,.07-.77,1.29,1.29,0,0,0-.36-.68,1.37,1.37,0,0,0-.42-.29A1.24,1.24,0,0,0,8.35,7Z"/><path class="cls-2" d="M17,21.93h.86a.45.45,0,0,0,.46-.46v-.88a.46.46,0,0,0-.46-.46H17a.47.47,0,0,0-.47.46v.88A.46.46,0,0,0,17,21.93Z"/><path class="cls-2" d="M20.61,18.33h.87a.46.46,0,0,0,.46-.46V17a.46.46,0,0,0-.46-.46h-.87a.47.47,0,0,0-.46.46v.88A.47.47,0,0,0,20.61,18.33Z"/><path class="cls-2" d="M17,18.33h.86a.46.46,0,0,0,.46-.46V17a.46.46,0,0,0-.46-.46H17a.47.47,0,0,0-.47.46v.88A.47.47,0,0,0,17,18.33Z"/></g></g></g></svg>