<svg xmlns="http://www.w3.org/2000/svg" viewBox="0 0 24 24"><defs><style>.cls-1{fill:none;}.cls-2{fill:#1d1d1b;}</style></defs><g id="Слой_2" data-name="Слой 2"><g id="Line"><g id="Save_Line" data-name="Save/Line"><rect class="cls-1" width="24" height="24"/><path class="cls-2" d="M20.77,8.82V19a2.32,2.32,0,0,1-2.31,2.3H5.54A2.3,2.3,0,0,1,3.23,19V8.82A2.32,2.32,0,0,1,3.9,7.17a2.27,2.27,0,0,1,.75-.51,2.44,2.44,0,0,1,.89-.18H6.92v.93H5.54a1.38,1.38,0,0,0-1,.4,1.4,1.4,0,0,0-.41,1V19a1.4,1.4,0,0,0,.41,1,1.38,1.38,0,0,0,1,.4H18.46a1.38,1.38,0,0,0,1-.4,1.4,1.4,0,0,0,.41-1V8.79a1.4,1.4,0,0,0-.41-1,1.38,1.38,0,0,0-1-.4H17.08V6.48h1.38a2.45,2.45,0,0,1,.89.19,2.24,2.24,0,0,1,.75.5,2.39,2.39,0,0,1,.5.76A2.47,2.47,0,0,1,20.77,8.82Z"/><path class="cls-2" d="M15.1,6.29a.4.4,0,0,1-.15.1.47.47,0,0,1-.17,0,.51.51,0,0,1-.33-.13l-2-2v7.5a.47.47,0,0,1-.14.33.46.46,0,0,1-.32.13.44.44,0,0,1-.46-.46V4.29l-2,2a.31.31,0,0,1-.15.1.34.34,0,0,1-.18,0,.33.33,0,0,1-.17,0,.31.31,0,0,1-.15-.1A.44.44,0,0,1,8.78,6a.44.44,0,0,1,.13-.33l2.77-2.77a.39.39,0,0,1,.19-.12.28.28,0,0,1,.18,0,.33.33,0,0,1,.14,0,.42.42,0,0,1,.15.11l2.77,2.76a.51.51,0,0,1,.13.33A.43.43,0,0,1,15.1,6.29Z"/></g></g></g></svg>