<svg xmlns="http://www.w3.org/2000/svg" viewBox="0 0 24 24"><defs><style>.cls-1{fill:none;}.cls-2{fill:#1d1d1b;}</style></defs><g id="Слой_2" data-name="Слой 2"><g id="Line"><g id="Scale_Decrease_Line" data-name="Scale/Decrease/Line"><rect class="cls-1" width="24" height="24"/><path class="cls-2" d="M18.74,18.11l-2.6-4.42a6.17,6.17,0,0,0,1.61-3.57,6.27,6.27,0,0,0-.84-3.81A6.37,6.37,0,0,0,8.24,4.07,6.31,6.31,0,0,0,6.37,5.69,6.1,6.1,0,0,0,5.28,7.9a6.19,6.19,0,0,0-.16,2.46,6.38,6.38,0,0,0,6.36,5.45,6.9,6.9,0,0,0,1.36-.14l2.56,4.41a1.39,1.39,0,0,0,.53.52,1.41,1.41,0,0,0,.72.19,1.52,1.52,0,0,0,.72-.19l.85-.52a1.4,1.4,0,0,0,.66-.88A1.44,1.44,0,0,0,18.74,18.11Zm-12-5.92a5.41,5.41,0,0,1-.67-2A5.26,5.26,0,0,1,6.2,8.12,5.31,5.31,0,0,1,8.71,4.87,5.45,5.45,0,0,1,16.1,6.79a5.33,5.33,0,0,1,.69,3.38,5.27,5.27,0,0,1-1.51,3.09l0,0-.28.24a5.08,5.08,0,0,1-.82.58,5.4,5.4,0,0,1-4.74.33A5.49,5.49,0,0,1,6.74,12.19Zm11,7.09-.85.48a.6.6,0,0,1-.19.06h-.2a.66.66,0,0,1-.19-.09.47.47,0,0,1-.13-.15l-2.49-4.23.45-.19.44-.23.42-.26.43-.32,2.49,4.22A.49.49,0,0,1,18,19,.54.54,0,0,1,17.76,19.28Z"/><path class="cls-2" d="M15.65,15.6l.28-.24Z"/><path class="cls-2" d="M13.27,9.92H9.58a.46.46,0,0,1-.33-.13.49.49,0,0,1-.13-.33.46.46,0,0,1,.13-.32A.47.47,0,0,1,9.58,9h3.69a.47.47,0,0,1,.33.14.46.46,0,0,1,.13.32.49.49,0,0,1-.13.33A.46.46,0,0,1,13.27,9.92Z"/></g></g></g></svg>