<svg xmlns="http://www.w3.org/2000/svg" viewBox="0 0 24 24"><defs><style>.cls-1{fill:none;}.cls-2{fill:#1d1d1b;}</style></defs><g id="Слой_2" data-name="Слой 2"><g id="Line"><g id="Scale_Increase_Line" data-name="Scale/Increase/Line"><rect class="cls-1" width="24" height="24"/><path class="cls-2" d="M18.72,18.15l-2.6-4.42a6.22,6.22,0,0,0,.78-7.38A6.34,6.34,0,0,0,5.29,7.9a6.32,6.32,0,0,0-.15,2.45,6.16,6.16,0,0,0,.8,2.32,6.36,6.36,0,0,0,5.54,3.12,6.3,6.3,0,0,0,1.36-.15l2.59,4.42a1.47,1.47,0,0,0,.88.66,1.44,1.44,0,0,0,1.09-.15l.85-.48a1.43,1.43,0,0,0,.47-1.94Zm-12-5.92a5.52,5.52,0,0,1-.69-2,5.35,5.35,0,0,1,.13-2.07A5.43,5.43,0,0,1,7.07,6.3,5.35,5.35,0,0,1,8.64,4.91a5.55,5.55,0,0,1,2.7-.73A5.42,5.42,0,0,1,16,6.84a5.34,5.34,0,0,1-.86,6.46,5.57,5.57,0,0,1-1.1.83,5.73,5.73,0,0,1-1.25.53,5.49,5.49,0,0,1-6.11-2.43Zm11,7.09-.85.48a.51.51,0,0,1-.4.05.5.5,0,0,1-.32-.23l-2.52-4.23a4.32,4.32,0,0,0,.45-.19l.45-.23a5.45,5.45,0,0,0,.84-.58l2.49,4.23a.5.5,0,0,1,.06.38A.51.51,0,0,1,17.74,19.32Z"/><path class="cls-2" d="M13.68,9.53a.47.47,0,0,1-.14.33.44.44,0,0,1-.33.13H11.83v1.37a.47.47,0,0,1-.14.33.46.46,0,0,1-.32.13.51.51,0,0,1-.33-.13.46.46,0,0,1-.13-.33V10H9.49a.42.42,0,0,1-.32-.13A.47.47,0,0,1,9,9.53a.43.43,0,0,1,.14-.32.45.45,0,0,1,.32-.14h1.39V7.71A.45.45,0,0,1,11,7.38a.45.45,0,0,1,.65,0,.49.49,0,0,1,.13.33V9.07h1.39l.18,0a.39.39,0,0,1,.16.1.42.42,0,0,1,.11.15A.58.58,0,0,1,13.68,9.53Z"/></g></g></g></svg>