<svg xmlns="http://www.w3.org/2000/svg" viewBox="0 0 24 24"><defs><style>.cls-1{fill:none;}.cls-2{fill:#1d1d1b;}</style></defs><g id="Слой_2" data-name="Слой 2"><g id="Line"><g id="Settings_Line" data-name="Settings/Line"><rect class="cls-1" width="24" height="24"/><path class="cls-2" d="M12.53,20.76H11.44a1.35,1.35,0,0,1-.56-.1,1.38,1.38,0,0,1-.47-.31,1.27,1.27,0,0,1-.32-.47,1.51,1.51,0,0,1-.11-.56V18.4a6.82,6.82,0,0,1-1.11-.49l-.66.68a1.52,1.52,0,0,1-1,.41,1.48,1.48,0,0,1-1-.41l-.8-.77a1.45,1.45,0,0,1-.42-1,1.43,1.43,0,0,1,.42-1l.71-.64A6.43,6.43,0,0,1,5.61,14H4.69a1.43,1.43,0,0,1-1.44-1.44V11.45A1.43,1.43,0,0,1,4.69,10h.92a6.53,6.53,0,0,1,.46-1.13L5.4,8.2a1.39,1.39,0,0,1-.31-.45,1.43,1.43,0,0,1,0-1.1,1.27,1.27,0,0,1,.32-.47l.75-.76a1.31,1.31,0,0,1,.48-.32A1.38,1.38,0,0,1,7.21,5a1.49,1.49,0,0,1,.55.1,1.62,1.62,0,0,1,.46.31l.68.67A7.19,7.19,0,0,1,10,5.63V4.7a1.35,1.35,0,0,1,.1-.56,1.31,1.31,0,0,1,.32-.48,1.39,1.39,0,0,1,.48-.32,1.37,1.37,0,0,1,.57-.1h1.08a1.42,1.42,0,0,1,1,.42,1.44,1.44,0,0,1,.43,1V5.6a6.37,6.37,0,0,1,1.11.47l.69-.67a1.47,1.47,0,0,1,1-.4,1.51,1.51,0,0,1,1,.4l.75.74a1.63,1.63,0,0,1,.32.47,1.5,1.5,0,0,1,.11.55,1.55,1.55,0,0,1-.11.56,1.47,1.47,0,0,1-.32.46l-.68.7A6.37,6.37,0,0,1,18.35,10h.92a1.56,1.56,0,0,1,.57.1,1.39,1.39,0,0,1,.48.32,1.31,1.31,0,0,1,.32.48,1.36,1.36,0,0,1,.11.56v1.08A1.43,1.43,0,0,1,19.31,14h-.92a6.72,6.72,0,0,1-.49,1.17l.66.68a1.47,1.47,0,0,1,.32.46,1.5,1.5,0,0,1,.11.55,1.46,1.46,0,0,1-.11.55,1.4,1.4,0,0,1-.32.47l-.76.76a1.45,1.45,0,0,1-1,.41,1.44,1.44,0,0,1-1-.41l-.67-.7a5.74,5.74,0,0,1-1.12.46v.93a1.36,1.36,0,0,1-.11.56,1.33,1.33,0,0,1-.31.47,1.27,1.27,0,0,1-.47.32A1.15,1.15,0,0,1,12.53,20.76Zm-3.81-4,.31.17a5.77,5.77,0,0,0,1.54.64l.35.09v1.66a.51.51,0,0,0,.52.52h1.09a.51.51,0,0,0,.36-.15.51.51,0,0,0,.15-.37V17.66l.35-.09a5.83,5.83,0,0,0,1.55-.64l.31-.17,1.19,1.15a.52.52,0,0,0,.17.12.45.45,0,0,0,.2,0A.41.41,0,0,0,17,18a.39.39,0,0,0,.17-.11l.77-.76a.51.51,0,0,0,.15-.37.48.48,0,0,0-.15-.36l-1.16-1.19.19-.3a5.72,5.72,0,0,0,.62-1.54l.09-.35h1.67a.53.53,0,0,0,.36-.15.51.51,0,0,0,.15-.37V11.45a.48.48,0,0,0-.15-.36.5.5,0,0,0-.36-.16H17.63l-.08-.36a5.28,5.28,0,0,0-.64-1.51l-.19-.31,1.19-1.19a.58.58,0,0,0,.15-.37.56.56,0,0,0-.15-.37l-.76-.76a.55.55,0,0,0-.37-.14.57.57,0,0,0-.37.14l-1.19,1.2-.3-.19a5,5,0,0,0-1.53-.64L13,6.35V4.68a.51.51,0,0,0-.15-.37.51.51,0,0,0-.36-.15H11.45a.51.51,0,0,0-.52.52V6.35l-.35.08a5.22,5.22,0,0,0-1.52.64l-.32.18L7.55,6.07a.5.5,0,0,0-.34-.16.57.57,0,0,0-.38.14l-.77.79A.64.64,0,0,0,6,7a.51.51,0,0,0,0,.2.49.49,0,0,0,.15.36l1.15,1.2L7,9.07a5.28,5.28,0,0,0-.64,1.51l-.08.36H4.65a.53.53,0,0,0-.36.15.51.51,0,0,0-.15.37v1.08a.51.51,0,0,0,.15.37.53.53,0,0,0,.36.15H6.29l.09.35A5.43,5.43,0,0,0,7,15l.17.3L6.06,16.44a.48.48,0,0,0-.12.16.45.45,0,0,0,0,.2.52.52,0,0,0,.16.37l.76.75A.61.61,0,0,0,7,18a.48.48,0,0,0,.2,0,.54.54,0,0,0,.37-.15Z"/><path class="cls-2" d="M12,15.73A3.73,3.73,0,1,1,15.71,12,3.73,3.73,0,0,1,12,15.73Zm0-6.46A2.73,2.73,0,1,0,14.71,12,2.74,2.74,0,0,0,12,9.27Z"/></g></g></g></svg>