<svg xmlns="http://www.w3.org/2000/svg" viewBox="0 0 24 24"><defs><style>.cls-1{fill:none;}.cls-2{fill:#1d1d1b;}</style></defs><g id="Слой_2" data-name="Слой 2"><g id="Line"><g id="ShopBasket_Line" data-name="ShopBasket/Line"><rect class="cls-1" width="24" height="24"/><path class="cls-2" d="M18.12,7.13H8.64a2.36,2.36,0,0,0-1.25.33V3.36H4.15a.46.46,0,0,0-.32.13.46.46,0,0,0,0,.66.46.46,0,0,0,.32.13H6.46V14.51a2,2,0,0,0,2.18,1.85h9.48a2.06,2.06,0,0,0,2.19-1.85V9a2,2,0,0,0-2.19-1.84Zm1.27,7.38c0,.5-.59.92-1.27.92H8.64c-.68,0-1.25-.42-1.25-.92V9c0-.51.56-.92,1.25-.92h9.48c.68,0,1.27.42,1.27.92Z"/><path class="cls-2" d="M10.15,9H9.23a.46.46,0,0,0-.46.46v.92a.47.47,0,0,0,.46.46h.92a.47.47,0,0,0,.47-.46V9.41A.46.46,0,0,0,10.15,9Z"/><path class="cls-2" d="M13.85,9h-.93a.46.46,0,0,0-.46.46v.92a.47.47,0,0,0,.46.46h.93a.47.47,0,0,0,.46-.46V9.41A.46.46,0,0,0,13.85,9Z"/><path class="cls-2" d="M17.54,9h-.92a.46.46,0,0,0-.47.46v.92a.47.47,0,0,0,.47.46h.92a.47.47,0,0,0,.46-.46V9.41A.46.46,0,0,0,17.54,9Z"/><path class="cls-2" d="M10.15,12.64H9.23a.46.46,0,0,0-.46.46V14a.46.46,0,0,0,.46.46h.92a.46.46,0,0,0,.47-.46V13.1A.46.46,0,0,0,10.15,12.64Z"/><path class="cls-2" d="M13.85,12.64h-.93a.46.46,0,0,0-.46.46V14a.46.46,0,0,0,.46.46h.93a.46.46,0,0,0,.46-.46V13.1A.46.46,0,0,0,13.85,12.64Z"/><path class="cls-2" d="M17.54,12.64h-.92a.46.46,0,0,0-.47.46V14a.46.46,0,0,0,.47.46h.92A.46.46,0,0,0,18,14V13.1A.46.46,0,0,0,17.54,12.64Z"/><path class="cls-2" d="M8.87,20.64a1.85,1.85,0,0,1-1-.31,1.78,1.78,0,0,1-.68-.83,1.82,1.82,0,0,1,.4-2A1.78,1.78,0,0,1,8.51,17a1.87,1.87,0,0,1,1.07.11,1.83,1.83,0,0,1,.83.68,1.85,1.85,0,0,1,.31,1,1.89,1.89,0,0,1-.54,1.31A1.85,1.85,0,0,1,8.87,20.64Zm0-2.77a.86.86,0,0,0-.51.16.91.91,0,0,0-.34.41A.88.88,0,0,0,8,19a.89.89,0,0,0,.25.48.94.94,0,0,0,.47.25,1,1,0,0,0,.53-.05.94.94,0,0,0,.42-.34,1,1,0,0,0,.15-.52.89.89,0,0,0-.27-.65A.91.91,0,0,0,8.87,17.87Z"/><path class="cls-2" d="M18.08,20.64a1.85,1.85,0,0,1-1-.31,1.78,1.78,0,0,1-.68-.83,1.84,1.84,0,0,1,2.41-2.41,1.78,1.78,0,0,1,.83.68,1.85,1.85,0,0,1-1.54,2.87Zm0-2.77a.86.86,0,0,0-.51.16.91.91,0,0,0-.34.41.88.88,0,0,0-.05.53.89.89,0,0,0,.25.48.94.94,0,0,0,.47.25,1,1,0,0,0,.54-.05.91.91,0,0,0,.41-.34,1,1,0,0,0,.16-.52.93.93,0,0,0-.27-.65A1,1,0,0,0,18.08,17.87Z"/></g></g></g></svg>