<svg xmlns="http://www.w3.org/2000/svg" viewBox="0 0 24 24"><defs><style>.cls-1{fill:none;}.cls-2{fill:#1d1d1b;}</style></defs><g id="Слой_2" data-name="Слой 2"><g id="Line"><g id="Snow_Line" data-name="Snow/Line"><rect class="cls-1" width="24" height="24"/><path class="cls-2" d="M16,7.38a1.27,1.27,0,0,0,.62.62,1.35,1.35,0,0,0,.79.12,1.32,1.32,0,0,0,.71-.37l.62.62A2.18,2.18,0,0,1,16,8.65l-2.91,2.91h6.81a.42.42,0,0,1,.25.06.55.55,0,0,1,.17.2.46.46,0,0,1,0,.26.42.42,0,0,1-.13.22.28.28,0,0,1-.14.1.47.47,0,0,1-.17,0H13.05L16,15.34A2.2,2.2,0,0,1,17.39,15a2.25,2.25,0,0,1,1.34.64l-.62.62a1.31,1.31,0,0,0-.71-.36,1.27,1.27,0,0,0-.79.11,1.27,1.27,0,0,0-.62.62,1.3,1.3,0,0,0-.1.78,1.25,1.25,0,0,0,.36.7l-.62.62A2.19,2.19,0,0,1,15,17.38a2.15,2.15,0,0,1,.35-1.44L12.44,13v6.82a.42.42,0,0,1-.12.3.4.4,0,0,1-.15.1.47.47,0,0,1-.17,0,.44.44,0,0,1-.31-.13.43.43,0,0,1-.13-.3V13L8.65,15.94A2.21,2.21,0,0,1,9,17.38a2.19,2.19,0,0,1-.63,1.33l-.62-.62a1.27,1.27,0,0,0,.36-.71A1.31,1.31,0,0,0,8,16.6a1,1,0,0,0-.25-.36A1.18,1.18,0,0,0,7.39,16a1.31,1.31,0,0,0-.78-.11,1.39,1.39,0,0,0-.71.37l-.61-.62A2.23,2.23,0,0,1,6.62,15a2.18,2.18,0,0,1,1.43.36L11,12.43H4.15a.46.46,0,0,1-.33-.13A.51.51,0,0,1,3.69,12a.46.46,0,0,1,.13-.32.47.47,0,0,1,.33-.14H11L8.05,8.67a2.18,2.18,0,0,1-2.77-.28l.61-.62a1.31,1.31,0,0,0,.71.36A1.24,1.24,0,0,0,7.38,8a1.15,1.15,0,0,0,.37-.25A1.05,1.05,0,0,0,8,7.4a1.23,1.23,0,0,0,.11-.78,1.25,1.25,0,0,0-.36-.7l.62-.62A2.19,2.19,0,0,1,9,6.63a2.22,2.22,0,0,1-.35,1.44L11.56,11V4.16a.51.51,0,0,1,0-.17.45.45,0,0,1,.1-.14.5.5,0,0,1,.14-.1.47.47,0,0,1,.17,0,.44.44,0,0,1,.43.43V11l2.91-2.9a2.19,2.19,0,0,1,.27-2.77l.62.62a1.29,1.29,0,0,0-.34.69A1.35,1.35,0,0,0,16,7.38Z"/></g></g></g></svg>