<svg xmlns="http://www.w3.org/2000/svg" viewBox="0 0 24 24"><defs><style>.cls-1{fill:none;}.cls-2{fill:#1d1d1b;}</style></defs><g id="Слой_2" data-name="Слой 2"><g id="Line"><g id="Sound_Off_Line" data-name="Sound/Off/Line"><rect class="cls-1" width="24" height="24"/><path class="cls-2" d="M13.85,9.27V6.44a1.74,1.74,0,0,0-.27-.94,1.64,1.64,0,0,0-.72-.66,1.87,1.87,0,0,0-2,.1l-1.37.92A1,1,0,0,1,9,6H3.69a1.88,1.88,0,0,0-1.34.53,1.74,1.74,0,0,0-.41.6,1.79,1.79,0,0,0-.15.72v8.22a1.74,1.74,0,0,0,.15.71,1.69,1.69,0,0,0,.41.61,2.13,2.13,0,0,0,.62.4,2,2,0,0,0,.72.12H9a1,1,0,0,1,.57.18l1.34.92a1.88,1.88,0,0,0,1.1.34,2,2,0,0,0,.92-.22,1.8,1.8,0,0,0,1-1.61V14.73a2.76,2.76,0,0,0,1.66-4.52,2.74,2.74,0,0,0-1.66-.94Zm-.92,8.3a1,1,0,0,1-.15.47.93.93,0,0,1-.35.33,1.08,1.08,0,0,1-.53.11.93.93,0,0,1-.51-.18l-1.34-.92A1.9,1.9,0,0,0,9,17.05H3.69A1.15,1.15,0,0,1,3.32,17a.83.83,0,0,1-.32-.2.9.9,0,0,1-.21-.3.94.94,0,0,1-.07-.37V7.88a.89.89,0,0,1,.07-.36A1,1,0,0,1,3,7.21.8.8,0,0,1,3.32,7,.78.78,0,0,1,3.69,7H9a2,2,0,0,0,1.1-.34l1.34-.93a1.11,1.11,0,0,1,.51-.18,1,1,0,0,1,.53.12.93.93,0,0,1,.35.33,1,1,0,0,1,.15.46Zm.92-3.75V10.2a1.86,1.86,0,0,1,1,.65,1.84,1.84,0,0,1,0,2.29,1.92,1.92,0,0,1-1,.65Z"/><path class="cls-2" d="M22.07,12.88a.43.43,0,0,1,.14.32.45.45,0,0,1-.14.32.44.44,0,0,1-.33.14.43.43,0,0,1-.32-.14l-1-1-1,1a.47.47,0,0,1-.33.14.44.44,0,0,1-.25-.08.39.39,0,0,1-.17-.21.46.46,0,0,1,0-.26.41.41,0,0,1,.13-.23l1-1-1-1a.45.45,0,0,1-.14-.32.47.47,0,0,1,.14-.33.4.4,0,0,1,.15-.1.47.47,0,0,1,.17,0,.48.48,0,0,1,.18,0,.4.4,0,0,1,.15.1l1,1,1-1a.4.4,0,0,1,.15-.1.48.48,0,0,1,.18,0,.47.47,0,0,1,.17,0,.4.4,0,0,1,.15.1.47.47,0,0,1,.14.33.45.45,0,0,1-.14.32l-1,1Z"/></g></g></g></svg>