<svg xmlns="http://www.w3.org/2000/svg" viewBox="0 0 24 24"><defs><style>.cls-1{fill:none;}.cls-2{fill:#1d1d1b;}</style></defs><g id="Слой_2" data-name="Слой 2"><g id="Line"><g id="Sound_On_Line" data-name="Sound/On/Line"><rect class="cls-1" width="24" height="24"/><path class="cls-2" d="M13.42,9.25V6.48a1.74,1.74,0,0,0-.27-.94,1.72,1.72,0,0,0-.72-.67,2,2,0,0,0-1-.25,1.84,1.84,0,0,0-1,.31l-1.34.92A1,1,0,0,1,8.52,6H3.25A1.84,1.84,0,0,0,1.41,7.88V16.1a2,2,0,0,0,.14.72,2.06,2.06,0,0,0,.41.6,1.94,1.94,0,0,0,.62.4,1.76,1.76,0,0,0,.72.12H8.56a.94.94,0,0,1,.57.18l1.34.92a1.81,1.81,0,0,0,1.1.34,1.84,1.84,0,0,0,.92-.22,1.86,1.86,0,0,0,.73-.66,1.82,1.82,0,0,0,.26-.94V14.71a2.77,2.77,0,0,0,0-5.46Zm-.93,8.31a.86.86,0,0,1-.14.46.89.89,0,0,1-.36.33,1,1,0,0,1-.53.12,1.06,1.06,0,0,1-.51-.19l-1.34-.92A1.92,1.92,0,0,0,8.52,17H3.25a.92.92,0,0,1-.92-.92V7.87A.92.92,0,0,1,3.25,7H8.52a1.93,1.93,0,0,0,1.09-.34L11,5.68a1,1,0,0,1,.51-.17,1,1,0,0,1,.89.44.86.86,0,0,1,.14.46Zm.93-3.76V10.19a1.92,1.92,0,0,1,1,.65,1.88,1.88,0,0,1,0,2.29,1.92,1.92,0,0,1-1,.65Z"/><path class="cls-2" d="M22.13,12.45H17.59a.48.48,0,0,1-.46-.46.44.44,0,0,1,.46-.46h4.54a.46.46,0,1,1,0,.92Z"/><path class="cls-2" d="M19.8,16.72a.39.39,0,0,1-.25-.08L17.3,15.16a.8.8,0,0,1-.13-.13.87.87,0,0,1-.07-.17.54.54,0,0,1,0-.18.77.77,0,0,1,.07-.16.53.53,0,0,1,.29-.2.48.48,0,0,1,.35.07l2.26,1.49a.47.47,0,0,1,.2.29.45.45,0,0,1-.07.34.44.44,0,0,1-.17.16A.37.37,0,0,1,19.8,16.72Z"/><path class="cls-2" d="M17.53,9.66a.5.5,0,0,1-.21-.05.52.52,0,0,1-.17-.16.77.77,0,0,1-.07-.16.54.54,0,0,1,0-.18.87.87,0,0,1,.07-.17.49.49,0,0,1,.13-.12l2.27-1.49a.41.41,0,0,1,.17-.07h.18a.36.36,0,0,1,.17.07.37.37,0,0,1,.12.13.45.45,0,0,1,.07.34.52.52,0,0,1-.2.3L17.79,9.54A.42.42,0,0,1,17.53,9.66Z"/></g></g></g></svg>