<svg xmlns="http://www.w3.org/2000/svg" viewBox="0 0 24 24"><defs><style>.cls-1{fill:none;}.cls-2{fill:#1d1d1b;}</style></defs><g id="Слой_2" data-name="Слой 2"><g id="Line"><g id="Star_Line" data-name="Star/Line"><rect class="cls-1" width="24" height="24"/><path class="cls-2" d="M16.35,20.77a1.7,1.7,0,0,1-.8-.21l-3.2-1.78a.73.73,0,0,0-.35-.09.74.74,0,0,0-.36.09L8.46,20.56a1.62,1.62,0,0,1-1.76-.1,1.55,1.55,0,0,1-.58-.71A1.7,1.7,0,0,1,6,18.83l.64-3.93a.7.7,0,0,0,0-.35.59.59,0,0,0-.18-.29L3.68,11.43a1.57,1.57,0,0,1-.43-.8,1.62,1.62,0,0,1,0-.9A1.6,1.6,0,0,1,3.8,9a1.66,1.66,0,0,1,.82-.37l3.69-.57a.78.78,0,0,0,.36-.13.71.71,0,0,0,.25-.29l1.6-3.44a1.68,1.68,0,0,1,.62-.7A1.63,1.63,0,0,1,12,3.23a1.65,1.65,0,0,1,.89.26,1.59,1.59,0,0,1,.61.7l1.61,3.44a.76.76,0,0,0,.22.28.81.81,0,0,0,.33.14l3.7.57A1.55,1.55,0,0,1,20.2,9a1.6,1.6,0,0,1,.51.74,1.67,1.67,0,0,1-.38,1.7l-2.77,2.83a.88.88,0,0,0-.18.29.83.83,0,0,0,0,.35L18,18.83a1.7,1.7,0,0,1-.11.92,1.61,1.61,0,0,1-.58.71A1.66,1.66,0,0,1,16.35,20.77Zm-4.35-3a1.59,1.59,0,0,1,.8.21L16,19.75a.7.7,0,0,0,.4.09.77.77,0,0,0,.64-.46.78.78,0,0,0,0-.4L16.44,15a1.64,1.64,0,0,1,.06-.76,1.74,1.74,0,0,1,.39-.67l2.77-2.82a.7.7,0,0,0,.19-.36.71.71,0,0,0,0-.41.74.74,0,0,0-.22-.33.69.69,0,0,0-.36-.16L15.56,9a1.7,1.7,0,0,1-.75-.3A1.91,1.91,0,0,1,14.3,8L12.67,4.58a.81.81,0,0,0-.28-.3.75.75,0,0,0-.78,0,.78.78,0,0,0-.27.3L9.72,8a1.54,1.54,0,0,1-.51.62,1.61,1.61,0,0,1-.74.3l-3.69.58a.68.68,0,0,0-.36.15.79.79,0,0,0-.23.34.68.68,0,0,0,0,.4.72.72,0,0,0,.2.36L7.14,13.6a1.63,1.63,0,0,1,.39.66,1.67,1.67,0,0,1,.06.77L7,19a.72.72,0,0,0,0,.41.68.68,0,0,0,.26.32.73.73,0,0,0,.38.14.76.76,0,0,0,.39-.1L11.23,18A1.69,1.69,0,0,1,12,17.77Z"/></g></g></g></svg>