<svg xmlns="http://www.w3.org/2000/svg" viewBox="0 0 24 24"><defs><style>.cls-1{fill:none;}.cls-2{fill:#1d1d1b;}</style></defs><g id="Слой_2" data-name="Слой 2"><g id="Line"><g id="Stop_Line" data-name="Stop/Line"><rect class="cls-1" width="24" height="24"/><path class="cls-2" d="M18.46,20.77H5.54a2.32,2.32,0,0,1-2.31-2.31V5.54A2.32,2.32,0,0,1,5.54,3.23H18.46a2.32,2.32,0,0,1,2.31,2.31V18.46a2.32,2.32,0,0,1-2.31,2.31ZM5.54,4.15A1.4,1.4,0,0,0,4.15,5.54V18.46a1.4,1.4,0,0,0,1.39,1.39H18.46a1.4,1.4,0,0,0,1.39-1.39V5.54a1.4,1.4,0,0,0-1.39-1.39Z"/><path class="cls-2" d="M14.31,15.69H9.69a1.37,1.37,0,0,1-1.38-1.38V9.69A1.37,1.37,0,0,1,9.69,8.31h4.62a1.38,1.38,0,0,1,1,.4,1.39,1.39,0,0,1,.4,1v4.62a1.39,1.39,0,0,1-.4,1A1.38,1.38,0,0,1,14.31,15.69ZM9.69,9.23a.48.48,0,0,0-.46.46v4.62a.48.48,0,0,0,.46.46h4.62a.43.43,0,0,0,.32-.14.45.45,0,0,0,.14-.32V9.69a.48.48,0,0,0-.46-.46Z"/></g></g></g></svg>