<svg xmlns="http://www.w3.org/2000/svg" viewBox="0 0 24 24"><defs><style>.cls-1{fill:none;}.cls-2{fill:#1d1d1b;}</style></defs><g id="Слой_2" data-name="Слой 2"><g id="Line"><g id="Sunny_Line" data-name="Sunny/Line"><rect class="cls-1" width="24" height="24"/><path class="cls-2" d="M12,20.77a.47.47,0,0,1-.33-.14.46.46,0,0,1-.13-.32V18.23a.44.44,0,0,1,.46-.46.48.48,0,0,1,.46.46v2.08a.46.46,0,0,1-.13.32A.47.47,0,0,1,12,20.77Z"/><path class="cls-2" d="M12,6.22a.44.44,0,0,1-.46-.46V3.69a.46.46,0,0,1,.13-.32.46.46,0,0,1,.66,0,.46.46,0,0,1,.13.32V5.76a.44.44,0,0,1-.46.46Z"/><path class="cls-2" d="M5.8,12.46H3.69a.46.46,0,0,1-.32-.13.46.46,0,0,1,0-.66.46.46,0,0,1,.32-.13H5.8a.46.46,0,0,1,.32.13.46.46,0,0,1,0,.66A.46.46,0,0,1,5.8,12.46Z"/><path class="cls-2" d="M20.31,12.46H18.23a.46.46,0,1,1,0-.92h2.08a.46.46,0,0,1,.32.13.46.46,0,0,1,0,.66A.46.46,0,0,1,20.31,12.46Z"/><path class="cls-2" d="M7.59,8.05a.51.51,0,0,1-.33-.13L5.8,6.46a.31.31,0,0,1-.1-.15.34.34,0,0,1,0-.18A.33.33,0,0,1,5.7,6a.31.31,0,0,1,.1-.15.43.43,0,0,1,.32-.14.45.45,0,0,1,.33.14L7.91,7.26a.5.5,0,0,1,.1.5A.44.44,0,0,1,7.84,8,.44.44,0,0,1,7.59,8.05Z"/><path class="cls-2" d="M17.87,18.33a.48.48,0,0,1-.32-.13l-1.47-1.47a.4.4,0,0,1-.1-.15.47.47,0,0,1,0-.17.58.58,0,0,1,0-.18.4.4,0,0,1,.1-.15.48.48,0,0,1,.66,0l1.46,1.46a.45.45,0,0,1,.14.33.43.43,0,0,1-.14.32A.47.47,0,0,1,17.87,18.33Z"/><path class="cls-2" d="M6.12,18.33a.48.48,0,0,1-.32-.13.42.42,0,0,1-.11-.15.56.56,0,0,1,0-.36.42.42,0,0,1,.11-.15l1.46-1.47a.51.51,0,0,1,.33-.13.48.48,0,0,1,.32.13.45.45,0,0,1,.1.51.65.65,0,0,1-.1.15L6.45,18.2A.46.46,0,0,1,6.12,18.33Z"/><path class="cls-2" d="M16.4,8.05a.48.48,0,0,1-.32-.13.4.4,0,0,1-.1-.15.42.42,0,0,1,0-.36.65.65,0,0,1,.1-.15L17.55,5.8a.31.31,0,0,1,.15-.1.34.34,0,0,1,.18,0,.33.33,0,0,1,.17,0A.46.46,0,0,1,18.3,6a.33.33,0,0,1,0,.17.37.37,0,0,1,0,.18.31.31,0,0,1-.1.15L16.74,7.92A.53.53,0,0,1,16.4,8.05Z"/><path class="cls-2" d="M12,16.65A4.65,4.65,0,1,1,16.65,12,4.65,4.65,0,0,1,12,16.65Zm0-8.3A3.65,3.65,0,1,0,15.65,12,3.65,3.65,0,0,0,12,8.35Z"/></g></g></g></svg>