<svg xmlns="http://www.w3.org/2000/svg" viewBox="0 0 24 24"><defs><style>.cls-1{fill:none;}.cls-2{fill:#1d1d1b;}</style></defs><g id="Слой_2" data-name="Слой 2"><g id="Line"><g id="Target_Line" data-name="Target/Line"><rect class="cls-1" width="24" height="24"/><path class="cls-2" d="M21.33,2.69a.46.46,0,0,0-.66,0l-2,2V3.23a.41.41,0,0,0-.13-.29.43.43,0,0,0-.62,0,.43.43,0,0,0-.14.32l0,2.32-.66.67a8.87,8.87,0,1,0,.65.66l.72-.72,2.37,0a.48.48,0,0,0,.32-.13.43.43,0,0,0,.14-.32.57.57,0,0,0,0-.18.31.31,0,0,0-.1-.15.4.4,0,0,0-.15-.1.33.33,0,0,0-.17,0H19.33l2-2A.46.46,0,0,0,21.44,3,.44.44,0,0,0,21.33,2.69ZM19.05,12.75A7.84,7.84,0,0,1,14.21,20,7.84,7.84,0,0,1,4,9.75,7.82,7.82,0,0,1,16.44,6.92l-1,1a6.46,6.46,0,1,0,2.21,4.86,6.38,6.38,0,0,0-1.56-4.19l1-1A7.69,7.69,0,0,1,19.05,12.75Zm-8.17.39a.48.48,0,0,0,.32.13.49.49,0,0,0,.33-.13l.58-.57a.54.54,0,0,1,0,.18,1,1,0,0,1-.17.54.91.91,0,0,1-1,.34.86.86,0,0,1-.46-.33.88.88,0,0,1-.18-.54,1,1,0,0,1,.17-.54.88.88,0,0,1,.46-.34.92.92,0,0,1,.57,0l-.61.61a.46.46,0,0,0,0,.66Zm.33-2.24a1.88,1.88,0,0,0-1.12.39,1.84,1.84,0,0,0-.65,1,1.94,1.94,0,0,0,.08,1.19,1.87,1.87,0,0,0,2,1.11,1.8,1.8,0,0,0,1.06-.53A1.85,1.85,0,0,0,13.06,13a1.82,1.82,0,0,0-.24-1.16l1-1a3.14,3.14,0,0,1,.63,1.84,3.22,3.22,0,0,1-2,3,3.23,3.23,0,0,1-1.87.18A3.17,3.17,0,0,1,8.91,15a3.21,3.21,0,0,1-.7-3.52A3.13,3.13,0,0,1,9.4,10a3.18,3.18,0,0,1,3.75.13l-1,1A1.8,1.8,0,0,0,11.21,10.9Zm2.58-1.37a4.06,4.06,0,0,0-2.58-.93,4.15,4.15,0,0,0-3.79,5.93,4.19,4.19,0,0,0,1.94,2,4.13,4.13,0,0,0,5-6.3l1-1a5.5,5.5,0,0,1,1.28,3.45,5.53,5.53,0,1,1-5.46-5.45,5.48,5.48,0,0,1,3.6,1.34Z"/></g></g></g></svg>