<svg xmlns="http://www.w3.org/2000/svg" viewBox="0 0 24 24"><defs><style>.cls-1{fill:none;}.cls-2{fill:#1d1d1b;}</style></defs><g id="Слой_2" data-name="Слой 2"><g id="Line"><g id="Timer_Line" data-name="Timer/Line"><rect class="cls-1" width="24" height="24"/><path class="cls-2" d="M17.64,6.69l1.63-1.62a.51.51,0,0,0,.13-.33.48.48,0,0,0-.13-.32.49.49,0,0,0-.15-.1.42.42,0,0,0-.36,0,.65.65,0,0,0-.15.1L16.86,6.15a8,8,0,0,0-2.71-1.21V3.17a1.36,1.36,0,0,0-.41-1,1.34,1.34,0,0,0-1-.41H11.24a1.34,1.34,0,0,0-1,.41,1.36,1.36,0,0,0-.41,1V4.93A8.52,8.52,0,0,0,7.13,6.14L5.42,4.43a.4.4,0,0,0-.15-.1.33.33,0,0,0-.17,0,.34.34,0,0,0-.18,0,.4.4,0,0,0-.15.1.42.42,0,0,0-.11.15.47.47,0,0,0,0,.17.57.57,0,0,0,0,.18.49.49,0,0,0,.11.14L6.39,6.7a8.79,8.79,0,0,0-2.64,9.72A8.86,8.86,0,0,0,7,20.62a8.78,8.78,0,0,0,10.08,0,8.76,8.76,0,0,0,3.42-9.48A8.67,8.67,0,0,0,17.64,6.69ZM10.81,3.16A.43.43,0,0,1,11,2.84a.45.45,0,0,1,.32-.14H12.8a.48.48,0,0,1,.46.46V4.73l-.61-.06a9.57,9.57,0,0,0-1.85.06ZM12,21.27A7.85,7.85,0,0,1,10.4,5.74a8.36,8.36,0,0,1,3.23,0A7.84,7.84,0,0,1,12,21.27Z"/><path class="cls-2" d="M17.64,13.88H12.85a1.38,1.38,0,0,1-1.38-1.38V10.23a.48.48,0,0,1,.13-.32.46.46,0,0,1,.66,0,.48.48,0,0,1,.13.32V12.5a.48.48,0,0,0,.46.46h4.79a.49.49,0,0,1,.33.13.46.46,0,0,1,0,.66A.49.49,0,0,1,17.64,13.88Z"/></g></g></g></svg>