<svg xmlns="http://www.w3.org/2000/svg" viewBox="0 0 24 24"><defs><style>.cls-1{fill:none;}.cls-2{fill:#1d1d1b;}</style></defs><g id="Слой_2" data-name="Слой 2"><g id="Line"><g id="Toggle_On_Line" data-name="Toggle/On/Line"><rect class="cls-1" width="24" height="24"/><path class="cls-2" d="M9.23,6h5.54a6,6,0,0,1,0,12H9.23a6,6,0,0,1,0-12Zm5.54,11.08a5.08,5.08,0,0,0,0-10.16H9.23a5.08,5.08,0,0,0,0,10.16Z"/><path class="cls-2" d="M14.86,8.31a3.75,3.75,0,0,1,3,6,3.81,3.81,0,0,1-2.34,1.42,3.75,3.75,0,0,1-3.94-5.47A3.74,3.74,0,0,1,13.7,8.51,3.54,3.54,0,0,1,14.86,8.31Zm0,6.46a2.77,2.77,0,1,0,0-5.54,2.55,2.55,0,0,0-.86.15,2.8,2.8,0,0,0-1.48,1.19,2.83,2.83,0,0,0-.36,1.87,2.76,2.76,0,0,0,.93,1.66A2.8,2.8,0,0,0,14.86,14.77Z"/></g></g></g></svg>