<svg xmlns="http://www.w3.org/2000/svg" viewBox="0 0 24 24"><defs><style>.cls-1{fill:none;}.cls-2{fill:#1d1d1b;}</style></defs><g id="Слой_2" data-name="Слой 2"><g id="Line"><g id="Toggle_Off_Line" data-name="Toggle/Off/Line"><rect class="cls-1" width="24" height="24"/><path class="cls-2" d="M14.77,18H9.23a6,6,0,0,1,0-12h5.54a6,6,0,0,1,0,12ZM9.23,6.92a5.08,5.08,0,0,0,0,10.16h5.54a5.08,5.08,0,0,0,0-10.16Z"/><path class="cls-2" d="M9.14,15.69a3.75,3.75,0,0,1-3-6,3.75,3.75,0,0,1,5-.87,3.75,3.75,0,0,1-.82,6.69A3.49,3.49,0,0,1,9.14,15.69Zm0-6.46a2.77,2.77,0,1,0,0,5.54,2.55,2.55,0,0,0,.86-.15,2.77,2.77,0,0,0,1.48-1.19,2.83,2.83,0,0,0,.36-1.87,2.79,2.79,0,0,0-.92-1.66A2.84,2.84,0,0,0,9.14,9.23Z"/></g></g></g></svg>