<svg xmlns="http://www.w3.org/2000/svg" viewBox="0 0 24 24"><defs><style>.cls-1{fill:none;}.cls-2{fill:#1d1d1b;}</style></defs><g id="Слой_2" data-name="Слой 2"><g id="Line"><g id="User_Line" data-name="User/Line"><rect class="cls-1" width="24" height="24"/><path class="cls-2" d="M12.07,9.65a3.12,3.12,0,0,1-1.78-.55,3.22,3.22,0,0,1-.47-4.94,3.16,3.16,0,0,1,1.64-.87,3.2,3.2,0,0,1,1.86.18,3.33,3.33,0,0,1,1.44,1.19,3.19,3.19,0,0,1,.54,1.78,3.22,3.22,0,0,1-1,2.27,3.2,3.2,0,0,1-2.28.94Zm0-5.49a2.27,2.27,0,0,0-1.27.39,2.3,2.3,0,0,0-.33,3.53,2.45,2.45,0,0,0,1.18.62A2.39,2.39,0,0,0,13,8.56a2.29,2.29,0,0,0,1-.85,2.23,2.23,0,0,0,.38-1.27,2.29,2.29,0,0,0-2.3-2.28Z"/><path class="cls-2" d="M18.53,20.77H5.6a1.6,1.6,0,0,1-.77-.17,1.68,1.68,0,0,1-.63-.49,1.71,1.71,0,0,1-.38-.65,1.59,1.59,0,0,1-.06-.75,8.4,8.4,0,0,1,16.47,0,1.69,1.69,0,0,1,0,.74,1.83,1.83,0,0,1-.94,1.13A1.73,1.73,0,0,1,18.53,20.77ZM12.07,12.9a7.48,7.48,0,0,0-7.39,6,.78.78,0,0,0,0,.34.73.73,0,0,0,.16.3.79.79,0,0,0,.31.23.85.85,0,0,0,.38.09h13a.85.85,0,0,0,.38-.09.83.83,0,0,0,.47-.53.78.78,0,0,0,0-.34,7.44,7.44,0,0,0-7.32-6Z"/></g></g></g></svg>