<svg xmlns="http://www.w3.org/2000/svg" viewBox="0 0 24 24"><defs><style>.cls-1{fill:none;}.cls-2{fill:#1d1d1b;}</style></defs><g id="Слой_2" data-name="Слой 2"><g id="Line"><g id="Users_Line" data-name="Users/Line"><rect class="cls-1" width="24" height="24"/><path class="cls-2" d="M8.09,4.92a2.68,2.68,0,0,0-1.48.45,2.72,2.72,0,0,0-1,1.2A2.59,2.59,0,0,0,5.5,8.1a2.64,2.64,0,0,0,2.09,2.08,2.65,2.65,0,0,0,2.73-1.13,2.67,2.67,0,0,0,.44-1.48,2.76,2.76,0,0,0-.2-1A3,3,0,0,0,10,5.69a2.63,2.63,0,0,0-.87-.57A2.41,2.41,0,0,0,8.09,4.92Zm0,4.37a1.71,1.71,0,0,1-1-.3,1.65,1.65,0,0,1-.63-.78,1.72,1.72,0,0,1-.1-1,1.77,1.77,0,0,1,.48-.89,1.83,1.83,0,0,1,.89-.47,1.79,1.79,0,0,1,1,.1,1.82,1.82,0,0,1,.78.64,1.75,1.75,0,0,1,.29,1,1.7,1.7,0,0,1-.14.66,2,2,0,0,1-.38.57,1.56,1.56,0,0,1-.57.37A1.65,1.65,0,0,1,8.09,9.29Z"/><path class="cls-2" d="M15.91,4.92a2.68,2.68,0,0,0-1.47.45,2.72,2.72,0,0,0-1,1.2,2.59,2.59,0,0,0-.14,1.53,2.64,2.64,0,0,0,2.09,2.08A2.67,2.67,0,0,0,17,10a2.59,2.59,0,0,0,1.19-1,2.68,2.68,0,0,0,.45-1.48,2.68,2.68,0,0,0-.79-1.88,2.53,2.53,0,0,0-.87-.57A2.38,2.38,0,0,0,15.91,4.92Zm0,4.39A1.75,1.75,0,0,1,15,9a1.78,1.78,0,0,1-.63-.78,1.74,1.74,0,0,1-.09-1,1.78,1.78,0,0,1,.48-.88,1.75,1.75,0,0,1,.89-.47,1.8,1.8,0,0,1,1,.1,1.71,1.71,0,0,1,.54,2.82A1.77,1.77,0,0,1,15.91,9.31Z"/><path class="cls-2" d="M22.59,17.36a6.85,6.85,0,0,0-1.45-3,6.72,6.72,0,0,0-2.69-2,6.81,6.81,0,0,0-6.4.73A6.82,6.82,0,0,0,1.41,17.36a1.63,1.63,0,0,0,0,.62,1.29,1.29,0,0,0,.29.54,1.46,1.46,0,0,0,.53.42,1.49,1.49,0,0,0,.66.15H21.09a1.52,1.52,0,0,0,.66-.15,1.46,1.46,0,0,0,.53-.42,1.44,1.44,0,0,0,.28-.55A1.57,1.57,0,0,0,22.59,17.36ZM2.92,18.2a.6.6,0,0,1-.27-.06A.58.58,0,0,1,2.44,18a.5.5,0,0,1-.12-.43,5.86,5.86,0,0,1,5.77-4.71,5.7,5.7,0,0,1,3.15.92,6.74,6.74,0,0,0-2,3.61,1.35,1.35,0,0,0,.09.84ZM21.57,18a.68.68,0,0,1-.21.17.66.66,0,0,1-.27.06H10.73a.6.6,0,0,1-.47-.23.44.44,0,0,1-.11-.2.59.59,0,0,1,0-.23A5.88,5.88,0,0,1,12,14.31a4.66,4.66,0,0,1,.76-.56,5.7,5.7,0,0,1,3.15-.92,5.86,5.86,0,0,1,5.77,4.71.59.59,0,0,1,0,.23A.54.54,0,0,1,21.57,18Z"/></g></g></g></svg>