<svg xmlns="http://www.w3.org/2000/svg" viewBox="0 0 24 24"><defs><style>.cls-1{fill:none;}.cls-2{fill:#1d1d1b;}</style></defs><g id="Слой_2" data-name="Слой 2"><g id="Line"><g id="VideoCamera_Line" data-name="VideoCamera/Line"><rect class="cls-1" width="24" height="24"/><path class="cls-2" d="M13.73,17.54h-11a1.38,1.38,0,0,1-1.38-1.39V7.85A1.38,1.38,0,0,1,2.77,6.46h11a1.4,1.4,0,0,1,1.38,1.39v8.3a1.38,1.38,0,0,1-.4,1A1.4,1.4,0,0,1,13.73,17.54ZM2.77,7.39a.46.46,0,0,0-.32.13.47.47,0,0,0-.14.33v8.3a.49.49,0,0,0,.13.33.47.47,0,0,0,.33.14h11a.43.43,0,0,0,.32-.14.45.45,0,0,0,.14-.33V7.85a.47.47,0,0,0-.14-.33.48.48,0,0,0-.32-.13Z"/><path class="cls-2" d="M21.23,17.35H21l-3.55-.66a1.39,1.39,0,0,1-.81-.48,1.37,1.37,0,0,1-.32-.89V8.71a1.37,1.37,0,0,1,1.13-1.36L21,6.68a1.52,1.52,0,0,1,.6,0A1.44,1.44,0,0,1,22.1,7a1.29,1.29,0,0,1,.37.47,1.42,1.42,0,0,1,.15.57v7.93a1.45,1.45,0,0,1-.13.59,1.31,1.31,0,0,1-.37.47A1.35,1.35,0,0,1,21.23,17.35Zm0-9.77h-.09l-3.55.66a.53.53,0,0,0-.27.16.47.47,0,0,0-.1.3v6.59a.45.45,0,0,0,.1.29.44.44,0,0,0,.27.17l3.55.66a.67.67,0,0,0,.2,0,.46.46,0,0,0,.18-.1.44.44,0,0,0,.12-.15.48.48,0,0,0,0-.2V8a.41.41,0,0,0-.05-.18.53.53,0,0,0-.12-.14.4.4,0,0,0-.27-.11Z"/><path class="cls-2" d="M7.38,10.18H8.3a.46.46,0,0,0,.46-.46V8.8a.46.46,0,0,0-.46-.46H7.38a.46.46,0,0,0-.47.46v.92A.46.46,0,0,0,7.38,10.18Z"/><path class="cls-2" d="M3.68,10.18h.93a.46.46,0,0,0,.46-.46V8.8a.46.46,0,0,0-.46-.46H3.68a.46.46,0,0,0-.46.46v.92A.46.46,0,0,0,3.68,10.18Z"/></g></g></g></svg>