<svg xmlns="http://www.w3.org/2000/svg" viewBox="0 0 24 24"><defs><style>.cls-1{fill:none;}.cls-2{fill:#1d1d1b;}</style></defs><g id="Слой_2" data-name="Слой 2"><g id="Line"><g id="Video_Line" data-name="Video/Line"><rect class="cls-1" width="24" height="24"/><path class="cls-2" d="M18.46,19.39H5.54a2.32,2.32,0,0,1-1.63-.68,2.28,2.28,0,0,1-.68-1.63V6.92a2.28,2.28,0,0,1,.68-1.63,2.32,2.32,0,0,1,1.63-.68H18.46a2.32,2.32,0,0,1,1.63.68,2.28,2.28,0,0,1,.68,1.63V17.08a2.28,2.28,0,0,1-.68,1.63A2.32,2.32,0,0,1,18.46,19.39ZM5.54,5.54a1.38,1.38,0,0,0-1,.4,1.4,1.4,0,0,0-.41,1V17.08a1.4,1.4,0,0,0,.41,1,1.38,1.38,0,0,0,1,.4H18.46a1.38,1.38,0,0,0,1-.4,1.4,1.4,0,0,0,.41-1V6.92a1.4,1.4,0,0,0-.41-1,1.38,1.38,0,0,0-1-.4Z"/><path class="cls-2" d="M9.77,16.19h-.1A1.37,1.37,0,0,1,9,16a1.39,1.39,0,0,1-.48-.51,1.56,1.56,0,0,1-.18-.68V9.23a1.56,1.56,0,0,1,.18-.68A1.39,1.39,0,0,1,9,8a1.37,1.37,0,0,1,.67-.22,1.41,1.41,0,0,1,.7.13l5.57,2.79a1.43,1.43,0,0,1,.73,1.31,1.4,1.4,0,0,1-.25.74,1.47,1.47,0,0,1-.6.5l-5.44,2.76A1.47,1.47,0,0,1,9.77,16.19Zm0-7.37h0a.36.36,0,0,0-.2.06A.4.4,0,0,0,9.4,9a.37.37,0,0,0-.06.21v5.53a.36.36,0,0,0,.06.2.4.4,0,0,0,.14.15.36.36,0,0,0,.2.06.34.34,0,0,0,.2,0l5.45-2.77a.41.41,0,0,0,.2-.15.4.4,0,0,0,.08-.22.46.46,0,0,0-.06-.23.39.39,0,0,0-.15-.16L9.93,8.85A.38.38,0,0,0,9.77,8.82Z"/></g></g></g></svg>