<svg xmlns="http://www.w3.org/2000/svg" viewBox="0 0 24 24"><defs><style>.cls-1{fill:none;}.cls-2{fill:#1d1d1b;}</style></defs><g id="Слой_2" data-name="Слой 2"><g id="Line"><g id="View_Line" data-name="View/Line"><rect class="cls-1" width="24" height="24"/><path class="cls-2" d="M21.29,10.19,17.37,7a8.16,8.16,0,0,0-.74-.7,5.88,5.88,0,0,0-.72-.51,7.25,7.25,0,0,0-8.54.53L2.75,10.11a2.47,2.47,0,0,0-.64.83,2.47,2.47,0,0,0,0,2,2.34,2.34,0,0,0,.64.82l4.62,3.85a6.55,6.55,0,0,0,1.62,1c.19.09.39.17.58.24a8.5,8.5,0,0,0,1.2.32,7.54,7.54,0,0,0,1.25.11,7.69,7.69,0,0,0,1.27-.11,7.55,7.55,0,0,0,1.24-.33A8.56,8.56,0,0,0,16,18.18l1.29-1,4-3.24a2.63,2.63,0,0,0,.65-.83,2.47,2.47,0,0,0,0-2A2.43,2.43,0,0,0,21.29,10.19Zm-18,2.87a1.46,1.46,0,0,1-.4-.49A1.38,1.38,0,0,1,2.78,12a1.42,1.42,0,0,1,.13-.61,1.33,1.33,0,0,1,.39-.49L5.13,9.36A7.19,7.19,0,0,0,4.63,12a6.92,6.92,0,0,0,.49,2.62Zm13.3,3.38a6.77,6.77,0,0,1-.55.51,6.58,6.58,0,0,1-.61.42,7.67,7.67,0,0,1-.8.43,6,6,0,0,1-.84.31,6.45,6.45,0,0,1-1.3.23,3.68,3.68,0,0,1-.47,0,7.59,7.59,0,0,1-1.17-.09,6.17,6.17,0,0,1-1-.26,6.81,6.81,0,0,1-1.57-.73L7.9,16.9a6.39,6.39,0,0,1-1.69-2.2,6.3,6.3,0,0,1,0-5.41A6.41,6.41,0,0,1,7.94,7.1,5.87,5.87,0,0,1,9.86,6a1.27,1.27,0,0,1,.36-.12,3.93,3.93,0,0,1,.68-.15,3.75,3.75,0,0,1,.57-.09H12A6.24,6.24,0,0,1,14.13,6l.43.17.4.2a7.55,7.55,0,0,1,.74.43l-.33-.22a6.72,6.72,0,0,1,.67.48,4.12,4.12,0,0,1,.61.57,6.33,6.33,0,0,1,0,8.8Zm4.06-3.29L18.92,14.6a7.28,7.28,0,0,0,0-5.12l1.77,1.45a1.58,1.58,0,0,1,.39.5,1.42,1.42,0,0,1,.13.61,1.2,1.2,0,0,1-.14.62,1.49,1.49,0,0,1-.41.49Z"/><path class="cls-2" d="M12,14.39A2.41,2.41,0,0,1,9.8,12.91a2.33,2.33,0,0,1-.13-1.38,2.41,2.41,0,0,1,.65-1.23,2.38,2.38,0,0,1,1.22-.65,2.45,2.45,0,0,1,1.39.14,2.35,2.35,0,0,1,1.07.88,2.4,2.4,0,0,1-.3,3A2.44,2.44,0,0,1,12,14.39Zm0-3.83a1.53,1.53,0,0,0-.8.24,1.48,1.48,0,0,0-.54.65,1.39,1.39,0,0,0-.08.83A1.4,1.4,0,0,0,11,13a1.54,1.54,0,0,0,.74.4,1.52,1.52,0,0,0,.84-.09,1.38,1.38,0,0,0,.64-.53,1.45,1.45,0,0,0,.24-.81,1.27,1.27,0,0,0-.11-.54A1.35,1.35,0,0,0,13,11a1.6,1.6,0,0,0-.47-.31A1.46,1.46,0,0,0,12,10.56Z"/></g></g></g></svg>