<svg xmlns="http://www.w3.org/2000/svg" viewBox="0 0 24 24"><defs><style>.cls-1{fill:none;}.cls-2{fill:#1d1d1b;}</style></defs><g id="Слой_2" data-name="Слой 2"><g id="Line"><g id="Wallet_Line" data-name="Wallet/Line"><rect class="cls-1" width="24" height="24"/><path class="cls-2" d="M18.46,4.62H5.54a2.31,2.31,0,0,0-1.63.67,2.28,2.28,0,0,0-.68,1.63V17.08a2.28,2.28,0,0,0,.68,1.63,2.32,2.32,0,0,0,1.63.68H18.46a2.32,2.32,0,0,0,1.63-.68,2.28,2.28,0,0,0,.68-1.63V6.92a2.28,2.28,0,0,0-.68-1.63A2.31,2.31,0,0,0,18.46,4.62Zm1.39,9.23H14.77a.47.47,0,0,1-.33-.14.48.48,0,0,1-.13-.32V10.62a.49.49,0,0,1,.13-.33.47.47,0,0,1,.33-.14h5.08Zm0-4.62H14.77a1.4,1.4,0,0,0-1.39,1.39v2.77a1.4,1.4,0,0,0,1.39,1.38h5.08v2.31a1.4,1.4,0,0,1-.41,1,1.38,1.38,0,0,1-1,.4H5.54a1.38,1.38,0,0,1-1-.4,1.4,1.4,0,0,1-.41-1V6.92a1.4,1.4,0,0,1,.41-1,1.38,1.38,0,0,1,1-.4H18.46a1.38,1.38,0,0,1,1,.4,1.4,1.4,0,0,1,.41,1Z"/><path class="cls-2" d="M16.64,11h-.92a.46.46,0,0,0-.46.46v.92a.46.46,0,0,0,.46.47h.92a.46.46,0,0,0,.46-.47V11.5A.46.46,0,0,0,16.64,11Z"/></g></g></g></svg>