<svg xmlns="http://www.w3.org/2000/svg" viewBox="0 0 24 24"><defs><style>.cls-1{fill:none;}.cls-2{fill:#1d1d1b;}</style></defs><g id="Слой_2" data-name="Слой 2"><g id="Line"><g id="Watch_Line" data-name="Watch/Line"><rect class="cls-1" width="24" height="24"/><path class="cls-2" d="M15,7.38h-.71l-.33-3a1.34,1.34,0,0,0-1.38-1.15h-1.1A1.34,1.34,0,0,0,10.1,4.38l-.37,3H9.05a1.65,1.65,0,0,0-1.16.49A1.62,1.62,0,0,0,7.4,9V15a1.66,1.66,0,0,0,.49,1.17,1.7,1.7,0,0,0,1.16.49h.68l.33,3a1.34,1.34,0,0,0,1.38,1.15h1.1a1.35,1.35,0,0,0,.9-.31,1.32,1.32,0,0,0,.47-.84l.33-3H15A1.66,1.66,0,0,0,16.6,15V9A1.66,1.66,0,0,0,15,7.38Zm-4-2.9a.49.49,0,0,1,.17-.25.44.44,0,0,1,.29-.08h1.1a.44.44,0,0,1,.29.08.42.42,0,0,1,.16.25l.34,2.9H10.65Zm2,15a.42.42,0,0,1-.16.25.44.44,0,0,1-.29.08h-1.1a.44.44,0,0,1-.29-.08.49.49,0,0,1-.17-.25l-.36-2.9h2.67ZM15.71,15a.74.74,0,0,1-.21.51.72.72,0,0,1-.51.22H9.05a.75.75,0,0,1-.51-.21A.78.78,0,0,1,8.33,15V9a.87.87,0,0,1,.05-.28.78.78,0,0,1,.16-.24,1,1,0,0,1,.24-.15.62.62,0,0,1,.27,0H15a.71.71,0,0,1,.51.21.74.74,0,0,1,.21.51Z"/><path class="cls-2" d="M14.34,14.31a.48.48,0,0,1-.46-.46v-3.7a.48.48,0,0,1,.46-.46.45.45,0,0,1,.33.14.43.43,0,0,1,.14.32v3.7a.43.43,0,0,1-.14.32A.45.45,0,0,1,14.34,14.31Z"/></g></g></g></svg>