<svg xmlns="http://www.w3.org/2000/svg" viewBox="0 0 24 24"><defs><style>.cls-1{fill:none;}.cls-2{fill:#1d1d1b;}</style></defs><g id="Слой_2" data-name="Слой 2"><g id="Line"><g id="Wi-Fi_Search_Line" data-name="Wi-Fi/Search/Line"><rect class="cls-1" width="24" height="24"/><path class="cls-2" d="M21.66,9l-.32-.37a13.23,13.23,0,0,0-18.68,0l-.32.33,7.88,8a1.89,1.89,0,0,0,.47,1.83,1.85,1.85,0,0,0,3.15-1.31,1.86,1.86,0,0,0-.07-.52ZM3.7,9A12.28,12.28,0,0,1,20.31,9l-6.88,6.88A2.57,2.57,0,0,0,12,15.39a2.61,2.61,0,0,0-1.48.45ZM12,18.3a.93.93,0,0,1-.52-.15,1,1,0,0,1-.34-.42.88.88,0,0,1-.05-.53.9.9,0,0,1,.25-.47,1,1,0,0,1,.48-.26,1,1,0,0,1,.53.05,1,1,0,0,1,.41.34,1,1,0,0,1,.16.52.93.93,0,0,1-.27.65A1,1,0,0,1,12,18.3Z"/></g></g></g></svg>