<svg xmlns="http://www.w3.org/2000/svg" viewBox="0 0 24 24"><defs><style>.cls-1{fill:none;}.cls-2{fill:#1d1d1b;}</style></defs><g id="Слой_2" data-name="Слой 2"><g id="Line"><g id="Wi-Fi_On_Line" data-name="Wi-Fi/On/Line"><rect class="cls-1" width="24" height="24"/><path class="cls-2" d="M20.31,9l-.58.59A10.77,10.77,0,0,0,7.79,7.14,10.9,10.9,0,0,0,4.26,9.58L3.69,9A11.66,11.66,0,0,1,7.48,6.37a11.56,11.56,0,0,1,9,0A11.66,11.66,0,0,1,20.31,9Z"/><path class="cls-2" d="M18.07,11.27l-.57.59A7.59,7.59,0,0,0,12,9.51a7.72,7.72,0,0,0-3,.61,7.81,7.81,0,0,0-2.51,1.74l-.57-.59A8.21,8.21,0,0,1,8.69,9.35a8.37,8.37,0,0,1,6.61,0A8.21,8.21,0,0,1,18.07,11.27Z"/><path class="cls-2" d="M15.85,13.57l-.57.59a4.67,4.67,0,0,0-1.5-1,4.58,4.58,0,0,0-3.56,0,4.67,4.67,0,0,0-1.5,1l-.58-.59A5.51,5.51,0,0,1,9.9,12.35a5.44,5.44,0,0,1,4.19,0A5.51,5.51,0,0,1,15.85,13.57Z"/><path class="cls-2" d="M12,18.55a1.91,1.91,0,0,1-1-.31,1.83,1.83,0,0,1-.78-1.89,1.9,1.9,0,0,1,.5-1,1.83,1.83,0,0,1,1-.5,1.86,1.86,0,0,1,1.07.1,2,2,0,0,1,.83.68,1.86,1.86,0,0,1,.31,1A1.86,1.86,0,0,1,12,18.55Zm0-2.77a.93.93,0,0,0-.51.16.85.85,0,0,0-.34.41,1,1,0,0,0-.06.54,1,1,0,0,0,.26.47.87.87,0,0,0,.47.25.88.88,0,0,0,.53-.05.94.94,0,0,0,.42-.34.94.94,0,0,0-.12-1.17A.93.93,0,0,0,12,15.78Z"/></g></g></g></svg>