<svg xmlns="http://www.w3.org/2000/svg" viewBox="0 0 24 24"><defs><style>.cls-1{fill:none;}.cls-2{fill:#1d1d1b;}</style></defs><g id="Слой_2" data-name="Слой 2"><g id="Line"><g id="Window_Line" data-name="Window/Line"><rect class="cls-1" width="24" height="24"/><path class="cls-2" d="M18.33,4.62H5.67A2.31,2.31,0,0,0,4,5.29a2.34,2.34,0,0,0-.68,1.63V17.08A2.34,2.34,0,0,0,4,18.71a2.31,2.31,0,0,0,1.63.67H18.33a2.24,2.24,0,0,0,.89-.17,2.36,2.36,0,0,0,.74-.5,2.19,2.19,0,0,0,.5-.75,2.23,2.23,0,0,0,.18-.88V6.92A2.34,2.34,0,0,0,20,5.29,2.31,2.31,0,0,0,18.33,4.62ZM4.28,6.9a1.41,1.41,0,0,1,.42-1,1.4,1.4,0,0,1,1-.4H18.33a1.39,1.39,0,0,1,1,.41,1.42,1.42,0,0,1,.41,1V9.73H4.28ZM19.72,17.06a1.38,1.38,0,0,1-1.39,1.38H5.67a1.38,1.38,0,0,1-1.39-1.38V10.65H19.72Z"/><path class="cls-2" d="M6.6,6.84H5.68a.46.46,0,0,0-.46.46v.92a.46.46,0,0,0,.46.47H6.6a.47.47,0,0,0,.46-.47V7.3A.47.47,0,0,0,6.6,6.84Z"/><path class="cls-2" d="M10.29,6.84H9.37a.46.46,0,0,0-.46.46v.92a.46.46,0,0,0,.46.47h.92a.46.46,0,0,0,.46-.47V7.3A.46.46,0,0,0,10.29,6.84Z"/><path class="cls-2" d="M14,6.84h-.92a.47.47,0,0,0-.46.46v.92a.47.47,0,0,0,.46.47H14a.47.47,0,0,0,.47-.47V7.3A.47.47,0,0,0,14,6.84Z"/></g></g></g></svg>