<svg xmlns="http://www.w3.org/2000/svg" viewBox="0 0 24 24"><defs><style>.cls-1{fill:none;}.cls-2{fill:#1d1d1b;}</style></defs><g id="Слой_2" data-name="Слой 2"><g id="Line"><g id="Сalendar_Line" data-name="Сalendar/Line"><rect class="cls-1" width="24" height="24"/><path class="cls-2" d="M18.46,5.54h-.21V4.15a.48.48,0,0,0-.46-.46.47.47,0,0,0-.33.14.46.46,0,0,0-.13.32V5.54H6.7V4.15a.46.46,0,0,0-.13-.32.46.46,0,0,0-.66,0,.46.46,0,0,0-.13.32V5.54H5.54A2.3,2.3,0,0,0,3.23,7.85V18a2.32,2.32,0,0,0,2.31,2.31H18.46A2.32,2.32,0,0,0,20.77,18V7.85a2.3,2.3,0,0,0-2.31-2.31ZM4.15,7.85A1.4,1.4,0,0,1,5.54,6.46h.24V7.85a.46.46,0,0,0,.13.32.47.47,0,0,0,.33.14.43.43,0,0,0,.32-.14.45.45,0,0,0,.14-.32V6.46H17.33V7.85a.46.46,0,0,0,.13.32.47.47,0,0,0,.33.14.43.43,0,0,0,.32-.14.45.45,0,0,0,.14-.32V6.46h.23a1.4,1.4,0,0,1,1.39,1.39v2.41H4.17ZM19.85,18a1.38,1.38,0,0,1-1.39,1.38H5.54a1.38,1.38,0,0,1-1-.4,1.43,1.43,0,0,1-.41-1V11.18h15.7Z"/><path class="cls-2" d="M8.75,12.4H7.83a.45.45,0,0,0-.46.46v.92a.45.45,0,0,0,.46.46h.92a.45.45,0,0,0,.46-.46v-.92A.45.45,0,0,0,8.75,12.4Z"/><path class="cls-2" d="M12.44,12.4h-.92a.45.45,0,0,0-.46.46v.92a.45.45,0,0,0,.46.46h.92a.45.45,0,0,0,.46-.46v-.92A.45.45,0,0,0,12.44,12.4Z"/><path class="cls-2" d="M16.14,12.4h-.93a.46.46,0,0,0-.46.46v.92a.46.46,0,0,0,.46.46h.93a.46.46,0,0,0,.46-.46v-.92A.46.46,0,0,0,16.14,12.4Z"/><path class="cls-2" d="M8.75,16.09H7.83a.46.46,0,0,0-.46.46v.92a.46.46,0,0,0,.46.47h.92a.46.46,0,0,0,.46-.47v-.92A.46.46,0,0,0,8.75,16.09Z"/><path class="cls-2" d="M12.44,16.09h-.92a.46.46,0,0,0-.46.46v.92a.46.46,0,0,0,.46.47h.92a.46.46,0,0,0,.46-.47v-.92A.46.46,0,0,0,12.44,16.09Z"/><path class="cls-2" d="M16.14,16.09h-.93a.47.47,0,0,0-.46.46v.92a.47.47,0,0,0,.46.47h.93a.47.47,0,0,0,.46-.47v-.92A.47.47,0,0,0,16.14,16.09Z"/></g></g></g></svg>