<svg xmlns="http://www.w3.org/2000/svg" viewBox="0 0 24 24"><defs><style>.cls-1{fill:none;}.cls-2{fill:#1d1d1b;}</style></defs><g id="Слой_2" data-name="Слой 2"><g id="Line"><g id="Сhange_Line" data-name="Сhange/Line"><rect class="cls-1" width="24" height="24"/><path class="cls-2" d="M20.36,17.14,9.67,6.43A1.33,1.33,0,0,0,8.9,6a.73.73,0,0,0-.14-.31.79.79,0,0,0-.25-.23L4.38,3.33a.74.74,0,0,0-.48-.08.79.79,0,0,0-.44.21.84.84,0,0,0-.22.44.83.83,0,0,0,.08.49L5.49,8.5a.81.81,0,0,0,.24.28.85.85,0,0,0,.34.14,1.36,1.36,0,0,0,.38.73L17.14,20.36a1.38,1.38,0,0,0,1,.4,1.39,1.39,0,0,0,1-.4l1.26-1.27a1.39,1.39,0,0,0,.41-1A1.36,1.36,0,0,0,20.36,17.14ZM6.23,7.9,4.38,4.33,8,6.18l-.19.19Zm.88.43L8.37,7.08A.49.49,0,0,1,8.51,7a.41.41,0,0,1,.18,0A.47.47,0,0,1,9,7.05l9.24,9.3L16.37,18.3,7.14,9A.76.76,0,0,1,7,8.86a.58.58,0,0,1,0-.18A.37.37,0,0,1,7,8.5a.36.36,0,0,1,.1-.15Zm12.6,10.12-1.27,1.27a.48.48,0,0,1-.32.13.51.51,0,0,1-.33-.13l-.76-.8,1.91-1.85.77.77a.46.46,0,0,1,.11.3A.51.51,0,0,1,19.71,18.45Z"/><path class="cls-2" d="M11.87,3.7H11a.46.46,0,0,0-.47.46v.92a.47.47,0,0,0,.47.46h.92a.47.47,0,0,0,.46-.46V4.16A.46.46,0,0,0,11.87,3.7Z"/><path class="cls-2" d="M15.56,3.7h-.92a.45.45,0,0,0-.46.46v.92a.46.46,0,0,0,.46.46h.92A.46.46,0,0,0,16,5.08V4.16A.45.45,0,0,0,15.56,3.7Z"/><path class="cls-2" d="M19.25,3.7h-.92a.45.45,0,0,0-.46.46v.92a.46.46,0,0,0,.46.46h.92a.46.46,0,0,0,.46-.46V4.16A.45.45,0,0,0,19.25,3.7Z"/></g></g></g></svg>