<svg xmlns="http://www.w3.org/2000/svg" viewBox="0 0 24 24"><defs><style>.cls-1{fill:none;}.cls-2{fill:#1d1d1b;}</style></defs><g id="Слой_2" data-name="Слой 2"><g id="Line"><g id="Сursor_Right_Line" data-name="Сursor/Right/Line"><rect class="cls-1" width="24" height="24"/><path class="cls-2" d="M3.71,4.64l.92-.92a1.79,1.79,0,0,1,.56-.38,1.74,1.74,0,0,1,1.32,0,1.79,1.79,0,0,1,.56.38l5.1,5.09,2.05-2.05A1.74,1.74,0,0,1,15,6.32a1.71,1.71,0,0,1,.87,0,1.8,1.8,0,0,1,.77.41,1.88,1.88,0,0,1,.47.73l3.6,11.08a1.72,1.72,0,0,1-.42,1.76,1.64,1.64,0,0,1-.82.46,1.67,1.67,0,0,1-.94,0l-11-3.61a1.61,1.61,0,0,1-.74-.45,1.8,1.8,0,0,1-.41-.77,1.7,1.7,0,0,1,.45-1.63l2.05-2.05L3.74,7.1a1.64,1.64,0,0,1-.38-.56,1.69,1.69,0,0,1-.13-.66,1.53,1.53,0,0,1,.12-.67A1.72,1.72,0,0,1,3.71,4.64ZM7.4,14.88a.78.78,0,0,0-.21.35.81.81,0,0,0,0,.41.71.71,0,0,0,.19.35.72.72,0,0,0,.34.22l11.07,3.61a.82.82,0,0,0,.44,0,.85.85,0,0,0,.6-.6.82.82,0,0,0,0-.44l-3.61-11A.77.77,0,0,0,16,7.42a.69.69,0,0,0-.35-.18.72.72,0,0,0-.41,0,.84.84,0,0,0-.35.21l-2.71,2.7L6.43,4.4a.82.82,0,0,0-1.14,0l-.93.93a.78.78,0,0,0-.17.26.77.77,0,0,0-.06.3.81.81,0,0,0,.06.31.78.78,0,0,0,.17.26l5.75,5.75Z"/></g></g></g></svg>