<svg xmlns="http://www.w3.org/2000/svg" viewBox="0 0 24 24"><defs><style>.cls-1{fill:none;}.cls-2{fill:#1d1d1b;}</style></defs><g id="Слой_2" data-name="Слой 2"><g id="Line"><g id="Сursor_Left_Line" data-name="Сursor/Left/Line"><rect class="cls-1" width="24" height="24"/><path class="cls-2" d="M18.13,20.79a1.65,1.65,0,0,1-.66-.13,1.51,1.51,0,0,1-.56-.38l-5.1-5.08-2.05,2a1.63,1.63,0,0,1-.75.44,1.71,1.71,0,0,1-.87,0,1.8,1.8,0,0,1-.77-.41,1.74,1.74,0,0,1-.47-.74L3.3,5.48a1.67,1.67,0,0,1,0-.94,1.75,1.75,0,0,1,.45-.82,1.75,1.75,0,0,1,1.76-.43L16.56,6.9a1.68,1.68,0,0,1,.73.47,1.75,1.75,0,0,1,.41.77,1.71,1.71,0,0,1,0,.87,1.74,1.74,0,0,1-.44.75l-2.06,2.05,5.1,5.1a1.74,1.74,0,0,1,0,2.44l-.93.93a1.68,1.68,0,0,1-.56.38A1.65,1.65,0,0,1,18.13,20.79Zm-6.32-6.9,5.75,5.78a.8.8,0,0,0,1.14,0l.92-.92a.79.79,0,0,0,0-1.13l-5.75-5.75,2.71-2.71a.94.94,0,0,0,.2-.35.78.78,0,0,0,0-.4.84.84,0,0,0-.19-.36.87.87,0,0,0-.34-.22L5.19,4.23a.74.74,0,0,0-.44,0,.76.76,0,0,0-.39.22.75.75,0,0,0-.21.38.74.74,0,0,0,0,.44l3.66,11a.75.75,0,0,0,.21.34.7.7,0,0,0,.36.19.68.68,0,0,0,.4,0,.75.75,0,0,0,.35-.21Z"/></g></g></g></svg>