<svg xmlns="http://www.w3.org/2000/svg" viewBox="0 0 24 24"><defs><style>.cls-1{fill:none;}.cls-2{fill:#1d1d1b;}</style></defs><g id="Слой_2" data-name="Слой 2"><g id="Fill"><g id="AirPods_Fill" data-name="AirPods/Fill"><rect class="cls-1" width="24" height="24"/><path class="cls-2" d="M12,17.93v1.3a1.52,1.52,0,0,1-.12.59,1.54,1.54,0,0,1-.33.51,1.58,1.58,0,0,1-.5.34,1.72,1.72,0,0,1-.59.12H9.39a1.73,1.73,0,0,1-.6-.12,1.85,1.85,0,0,1-.5-.34A1.72,1.72,0,0,1,8,19.82a1.51,1.51,0,0,1-.11-.59v-1.3Z"/><path class="cls-2" d="M15.62,4.28A4.7,4.7,0,0,0,12.5,3.21a4.65,4.65,0,0,0-3,1.28,5.48,5.48,0,0,0-1.2,1.74A5.25,5.25,0,0,0,7.85,8.3V17H12V12.91a3.21,3.21,0,0,0,.62,0,4.74,4.74,0,0,0,2.9-1,1.62,1.62,0,0,0,.45-.56,1.58,1.58,0,0,0,.17-.71V5.45a1.49,1.49,0,0,0-.53-1.17ZM14.31,9.82a.47.47,0,0,1-.14.33.46.46,0,0,1-.32.13.45.45,0,0,1-.33-.14.52.52,0,0,1-.14-.32V6.13a.47.47,0,0,1,.14-.33.49.49,0,0,1,.33-.13.46.46,0,0,1,.32.13.47.47,0,0,1,.14.33Z"/></g></g></g></svg>