<svg xmlns="http://www.w3.org/2000/svg" viewBox="0 0 24 24"><defs><style>.cls-1{fill:none;}.cls-2{fill:#1d1d1b;}</style></defs><g id="Слой_2" data-name="Слой 2"><g id="Fill"><g id="AirplaneMode_Fill" data-name="AirplaneMode/Fill"><rect class="cls-1" width="24" height="24"/><path class="cls-2" d="M14.8,14.76l-2.92,7.12a.47.47,0,0,1-.23.25.5.5,0,0,1-.34,0,.48.48,0,0,1-.16-.08.69.69,0,0,1-.11-.13.34.34,0,0,1,0-.17.5.5,0,0,1,0-.17l1.54-6.84Z"/><path class="cls-2" d="M14.8,9.22H12.54L11,2.39a.54.54,0,0,1,.05-.33.49.49,0,0,1,.26-.21.57.57,0,0,1,.34,0,.47.47,0,0,1,.23.25Z"/><path class="cls-2" d="M21.69,12a1.84,1.84,0,0,1-.53,1.3,1.89,1.89,0,0,1-.6.41,2,2,0,0,1-.71.14H5.62L3,15.18a.46.46,0,0,1-.22.06.46.46,0,0,1-.23-.06A.44.44,0,0,1,2.37,15a.46.46,0,0,1-.06-.23V9.24a.46.46,0,0,1,.13-.32.53.53,0,0,1,.33-.15.36.36,0,0,1,.2.06l2.67,1.34H19.85a1.8,1.8,0,0,1,1.29.54A1.83,1.83,0,0,1,21.69,12Z"/></g></g></g></svg>