<svg xmlns="http://www.w3.org/2000/svg" viewBox="0 0 24 24"><defs><style>.cls-1{fill:none;}.cls-2{fill:#1d1d1b;}</style></defs><g id="Слой_2" data-name="Слой 2"><g id="Fill"><g id="Arrow_Diagonal_Fill" data-name="Arrow/Diagonal/Fill"><rect class="cls-1" width="24" height="24"/><path class="cls-2" d="M10.78,6.4a.41.41,0,0,1-.14.31.49.49,0,0,1-.14.11l-.18,0H7.55L18,17.28a1.3,1.3,0,0,1,.1.15.56.56,0,0,1,0,.36.56.56,0,0,1-.1.15.48.48,0,0,1-.66,0L6.85,7.5v2.77a.47.47,0,0,1-.8.32.46.46,0,0,1-.13-.32V6.4a.41.41,0,0,1,.14-.31.48.48,0,0,1,.32-.15h3.94a.47.47,0,0,1,.33.14A.51.51,0,0,1,10.78,6.4Z"/></g></g></g></svg>