<svg xmlns="http://www.w3.org/2000/svg" viewBox="0 0 24 24"><defs><style>.cls-1{fill:none;}.cls-2{fill:#1d1d1b;}</style></defs><g id="Слой_2" data-name="Слой 2"><g id="Fill"><g id="Arrows_Round_Fill" data-name="Arrows/Round/Fill"><rect class="cls-1" width="24" height="24"/><path class="cls-2" d="M3,11.81a8.83,8.83,0,0,1,.33-2.39l0-.26,0-.12a.46.46,0,0,1,.09-.15.53.53,0,0,1,.14-.12.47.47,0,0,1,.17,0,.35.35,0,0,1,.18,0,.46.46,0,0,1,.3.58l-.11.33a7.91,7.91,0,0,0,1.32,6.87,8,8,0,0,0,2.77,2.28,7.85,7.85,0,0,0,3.5.81,7.45,7.45,0,0,0,2-.27L11.8,17.81a.45.45,0,0,1-.18-.25.55.55,0,0,1,0-.31.43.43,0,0,1,.22-.22.47.47,0,0,1,.31,0,.48.48,0,0,1,.16.08l3,2.2a.41.41,0,0,1,.12.14.35.35,0,0,1,.06.17.37.37,0,0,1,0,.18.46.46,0,0,1-.07.16l-2.2,3a.45.45,0,0,1-.3.18.48.48,0,0,1-.35-.08.45.45,0,0,1-.18-.3.47.47,0,0,1,.08-.35L14,20.27a8.4,8.4,0,0,1-2.17.29A8.77,8.77,0,0,1,3,11.81Z"/><path class="cls-2" d="M21,12.19a8.83,8.83,0,0,1-.33,2.39l-.05.27,0,.11a.46.46,0,0,1-.09.15.53.53,0,0,1-.14.12l-.17,0a.48.48,0,0,1-.18,0A.47.47,0,0,1,19.7,15a.53.53,0,0,1,0-.35l.11-.33a7.78,7.78,0,0,0,.14-3.59,7.87,7.87,0,0,0-1.46-3.27,7.82,7.82,0,0,0-6.27-3.1,7.45,7.45,0,0,0-2,.27L12.2,6.19a.45.45,0,0,1,.18.25.54.54,0,0,1,0,.31.43.43,0,0,1-.22.22.45.45,0,0,1-.3,0,.53.53,0,0,1-.17-.08l-3-2.2a.41.41,0,0,1-.12-.14.49.49,0,0,1-.06-.17.37.37,0,0,1,0-.18.46.46,0,0,1,.07-.16l2.2-3a.45.45,0,0,1,.3-.18.48.48,0,0,1,.35.08.45.45,0,0,1,.18.3.47.47,0,0,1-.08.35L10,3.73a8,8,0,0,1,2.17-.28A8.76,8.76,0,0,1,21,12.19Z"/></g></g></g></svg>