<svg xmlns="http://www.w3.org/2000/svg" viewBox="0 0 24 24"><defs><style>.cls-1{fill:none;}.cls-2{fill:#1d1d1b;}</style></defs><g id="Слой_2" data-name="Слой 2"><g id="Fill"><g id="Attach_Fill" data-name="Attach/Fill"><rect class="cls-1" width="24" height="24"/><path class="cls-2" d="M18,15l-3.32-3.3a3.15,3.15,0,0,0-.57-3.69L10.26,4.24a3.15,3.15,0,0,0-2.19-.81A3.18,3.18,0,0,0,5,6.51,3.15,3.15,0,0,0,5.8,8.7L9.13,12a3.15,3.15,0,0,0,.57,3.69l3.8,3.8a3.21,3.21,0,0,0,1,.76,3.31,3.31,0,0,0,1.24.29,3.17,3.17,0,0,0,3-2A3.18,3.18,0,0,0,19,17.33a3.31,3.31,0,0,0-.29-1.24,3.21,3.21,0,0,0-.76-1Zm-4.52-3.22a2.26,2.26,0,0,1-1.53.66,2.23,2.23,0,0,1-1.55-.59,2.18,2.18,0,0,1,1.52-.65A2.29,2.29,0,0,1,13.44,11.82ZM8,6a1.3,1.3,0,0,1-.1-.15.55.55,0,0,1,0-.36A.56.56,0,0,1,8,5.37a.51.51,0,0,1,.33-.13.48.48,0,0,1,.32.13l2.87,2.87a.65.65,0,0,1,.1.15.43.43,0,0,1,0,.36.65.65,0,0,1-.1.15.49.49,0,0,1-.33.13.46.46,0,0,1-.32-.13Zm9.34,12.83a2.37,2.37,0,0,1-.73.48,2.21,2.21,0,0,1-1.7,0,2.33,2.33,0,0,1-.72-.48L10.35,15a2.18,2.18,0,0,1-.61-1.11,2.21,2.21,0,0,1,.1-1.27,3.12,3.12,0,0,0,2.15.72,3.15,3.15,0,0,0,2.08-.91l3.21,3.22A2.28,2.28,0,0,1,18,17.27,2.31,2.31,0,0,1,17.31,18.86Z"/></g></g></g></svg>