<svg xmlns="http://www.w3.org/2000/svg" viewBox="0 0 24 24"><defs><style>.cls-1{fill:none;}.cls-2{fill:#1d1d1b;}</style></defs><g id="Слой_2" data-name="Слой 2"><g id="Fill"><g id="Attention_Fill" data-name="Attention/Fill"><rect class="cls-1" width="24" height="24"/><path class="cls-2" d="M21.07,18.74,13.22,4A1.39,1.39,0,0,0,12,3.23a1.36,1.36,0,0,0-.71.2,1.33,1.33,0,0,0-.51.54L2.92,18.74a1.33,1.33,0,0,0-.15.68,1.49,1.49,0,0,0,.2.68,1.41,1.41,0,0,0,.51.49,1.33,1.33,0,0,0,.68.18H19.85a1.39,1.39,0,0,0,.69-.18,1.36,1.36,0,0,0,.51-.5,1.32,1.32,0,0,0,.18-.67A1.34,1.34,0,0,0,21.07,18.74ZM12,18a.93.93,0,0,1-.65-.27.93.93,0,0,1,0-1.31.93.93,0,0,1,.65-.27A.93.93,0,1,1,12,18Zm-.46-6.92a.44.44,0,0,1,.14-.33.43.43,0,0,1,.32-.14.45.45,0,0,1,.33.14.44.44,0,0,1,.14.33v3.69a.43.43,0,0,1-.14.32.45.45,0,0,1-.33.14.48.48,0,0,1-.46-.46Z"/></g></g></g></svg>