<svg xmlns="http://www.w3.org/2000/svg" viewBox="0 0 24 24"><defs><style>.cls-1{fill:none;}.cls-2{fill:#1d1d1b;}</style></defs><g id="Слой_2" data-name="Слой 2"><g id="Fill"><g id="Back_Fill" data-name="Back/Fill"><rect class="cls-1" width="24" height="24"/><path class="cls-2" d="M18.46,3.23H5.54A2.32,2.32,0,0,0,3.23,5.54V18.46a2.32,2.32,0,0,0,2.31,2.31H18.46a2.32,2.32,0,0,0,2.31-2.31V5.54a2.32,2.32,0,0,0-2.31-2.31ZM13.67,14.94a.46.46,0,0,1,.09.15.55.55,0,0,1,0,.18.49.49,0,0,1-.06.17.53.53,0,0,1-.11.14.44.44,0,0,1-.29.11.46.46,0,0,1-.2,0,.48.48,0,0,1-.16-.12l-2.52-3.06a.74.74,0,0,1,0-.92L13,8.48a.47.47,0,0,1,.65-.06.53.53,0,0,1,.11.14.49.49,0,0,1,.06.17.55.55,0,0,1,0,.18.65.65,0,0,1-.09.16L11.25,12Z"/></g></g></g></svg>