<svg xmlns="http://www.w3.org/2000/svg" viewBox="0 0 24 24"><defs><style>.cls-1{fill:none;}.cls-2{fill:#1d1d1b;}</style></defs><g id="Слой_2" data-name="Слой 2"><g id="Fill"><g id="Back_Fast_Fill" data-name="Back/Fast/Fill"><rect class="cls-1" width="24" height="24"/><path class="cls-2" d="M12,3.23A8.77,8.77,0,1,0,18.2,5.8,8.81,8.81,0,0,0,12,3.23Zm3.69,11.71a.45.45,0,0,1,.1.34.44.44,0,0,1-.46.41.41.41,0,0,1-.19,0,.48.48,0,0,1-.16-.12l-2.52-3.07a.71.71,0,0,1,0-.92L15,8.47l.14-.11a.48.48,0,0,1,.17,0,.37.37,0,0,1,.18,0,.51.51,0,0,1,.16.09.47.47,0,0,1,.16.31.43.43,0,0,1-.1.34L13.27,12Zm-4.08,0a.41.41,0,0,1,.11.23.47.47,0,0,1-.05.26.35.35,0,0,1-.17.19.43.43,0,0,1-.25.07.41.41,0,0,1-.19,0,.48.48,0,0,1-.16-.12L8.38,12.46a.71.71,0,0,1,0-.92L10.9,8.47,11,8.36a.48.48,0,0,1,.17,0,.37.37,0,0,1,.18,0,.51.51,0,0,1,.16.09.47.47,0,0,1,.06.65L9.17,12Z"/></g></g></g></svg>