<svg xmlns="http://www.w3.org/2000/svg" viewBox="0 0 24 24"><defs><style>.cls-1{fill:none;}.cls-2{fill:#1d1d1b;}</style></defs><g id="Слой_2" data-name="Слой 2"><g id="Fill"><g id="Basket_Closed_Fill" data-name="Basket/Closed/Fill"><rect class="cls-1" width="24" height="24"/><path class="cls-2" d="M22.33,19.66,20,14.19A2.53,2.53,0,0,0,21,13a2.56,2.56,0,0,0,.21-1,2.64,2.64,0,0,0-.21-1,2.69,2.69,0,0,0-1.26-1.32,2.62,2.62,0,0,0-1.82-.21L15.52,4a.49.49,0,0,0-.26-.25.47.47,0,0,0-.35,0,.46.46,0,0,0-.25.26.47.47,0,0,0,0,.35l.27.65H1.64V18A2.32,2.32,0,0,0,4,20.31h9.57a2.32,2.32,0,0,0,1.63-.68A2.28,2.28,0,0,0,15.83,18V7L17,9.69l2.13,4.91L21.45,20a.42.42,0,0,0,.17.2.5.5,0,0,0,.26.08.71.71,0,0,0,.2,0,.36.36,0,0,0,.24-.21A.5.5,0,0,0,22.33,19.66ZM5.46,16.57V8.26a.43.43,0,0,1,.14-.32.44.44,0,0,1,.33-.14.48.48,0,0,1,.46.46v8.31a.47.47,0,0,1-.14.33.46.46,0,0,1-.32.13.46.46,0,0,1-.47-.46Zm2.83,0V8.26a.46.46,0,0,1,.13-.32.46.46,0,0,1,.66,0,.46.46,0,0,1,.13.32v8.31a.47.47,0,0,1-.79.33A.51.51,0,0,1,8.29,16.57Zm3.75,0a.47.47,0,0,1-.14.33.49.49,0,0,1-.33.13.46.46,0,0,1-.32-.13.47.47,0,0,1-.14-.33V8.26a.48.48,0,0,1,.46-.46.45.45,0,0,1,.33.14.43.43,0,0,1,.14.32Zm6.21-6.34a1.7,1.7,0,0,1,.92.1,1.69,1.69,0,0,1,1,.92,1.76,1.76,0,0,1,0,1.35,1.9,1.9,0,0,1-.53.72Z"/></g></g></g></svg>