<svg xmlns="http://www.w3.org/2000/svg" viewBox="0 0 24 24"><defs><style>.cls-1{fill:none;}.cls-2{fill:#1d1d1b;}</style></defs><g id="Слой_2" data-name="Слой 2"><g id="Fill"><g id="Basket_Open_Fill" data-name="Basket/Open/Fill"><rect class="cls-1" width="24" height="24"/><path class="cls-2" d="M19.85,5.45H14.63a2.58,2.58,0,0,0-.91-1.59A2.67,2.67,0,0,0,9.37,5.45H4.15a.48.48,0,0,0-.46.46.52.52,0,0,0,.14.33.48.48,0,0,0,.32.13h.74v12.1a2.38,2.38,0,0,0,.68,1.63,2.31,2.31,0,0,0,1.63.67h9.6a2.3,2.3,0,0,0,2.31-2.3V6.37h.74a.42.42,0,0,0,.32-.13.47.47,0,0,0,.14-.33.48.48,0,0,0-.46-.46ZM8.77,17.07V8.76a.48.48,0,0,1,.46-.46.47.47,0,0,1,.33.14.46.46,0,0,1,.13.32v8.31a.51.51,0,0,1-.13.33.46.46,0,0,1-.33.13.42.42,0,0,1-.32-.13A.47.47,0,0,1,8.77,17.07Zm2.77,0V8.76a.46.46,0,0,1,.13-.32.46.46,0,0,1,.66,0,.46.46,0,0,1,.13.32v8.31a.51.51,0,0,1-.13.33.48.48,0,0,1-.66,0A.51.51,0,0,1,11.54,17.07Zm3.69,0a.51.51,0,0,1-.13.33.48.48,0,0,1-.66,0,.51.51,0,0,1-.13-.33V8.76a.46.46,0,0,1,.13-.32.46.46,0,0,1,.66,0,.46.46,0,0,1,.13.32Z"/></g></g></g></svg>