<svg xmlns="http://www.w3.org/2000/svg" viewBox="0 0 24 24"><defs><style>.cls-1{fill:none;}.cls-2{fill:#1d1d1b;}</style></defs><g id="Слой_2" data-name="Слой 2"><g id="Fill"><g id="Battery_Charging_Fill" data-name="Battery/Charging/Fill"><rect class="cls-1" width="24" height="24"/><path class="cls-2" d="M21.09,9.23h-2V8.31a2.28,2.28,0,0,0-.68-1.63A2.32,2.32,0,0,0,16.75,6H3.83a2.32,2.32,0,0,0-1.63.68,2.36,2.36,0,0,0-.68,1.63v7.38a2.32,2.32,0,0,0,.68,1.63A2.28,2.28,0,0,0,3.83,18H16.75a2.32,2.32,0,0,0,1.63-.68,2.28,2.28,0,0,0,.68-1.63v-.92h2a1.4,1.4,0,0,0,1.39-1.38V10.62a1.4,1.4,0,0,0-1.39-1.39ZM7.39,12.11a.46.46,0,0,1-.18.21.48.48,0,0,1-.26.07H5.38l1.27,1.26a.46.46,0,0,1,0,.66.53.53,0,0,1-.33.14A.47.47,0,0,1,6,14.31L3.94,12.25A.41.41,0,0,1,3.81,12a.42.42,0,0,1,0-.27A.5.5,0,0,1,4,11.54a.43.43,0,0,1,.25-.07H5.84L4.71,10.28a.47.47,0,0,1,.35-.78.48.48,0,0,1,.32.15l1.85,2a.51.51,0,0,1,.15.23A.5.5,0,0,1,7.39,12.11Z"/></g></g></g></svg>