<svg xmlns="http://www.w3.org/2000/svg" viewBox="0 0 24 24"><defs><style>.cls-1{fill:none;}.cls-2{fill:#1d1d1b;}</style></defs><g id="Слой_2" data-name="Слой 2"><g id="Fill"><g id="Battery_Fill" data-name="Battery/Fill"><rect class="cls-1" width="24" height="24"/><path class="cls-2" d="M21.09,9.23h-2V8.31A2.3,2.3,0,0,0,16.75,6H3.83a2.28,2.28,0,0,0-1.63.68,2.32,2.32,0,0,0-.68,1.63v7.38a2.32,2.32,0,0,0,.68,1.63A2.28,2.28,0,0,0,3.83,18H16.75a2.3,2.3,0,0,0,2.31-2.31v-.92h2a1.4,1.4,0,0,0,1.39-1.38V10.62a1.4,1.4,0,0,0-1.39-1.39ZM4.85,14.09V9.91A.42.42,0,0,1,5,9.59a.47.47,0,0,1,.33-.14.48.48,0,0,1,.46.46v4.18a.48.48,0,0,1-.46.46A.47.47,0,0,1,5,14.41.42.42,0,0,1,4.85,14.09Zm3.32,0V9.91a.46.46,0,0,1,.13-.32.46.46,0,0,1,.66,0,.46.46,0,0,1,.13.32v4.18a.46.46,0,0,1-.13.32.46.46,0,0,1-.66,0A.46.46,0,0,1,8.17,14.09Zm3.31,0V9.91a.48.48,0,0,1,.46-.46.45.45,0,0,1,.33.14.43.43,0,0,1,.14.32v4.18a.43.43,0,0,1-.14.32.45.45,0,0,1-.33.14.48.48,0,0,1-.46-.46Zm4.25,0a.48.48,0,0,1-.46.46.47.47,0,0,1-.33-.14.42.42,0,0,1-.13-.32V9.91a.42.42,0,0,1,.13-.32.47.47,0,0,1,.33-.14.48.48,0,0,1,.46.46Z"/></g></g></g></svg>