<svg xmlns="http://www.w3.org/2000/svg" viewBox="0 0 24 24"><defs><style>.cls-1{fill:none;}.cls-2{fill:#1d1d1b;}</style></defs><g id="Слой_2" data-name="Слой 2"><g id="Fill"><g id="Bell_Off_Fill" data-name="Bell/Off/Fill"><rect class="cls-1" width="24" height="24"/><path class="cls-2" d="M20.31,17.65a.39.39,0,0,1,0,.18.44.44,0,0,1-.1.15.56.56,0,0,1-.15.1.47.47,0,0,1-.17,0H14.58a2.68,2.68,0,0,1-5.27,0H4.17a.57.57,0,0,1-.18,0,.4.4,0,0,1-.15-.1.53.53,0,0,1-.11-.15.58.58,0,0,1,0-.18.47.47,0,0,1,.14-.33.48.48,0,0,1,.32-.13H5.79a.09.09,0,0,1,0-.07V9.88a6.1,6.1,0,0,1,.84-3.09L17,17.17h2.87a.58.58,0,0,1,.18,0,.49.49,0,0,1,.14.11.31.31,0,0,1,.1.15A.57.57,0,0,1,20.31,17.65Z"/><path class="cls-2" d="M18.15,9.87V17L7.15,6A6.27,6.27,0,0,1,9.31,4.28,6.11,6.11,0,0,1,12,3.68a6.2,6.2,0,0,1,6.15,6.19Z"/></g></g></g></svg>