<svg xmlns="http://www.w3.org/2000/svg" viewBox="0 0 24 24"><defs><style>.cls-1{fill:none;}.cls-2{fill:#1d1d1b;}</style></defs><g id="Слой_2" data-name="Слой 2"><g id="Fill"><g id="Bell_On_Fill" data-name="Bell/On/Fill"><rect class="cls-1" width="24" height="24"/><path class="cls-2" d="M22.86,17.49h-.79V10.2a7.08,7.08,0,0,0-14.15,0v7.29h-.7a.48.48,0,0,0-.46.46.44.44,0,0,0,.46.46h5.13A2.71,2.71,0,0,0,13.26,20a2.65,2.65,0,0,0,3.43,0,2.71,2.71,0,0,0,.91-1.59h5.24a.46.46,0,0,0,.32-.13A.47.47,0,0,0,23.3,18a.48.48,0,0,0-.13-.32A.41.41,0,0,0,22.86,17.49ZM20.2,16.11a.47.47,0,0,1-.14.33.42.42,0,0,1-.32.13.44.44,0,0,1-.33-.13.46.46,0,0,1-.13-.33V12a.46.46,0,0,1,.13-.33.49.49,0,0,1,.33-.13.46.46,0,0,1,.32.13.47.47,0,0,1,.14.33Z"/><path class="cls-2" d="M3.29,4.69l.59.58a7.58,7.58,0,0,0,0,11l-.59.58A8.45,8.45,0,0,1,1.38,14,8.39,8.39,0,0,1,3.29,4.69Z"/><path class="cls-2" d="M5.57,6.91l.59.57A4.45,4.45,0,0,0,5.14,9a4.56,4.56,0,0,0,0,3.55,4.45,4.45,0,0,0,1,1.49l-.59.57a5.29,5.29,0,0,1-1.21-1.75,5.27,5.27,0,0,1,0-4.17A5.29,5.29,0,0,1,5.57,6.91Z"/></g></g></g></svg>