<svg xmlns="http://www.w3.org/2000/svg" viewBox="0 0 24 24"><defs><style>.cls-1{fill:none;}.cls-2{fill:#1d1d1b;}</style></defs><g id="Слой_2" data-name="Слой 2"><g id="Fill"><g id="Bell_Fill" data-name="Bell/Fill"><rect class="cls-1" width="24" height="24"/><path class="cls-2" d="M19.85,17.63h-.8v-7.3a7.11,7.11,0,1,0-14.21,0v7.3H4.15a.48.48,0,0,0-.46.46.47.47,0,0,0,.14.33.46.46,0,0,0,.32.13H9.31a2.67,2.67,0,0,0,4.36,1.6,2.64,2.64,0,0,0,.9-1.6h5.28a.46.46,0,0,0,.32-.13.47.47,0,0,0,.14-.33.48.48,0,0,0-.46-.46Zm-2.64-1.39a.55.55,0,0,1-.14.32.45.45,0,0,1-.32.14.44.44,0,0,1-.33-.14.43.43,0,0,1-.14-.32V12.05a.45.45,0,0,1,.14-.32.44.44,0,0,1,.33-.14.49.49,0,0,1,.32.14.55.55,0,0,1,.14.32Z"/></g></g></g></svg>