<svg xmlns="http://www.w3.org/2000/svg" viewBox="0 0 24 24"><defs><style>.cls-1{fill:none;}.cls-2{fill:#1d1d1b;}</style></defs><g id="Слой_2" data-name="Слой 2"><g id="Fill"><g id="Blood_Fill" data-name="Blood/Fill"><rect class="cls-1" width="24" height="24"/><path class="cls-2" d="M18,14a8.53,8.53,0,0,0-.65-1.9l-.37-.74L13.23,4a1.29,1.29,0,0,0-.5-.56,1.36,1.36,0,0,0-1.45,0,1.34,1.34,0,0,0-.52.56L7.07,11.37q-.13.26-.33.69a11.21,11.21,0,0,0-.69,2,5.78,5.78,0,0,0,.76,3.79,6,6,0,0,0,1.57,1.76,6.1,6.1,0,0,0,2.12,1,6.54,6.54,0,0,0,1.53.19A5.86,5.86,0,0,0,15,20,5.95,5.95,0,0,0,18,14Zm-2.63.71a.39.39,0,0,1-.21.06.48.48,0,0,1-.24-.07.52.52,0,0,1-.17-.19L13.15,11.4a.33.33,0,0,1,0-.17.36.36,0,0,1,0-.18.51.51,0,0,1,.09-.16l.14-.11a.5.5,0,0,1,.36,0A.49.49,0,0,1,14,11l1.54,3.11a.45.45,0,0,1-.2.62Z"/></g></g></g></svg>