<svg xmlns="http://www.w3.org/2000/svg" viewBox="0 0 24 24"><defs><style>.cls-1{fill:none;}.cls-2{fill:#1d1d1b;}</style></defs><g id="Слой_2" data-name="Слой 2"><g id="Fill"><g id="Bluetooth_Fill" data-name="Bluetooth/Fill"><rect class="cls-1" width="24" height="24"/><path class="cls-2" d="M16.21,8.87,11.9,3.43l-.06-.07a.56.56,0,0,0-.15-.1.45.45,0,0,0-.16,0,.48.48,0,0,0-.34.14.52.52,0,0,0-.14.32V11.2l-2.56-2a.49.49,0,0,0-.33-.07.48.48,0,0,0-.3.17.47.47,0,0,0-.09.33.45.45,0,0,0,.16.3L10.57,12,7.9,14a.47.47,0,0,0-.16.31.42.42,0,0,0,.1.32.47.47,0,0,0,.29.18.49.49,0,0,0,.33-.08l2.58-2v7.52a.33.33,0,0,0,0,.17.38.38,0,0,0,.09.15.44.44,0,0,0,.15.1.39.39,0,0,0,.18,0,.33.33,0,0,0,.17,0,.4.4,0,0,0,.15-.1l.07-.08,4.37-5.37L12.13,12ZM12,5,14.9,8.7l-3,2.22Zm2.9,10.32-3,3.7V13.09Z"/></g></g></g></svg>