<svg xmlns="http://www.w3.org/2000/svg" viewBox="0 0 24 24"><defs><style>.cls-1{fill:none;}.cls-2{fill:#1d1d1b;}</style></defs><g id="Слой_2" data-name="Слой 2"><g id="Fill"><g id="Bookmark_Fill" data-name="Bookmark/Fill"><rect class="cls-1" width="24" height="24"/><path class="cls-2" d="M4.62,4.62V18a1.39,1.39,0,0,0,.72,1.2,1.51,1.51,0,0,0,.7.17,1.43,1.43,0,0,0,.69-.21L11.91,16l5.38,3.22a1.45,1.45,0,0,0,1.4,0,1.39,1.39,0,0,0,.51-.51,1.31,1.31,0,0,0,.18-.7V4.62ZM17.08,7.39h-3.7a.48.48,0,0,1-.46-.46.45.45,0,0,1,.14-.33.46.46,0,0,1,.32-.13h3.7a.46.46,0,0,1,.32.13.45.45,0,0,1,.14.33.48.48,0,0,1-.46.46Z"/></g></g></g></svg>