<svg xmlns="http://www.w3.org/2000/svg" viewBox="0 0 24 24"><defs><style>.cls-1{fill:none;}.cls-2{fill:#1d1d1b;}</style></defs><g id="Слой_2" data-name="Слой 2"><g id="Fill"><g id="Burger_Fill" data-name="Burger/Fill"><rect class="cls-1" width="24" height="24"/><path class="cls-2" d="M20.31,5.67H3.69a.46.46,0,0,1-.32-.13.47.47,0,0,1-.14-.33.48.48,0,0,1,.46-.46H20.31a.45.45,0,0,1,.32.78A.43.43,0,0,1,20.31,5.67Z"/><path class="cls-2" d="M20.31,19.25H3.69a.46.46,0,0,1-.32-.13.46.46,0,0,1,0-.66.46.46,0,0,1,.32-.13H20.31a.46.46,0,0,1,.32.13.47.47,0,0,1,.14.33.48.48,0,0,1-.46.46Z"/><path class="cls-2" d="M20.31,12.46H3.69a.43.43,0,0,1-.32-.14A.45.45,0,0,1,3.23,12a.45.45,0,0,1,.14-.33.43.43,0,0,1,.32-.14H20.31a.43.43,0,0,1,.32.14.45.45,0,0,1,.14.33.45.45,0,0,1-.14.32A.43.43,0,0,1,20.31,12.46Z"/></g></g></g></svg>