<svg xmlns="http://www.w3.org/2000/svg" viewBox="0 0 24 24"><defs><style>.cls-1{fill:none;}.cls-2{fill:#1d1d1b;}</style></defs><g id="Слой_2" data-name="Слой 2"><g id="Fill"><g id="Calculator_Fill" data-name="Calculator/Fill"><rect class="cls-1" width="24" height="24"/><path class="cls-2" d="M17.08,3.23H6.92a2.28,2.28,0,0,0-1.63.68,2.31,2.31,0,0,0-.67,1.63V18.46a2.31,2.31,0,0,0,.67,1.63,2.28,2.28,0,0,0,1.63.68H17.08a2.28,2.28,0,0,0,1.63-.68,2.31,2.31,0,0,0,.67-1.63V5.54a2.31,2.31,0,0,0-.67-1.63A2.28,2.28,0,0,0,17.08,3.23ZM12.46,14.38h-.92a.51.51,0,0,1-.33-.13.46.46,0,0,1-.13-.33V13a.44.44,0,0,1,.46-.46h.92a.46.46,0,0,1,.33.13.51.51,0,0,1,.13.33v.92a.46.46,0,0,1-.13.32A.47.47,0,0,1,12.46,14.38Zm.46,2.31v.92a.44.44,0,0,1-.46.46h-.92a.44.44,0,0,1-.46-.46v-.92a.46.46,0,0,1,.13-.33.51.51,0,0,1,.33-.13h.92a.44.44,0,0,1,.46.46Zm-5.54,0a.47.47,0,0,1,.14-.33.49.49,0,0,1,.33-.13h.92a.44.44,0,0,1,.46.46v.92a.47.47,0,0,1-.14.33.46.46,0,0,1-.32.13H7.85a.44.44,0,0,1-.33-.13.47.47,0,0,1-.14-.33Zm1.39-2.31H7.85a.49.49,0,0,1-.33-.13.47.47,0,0,1-.14-.33V13a.47.47,0,0,1,.14-.33.44.44,0,0,1,.33-.13h.92a.46.46,0,0,1,.33.13.51.51,0,0,1,.13.33v.92a.48.48,0,0,1-.46.46Zm6,2.31a.44.44,0,0,1,.46-.46h.92a.49.49,0,0,1,.33.13.47.47,0,0,1,.14.33v.92a.58.58,0,0,1-.14.33.49.49,0,0,1-.33.13h-.92a.46.46,0,0,1-.33-.13.51.51,0,0,1-.13-.33Zm1.38-2.31h-.92a.44.44,0,0,1-.46-.46V13a.51.51,0,0,1,.13-.33.46.46,0,0,1,.33-.13h.92a.44.44,0,0,1,.33.13.47.47,0,0,1,.14.33v.92a.52.52,0,0,1-.14.32A.45.45,0,0,1,16.15,14.38Zm0-4.19a.46.46,0,0,1-.13.33.51.51,0,0,1-.33.13H8.31A.49.49,0,0,1,8,10.52a.51.51,0,0,1-.13-.33V7.39A.47.47,0,0,1,8,7.06a.45.45,0,0,1,.33-.14h7.38a.52.52,0,0,1,.33.14.49.49,0,0,1,.13.33Z"/></g></g></g></svg>