<svg xmlns="http://www.w3.org/2000/svg" viewBox="0 0 24 24"><defs><style>.cls-1{fill:none;}.cls-2{fill:#1d1d1b;}</style></defs><g id="Слой_2" data-name="Слой 2"><g id="Fill"><g id="Call_Fill" data-name="Call/Fill"><rect class="cls-1" width="24" height="24"/><path class="cls-2" d="M20.33,16.17l-3.07-3.06a1.38,1.38,0,0,0-.54-.34,1.49,1.49,0,0,0-.63-.06,4,4,0,0,0-2.34,1.15c-.11.11-.21.21-.3.32l-4-4a2.93,2.93,0,0,0,.32-.3A3.92,3.92,0,0,0,11,7.58a1.39,1.39,0,0,0-.06-.64,1.46,1.46,0,0,0-.34-.54l-3.06-3A1.43,1.43,0,0,0,7,3,1.47,1.47,0,0,0,6.42,3,4,4,0,0,0,4.15,4a3.89,3.89,0,0,0-.94,1.27,3.78,3.78,0,0,0-.36,1.55A4.43,4.43,0,0,0,4.16,10l9.49,9.49a4.42,4.42,0,0,0,3.14,1.31h.12a3.81,3.81,0,0,0,1.52-.36,3.93,3.93,0,0,0,1.25-.93,4,4,0,0,0,1-2.28,1.42,1.42,0,0,0-.06-.58A1.46,1.46,0,0,0,20.33,16.17Zm-1.48,1.34a.47.47,0,0,1-.33.14.39.39,0,0,1-.18,0,.65.65,0,0,1-.15-.1L16,15.36a.45.45,0,0,1-.14-.32.47.47,0,0,1,.14-.33.56.56,0,0,1,.15-.1.47.47,0,0,1,.17,0,.52.52,0,0,1,.18,0,.56.56,0,0,1,.15.1l2.18,2.17a.47.47,0,0,1,.12.32A.47.47,0,0,1,18.85,17.51ZM6.14,4.81a.4.4,0,0,1,.15-.1.58.58,0,0,1,.18,0,.47.47,0,0,1,.17,0,.4.4,0,0,1,.15.1L9,7a.44.44,0,0,1,0,.64.44.44,0,0,1-.33.14.43.43,0,0,1-.32-.14L6.14,5.46A.46.46,0,0,1,6,5.13.44.44,0,0,1,6.14,4.81Z"/></g></g></g></svg>