<svg xmlns="http://www.w3.org/2000/svg" viewBox="0 0 24 24"><defs><style>.cls-1{fill:none;}.cls-2{fill:#1d1d1b;}</style></defs><g id="Слой_2" data-name="Слой 2"><g id="Fill"><g id="Call_Reject_Fill" data-name="Call/Reject/Fill"><rect class="cls-1" width="24" height="24"/><path class="cls-2" d="M20.55,16.28l-3.06-3.06a1.54,1.54,0,0,0-.54-.34,1.36,1.36,0,0,0-.63-.06A4,4,0,0,0,14,14l-.29.33-4-4c.11-.09.21-.19.32-.3a3.91,3.91,0,0,0,1.14-2.33,1.39,1.39,0,0,0-.06-.64,1.26,1.26,0,0,0-.33-.54l-3.07-3a1.3,1.3,0,0,0-1.07-.41,4,4,0,0,0-2.27,1,3.79,3.79,0,0,0-.94,1.27,3.93,3.93,0,0,0-.35,1.54,4.43,4.43,0,0,0,1.31,3.26l9.49,9.49a4.26,4.26,0,0,0,1.44,1,4.48,4.48,0,0,0,1.7.34h.12a3.76,3.76,0,0,0,1.51-.36,3.86,3.86,0,0,0,1.26-.93,4,4,0,0,0,1-2.28,1.25,1.25,0,0,0-.05-.58A1.4,1.4,0,0,0,20.55,16.28Zm-1.47,1.34a.48.48,0,0,1-.34.14.33.33,0,0,1-.17,0,.4.4,0,0,1-.15-.1l-2.18-2.15a.48.48,0,0,1-.13-.32.51.51,0,0,1,.13-.33.78.78,0,0,1,.15-.1.55.55,0,0,1,.36,0l.15.1L19.08,17a.52.52,0,0,1,.11.32A.51.51,0,0,1,19.08,17.62ZM6.36,4.92a.65.65,0,0,1,.15-.1.47.47,0,0,1,.51.1L9.2,7.1a.46.46,0,0,1,0,.64.47.47,0,0,1-.33.14.45.45,0,0,1-.33-.14L6.36,5.56a.46.46,0,0,1,0-.64Z"/><path class="cls-2" d="M17.57,9.7a.4.4,0,0,1-.15.1.48.48,0,0,1-.18,0,.47.47,0,0,1-.17,0,.4.4,0,0,1-.15-.1l-1-1-.92,1a.54.54,0,0,1-.16.1.47.47,0,0,1-.17,0,.58.58,0,0,1-.18,0,.46.46,0,0,1-.25-.25.58.58,0,0,1,0-.18.47.47,0,0,1,0-.17.4.4,0,0,1,.1-.15l1-.93-1-1a.4.4,0,0,1-.1-.15.47.47,0,0,1,0-.17.53.53,0,0,1,0-.18.4.4,0,0,1,.1-.15.48.48,0,0,1,.66,0l1,1,.93-.93a.49.49,0,0,1,.33-.13.48.48,0,0,1,.32.13.44.44,0,0,1,.1.15.42.42,0,0,1,0,.36.31.31,0,0,1-.1.15l-.92.92,1,1a.5.5,0,0,1,.08.32A.47.47,0,0,1,17.57,9.7Z"/></g></g></g></svg>