<svg xmlns="http://www.w3.org/2000/svg" viewBox="0 0 24 24"><defs><style>.cls-1{fill:none;}.cls-2{fill:#1d1d1b;}</style></defs><g id="Слой_2" data-name="Слой 2"><g id="Fill"><g id="Card_Fill" data-name="Card/Fill"><rect class="cls-1" width="24" height="24"/><path class="cls-2" d="M21.47,14a2.34,2.34,0,0,1-.68,1.64l-1.2,1.21L7.18,4.42l1.2-1.21a2.32,2.32,0,0,1,3.28,0l9.14,9.14A2.34,2.34,0,0,1,21.47,14Z"/><path class="cls-2" d="M18.93,17.45l-3.32,3.34a2.1,2.1,0,0,1-.75.5,2.32,2.32,0,0,1-.89.18,2.42,2.42,0,0,1-.88-.17,2.38,2.38,0,0,1-.75-.51L3.21,11.66a2.38,2.38,0,0,1-.51-.75A2.51,2.51,0,0,1,2.53,10a2.42,2.42,0,0,1,.17-.88,2.27,2.27,0,0,1,.51-.75L6.55,5.05Z"/></g></g></g></svg>