<svg xmlns="http://www.w3.org/2000/svg" viewBox="0 0 24 24"><defs><style>.cls-1{fill:none;}.cls-2{fill:#1d1d1b;}</style></defs><g id="Слой_2" data-name="Слой 2"><g id="Fill"><g id="Cash_Fill" data-name="Cash/Fill"><rect class="cls-1" width="24" height="24"/><path class="cls-2" d="M4.93,8.93A4.21,4.21,0,0,1,4,10.36a4,4,0,0,1-1.45.93v-1a1.36,1.36,0,0,1,.41-.95,1.31,1.31,0,0,1,1-.38Z"/><path class="cls-2" d="M4.93,18.7h-1a1.34,1.34,0,0,1-.52-.1,1.25,1.25,0,0,1-.44-.29,1.42,1.42,0,0,1-.29-.43,1.51,1.51,0,0,1-.11-.52v-1A4.08,4.08,0,0,1,4,17.27,4,4,0,0,1,4.93,18.7Z"/><path class="cls-2" d="M18,16.39v1a1.31,1.31,0,0,1-.11.52,1.42,1.42,0,0,1-.29.43,1.25,1.25,0,0,1-.44.29,1.34,1.34,0,0,1-.52.1h-.92a4.11,4.11,0,0,1,.9-1.39A4,4,0,0,1,18,16.39Z"/><path class="cls-2" d="M18,10.26v1a4.07,4.07,0,0,1-1.39-.92,4.21,4.21,0,0,1-.92-1.4h.93a1.13,1.13,0,0,1,.51.09,1.18,1.18,0,0,1,.45.28,1.28,1.28,0,0,1,.3.43A1.17,1.17,0,0,1,18,10.26Z"/><path class="cls-2" d="M21.37,13.71a1.25,1.25,0,0,1-.29.44,1.4,1.4,0,0,1-.44.29l-1.77.73V10.26a2.28,2.28,0,0,0-.67-1.6A2.31,2.31,0,0,0,16.59,8H10.51l6.3-2.61a1.6,1.6,0,0,1,.53-.09,1.54,1.54,0,0,1,.52.09,1.6,1.6,0,0,1,.44.29,1.43,1.43,0,0,1,.3.44l2.76,6.56A1.36,1.36,0,0,1,21.37,13.71Z"/><path class="cls-2" d="M14.73,8.93H5.94a5.06,5.06,0,0,1-3.36,3.31V15.4a5,5,0,0,1,2.09,1.23A5.17,5.17,0,0,1,5.94,18.7h8.79a5,5,0,0,1,1.23-2,5,5,0,0,1,2-1.24V12.18A4.88,4.88,0,0,1,16,11,4.93,4.93,0,0,1,14.73,8.93Zm-4.45,7.32A2.33,2.33,0,0,1,8,13.49a2.25,2.25,0,0,1,.64-1.18,2.17,2.17,0,0,1,1.18-.63,2.24,2.24,0,0,1,1.33.13,2.31,2.31,0,0,1,1.43,2.13,2.25,2.25,0,0,1-.18.89,2.34,2.34,0,0,1-.52.76,2.16,2.16,0,0,1-.76.49,2.32,2.32,0,0,1-.9.17Z"/><path class="cls-2" d="M10.23,15.32a1.39,1.39,0,1,0-1.38-1.38A1.38,1.38,0,0,0,10.23,15.32Z"/></g></g></g></svg>