<svg xmlns="http://www.w3.org/2000/svg" viewBox="0 0 24 24"><defs><style>.cls-1{fill:none;}.cls-2{fill:#1d1d1b;}</style></defs><g id="Слой_2" data-name="Слой 2"><g id="Fill"><g id="Chart_Fill" data-name="Chart/Fill"><rect class="cls-1" width="24" height="24"/><path class="cls-2" d="M20.31,20.77H4.73a1.5,1.5,0,0,1-1.5-1.5V3.69a.46.46,0,0,1,.13-.32.46.46,0,0,1,.66,0,.46.46,0,0,1,.13.32V19.25a.56.56,0,0,0,.17.4.57.57,0,0,0,.41.17H20.31a.45.45,0,0,1,.32.14.43.43,0,0,1,.14.32.52.52,0,0,1,0,.18.34.34,0,0,1-.1.16.33.33,0,0,1-.15.11A.39.39,0,0,1,20.31,20.77Z"/><path class="cls-2" d="M10,7V18H6V7a1.38,1.38,0,0,1,.4-1,1.4,1.4,0,0,1,1-.41H8.65A1.38,1.38,0,0,1,10,7Z"/><path class="cls-2" d="M15.2,9.09V18H11V9.09a1.38,1.38,0,0,1,1.39-1.38h1.45a1.39,1.39,0,0,1,1,.4A1.38,1.38,0,0,1,15.2,9.09Z"/><path class="cls-2" d="M20.19,11.17V18h-4v-6.8a1.4,1.4,0,0,1,1.39-1.39H18.8a1.4,1.4,0,0,1,1.39,1.39Z"/></g></g></g></svg>