<svg xmlns="http://www.w3.org/2000/svg" viewBox="0 0 24 24"><defs><style>.cls-1{fill:none;}.cls-2{fill:#1d1d1b;}</style></defs><g id="Слой_2" data-name="Слой 2"><g id="Fill"><g id="Clock_Fill" data-name="Clock/Fill"><rect class="cls-1" width="24" height="24"/><path class="cls-2" d="M12,3.23A8.77,8.77,0,1,0,18.2,5.8,8.81,8.81,0,0,0,12,3.23Zm-.53,7.85V8.82a.48.48,0,0,1,.47-.47.45.45,0,0,1,.32.14.45.45,0,0,1,.14.33v2.3a.49.49,0,0,0,.13.33.46.46,0,0,0,.33.13h4.79a.47.47,0,0,1,.33.14.49.49,0,0,1,.13.33.46.46,0,0,1-.13.32.47.47,0,0,1-.33.14H12.86a1.4,1.4,0,0,1-1.39-1.39Z"/></g></g></g></svg>