<svg xmlns="http://www.w3.org/2000/svg" viewBox="0 0 24 24"><defs><style>.cls-1{fill:none;}.cls-2{fill:#1d1d1b;}</style></defs><g id="Слой_2" data-name="Слой 2"><g id="Fill"><g id="Cloudy_Fill" data-name="Cloudy/Fill"><rect class="cls-1" width="24" height="24"/><path class="cls-2" d="M7.75,7.93A2.1,2.1,0,0,1,7.39,9.1a2.15,2.15,0,0,1-1,.78A2.19,2.19,0,0,1,5.19,10,2.14,2.14,0,0,1,3.65,7.09a2.24,2.24,0,0,1,.79-1,2.16,2.16,0,0,1,1.18-.36,2.11,2.11,0,0,1,.82.17,2.21,2.21,0,0,1,.7.47,2.31,2.31,0,0,1,.46.69A2.11,2.11,0,0,1,7.75,7.93Z"/><path class="cls-2" d="M22.15,17.3H21a6.69,6.69,0,0,0-.34-5.91,6.57,6.57,0,0,0-6.33-3.24,6.6,6.6,0,0,0-3.42,1.4,6.51,6.51,0,0,0-2.12,3,4.48,4.48,0,0,0-4.09.23A4.61,4.61,0,0,0,2.5,17.3H1.85a.55.55,0,0,0-.33.14.49.49,0,0,0-.13.33.42.42,0,0,0,.13.32.45.45,0,0,0,.33.14h20.3a.45.45,0,0,0,.33-.14.43.43,0,0,0,.14-.32.48.48,0,0,0-.47-.47Zm-7.44-2h3.84a.45.45,0,0,1,.32.14.52.52,0,0,1,.14.32.47.47,0,0,1-.14.33.48.48,0,0,1-.32.13H14.71a.46.46,0,0,1-.32-.13.46.46,0,0,1,0-.66A.46.46,0,0,1,14.71,15.32Z"/></g></g></g></svg>