<svg xmlns="http://www.w3.org/2000/svg" viewBox="0 0 24 24"><defs><style>.cls-1{fill:none;}.cls-2{fill:#1d1d1b;}</style></defs><g id="Слой_2" data-name="Слой 2"><g id="Fill"><g id="Cloud_Fill" data-name="Cloud/Fill"><rect class="cls-1" width="24" height="24"/><path class="cls-2" d="M22.58,13.88a6.05,6.05,0,0,1-.4,1.78,4.16,4.16,0,0,1-4,2.8H5.44a4,4,0,0,1-4.06-4,4.25,4.25,0,0,1,4.23-4.15,4.14,4.14,0,0,1,2,.69,2.54,2.54,0,0,1,.21-.53,7.57,7.57,0,0,1,3.31-3.95A7.67,7.67,0,0,1,21.58,9.34,7.44,7.44,0,0,1,22.58,13.88Z"/></g></g></g></svg>