<svg xmlns="http://www.w3.org/2000/svg" viewBox="0 0 24 24"><defs><style>.cls-1{fill:none;}.cls-2{fill:#1d1d1b;}</style></defs><g id="Слой_2" data-name="Слой 2"><g id="Fill"><g id="CloudStorage_Fill" data-name="CloudStorage/Fill"><rect class="cls-1" width="24" height="24"/><path class="cls-2" d="M22.6,13.85a6.53,6.53,0,0,1-.4,1.79,4.29,4.29,0,0,1-.59,1.12,4.38,4.38,0,0,1-1.17,1.06,4.33,4.33,0,0,1-2.27.62H12.52V13.57l2,2a.42.42,0,0,0,.32.11.44.44,0,0,0,.31-.13.5.5,0,0,0,.14-.31.54.54,0,0,0-.11-.32l-2.77-2.77a1,1,0,0,0-.32-.13.48.48,0,0,0-.18,0l-.16.1L9,14.92a.48.48,0,0,0,0,.66.48.48,0,0,0,.66,0l2-2v4.89H5.46A4.15,4.15,0,0,1,3.9,18.2a4,4,0,0,1-1.32-.86A3.87,3.87,0,0,1,1.69,16a4,4,0,0,1-.32-1.55,4.23,4.23,0,0,1,4.22-4.15,4.12,4.12,0,0,1,2.06.52,1.49,1.49,0,0,1,.13-.37A7.66,7.66,0,0,1,22.6,13.85Z"/></g></g></g></svg>