<svg xmlns="http://www.w3.org/2000/svg" viewBox="0 0 24 24"><defs><style>.cls-1{fill:none;}.cls-2{fill:#1d1d1b;}</style></defs><g id="Слой_2" data-name="Слой 2"><g id="Fill"><g id="Disk_Fill" data-name="Disk/Fill"><rect class="cls-1" width="24" height="24"/><path class="cls-2" d="M12,3.23A8.77,8.77,0,1,0,20.77,12,8.77,8.77,0,0,0,12,3.23ZM10.62,12a1.38,1.38,0,0,1,.85-1.28A1.38,1.38,0,0,1,13,11a1.37,1.37,0,0,1,.38.71,1.45,1.45,0,0,1-.08.8,1.34,1.34,0,0,1-.51.62,1.43,1.43,0,0,1-.77.24A1.38,1.38,0,0,1,10.62,12ZM17,8.05,15.15,9.9A.56.56,0,0,1,15,10a.47.47,0,0,1-.17,0,.51.51,0,0,1-.34-.13.51.51,0,0,1-.13-.33.48.48,0,0,1,.13-.32L16.34,7.4a.56.56,0,0,1,.15-.1.52.52,0,0,1,.18,0,.47.47,0,0,1,.17,0,.56.56,0,0,1,.15.1.53.53,0,0,1,.11.15.57.57,0,0,1,0,.18.47.47,0,0,1,0,.17A.42.42,0,0,1,17,8.05Z"/></g></g></g></svg>