<svg xmlns="http://www.w3.org/2000/svg" viewBox="0 0 24 24"><defs><style>.cls-1{fill:none;}.cls-2{fill:#1d1d1b;}</style></defs><g id="Слой_2" data-name="Слой 2"><g id="Fill"><g id="Document_Fill" data-name="Document/Fill"><rect class="cls-1" width="24" height="24"/><path class="cls-2" d="M17.08,3.23H6.92a2.34,2.34,0,0,0-1.63.68,2.36,2.36,0,0,0-.68,1.63V18.46a2.32,2.32,0,0,0,.68,1.63,2.28,2.28,0,0,0,1.63.68H17.08a2.3,2.3,0,0,0,2.3-2.31V5.54a2.31,2.31,0,0,0-.67-1.63A2.34,2.34,0,0,0,17.08,3.23ZM8.77,13.08h6.46a.47.47,0,0,1,.33.14.46.46,0,0,1,.13.32.51.51,0,0,1-.13.33.46.46,0,0,1-.33.13H8.77a.44.44,0,0,1-.46-.46.46.46,0,0,1,.13-.32A.47.47,0,0,1,8.77,13.08Zm-.46-2.41a.46.46,0,0,1,.13-.32.47.47,0,0,1,.33-.14h6.46a.46.46,0,1,1,0,.92H8.77a.44.44,0,0,1-.46-.46Zm6.92-2.36H8.77a.47.47,0,0,1-.33-.14.46.46,0,0,1-.13-.32.49.49,0,0,1,.13-.33.46.46,0,0,1,.33-.13h6.46a.46.46,0,0,1,.33.13.49.49,0,0,1,.13.33.46.46,0,0,1-.13.32A.47.47,0,0,1,15.23,8.31Z"/></g></g></g></svg>