<svg xmlns="http://www.w3.org/2000/svg" viewBox="0 0 24 24"><defs><style>.cls-1{fill:none;}.cls-2{fill:#1d1d1b;}</style></defs><g id="Слой_2" data-name="Слой 2"><g id="Fill"><g id="Document_Search_Fill" data-name="Document/Search/Fill"><rect class="cls-1" width="24" height="24"/><path class="cls-2" d="M20.23,21.29a.48.48,0,0,1-.66,0l-1.52-1.53a3.21,3.21,0,0,1-4.13-.56,3.32,3.32,0,0,1-.6-.92,3.22,3.22,0,0,1-.24-1.56,3.19,3.19,0,0,1,1.69-2.56,3.28,3.28,0,0,1,1.53-.39h.24a3,3,0,0,1,.92.21A3.2,3.2,0,0,1,19,15.16,3.25,3.25,0,0,1,19.54,17a3.2,3.2,0,0,1-.8,2.12l1.48,1.48a.44.44,0,0,1,.12.15.65.65,0,0,1,0,.19.45.45,0,0,1,0,.2A.42.42,0,0,1,20.23,21.29Z"/><path class="cls-2" d="M15.16,2.59H5A1.38,1.38,0,0,0,3.62,4V16.89A1.4,1.4,0,0,0,5,18.28h7.38a4,4,0,0,1-.14-1.92,4.16,4.16,0,0,1,4.05-3.51h.24V4a1.39,1.39,0,0,0-.41-1A1.34,1.34,0,0,0,15.16,2.59Zm-8,7.6a.44.44,0,0,1-.46.46H5.82a.51.51,0,0,1-.33-.13.46.46,0,0,1-.13-.33V9.27a.44.44,0,0,1,.46-.46h.92a.44.44,0,0,1,.46.46Zm3.7,0a.47.47,0,0,1-.14.33.49.49,0,0,1-.33.13H9.51a.44.44,0,0,1-.46-.46V9.27a.51.51,0,0,1,.13-.33.46.46,0,0,1,.33-.13h.92a.49.49,0,0,1,.33.13.58.58,0,0,1,.14.33Zm3.69,0a.47.47,0,0,1-.14.33.46.46,0,0,1-.32.13H13.2a.46.46,0,0,1-.32-.13.47.47,0,0,1-.14-.33V9.27a.47.47,0,0,1,.14-.33.42.42,0,0,1,.32-.13h.93a.48.48,0,0,1,.32.13.47.47,0,0,1,.14.33Z"/></g></g></g></svg>