<svg xmlns="http://www.w3.org/2000/svg" viewBox="0 0 24 24"><defs><style>.cls-1{fill:none;}.cls-2{fill:#1d1d1b;}</style></defs><g id="Слой_2" data-name="Слой 2"><g id="Fill"><g id="Document_NotFound_Fill" data-name="Document/NotFound/Fill"><rect class="cls-1" width="24" height="24"/><path class="cls-2" d="M17.87,14.59a2.86,2.86,0,0,0-.92-.2h-.21a3.25,3.25,0,0,0-2.18.84,3.31,3.31,0,0,0-1,2.1,3.23,3.23,0,0,0,4.93,3,3.22,3.22,0,0,0-.56-5.76Zm.51,4.11a.41.41,0,0,1,.13.23.63.63,0,0,1,0,.27.47.47,0,0,1-.17.2.44.44,0,0,1-.25.08.46.46,0,0,1-.32-.13l-1-1-.92,1a.53.53,0,0,1-.34.13.48.48,0,0,1-.32-.13.4.4,0,0,1-.1-.15A.47.47,0,0,1,15,19a.48.48,0,0,1,0-.18.4.4,0,0,1,.1-.15l1-1-1-1a.45.45,0,0,1-.14-.33.43.43,0,0,1,.14-.32.46.46,0,0,1,.66,0l.92,1,1-1a.49.49,0,0,1,.14-.11L18,16a.57.57,0,0,1,.18,0,.49.49,0,0,1,.14.11.31.31,0,0,1,.1.15.33.33,0,0,1,0,.17.39.39,0,0,1,0,.18.31.31,0,0,1-.1.15l-1,1Z"/><path class="cls-2" d="M15.57,3.15H5.41a1.42,1.42,0,0,0-1,.41,1.36,1.36,0,0,0-.41,1V17.45a1.38,1.38,0,0,0,.4,1,1.4,1.4,0,0,0,1,.41H12.8a4.3,4.3,0,0,1-.13-1.92,4.21,4.21,0,0,1,2.21-3,4.26,4.26,0,0,1,1.86-.46H17V4.53a1.37,1.37,0,0,0-.42-1,1.37,1.37,0,0,0-.45-.3A1.39,1.39,0,0,0,15.57,3.15Zm-2,9.69H7.07a.48.48,0,0,1-.47-.47.43.43,0,0,1,.14-.32.45.45,0,0,1,.33-.14h6.46a.48.48,0,0,1,.46.46.45.45,0,0,1-.14.33A.43.43,0,0,1,13.53,12.84Zm0-2.87H7.07a.49.49,0,0,1-.33-.13.58.58,0,0,1-.14-.33.43.43,0,0,1,.14-.32.45.45,0,0,1,.33-.14h6.46a.48.48,0,0,1,.46.46.58.58,0,0,1,0,.19.39.39,0,0,1-.1.16.29.29,0,0,1-.13.08A.46.46,0,0,1,13.53,10Zm0-2.87H7.07A.49.49,0,0,1,6.74,7a.47.47,0,0,1-.14-.33.52.52,0,0,1,.14-.32.45.45,0,0,1,.33-.14h6.46a.48.48,0,0,1,.46.46.58.58,0,0,1,0,.19.39.39,0,0,1-.1.16.29.29,0,0,1-.13.08A.69.69,0,0,1,13.53,7.1Z"/></g></g></g></svg>