<svg xmlns="http://www.w3.org/2000/svg" viewBox="0 0 24 24"><defs><style>.cls-1{fill:none;}.cls-2{fill:#1d1d1b;}</style></defs><g id="Слой_2" data-name="Слой 2"><g id="Fill"><g id="Error_Fill" data-name="Error/Fill"><rect class="cls-1" width="24" height="24"/><path class="cls-2" d="M21.06,18.74,13.22,4a1.39,1.39,0,0,0-.51-.54,1.36,1.36,0,0,0-.71-.2,1.42,1.42,0,0,0-.72.2,1.47,1.47,0,0,0-.51.54L2.93,18.74a1.33,1.33,0,0,0-.15.68A1.37,1.37,0,0,0,3,20.1a1.5,1.5,0,0,0,.51.49,1.32,1.32,0,0,0,.67.18h15.7a1.32,1.32,0,0,0,.67-.18A1.5,1.5,0,0,0,21,20.1a1.37,1.37,0,0,0,.19-.68A1.24,1.24,0,0,0,21.06,18.74Zm-7.44-3.11a.41.41,0,0,1,.13.23.42.42,0,0,1,0,.27.41.41,0,0,1-.17.2.45.45,0,0,1-.57,0l-1-1-1,1a.46.46,0,0,1-.64,0,.31.31,0,0,1-.1-.15.33.33,0,0,1,0-.17.37.37,0,0,1,0-.18.31.31,0,0,1,.1-.15l1-1-1-.92a.36.36,0,0,1-.1-.15.43.43,0,0,1,0-.36.44.44,0,0,1,.1-.15.46.46,0,0,1,.64,0l1,1,1-1a.46.46,0,0,1,.64,0,.72.72,0,0,1,.11.15.56.56,0,0,1,0,.36.53.53,0,0,1-.11.15l-1,.92Z"/></g></g></g></svg>