<svg xmlns="http://www.w3.org/2000/svg" viewBox="0 0 24 24"><defs><style>.cls-1{fill:none;}.cls-2{fill:#1d1d1b;}</style></defs><g id="Слой_2" data-name="Слой 2"><g id="Fill"><g id="Exit_Fill" data-name="Exit/Fill"><rect class="cls-1" width="24" height="24"/><path class="cls-2" d="M20.84,5.08V18.92a2.3,2.3,0,0,1-2.3,2.31H10.27A2.3,2.3,0,0,1,8,18.92V13.39H11.2a1.4,1.4,0,0,0,1-.41,1.37,1.37,0,0,0,.3-.45,1.44,1.44,0,0,0,.1-.54,1.39,1.39,0,0,0-.1-.53,1.49,1.49,0,0,0-.3-.44,1.48,1.48,0,0,0-.45-.3,1.22,1.22,0,0,0-.53-.1H7.92V5.08a2.33,2.33,0,0,1,.18-.9,2.27,2.27,0,0,1,.51-.75,2.33,2.33,0,0,1,.77-.5,2.26,2.26,0,0,1,.89-.16h8.31a2.31,2.31,0,0,1,2.26,2.31Z"/><path class="cls-2" d="M11.67,12a.5.5,0,0,1-.14.33.44.44,0,0,1-.32.13H4.74l2,2a.42.42,0,0,1,.13.32.44.44,0,0,1-.13.33.45.45,0,0,1-.51.1.45.45,0,0,1-.14-.1L3.29,12.33a.45.45,0,0,1-.1-.14.38.38,0,0,1,0-.18.7.7,0,0,1,.13-.32L6.07,8.92a.4.4,0,0,1,.31-.11A.41.41,0,0,1,6.69,9a.44.44,0,0,1,.13.31.4.4,0,0,1-.11.31l-2,2H11.2l.18,0a.46.46,0,0,1,.25.25A.58.58,0,0,1,11.67,12Z"/></g></g></g></svg>