<svg xmlns="http://www.w3.org/2000/svg" viewBox="0 0 24 24"><defs><style>.cls-1{fill:none;}.cls-2{fill:#1d1d1b;}</style></defs><g id="Слой_2" data-name="Слой 2"><g id="Fill"><g id="Film_Fill" data-name="Film/Fill"><rect class="cls-1" width="24" height="24"/><path class="cls-2" d="M18.46,4.62H5.54a2.31,2.31,0,0,0-1.63.67,2.28,2.28,0,0,0-.68,1.63V17.08a2.28,2.28,0,0,0,.68,1.63,2.32,2.32,0,0,0,1.63.68H18.46a2.32,2.32,0,0,0,1.63-.68,2.28,2.28,0,0,0,.68-1.63V6.92a2.28,2.28,0,0,0-.68-1.63A2.31,2.31,0,0,0,18.46,4.62Zm-12,6.46h.92a.49.49,0,0,1,.33.13.47.47,0,0,1,.14.33v.92a.47.47,0,0,1-.14.33.44.44,0,0,1-.33.13H6.46a.46.46,0,0,1-.33-.13A.51.51,0,0,1,6,12.46v-.92a.48.48,0,0,1,.46-.46ZM6,8.77V7.85a.47.47,0,0,1,.14-.33.46.46,0,0,1,.32-.13h.92a.44.44,0,0,1,.33.13.45.45,0,0,1,.14.33v.92a.47.47,0,0,1-.14.33.49.49,0,0,1-.33.13H6.46a.57.57,0,0,1-.18,0,.39.39,0,0,1-.16-.1A.4.4,0,0,1,6,9,.37.37,0,0,1,6,8.77Zm.46,6h.92a.45.45,0,0,1,.33.14.43.43,0,0,1,.14.32v.92a.48.48,0,0,1-.47.47H6.46a.47.47,0,0,1-.33-.14A.49.49,0,0,1,6,16.15v-.92a.48.48,0,0,1,.46-.46ZM9.71,12a.47.47,0,0,1,.14-.33.46.46,0,0,1,.32-.13h3.69a.49.49,0,0,1,.33.13.46.46,0,0,1,0,.66.49.49,0,0,1-.33.13H10.15a.46.46,0,0,1-.32-.13A.45.45,0,0,1,9.71,12Zm6.9,2.77h.93a.48.48,0,0,1,.46.46v.92a.45.45,0,0,1-.14.33.43.43,0,0,1-.32.14h-.93a.45.45,0,0,1-.32-.14.45.45,0,0,1-.14-.33v-.92a.43.43,0,0,1,.14-.32A.45.45,0,0,1,16.61,14.77Zm-.46-2.31v-.92a.47.47,0,0,1,.14-.33.48.48,0,0,1,.32-.13h.93a.48.48,0,0,1,.46.46v.92a.47.47,0,0,1-.14.33.42.42,0,0,1-.32.13h-.93a.44.44,0,0,1-.32-.13A.47.47,0,0,1,16.15,12.46ZM18,8.77a.47.47,0,0,1-.14.33.46.46,0,0,1-.32.13h-.93a.48.48,0,0,1-.32-.13.47.47,0,0,1-.14-.33V7.85a.45.45,0,0,1,.14-.33.44.44,0,0,1,.32-.13h.93a.46.46,0,0,1,.32.13.47.47,0,0,1,.14.33Z"/></g></g></g></svg>