<svg xmlns="http://www.w3.org/2000/svg" viewBox="0 0 24 24"><defs><style>.cls-1{fill:none;}.cls-2{fill:#1d1d1b;}</style></defs><g id="Слой_2" data-name="Слой 2"><g id="Fill"><g id="Filter_Fill" data-name="Filter/Fill"><rect class="cls-1" width="24" height="24"/><path class="cls-2" d="M22.15,12a.48.48,0,0,1,0,.2.45.45,0,0,1-.11.17.42.42,0,0,1-.18.11.45.45,0,0,1-.2,0H19.77a2.25,2.25,0,0,1-3.55,1.21,2.17,2.17,0,0,1-.8-1.21h-13A.56.56,0,0,1,2,12.38.54.54,0,0,1,1.85,12,.53.53,0,0,1,2,11.63a.51.51,0,0,1,.37-.15h13A2.26,2.26,0,0,1,17.6,9.77a2.24,2.24,0,0,1,2.18,1.71h1.85a.51.51,0,0,1,.37.15A.52.52,0,0,1,22.15,12Z"/><path class="cls-2" d="M22.15,16.73a.45.45,0,0,1,0,.2.42.42,0,0,1-.11.18.78.78,0,0,1-.18.11.45.45,0,0,1-.2,0H8.52a2.27,2.27,0,0,1-4.38,0H2.38a.53.53,0,0,1,0-1.06H4.14a2.27,2.27,0,0,1,2.19-1.68A2.22,2.22,0,0,1,7.71,15a2.24,2.24,0,0,1,.81,1.21h13.1a.65.65,0,0,1,.2,0,.57.57,0,0,1,.18.12.34.34,0,0,1,.11.17A.45.45,0,0,1,22.15,16.73Z"/><path class="cls-2" d="M22.15,7.27a.51.51,0,0,1-.53.53H8.52A2.26,2.26,0,0,1,5,9,2.23,2.23,0,0,1,4.14,7.8H2.38A.56.56,0,0,1,2,7.65.52.52,0,0,1,2,6.9a.52.52,0,0,1,.37-.16H4.14a2.27,2.27,0,0,1,4.38,0h13.1a.65.65,0,0,1,.2,0,.54.54,0,0,1,.18.11.42.42,0,0,1,.11.18A.45.45,0,0,1,22.15,7.27Z"/></g></g></g></svg>