<svg xmlns="http://www.w3.org/2000/svg" viewBox="0 0 24 24"><defs><style>.cls-1{fill:none;}.cls-2{fill:#1d1d1b;}</style></defs><g id="Слой_2" data-name="Слой 2"><g id="Fill"><g id="Flag_Rectangular_Fill" data-name="Flag/Rectangular/Fill"><rect class="cls-1" width="24" height="24"/><path class="cls-2" d="M16.66,9.5a.74.74,0,0,1,.2.38.75.75,0,0,1,0,.42,1.06,1.06,0,0,1-.41.43,1,1,0,0,1-.58.13H8v9.45a.46.46,0,0,1-.13.32.46.46,0,0,1-.66,0,.46.46,0,0,1-.13-.32V3.69a.45.45,0,0,1,.14-.32.43.43,0,0,1,.32-.14.47.47,0,0,1,.33.14A.46.46,0,0,1,8,3.69v.52h7.82a1,1,0,0,1,.57.13,1,1,0,0,1,.41.42.75.75,0,0,1,.05.42.74.74,0,0,1-.2.38l-1.85,2Z"/></g></g></g></svg>