<svg xmlns="http://www.w3.org/2000/svg" viewBox="0 0 24 24"><defs><style>.cls-1{fill:none;}.cls-2{fill:#1d1d1b;}</style></defs><g id="Слой_2" data-name="Слой 2"><g id="Fill"><g id="Flag_Triangular_Fill" data-name="Flag/Triangular/Fill"><rect class="cls-1" width="24" height="24"/><path class="cls-2" d="M16.74,8.61a1.43,1.43,0,0,1-.2.73,1.37,1.37,0,0,1-.56.51L9.27,13.26a1.39,1.39,0,0,1-.63.15,1.44,1.44,0,0,1-.46-.08v7a.43.43,0,0,1-.14.32.45.45,0,0,1-.32.14.45.45,0,0,1-.33-.14.43.43,0,0,1-.14-.32V3.69a.43.43,0,0,1,.14-.32.45.45,0,0,1,.33-.14.48.48,0,0,1,.46.46v.2A1.42,1.42,0,0,1,9.27,4L16,7.38a1.37,1.37,0,0,1,.56.51A1.39,1.39,0,0,1,16.74,8.61Z"/></g></g></g></svg>