<svg xmlns="http://www.w3.org/2000/svg" viewBox="0 0 24 24"><defs><style>.cls-1{fill:none;}.cls-2{fill:#1d1d1b;}</style></defs><g id="Слой_2" data-name="Слой 2"><g id="Fill"><g id="Folder_Fill" data-name="Folder/Fill"><rect class="cls-1" width="24" height="24"/><path class="cls-2" d="M10.5,7.58H5.72A2.26,2.26,0,0,0,4.37,8a2.26,2.26,0,0,1,1.35-.45H10.5Z"/><path class="cls-2" d="M19.63,9.83v7.08a1.3,1.3,0,0,1-.4.94,1.33,1.33,0,0,1-.94.39H5.72a1.37,1.37,0,0,1-1-.39,1.33,1.33,0,0,1-.39-.94V9.83a1.32,1.32,0,0,1,.1-.51,1.42,1.42,0,0,1,.29-.43,1.35,1.35,0,0,1,.44-.29,1.25,1.25,0,0,1,.51-.09H18.29a1.37,1.37,0,0,1,.94.38A1.3,1.3,0,0,1,19.63,9.83Z"/><path class="cls-2" d="M10.5,7.58H5.72A2.26,2.26,0,0,0,4.37,8V7.1a1.49,1.49,0,0,1,.1-.51,1.43,1.43,0,0,1,.3-.44,1.42,1.42,0,0,1,.43-.29,1.55,1.55,0,0,1,.52-.1H9.15Z"/></g></g></g></svg>