<svg xmlns="http://www.w3.org/2000/svg" viewBox="0 0 24 24"><defs><style>.cls-1{fill:none;}.cls-2{fill:#1d1d1b;}</style></defs><g id="Слой_2" data-name="Слой 2"><g id="Fill"><g id="Folder_Fill" data-name="Folder/Fill"><rect class="cls-1" width="24" height="24"/><path class="cls-2" d="M19.38,4.16H14.26a2.31,2.31,0,0,0-3.72-1.33,2.25,2.25,0,0,0-.8,1.33H4.61a.44.44,0,0,0-.32.13.45.45,0,0,0-.14.33.43.43,0,0,0,.14.32.45.45,0,0,0,.32.14h.47a2.3,2.3,0,0,0-.47,1.38V19.39a2.3,2.3,0,0,0,2.31,2.3H17.08a2.29,2.29,0,0,0,2.3-2.3V6.46a2.29,2.29,0,0,0-.46-1.38h.46a.45.45,0,0,0,.33-.14.43.43,0,0,0,.14-.32.45.45,0,0,0-.14-.33A.44.44,0,0,0,19.38,4.16ZM6.46,18.51v-.92A1.4,1.4,0,0,1,7.85,16.2h.92a1.38,1.38,0,0,1,1.38,1.39v.92a1.37,1.37,0,0,1-1.38,1.38H7.85a1.38,1.38,0,0,1-1.39-1.38ZM17.11,14.3H13.42a.52.52,0,0,1-.18,0,.46.46,0,0,1-.32-.43.45.45,0,0,1,.14-.33.42.42,0,0,1,.32-.13h3.7a.42.42,0,0,1,.32.13.45.45,0,0,1,.14.33.53.53,0,0,1-.13.31A.47.47,0,0,1,17.11,14.3Zm.43,2.85a.48.48,0,0,1-.1.33.51.51,0,0,1-.33.13H13.42a.42.42,0,0,1-.32-.13.45.45,0,0,1-.14-.33.48.48,0,0,1,.46-.46h3.69a.46.46,0,0,1,.31.15A.5.5,0,0,1,17.54,17.15Zm-.43-4.61H13.42l-.21,0a.66.66,0,0,1-.17-.12.4.4,0,0,1-.1-.18.5.5,0,0,1,0-.21.47.47,0,0,1,.14-.33.46.46,0,0,1,.32-.13h3.7a.46.46,0,0,1,.32.13.47.47,0,0,1,.14.33.44.44,0,0,1-.12.34A.5.5,0,0,1,17.11,12.54Zm0-3.32H13.42a.46.46,0,0,1-.32-.13.46.46,0,0,1,0-.66.46.46,0,0,1,.32-.13h3.69a.49.49,0,0,1,.33.13.46.46,0,0,1,.13.33.43.43,0,0,1-.13.33A.44.44,0,0,1,17.11,9.22ZM8.81,6a1.39,1.39,0,0,1,.95.42,1.36,1.36,0,0,1,.39,1v.92A1.37,1.37,0,0,1,8.77,9.69H7.85A1.38,1.38,0,0,1,6.46,8.31V7.39A1.4,1.4,0,0,1,7.85,6Zm1.38,6.46v.93a1.4,1.4,0,0,1-.11.53,1.44,1.44,0,0,1-.31.46,1.75,1.75,0,0,1-.47.29,1.26,1.26,0,0,1-.54.09H7.84A1.4,1.4,0,0,1,6.46,13.4v-.93a1.44,1.44,0,0,1,.4-1,1.39,1.39,0,0,1,1-.41h.92a1.39,1.39,0,0,1,.53.1,1.33,1.33,0,0,1,.76.76A1.44,1.44,0,0,1,10.19,12.47Zm2.74,6.45a.42.42,0,0,1,.15-.31.48.48,0,0,1,.34-.14h3.69a.45.45,0,0,1,.33.14.42.42,0,0,1,.13.32.51.51,0,0,1-.13.33.58.58,0,0,1-.33.14H13.42a.57.57,0,0,1-.18,0,.42.42,0,0,1-.16-.09.33.33,0,0,1-.11-.15A.49.49,0,0,1,12.93,18.92ZM17.1,7.39H13.41a.43.43,0,0,1-.32-.14A.45.45,0,0,1,13,6.92a.48.48,0,0,1,.46-.46H17.1a.45.45,0,0,1,.33.14.43.43,0,0,1,.14.32.48.48,0,0,1-.47.47Z"/><path class="cls-2" d="M9.23,7.39v.92a.44.44,0,0,1-.46.46H7.85a.49.49,0,0,1-.33-.13.47.47,0,0,1-.14-.33V7.39a.48.48,0,0,1,.47-.47h.92a.47.47,0,0,1,.33.14A.49.49,0,0,1,9.23,7.39Z"/><path class="cls-2" d="M9.23,12.47v.93a.46.46,0,0,1-.13.32.47.47,0,0,1-.33.14H7.85a.45.45,0,0,1-.33-.14.43.43,0,0,1-.14-.32v-.93a.52.52,0,0,1,.14-.32A.45.45,0,0,1,7.85,12h.92a.47.47,0,0,1,.33.14A.46.46,0,0,1,9.23,12.47Z"/><path class="cls-2" d="M9.23,17.59v.92a.44.44,0,0,1-.46.46H7.85a.49.49,0,0,1-.33-.13.47.47,0,0,1-.14-.33v-.92a.48.48,0,0,1,.47-.47h.92a.47.47,0,0,1,.33.14A.49.49,0,0,1,9.23,17.59Z"/></g></g></g></svg>