<svg xmlns="http://www.w3.org/2000/svg" viewBox="0 0 24 24"><defs><style>.cls-1{fill:none;}.cls-2{fill:#1d1d1b;}</style></defs><g id="Слой_2" data-name="Слой 2"><g id="Fill"><g id="Forward_Fill" data-name="Forward/Fill"><rect class="cls-1" width="24" height="24"/><path class="cls-2" d="M18.46,3.23H5.54A2.32,2.32,0,0,0,3.23,5.54V18.46a2.2,2.2,0,0,0,.18.88,2.1,2.1,0,0,0,.5.75,2.1,2.1,0,0,0,.75.5,2.23,2.23,0,0,0,.88.18H18.46a2.23,2.23,0,0,0,.88-.18,2.3,2.3,0,0,0,1.25-1.25,2.2,2.2,0,0,0,.18-.88V5.54a2.32,2.32,0,0,0-2.31-2.31Zm-4.87,9.23-2.52,3.06a.61.61,0,0,1-.16.12.49.49,0,0,1-.2,0,.48.48,0,0,1-.3-.11.53.53,0,0,1-.11-.14.34.34,0,0,1-.05-.17.37.37,0,0,1,0-.18.38.38,0,0,1,.09-.15L12.78,12,10.36,9.06a.51.51,0,0,1-.09-.16.37.37,0,0,1,0-.18.34.34,0,0,1,.05-.17.53.53,0,0,1,.11-.14.49.49,0,0,1,.66.06l2.52,3.07a.71.71,0,0,1,0,.92Z"/></g></g></g></svg>