<svg xmlns="http://www.w3.org/2000/svg" viewBox="0 0 24 24"><defs><style>.cls-1{fill:none;}.cls-2{fill:#1d1d1b;}</style></defs><g id="Слой_2" data-name="Слой 2"><g id="Fill"><g id="Forward_Fast_Fill" data-name="Forward/Fast/Fill"><rect class="cls-1" width="24" height="24"/><path class="cls-2" d="M12,3.23A8.77,8.77,0,1,0,18.2,5.8,8.72,8.72,0,0,0,12,3.23Zm3.63,9.23L13.1,15.53a.48.48,0,0,1-.16.12.43.43,0,0,1-.19,0,.44.44,0,0,1-.46-.41.45.45,0,0,1,.1-.34L14.81,12,12.39,9.07a.49.49,0,0,1-.11-.35.53.53,0,0,1,.17-.31.43.43,0,0,1,.34-.1.47.47,0,0,1,.32.16l2.52,3.07a.71.71,0,0,1,0,.92Zm-4.08,0L9,15.53a.48.48,0,0,1-.16.12.43.43,0,0,1-.19,0,.44.44,0,0,1-.46-.41.45.45,0,0,1,.1-.34L10.73,12,8.31,9.07a.49.49,0,0,1-.11-.35.53.53,0,0,1,.17-.31.43.43,0,0,1,.34-.1A.47.47,0,0,1,9,8.47l2.52,3.07a.71.71,0,0,1,0,.92Z"/></g></g></g></svg>