<svg xmlns="http://www.w3.org/2000/svg" viewBox="0 0 24 24"><defs><style>.cls-1{fill:none;}.cls-2{fill:#1d1d1b;}</style></defs><g id="Слой_2" data-name="Слой 2"><g id="Fill"><g id="Graph_Fill" data-name="Graph/Fill"><rect class="cls-1" width="24" height="24"/><path class="cls-2" d="M20.56,20.31a.46.46,0,0,1-.13.32.47.47,0,0,1-.33.14H4.91a1.5,1.5,0,0,1-1-.45,1.49,1.49,0,0,1-.43-1.06V3.69a.46.46,0,0,1,.13-.32.46.46,0,0,1,.66,0,.46.46,0,0,1,.13.32v8.49L7.25,8.94l2.68,2.89L13.62,8.3V7.65a.46.46,0,0,1,.13-.32.47.47,0,0,1,.33-.14H15a.45.45,0,0,1,.33.14.43.43,0,0,1,.14.32v.93a.43.43,0,0,1-.14.32A.45.45,0,0,1,15,9h-.81L9.94,13.15,7.26,10.34l-2.9,3.21V19l5.94-2.87,2.86,1.43,5.23-5.37V11.7a.48.48,0,0,1,.46-.46h.93a.48.48,0,0,1,.46.46v.93a.48.48,0,0,1-.46.46h-1l-5.42,5.54L10.3,17.11,4.76,19.82H20.1a.39.39,0,0,1,.18,0,.54.54,0,0,1,.16.1.86.86,0,0,1,.1.16A.4.4,0,0,1,20.56,20.31Z"/></g></g></g></svg>