<svg xmlns="http://www.w3.org/2000/svg" viewBox="0 0 24 24"><defs><style>.cls-1{fill:none;}.cls-2{fill:#1d1d1b;}</style></defs><g id="Слой_2" data-name="Слой 2"><g id="Fill"><g id="Group_Fill" data-name="Group/Fill"><rect class="cls-1" width="24" height="24"/><path class="cls-2" d="M14.42,8.48a2.47,2.47,0,0,1-1.5,2.28,2.55,2.55,0,0,1-1.42.14,2.49,2.49,0,0,1-1.26-.66,2.47,2.47,0,0,1-.53-2.68,2.44,2.44,0,0,1,.91-1.1A2.5,2.5,0,0,1,12,6.05a2.46,2.46,0,0,1,2.44,2.43Z"/><path class="cls-2" d="M21.66,17.67a.11.11,0,0,1,0,.08s0,.07,0,.09a.28.28,0,0,1-.21.1H17.94a1.31,1.31,0,0,0,.06-.71,6,6,0,0,0-1.15-2.52,3.49,3.49,0,0,1,1-.14,3.85,3.85,0,0,1,3.79,3.1Z"/><path class="cls-2" d="M6,17.94H2.56a.33.33,0,0,1-.23-.1.25.25,0,0,1,0-.17,3.88,3.88,0,0,1,1.35-2.24,3.84,3.84,0,0,1,2.46-.86,4.38,4.38,0,0,1,1,.12A6.06,6.06,0,0,0,6,17.23,1.32,1.32,0,0,0,6,17.94Z"/><path class="cls-2" d="M17.09,17.41a.6.6,0,0,1,0,.19.51.51,0,0,1-.09.16.52.52,0,0,1-.17.13.42.42,0,0,1-.22.05H7.36a.41.41,0,0,1-.21-.05A.37.37,0,0,1,7,17.76a.29.29,0,0,1-.09-.16.31.31,0,0,1,0-.19A5,5,0,0,1,8,15.07a3.86,3.86,0,0,1,.68-.66,5.22,5.22,0,0,1,6.59,0,4.29,4.29,0,0,1,.69.66A5.08,5.08,0,0,1,17.09,17.41Z"/><path class="cls-2" d="M17.87,12.79a2,2,0,1,0-2-2A2,2,0,0,0,17.87,12.79Z"/><path class="cls-2" d="M8.06,10.83a2,2,0,0,1-1.22,1.83,2,2,0,0,1-2.16-.43,2,2,0,0,1-.42-2.15A1.93,1.93,0,0,1,5,9.19a2,2,0,0,1,3.07,1.64Z"/></g></g></g></svg>