<svg xmlns="http://www.w3.org/2000/svg" viewBox="0 0 24 24"><defs><style>.cls-1{fill:none;}.cls-2{fill:#1d1d1b;}</style></defs><g id="Слой_2" data-name="Слой 2"><g id="Fill"><g id="Hearts_Fill" data-name="Hearts/Fill"><rect class="cls-1" width="24" height="24"/><path class="cls-2" d="M15.47,12a4.15,4.15,0,0,1-1.05,2.77l-.18.21L9.81,20.13a1.59,1.59,0,0,1-.57.43,1.69,1.69,0,0,1-.7.15,1.81,1.81,0,0,1-.69-.14,1.88,1.88,0,0,1-.56-.41L2.67,15A4.23,4.23,0,0,1,1.5,12.93a4.12,4.12,0,0,1,.19-2.38A4,4,0,0,1,3.17,8.67a4.12,4.12,0,0,1,2.27-.74,4,4,0,0,1,3,1.37,4.1,4.1,0,0,1,1.36-1,3.92,3.92,0,0,1,1.65-.36,4.1,4.1,0,0,1,4,4.09Z"/><path class="cls-2" d="M22.59,5.59A2.29,2.29,0,0,1,22,7.09L19.71,9.78a1,1,0,0,1-.36.27,1.12,1.12,0,0,1-.88,0,1,1,0,0,1-.36-.27L15.78,7.22a2.13,2.13,0,0,1-.51-.75,2.28,2.28,0,0,1-.18-.89,2.22,2.22,0,0,1,.17-.88A2.35,2.35,0,0,1,15.74,4a2.23,2.23,0,0,1,.73-.49,2.19,2.19,0,0,1,.87-.18,2.15,2.15,0,0,1,1.5.59,2.17,2.17,0,0,1,1.51-.59,2.15,2.15,0,0,1,.87.18A2.31,2.31,0,0,1,22,4a2.29,2.29,0,0,1,.48.75A2,2,0,0,1,22.59,5.59Z"/></g></g></g></svg>