<svg xmlns="http://www.w3.org/2000/svg" viewBox="0 0 24 24"><defs><style>.cls-1{fill:none;}.cls-2{fill:#1d1d1b;}</style></defs><g id="Слой_2" data-name="Слой 2"><g id="Fill"><g id="Internet_Fill" data-name="Internet/Fill"><rect class="cls-1" width="24" height="24"/><path class="cls-2" d="M11.54,12.46V18.2a7.39,7.39,0,0,1-3.39-5.72Z"/><path class="cls-2" d="M15.85,12.46a7.32,7.32,0,0,1-1,3.27,7.53,7.53,0,0,1-2.37,2.46V12.46Z"/><path class="cls-2" d="M15.86,11.59H12.47V5.71a7.48,7.48,0,0,1,2.41,2.53A7.32,7.32,0,0,1,15.86,11.59Z"/><path class="cls-2" d="M11.54,5.71v5.88H8.15a7.32,7.32,0,0,1,1-3.35A7.48,7.48,0,0,1,11.54,5.71Z"/><path class="cls-2" d="M20.29,12.46a8.31,8.31,0,1,1-16.61,0H7.32a8.32,8.32,0,0,0,3.77,6.46,3.86,3.86,0,0,1-.73.23,6.78,6.78,0,0,0,1.68.2,7.37,7.37,0,0,0,1.69-.2,4.87,4.87,0,0,1-.74-.23,8.3,8.3,0,0,0,3.78-6.46Z"/><path class="cls-2" d="M20.3,11.54H16.74A8.37,8.37,0,0,0,13,5c.24-.09.5-.16.75-.24a7.8,7.8,0,0,0-3.4,0c.25.07.5.15.74.24A8.41,8.41,0,0,0,8.37,7.81a8.31,8.31,0,0,0-1.09,3.73H3.71a8.31,8.31,0,1,1,16.61,0Z"/></g></g></g></svg>