<svg xmlns="http://www.w3.org/2000/svg" viewBox="0 0 24 24"><defs><style>.cls-1{fill:none;}.cls-2{fill:#1d1d1b;}</style></defs><g id="Слой_2" data-name="Слой 2"><g id="Fill"><g id="Key_Fill" data-name="Key/Fill"><rect class="cls-1" width="24" height="24"/><path class="cls-2" d="M10.42,18.89,8.06,16.52l.81-.81,2.36,2.37a.49.49,0,0,0,.33.13.48.48,0,0,0,.32-.13.46.46,0,0,0,0-.66L9.52,15.06l3.26-3.26a4.18,4.18,0,0,0,3,.89,4.06,4.06,0,0,0,2.75-1.37,4.17,4.17,0,0,0-.15-5.72,4.16,4.16,0,0,0-5.72-.16A4.16,4.16,0,0,0,11.23,8.2a4.24,4.24,0,0,0,.9,3L5.6,17.67a.47.47,0,0,0,.66.66L7.4,17.18l2.37,2.36a.42.42,0,0,0,.32.13.44.44,0,0,0,.46-.46A.42.42,0,0,0,10.42,18.89ZM14.55,8.23l.54-.54a.46.46,0,0,1,.32-.13.49.49,0,0,1,.33.13l.54.54a.48.48,0,0,1,.13.32.49.49,0,0,1-.13.33l-.54.54a.49.49,0,0,1-.33.13.46.46,0,0,1-.32-.13l-.58-.58a.42.42,0,0,1-.11-.32A.41.41,0,0,1,14.55,8.23Z"/></g></g></g></svg>