<svg xmlns="http://www.w3.org/2000/svg" viewBox="0 0 24 24"><defs><style>.cls-1{fill:none;}.cls-2{fill:#1d1d1b;}</style></defs><g id="Слой_2" data-name="Слой 2"><g id="Fill"><g id="Keyboard_Fill" data-name="Keyboard/Fill"><rect class="cls-1" width="24" height="24"/><path class="cls-2" d="M18.46,6H5.54A2.32,2.32,0,0,0,3.23,8.31v7.38A2.32,2.32,0,0,0,5.54,18H18.46a2.32,2.32,0,0,0,2.31-2.31V8.31A2.32,2.32,0,0,0,18.46,6ZM7.85,12.92h.92a.47.47,0,0,1,.33.14.46.46,0,0,1,.13.32v.93a.46.46,0,0,1-.13.32.47.47,0,0,1-.33.14H7.85a.45.45,0,0,1-.33-.14.42.42,0,0,1-.13-.32v-.93a.48.48,0,0,1,.13-.32A.5.5,0,0,1,7.85,12.92Zm-.46-2.31V9.69a.46.46,0,0,1,.13-.32.45.45,0,0,1,.33-.14h.92a.47.47,0,0,1,.33.14.46.46,0,0,1,.13.32v.92a.49.49,0,0,1-.13.33.47.47,0,0,1-.33.14H7.85a.45.45,0,0,1-.33-.14A.44.44,0,0,1,7.39,10.61Zm4.15,2.31h.92a.47.47,0,0,1,.33.14.46.46,0,0,1,.13.32v.93a.46.46,0,0,1-.13.32.47.47,0,0,1-.33.14h-.92a.47.47,0,0,1-.33-.14.42.42,0,0,1-.13-.32v-.93a.48.48,0,0,1,.13-.32A.52.52,0,0,1,11.54,12.92Zm-.46-2.31V9.69a.46.46,0,0,1,.13-.32.47.47,0,0,1,.33-.14h.92a.47.47,0,0,1,.33.14.46.46,0,0,1,.13.32v.92a.49.49,0,0,1-.13.33.47.47,0,0,1-.33.14h-.92a.47.47,0,0,1-.33-.14A.44.44,0,0,1,11.08,10.61Zm3.69,3.7v-.93a.45.45,0,0,1,.14-.32.47.47,0,0,1,.32-.14h.92a.45.45,0,0,1,.33.14.42.42,0,0,1,.13.32v.93a.42.42,0,0,1-.13.32.45.45,0,0,1-.33.14h-.92a.47.47,0,0,1-.33-.14A.46.46,0,0,1,14.77,14.31Zm1.84-3.7a.44.44,0,0,1-.13.33.45.45,0,0,1-.33.14h-.92a.47.47,0,0,1-.33-.14.49.49,0,0,1-.13-.33V9.69a.48.48,0,0,1,.46-.46h.92a.45.45,0,0,1,.33.14.42.42,0,0,1,.13.32Z"/></g></g></g></svg>