<svg xmlns="http://www.w3.org/2000/svg" viewBox="0 0 24 24"><defs><style>.cls-1{fill:none;}.cls-2{fill:#1d1d1b;}</style></defs><g id="Слой_2" data-name="Слой 2"><g id="Fill"><g id="Keyhole_Fill" data-name="Keyhole/Fill"><rect class="cls-1" width="24" height="24"/><path class="cls-2" d="M16.51,13.11A6,6,0,0,0,17.82,7.7a6.17,6.17,0,0,0-1.34-2.54,6,6,0,0,0-5.22-1.95,5.94,5.94,0,0,0-2.68,1,6.05,6.05,0,0,0-1.9,2.15A6,6,0,0,0,6,9.16,5.89,5.89,0,0,0,7.49,13.1l-1.2,6.07a1.44,1.44,0,0,0,.27,1.16,1.47,1.47,0,0,0,.48.38,1.53,1.53,0,0,0,.59.13h8.81a1.39,1.39,0,0,0,.6-.14,1.47,1.47,0,0,0,.48-.38,1.38,1.38,0,0,0,.27-.54,1.57,1.57,0,0,0,0-.61Zm-1.12,5.18H15.3a.43.43,0,0,1-.29-.1.46.46,0,0,1-.17-.26l-.78-3.61a.54.54,0,0,1,0-.18.49.49,0,0,1,.06-.17.54.54,0,0,1,.3-.21h.19a.51.51,0,0,1,.17.07.53.53,0,0,1,.13.13.51.51,0,0,1,.07.17l.79,3.61a.54.54,0,0,1,0,.18.53.53,0,0,1-.08.17.33.33,0,0,1-.13.13A.36.36,0,0,1,15.39,18.29Z"/></g></g></g></svg>