<svg xmlns="http://www.w3.org/2000/svg" viewBox="0 0 24 24"><defs><style>.cls-1{fill:none;}.cls-2{fill:#1d1d1b;}</style></defs><g id="Слой_2" data-name="Слой 2"><g id="Fill"><g id="Lightbulb_On_Fill" data-name="Lightbulb/On/Fill"><rect class="cls-1" width="24" height="24"/><path class="cls-2" d="M13.39,22.14a1.48,1.48,0,0,1-.55.66,1.56,1.56,0,0,1-1.66,0,1.57,1.57,0,0,1-.56-.66Z"/><path class="cls-2" d="M16.38,20.28a.89.89,0,0,1-.07.36.84.84,0,0,1-.22.31,1,1,0,0,1-.31.2,1,1,0,0,1-.37.05H8.58a1,1,0,0,1-.66-.27.93.93,0,0,1-.27-.65,1,1,0,0,1,.17-.52.93.93,0,0,1,.43-.33,1.19,1.19,0,0,1,.36-.09h6.91a1.11,1.11,0,0,1,.3.08.91.91,0,0,1,.41.34A.86.86,0,0,1,16.38,20.28Z"/><path class="cls-2" d="M17.31,13.86a9.23,9.23,0,0,1-.65,1.85l-.33.63-1.1,2.09H8.77l-1.1-2.09c-.08-.18-.22-.42-.36-.71A8.28,8.28,0,0,1,6.68,14a5.14,5.14,0,0,1,.23-2.2A5,5,0,0,1,8,9.86a5.48,5.48,0,0,1,2.06-1.37,5.58,5.58,0,0,1,2.46-.31A5.43,5.43,0,0,1,14.89,9a5.49,5.49,0,0,1,1.75,1.74A4.79,4.79,0,0,1,17.31,13.86Z"/><path class="cls-2" d="M11.82,6.34a.45.45,0,0,1-.33-.14.43.43,0,0,1-.14-.32V1.42a.47.47,0,0,1,.14-.33A.49.49,0,0,1,11.82,1a.48.48,0,0,1,.32.13.47.47,0,0,1,.14.33V5.88a.43.43,0,0,1-.14.32A.45.45,0,0,1,11.82,6.34Z"/><path class="cls-2" d="M14.55,6.34A.45.45,0,0,1,14.1,6a.45.45,0,0,1,.07-.34l1.46-2.24a.47.47,0,0,1,.29-.2.45.45,0,0,1,.34.07.45.45,0,0,1,.21.29.48.48,0,0,1-.07.35L14.93,6.13a.39.39,0,0,1-.16.15A.46.46,0,0,1,14.55,6.34Z"/><path class="cls-2" d="M9.07,6.34a.46.46,0,0,1-.22-.06.39.39,0,0,1-.16-.15L7.22,3.9a.43.43,0,0,1-.06-.35.4.4,0,0,1,.2-.29.45.45,0,0,1,.34-.07.47.47,0,0,1,.29.2L9.45,5.63A.45.45,0,0,1,9.52,6a.45.45,0,0,1-.45.37Z"/></g></g></g></svg>