<svg xmlns="http://www.w3.org/2000/svg" viewBox="0 0 24 24"><defs><style>.cls-1{fill:none;}.cls-2{fill:#1d1d1b;}</style></defs><g id="Слой_2" data-name="Слой 2"><g id="Fill"><g id="Like_Fill" data-name="Like/Fill"><rect class="cls-1" width="24" height="24"/><path class="cls-2" d="M16.25,3.23a5.41,5.41,0,0,0-4.22,2,5.27,5.27,0,0,0-1.88-1.49,5.41,5.41,0,0,0-2.34-.53A5.56,5.56,0,0,0,2.65,6.76,5.59,5.59,0,0,0,2.42,10a5.49,5.49,0,0,0,1.65,2.83l6.51,7.2a2.11,2.11,0,0,0,.73.53,2.25,2.25,0,0,0,.88.19,2.28,2.28,0,0,0,.93-.19,2.24,2.24,0,0,0,.76-.57l6.2-7.2.21-.25a5.6,5.6,0,0,0,1.44-3.75,5.55,5.55,0,0,0-5.48-5.58ZM13.6,16l2.46-2.77a.46.46,0,0,1,.64,0,.42.42,0,0,1,.11.15.56.56,0,0,1,0,.36.49.49,0,0,1-.11.14l-2.44,2.77a.43.43,0,0,1-.17.13.44.44,0,0,1-.2,0,.43.43,0,0,1-.28-.11.48.48,0,0,1-.12-.16.58.58,0,0,1,0-.19.43.43,0,0,1,0-.19A.46.46,0,0,1,13.6,16Z"/></g></g></g></svg>