<svg xmlns="http://www.w3.org/2000/svg" viewBox="0 0 24 24"><defs><style>.cls-1{fill:none;}.cls-2{fill:#1d1d1b;}</style></defs><g id="Слой_2" data-name="Слой 2"><g id="Fill"><g id="Loading_Finish_Fill" data-name="Loading/Finish/Fill"><rect class="cls-1" width="24" height="24"/><path class="cls-2" d="M12,20.76a.47.47,0,0,1-.33-.14.46.46,0,0,1-.13-.32V18.22a.46.46,0,1,1,.92,0V20.3a.46.46,0,0,1-.13.32A.47.47,0,0,1,12,20.76Z"/><path class="cls-2" d="M12,6.23a.44.44,0,0,1-.46-.46V3.7a.46.46,0,0,1,.13-.32.46.46,0,0,1,.66,0,.46.46,0,0,1,.13.32V5.77a.44.44,0,0,1-.46.46Z"/><path class="cls-2" d="M5.76,12.45H3.69a.51.51,0,0,1-.33-.13.48.48,0,0,1,0-.66.51.51,0,0,1,.33-.13H5.76a.46.46,0,1,1,0,.92Z"/><path class="cls-2" d="M20.31,12.45H18.23a.46.46,0,0,1-.32-.13.47.47,0,0,1-.14-.33.44.44,0,0,1,.46-.46h2.08a.46.46,0,0,1,.32.13.46.46,0,0,1,0,.66A.46.46,0,0,1,20.31,12.45Z"/><path class="cls-2" d="M7.59,8.06a.47.47,0,0,1-.33-.14L5.81,6.46a.49.49,0,0,1-.13-.33.46.46,0,0,1,.13-.32A.72.72,0,0,1,6,5.7a.55.55,0,0,1,.36,0,.42.42,0,0,1,.15.11L7.94,7.27a.51.51,0,0,1,.13.33.48.48,0,0,1-.13.32A.57.57,0,0,1,7.78,8,.63.63,0,0,1,7.59,8.06Z"/><path class="cls-2" d="M17.87,18.34a.39.39,0,0,1-.18,0,.33.33,0,0,1-.14-.1l-1.47-1.46a.42.42,0,0,1-.13-.32.44.44,0,0,1,.13-.33.5.5,0,0,1,.33-.14.33.33,0,0,1,.17,0,.54.54,0,0,1,.16.1l1.46,1.47a.46.46,0,0,1,0,.64A.47.47,0,0,1,17.87,18.34Z"/><path class="cls-2" d="M6.13,18.34a.44.44,0,0,1-.33-.14.44.44,0,0,1,0-.64l1.46-1.47a.65.65,0,0,1,.15-.1.47.47,0,0,1,.51.1.49.49,0,0,1,.13.33.46.46,0,0,1-.13.32L6.45,18.2A.43.43,0,0,1,6.13,18.34Z"/><path class="cls-2" d="M16.4,8.06A.44.44,0,0,1,16.15,8,.44.44,0,0,1,16,7.77a.5.5,0,0,1,.1-.5l1.47-1.46a.42.42,0,0,1,.15-.11.48.48,0,0,1,.18,0,.47.47,0,0,1,.17,0,.42.42,0,0,1,.15.11.42.42,0,0,1,.13.32.44.44,0,0,1-.13.33L16.74,7.92A.48.48,0,0,1,16.4,8.06Z"/></g></g></g></svg>