<svg xmlns="http://www.w3.org/2000/svg" viewBox="0 0 24 24"><defs><style>.cls-1{fill:none;}.cls-2{fill:#1d1d1b;}</style></defs><g id="Слой_2" data-name="Слой 2"><g id="Fill"><g id="Location_Fill" data-name="Location/Fill"><rect class="cls-1" width="24" height="24"/><path class="cls-2" d="M17.15,6.19a6,6,0,0,0-1.92-2,6,6,0,0,0-5.38-.57A6,6,0,0,0,6.05,10a8.45,8.45,0,0,0,.65,1.89l.37.75L10.77,20a1.27,1.27,0,0,0,.5.55,1.34,1.34,0,0,0,.72.21,1.49,1.49,0,0,0,.74-.2,1.45,1.45,0,0,0,.51-.56l3.69-7.38c.09-.17.2-.4.33-.68A10.81,10.81,0,0,0,18,10,5.86,5.86,0,0,0,17.15,6.19ZM12,8.42a1.37,1.37,0,0,1,.77.23,1.34,1.34,0,0,1,.51.62,1.38,1.38,0,0,1-.3,1.51,1.31,1.31,0,0,1-.7.38,1.41,1.41,0,0,1-.81-.08A1.38,1.38,0,0,1,11,8.82,1.37,1.37,0,0,1,12,8.42Z"/></g></g></g></svg>