<svg xmlns="http://www.w3.org/2000/svg" viewBox="0 0 24 24"><defs><style>.cls-1{fill:none;}.cls-2{fill:#1d1d1b;}</style></defs><g id="Слой_2" data-name="Слой 2"><g id="Fill"><g id="Lock_Open_Fill" data-name="Lock/Open/Fill"><rect class="cls-1" width="24" height="24"/><path class="cls-2" d="M16.75,9.13H9.17V7.29a2.82,2.82,0,0,1,.77-2A2.85,2.85,0,0,1,14.85,7h.88a3.77,3.77,0,0,0-1.2-2.57,3.69,3.69,0,0,0-5.22.25,3.63,3.63,0,0,0-1,2.66V9.13H7.27a2.23,2.23,0,0,0-1.54.66,2.18,2.18,0,0,0-.63,1.56v7a2.07,2.07,0,0,0,.16.85,2,2,0,0,0,.47.71,2.1,2.1,0,0,0,1.54.66h9.48a2.2,2.2,0,0,0,1.53-.67,2.18,2.18,0,0,0,.62-1.55v-7a2.16,2.16,0,0,0-.63-1.53A2.22,2.22,0,0,0,16.75,9.13Zm-3,8a1.3,1.3,0,0,1-.48.42,1.22,1.22,0,0,1-.62.16H11.35a1.29,1.29,0,0,1-.64-.16,1.41,1.41,0,0,1-.48-.43,1.39,1.39,0,0,1-.21-.62,1.31,1.31,0,0,1,.1-.64l.41-1a1.68,1.68,0,0,1-.22-.85,1.71,1.71,0,1,1,3.42,0,1.84,1.84,0,0,1-.23.86l.42,1a1.36,1.36,0,0,1,.09.66,1.3,1.3,0,0,1-.23.63Z"/><path class="cls-2" d="M13,16.62a.47.47,0,0,1-.15.13.31.31,0,0,1-.19,0H11.35a.3.3,0,0,1-.19,0,.47.47,0,0,1-.15-.13.48.48,0,0,1-.07-.2.39.39,0,0,1,0-.21l.61-1.5-.17-.21a.82.82,0,0,1-.12-.82.83.83,0,0,1,.17-.26.85.85,0,0,1,.25-.17.81.81,0,0,1,.31-.06.77.77,0,0,1,.3.06.9.9,0,0,1,.26.17,1.06,1.06,0,0,1,.17.26.81.81,0,0,1,.05.31.76.76,0,0,1-.17.5l-.19.21.62,1.51a.39.39,0,0,1,0,.21A.48.48,0,0,1,13,16.62Z"/></g></g></g></svg>