<svg xmlns="http://www.w3.org/2000/svg" viewBox="0 0 24 24"><defs><style>.cls-1{fill:none;}.cls-2{fill:#1d1d1b;}</style></defs><g id="Слой_2" data-name="Слой 2"><g id="Fill"><g id="Mail_Closed_Fill" data-name="Mail/Closed/Fill"><rect class="cls-1" width="24" height="24"/><path class="cls-2" d="M18.46,4.62H5.54a2.31,2.31,0,0,0-1.63.67,2.28,2.28,0,0,0-.68,1.63V17.08a2.28,2.28,0,0,0,.68,1.63,2.32,2.32,0,0,0,1.63.68H18.46a2.32,2.32,0,0,0,1.63-.68,2.28,2.28,0,0,0,.68-1.63V6.92a2.28,2.28,0,0,0-.68-1.63A2.31,2.31,0,0,0,18.46,4.62ZM16.91,8.31l-4.37,3.6a.89.89,0,0,1-.54.19.87.87,0,0,1-.54-.19L7.09,8.31A.53.53,0,0,1,6.92,8,.52.52,0,0,1,7,7.66a.36.36,0,0,1,.14-.11.64.64,0,0,1,.18-.06.55.55,0,0,1,.18,0,.51.51,0,0,1,.16.09L12,11.15,16.32,7.6a.51.51,0,0,1,.16-.09.55.55,0,0,1,.18,0,.49.49,0,0,1,.17.06.49.49,0,0,1,.14.11.35.35,0,0,1,.08.16.37.37,0,0,1,0,.18.34.34,0,0,1-.05.17A.36.36,0,0,1,16.91,8.31Z"/></g></g></g></svg>