<svg xmlns="http://www.w3.org/2000/svg" viewBox="0 0 24 24"><defs><style>.cls-1{fill:none;}.cls-2{fill:#1d1d1b;}</style></defs><g id="Слой_2" data-name="Слой 2"><g id="Fill"><g id="Message_Fill" data-name="Message/Fill"><rect class="cls-1" width="24" height="24"/><path class="cls-2" d="M21.06,16l-1.19-1.77a8.78,8.78,0,1,0-2.44,4.09l2.12.22a1.55,1.55,0,0,0,.9-.16,1.63,1.63,0,0,0,.67-.63,1.65,1.65,0,0,0,.23-.89A1.61,1.61,0,0,0,21.06,16ZM8.6,12.48a.46.46,0,0,1-.13.32.47.47,0,0,1-.33.14H7.22a.43.43,0,0,1-.32-.14.45.45,0,0,1-.14-.32v-.93a.48.48,0,0,1,.13-.32.47.47,0,0,1,.33-.14h.92a.47.47,0,0,1,.33.14.48.48,0,0,1,.13.32Zm3.7,0a.43.43,0,0,1-.14.32.45.45,0,0,1-.33.14h-.92a.43.43,0,0,1-.32-.14.45.45,0,0,1-.14-.32v-.93a.48.48,0,0,1,.13-.32.47.47,0,0,1,.33-.14h.92a.45.45,0,0,1,.33.14.45.45,0,0,1,.14.32Zm3.69,0a.48.48,0,0,1-.46.46H14.6a.48.48,0,0,1-.46-.46v-.93a.45.45,0,0,1,.14-.32.43.43,0,0,1,.32-.14h.93a.43.43,0,0,1,.32.14.45.45,0,0,1,.14.32Z"/></g></g></g></svg>