<svg xmlns="http://www.w3.org/2000/svg" viewBox="0 0 24 24"><defs><style>.cls-1{fill:none;}.cls-2{fill:#1d1d1b;}</style></defs><g id="Слой_2" data-name="Слой 2"><g id="Fill"><g id="Microphone_Fill" data-name="Microphone/Fill"><rect class="cls-1" width="24" height="24"/><path class="cls-2" d="M19.85,11.8a7.74,7.74,0,0,0-3-6.09,4.91,4.91,0,0,0-9.67,0,7.79,7.79,0,0,0-3,6.09,7.82,7.82,0,0,0,7.39,7.75v1.9H10.15a.46.46,0,0,0-.32.13.46.46,0,0,0,0,.66.46.46,0,0,0,.32.13h3.7a.46.46,0,0,0,.32-.13.47.47,0,0,0,.14-.33.43.43,0,0,0-.14-.32.45.45,0,0,0-.32-.14h-1.4V19.54a7.82,7.82,0,0,0,7.4-7.74Zm-5.08-6v.92a.45.45,0,0,1-.14.33.43.43,0,0,1-.32.14h-.93a.43.43,0,0,1-.32-.14.45.45,0,0,1-.14-.33V5.82a.47.47,0,0,1,.14-.33.46.46,0,0,1,.32-.13h.93a.46.46,0,0,1,.32.13A.47.47,0,0,1,14.77,5.82ZM12.92,9.51a.48.48,0,0,1,.46-.46h.93a.48.48,0,0,1,.46.46v.93a.48.48,0,0,1-.46.46h-.93a.48.48,0,0,1-.46-.46Zm4,.82V7.07a6.73,6.73,0,0,1,2,4.73,6.81,6.81,0,0,1-6.41,6.76V15.15a4.85,4.85,0,0,0,4.45-4.78ZM9.23,9.51a.48.48,0,0,1,.46-.46h.93a.48.48,0,0,1,.46.46v.93a.48.48,0,0,1-.46.46H9.69a.48.48,0,0,1-.46-.46Zm1.85-2.77a.45.45,0,0,1-.14.33.43.43,0,0,1-.32.14H9.69a.43.43,0,0,1-.32-.14.45.45,0,0,1-.14-.33V5.82a.47.47,0,0,1,.14-.33.46.46,0,0,1,.32-.13h.93a.46.46,0,0,1,.32.13.47.47,0,0,1,.14.33Zm.46,11.82a6.79,6.79,0,0,1-6.4-6.76,6.69,6.69,0,0,1,2-4.73v3.3a4.87,4.87,0,0,0,4.44,4.82Z"/></g></g></g></svg>