<svg xmlns="http://www.w3.org/2000/svg" viewBox="0 0 24 24"><defs><style>.cls-1{fill:none;}.cls-2{fill:#1d1d1b;}</style></defs><g id="Слой_2" data-name="Слой 2"><g id="Fill"><g id="Moon_Fill" data-name="Moon/Fill"><rect class="cls-1" width="24" height="24"/><path class="cls-2" d="M20,16.73a9.28,9.28,0,0,1-.84.93,9,9,0,0,1-6.41,2.65h-.17a9.1,9.1,0,0,1-6.46-2.89A9.24,9.24,0,0,1,6.46,4.68,7.88,7.88,0,0,1,7.29,4,1.31,1.31,0,0,1,8,3.7a1.35,1.35,0,0,1,.78.19,1.39,1.39,0,0,1,.55.6,1.45,1.45,0,0,1,.12.82,8.1,8.1,0,0,0,2.32,6.86,8.06,8.06,0,0,0,6.86,2.3,1.42,1.42,0,0,1,.81.13,1.49,1.49,0,0,1,.61.56A1.34,1.34,0,0,1,20,16.73Z"/></g></g></g></svg>