<svg xmlns="http://www.w3.org/2000/svg" viewBox="0 0 24 24"><defs><style>.cls-1{fill:none;}.cls-2{fill:#1d1d1b;}</style></defs><g id="Слой_2" data-name="Слой 2"><g id="Fill"><g id="MostlyCloudy_Fill" data-name="MostlyCloudy/Fill"><rect class="cls-1" width="24" height="24"/><path class="cls-2" d="M22.14,19.71H21a6.68,6.68,0,0,0,.52-3,6.78,6.78,0,0,0-.86-2.91,6.58,6.58,0,0,0-6-3.26,4.44,4.44,0,0,0-1.48-2,4.59,4.59,0,0,0-7.43,3.41,4.65,4.65,0,0,0,.72,2.71A4.57,4.57,0,0,0,2.5,19.71H1.85a.45.45,0,0,0-.33.14.43.43,0,0,0-.14.32.48.48,0,0,0,.47.47h20.3a.48.48,0,0,0,.47-.47.43.43,0,0,0-.14-.32.45.45,0,0,0-.33-.14Zm-7.43-2h3.83a.45.45,0,0,1,.33.14.52.52,0,0,1,.14.32.47.47,0,0,1-.14.33.49.49,0,0,1-.33.13H14.71a.46.46,0,0,1-.32-.13.47.47,0,0,1-.14-.33.43.43,0,0,1,.14-.32A.45.45,0,0,1,14.71,17.72ZM7.4,9.87A3.72,3.72,0,0,1,9.86,8.48a3.69,3.69,0,0,1,3.82,2.18h-.11a4.74,4.74,0,0,0-.57.15l-.15,0-.56.22a5.7,5.7,0,0,0-.6.32A6.43,6.43,0,0,0,8.79,15l-.29-.11a1.4,1.4,0,0,0-.29-.09,1.67,1.67,0,0,0-.3-.08l-.29,0A3.69,3.69,0,0,1,7.4,9.87Z"/><path class="cls-2" d="M10.3,6.37A.52.52,0,0,1,10,6.23a.45.45,0,0,1-.14-.33V3.83A.45.45,0,0,1,10,3.5a.42.42,0,0,1,.32-.13.46.46,0,0,1,.33.13.49.49,0,0,1,.13.33V5.9a.49.49,0,0,1-.13.33A.47.47,0,0,1,10.3,6.37Z"/><path class="cls-2" d="M4.07,12.6H2a.43.43,0,0,1-.32-.14.45.45,0,0,1-.14-.33.43.43,0,0,1,.14-.32A.43.43,0,0,1,2,11.67H4.07a.47.47,0,0,1,.33.14.46.46,0,0,1,.13.32.49.49,0,0,1-.13.33A.47.47,0,0,1,4.07,12.6Z"/><path class="cls-2" d="M5.9,8.18l-.18,0a.31.31,0,0,1-.15-.1L4.11,6.59A.44.44,0,0,1,4,6.44a.42.42,0,0,1,0-.36.36.36,0,0,1,.1-.15.46.46,0,0,1,.64,0L6.22,7.4a.43.43,0,0,1,.12.23.5.5,0,0,1,0,.27.47.47,0,0,1-.17.2A.44.44,0,0,1,5.9,8.18Z"/><path class="cls-2" d="M14.71,8.18a.25.25,0,0,1-.17,0,.31.31,0,0,1-.15-.1.4.4,0,0,1-.1-.15.47.47,0,0,1,0-.17.58.58,0,0,1,0-.18.4.4,0,0,1,.1-.15l1.46-1.47a.49.49,0,0,1,.33-.13.46.46,0,0,1,.32.13.53.53,0,0,1,.11.15.55.55,0,0,1,0,.36.72.72,0,0,1-.11.15L15,8.05a.44.44,0,0,1-.15.1A.38.38,0,0,1,14.71,8.18Z"/></g></g></g></svg>