<svg xmlns="http://www.w3.org/2000/svg" viewBox="0 0 24 24"><defs><style>.cls-1{fill:none;}.cls-2{fill:#1d1d1b;}</style></defs><g id="Слой_2" data-name="Слой 2"><g id="Fill"><g id="Mouse_Fill" data-name="Mouse/Fill"><rect class="cls-1" width="24" height="24"/><path class="cls-2" d="M18,9.5,14.07,5.58a6,6,0,0,0-8.49,8.48L9.5,18a5.88,5.88,0,0,0,1.94,1.52,6,6,0,0,0,2.39.6,6,6,0,0,0,6.24-6.24,6,6,0,0,0-.6-2.39A5.88,5.88,0,0,0,18,9.5ZM8.17,8a.56.56,0,0,1,.15-.1.48.48,0,0,1,.18,0,.47.47,0,0,1,.17,0,.56.56,0,0,1,.15.1l2.61,2.61a.44.44,0,0,1,0,.64.42.42,0,0,1-.15.11.52.52,0,0,1-.18,0,.47.47,0,0,1-.17,0,.42.42,0,0,1-.15-.11L8.17,8.62a.36.36,0,0,1-.1-.15.43.43,0,0,1,0-.36A.44.44,0,0,1,8.17,8Z"/></g></g></g></svg>