<svg xmlns="http://www.w3.org/2000/svg" viewBox="0 0 24 24"><defs><style>.cls-1{fill:none;}.cls-2{fill:#1d1d1b;}</style></defs><g id="Слой_2" data-name="Слой 2"><g id="Fill"><g id="Music_Fill" data-name="Music/Fill"><rect class="cls-1" width="24" height="24"/><path class="cls-2" d="M20.79,5.06V17.2a2.45,2.45,0,0,1-.43,1.33,2.31,2.31,0,0,1-1.09.88,2.36,2.36,0,0,1-1.39.13A2.44,2.44,0,0,1,16,17.63a2.43,2.43,0,0,1,2.38-2.88,2.33,2.33,0,0,1,1.49.54V6.91a1.86,1.86,0,0,1-.92.24H9a1.9,1.9,0,0,1-.93-.24V18.12a2.41,2.41,0,0,1,0,.38,2.45,2.45,0,0,1-.83,1.69,2.33,2.33,0,0,1-1.57.6H5.48a2.45,2.45,0,0,1-2.26-2.61,2.45,2.45,0,0,1,.83-1.69,2.33,2.33,0,0,1,1.53-.6,2.38,2.38,0,0,1,1.54.53V5.06A1.84,1.84,0,0,1,9,3.21h9.94a1.78,1.78,0,0,1,.72.14,2,2,0,0,1,.61.39,1.9,1.9,0,0,1,.4.61A1.71,1.71,0,0,1,20.79,5.06Z"/></g></g></g></svg>