<svg xmlns="http://www.w3.org/2000/svg" viewBox="0 0 24 24"><defs><style>.cls-1{fill:none;}.cls-2{fill:#1d1d1b;}</style></defs><g id="Слой_2" data-name="Слой 2"><g id="Fill"><g id="Next_Fill" data-name="Next/Fill"><rect class="cls-1" width="24" height="24"/><path class="cls-2" d="M8.69,20.77a.54.54,0,0,1-.3-.1.47.47,0,0,1-.16-.32.44.44,0,0,1,.1-.33l6.46-7.87a.24.24,0,0,0,.05-.14.25.25,0,0,0-.05-.15L8.33,4a.51.51,0,0,1-.09-.16.55.55,0,0,1,0-.18.64.64,0,0,1,.06-.18.35.35,0,0,1,.11-.13.51.51,0,0,1,.16-.09.37.37,0,0,1,.18,0l.18,0a.53.53,0,0,1,.14.12l6.46,7.88a1.11,1.11,0,0,1,0,1.45L9.05,20.6a.48.48,0,0,1-.16.13A.48.48,0,0,1,8.69,20.77Z"/></g></g></g></svg>