<svg xmlns="http://www.w3.org/2000/svg" viewBox="0 0 24 24"><defs><style>.cls-1{fill:none;}.cls-2{fill:#1d1d1b;}</style></defs><g id="Слой_2" data-name="Слой 2"><g id="Fill"><g id="On_Off_Fill" data-name="On/Off/Fill"><rect class="cls-1" width="24" height="24"/><path class="cls-2" d="M12,9.69a.48.48,0,0,1-.46-.46V2.76a.45.45,0,0,1,.14-.32A.43.43,0,0,1,12,2.3a.47.47,0,0,1,.33.14.46.46,0,0,1,.13.32V9.23a.46.46,0,0,1-.13.32A.47.47,0,0,1,12,9.69Z"/><path class="cls-2" d="M20.77,12.93a8.78,8.78,0,0,1-5.09,8,8.91,8.91,0,0,1-4.88.73,8.77,8.77,0,0,1-.18-17.35V9.08a1.39,1.39,0,0,0,2.77,0V4.27a8.78,8.78,0,0,1,7.38,8.66Z"/></g></g></g></svg>