<svg xmlns="http://www.w3.org/2000/svg" viewBox="0 0 24 24"><defs><style>.cls-1{fill:none;}.cls-2{fill:#1d1d1b;}</style></defs><g id="Слой_2" data-name="Слой 2"><g id="Fill"><g id="Pharmacy_Fill" data-name="Pharmacy/Fill"><rect class="cls-1" width="24" height="24"/><path class="cls-2" d="M20.77,12a2.81,2.81,0,0,1-.8,2,2.77,2.77,0,0,1-.91.6,2.71,2.71,0,0,1-1.06.21H14.77V18a2.77,2.77,0,1,1-5.54,0V14.77H6A2.77,2.77,0,1,1,6,9.23H9.23V6a2.77,2.77,0,1,1,5.54,0V9.23H18A2.77,2.77,0,0,1,20.77,12Z"/></g></g></g></svg>