<svg xmlns="http://www.w3.org/2000/svg" viewBox="0 0 24 24"><defs><style>.cls-1{fill:none;}.cls-2{fill:#1d1d1b;}</style></defs><g id="Слой_2" data-name="Слой 2"><g id="Fill"><g id="Picture_Fill" data-name="Picture/Fill"><rect class="cls-1" width="24" height="24"/><path class="cls-2" d="M18.46,4.62H5.54a2.31,2.31,0,0,0-1.63.67,2.28,2.28,0,0,0-.68,1.63V17.08a2.28,2.28,0,0,0,.68,1.63,2.32,2.32,0,0,0,1.63.68H18.46a2.32,2.32,0,0,0,1.63-.68,2.28,2.28,0,0,0,.68-1.63V6.92a2.28,2.28,0,0,0-.68-1.63A2.31,2.31,0,0,0,18.46,4.62ZM6.4,15.64,10.76,12a.82.82,0,0,1,1.07,0l4.38,3.6a.47.47,0,0,1,.16.31.4.4,0,0,1-.1.33.34.34,0,0,1-.16.13.45.45,0,0,1-.2,0,.42.42,0,0,1-.28-.1L11.3,12.79,7,16.35a.54.54,0,0,1-.16.1.32.32,0,0,1-.19,0,.41.41,0,0,1-.19-.05.42.42,0,0,1-.15-.12.34.34,0,0,1-.08-.17.58.58,0,0,1,0-.19,1.34,1.34,0,0,1,.07-.18A.44.44,0,0,1,6.4,15.64Zm9.77-4.55a1.85,1.85,0,0,1-1-.31,1.89,1.89,0,0,1-.68-.83,1.87,1.87,0,0,1-.11-1.07,1.84,1.84,0,0,1,1.45-1.45,1.87,1.87,0,0,1,1.07.11,1.77,1.77,0,0,1,.83.68,1.85,1.85,0,0,1,.31,1,1.91,1.91,0,0,1-.14.71,1.94,1.94,0,0,1-.41.6,1.86,1.86,0,0,1-.6.4,2,2,0,0,1-.72.14Z"/><path class="cls-2" d="M16.15,10.22a1,1,0,1,0-1-1A1,1,0,0,0,16.15,10.22Z"/></g></g></g></svg>