<svg xmlns="http://www.w3.org/2000/svg" viewBox="0 0 24 24"><defs><style>.cls-1{fill:none;}.cls-2{fill:#1d1d1b;}</style></defs><g id="Слой_2" data-name="Слой 2"><g id="Fill"><g id="Pin_Fill" data-name="Pin/Fill"><rect class="cls-1" width="24" height="24"/><path class="cls-2" d="M18.8,10.18l-3.37,3.38a.5.5,0,0,0-.1.19l-.15.86a1.22,1.22,0,0,1-.29.59,1.29,1.29,0,0,1-.56.36,1.15,1.15,0,0,1-.37.06,1.22,1.22,0,0,1-.46-.09,1.27,1.27,0,0,1-.39-.26l-1.92-1.92L5.65,18.89a.44.44,0,0,1-.33.14A.43.43,0,0,1,5,18.89a.31.31,0,0,1-.1-.15.39.39,0,0,1,0-.18.33.33,0,0,1,0-.17.31.31,0,0,1,.1-.15l5.54-5.54L8.79,11a1.23,1.23,0,0,1-.31-.57,1.08,1.08,0,0,1,0-.64,1.28,1.28,0,0,1,1-.84l.83-.16a.31.31,0,0,0,.22-.09l3.36-3.37a1.31,1.31,0,0,1,.4-.26,1.1,1.1,0,0,1,.47-.1,1,1,0,0,1,.46.1,1.2,1.2,0,0,1,.4.26L18.82,8.5a1.24,1.24,0,0,1,.32.84A1.26,1.26,0,0,1,18.8,10.18Z"/></g></g></g></svg>