<svg xmlns="http://www.w3.org/2000/svg" viewBox="0 0 24 24"><defs><style>.cls-1{fill:none;}.cls-2{fill:#1d1d1b;}</style></defs><g id="Слой_2" data-name="Слой 2"><g id="Fill"><g id="Portfolio_Fill" data-name="Portfolio/Fill"><rect class="cls-1" width="24" height="24"/><path class="cls-2" d="M20.77,13.68V17a2.43,2.43,0,0,1-.17.89,2.57,2.57,0,0,1-.5.76,2.52,2.52,0,0,1-.75.5,2.25,2.25,0,0,1-.89.18H5.54a2.25,2.25,0,0,1-.89-.18,2.52,2.52,0,0,1-.75-.5,2.57,2.57,0,0,1-.5-.76A2.43,2.43,0,0,1,3.23,17V13.68h6.88a1.92,1.92,0,0,0,.68,1.06,2,2,0,0,0,1.2.41,1.92,1.92,0,0,0,1.88-1.47Z"/><path class="cls-2" d="M18.46,7.4h-.74V6a1.39,1.39,0,0,0-.4-1,1.42,1.42,0,0,0-1-.4H7.66a1.42,1.42,0,0,0-1,.4,1.39,1.39,0,0,0-.4,1V7.4H5.54A2.32,2.32,0,0,0,3.23,9.72v3h6.88a1.92,1.92,0,0,1,.68-1.06,2,2,0,0,1,1.2-.42,1.94,1.94,0,0,1,1.88,1.48h6.89V9.69a2.3,2.3,0,0,0-2.3-2.29ZM7.2,6a.48.48,0,0,1,.46-.46h8.68a.47.47,0,0,1,.33.14A.46.46,0,0,1,16.8,6V7.4H7.2Z"/></g></g></g></svg>