<svg xmlns="http://www.w3.org/2000/svg" viewBox="0 0 24 24"><defs><style>.cls-1{fill:none;}.cls-2{fill:#1d1d1b;}</style></defs><g id="Слой_2" data-name="Слой 2"><g id="Fill"><g id="Precipitation_Fill" data-name="Precipitation/Fill"><rect class="cls-1" width="24" height="24"/><path class="cls-2" d="M19.93,9.35a3.5,3.5,0,0,1-.76.62,3.19,3.19,0,0,1-1.63.44,3.26,3.26,0,0,1-1.34-.29,3.08,3.08,0,0,1-1.1-.83,3.21,3.21,0,0,1-.66-1.2,3.35,3.35,0,0,1-.09-1.37,6.4,6.4,0,0,1,.36-1,3.67,3.67,0,0,1,.18-.35l1.84-3.69a.86.86,0,0,1,.34-.39.83.83,0,0,1,.49-.12.9.9,0,0,1,.48.14.86.86,0,0,1,.34.37l1.85,3.69a3.93,3.93,0,0,1,.18.39,3.89,3.89,0,0,1,.33,1,3.34,3.34,0,0,1-.13,1.37A3.29,3.29,0,0,1,19.93,9.35Z"/><path class="cls-2" d="M13.69,20.9a6.29,6.29,0,0,1-1.42,1.15,5.89,5.89,0,0,1-3,.82,6,6,0,0,1-1.52-.2,6,6,0,0,1-2.12-1A5.84,5.84,0,0,1,4.05,19.9a5.78,5.78,0,0,1-.75-3.79A10.48,10.48,0,0,1,4,14.16c.13-.28.25-.51.34-.68L8,6.1a1.38,1.38,0,0,1,.52-.55,1.55,1.55,0,0,1,.73-.21,1.42,1.42,0,0,1,.72.2,1.37,1.37,0,0,1,.51.56l3.69,7.38c.09.17.23.44.37.75a8,8,0,0,1,.66,1.89,6.12,6.12,0,0,1-1.52,4.78Z"/></g></g></g></svg>