<svg xmlns="http://www.w3.org/2000/svg" viewBox="0 0 24 24"><defs><style>.cls-1{fill:none;}.cls-2{fill:#1d1d1b;}</style></defs><g id="Слой_2" data-name="Слой 2"><g id="Fill"><g id="Presentation_Fill" data-name="Presentation/Fill"><rect class="cls-1" width="24" height="24"/><path class="cls-2" d="M18.44,4.15H5.52a2.36,2.36,0,0,0-1.63.68,2.32,2.32,0,0,0-.68,1.63v7.28a2.34,2.34,0,0,0,.68,1.64,2.31,2.31,0,0,0,1.63.67H9.83l-2.89,3a.4.4,0,0,0-.1.15.47.47,0,0,0,0,.17.58.58,0,0,0,0,.18.65.65,0,0,0,.1.15.56.56,0,0,0,.15.1.47.47,0,0,0,.17,0,.48.48,0,0,0,.34-.14L11.13,16h1.74l3.53,3.69a.48.48,0,0,0,.34.14l.17,0a.56.56,0,0,0,.15-.1,1.3,1.3,0,0,0,.1-.15.57.57,0,0,0,0-.18.47.47,0,0,0,0-.17.56.56,0,0,0-.1-.15l-2.92-3h4.31a2.15,2.15,0,0,0,.9-.17,2.1,2.1,0,0,0,.75-.5,2.27,2.27,0,0,0,.51-.75,2.33,2.33,0,0,0,.18-.9V6.45a2.44,2.44,0,0,0-.19-.88,2.17,2.17,0,0,0-.51-.75,2.14,2.14,0,0,0-.76-.5A2.43,2.43,0,0,0,18.44,4.15ZM17.22,7.73,12.53,12.1l-2.4-2.5L7.36,12.53l-.15.11a.58.58,0,0,1-.19,0,.35.35,0,0,1-.17,0,.71.71,0,0,1-.14-.1.4.4,0,0,1-.1-.15.47.47,0,0,1,0-.17.53.53,0,0,1,0-.18.4.4,0,0,1,.1-.15l3.4-3.69,2.44,2.55,4-3.75a.31.31,0,0,1,.15-.1.33.33,0,0,1,.17,0,.39.39,0,0,1,.18,0,.33.33,0,0,1,.14.1.4.4,0,0,1,.13.16.45.45,0,0,1,0,.2.46.46,0,0,1,0,.2A.48.48,0,0,1,17.22,7.73Z"/></g></g></g></svg>