<svg xmlns="http://www.w3.org/2000/svg" viewBox="0 0 24 24"><defs><style>.cls-1{fill:none;}.cls-2{fill:#1d1d1b;}</style></defs><g id="Слой_2" data-name="Слой 2"><g id="Fill"><g id="Rain_Fill" data-name="Rain/Fill"><rect class="cls-1" width="24" height="24"/><path class="cls-2" d="M21.23,11.17h-1a5.9,5.9,0,0,0-.36-5.26,6,6,0,0,0-8.19-2.13A5.85,5.85,0,0,0,9.06,6.94a4.34,4.34,0,0,0-1.88-.32,4.33,4.33,0,0,0-1.82.55,4.15,4.15,0,0,0-2,4H2.77a.46.46,0,0,0-.33.13.49.49,0,0,0-.13.33.45.45,0,0,0,.14.32.43.43,0,0,0,.32.14H21.23a.47.47,0,0,0,.33-.14.46.46,0,0,0,.13-.32.49.49,0,0,0-.13-.33A.46.46,0,0,0,21.23,11.17ZM14.47,9.38H18a.48.48,0,0,1,.47.47.43.43,0,0,1-.14.32.45.45,0,0,1-.33.14H14.47a.57.57,0,0,1-.18,0,.42.42,0,0,1-.16-.09A.33.33,0,0,1,14,10a.41.41,0,0,1,0-.19.38.38,0,0,1,0-.18.46.46,0,0,1,.11-.16.39.39,0,0,1,.16-.1Z"/><path class="cls-2" d="M17.84,15.26a1.51,1.51,0,0,1-.06.67,1.63,1.63,0,0,1-.33.59,1.76,1.76,0,0,1-.37.29,1.52,1.52,0,0,1-.78.21A1.62,1.62,0,0,1,15,16.25a1.47,1.47,0,0,1-.19-1,2.6,2.6,0,0,1,.16-.47,1.09,1.09,0,0,1,.08-.15l.72-1.43a.67.67,0,0,1,.24-.26.63.63,0,0,1,.33-.09.59.59,0,0,1,.57.36l.73,1.43a1.09,1.09,0,0,1,.08.15A1.66,1.66,0,0,1,17.84,15.26Z"/><path class="cls-2" d="M13.11,15.26a1.56,1.56,0,0,1-.06.68,1.7,1.7,0,0,1-.34.58,1.32,1.32,0,0,1-.37.29,1.49,1.49,0,0,1-.77.21,1.52,1.52,0,0,1-.78-.21,1.46,1.46,0,0,1-.57-.56,1.41,1.41,0,0,1-.19-1,2,2,0,0,1,.15-.47l.09-.15L11,13.2a.63.63,0,0,1,.25-.26.67.67,0,0,1,.34-.09.6.6,0,0,1,.34.09.67.67,0,0,1,.23.27l.73,1.43.08.15A1.63,1.63,0,0,1,13.11,15.26Z"/><path class="cls-2" d="M15.5,19.27a1.56,1.56,0,0,1-.06.68,1.43,1.43,0,0,1-.34.58,1.28,1.28,0,0,1-.36.29,1.55,1.55,0,0,1-1.56,0,1.53,1.53,0,0,1-.57-.56,1.47,1.47,0,0,1-.19-1,2.6,2.6,0,0,1,.16-.47l.08-.15.72-1.43a.6.6,0,0,1,.24-.26.67.67,0,0,1,.34-.09.58.58,0,0,1,.34.09.67.67,0,0,1,.23.27l.73,1.43.09.15A2,2,0,0,1,15.5,19.27Z"/></g></g></g></svg>