<svg xmlns="http://www.w3.org/2000/svg" viewBox="0 0 24 24"><defs><style>.cls-1{fill:none;}.cls-2{fill:#1d1d1b;}</style></defs><g id="Слой_2" data-name="Слой 2"><g id="Fill"><g id="Rocket_Fill" data-name="Rocket/Fill"><rect class="cls-1" width="24" height="24"/><path class="cls-2" d="M17.87,10.86a.48.48,0,0,1-.07.23.49.49,0,0,1-.19.16l-2.41,1-1.35-4,3.82,2.2a.52.52,0,0,1,.16.17A.51.51,0,0,1,17.87,10.86Z"/><path class="cls-2" d="M12.26,15.22l-1,2.42a.4.4,0,0,1-.15.19.48.48,0,0,1-.23.07.4.4,0,0,1-.24,0,.37.37,0,0,1-.17-.16l-2.2-3.82Z"/><path class="cls-2" d="M14.87,14.33,12.33,6.71c-.05-.16-.12-.38-.21-.64a9,9,0,0,0-.8-1.65,4.65,4.65,0,0,0-2.6-1.71,4.93,4.93,0,0,0-6,3.51,4.76,4.76,0,0,0-.15,1.5A5.26,5.26,0,0,0,3.1,9.77a5.21,5.21,0,0,0,1.35,1.64A7.24,7.24,0,0,0,6,12.14c.29.11.54.19.72.24l7.6,2.54a.49.49,0,0,0,.44-.11.5.5,0,0,0,.13-.22A.46.46,0,0,0,14.87,14.33ZM9.47,9.47a2.23,2.23,0,0,1-.73.49,2.19,2.19,0,0,1-.87.18A2.14,2.14,0,0,1,7,10a2,2,0,0,1-.73-.49,2.17,2.17,0,0,1-.62-1.15A2.25,2.25,0,0,1,5.78,7a2.27,2.27,0,0,1,2.09-1.4,2.26,2.26,0,0,1,1.6,3.86Z"/><path class="cls-2" d="M8.84,8.86a1.37,1.37,0,0,1-1,.4,1.39,1.39,0,0,1-1-.4,1.49,1.49,0,0,1-.3-.44,1.39,1.39,0,0,1-.1-.53,1.32,1.32,0,0,1,.1-.53,1.54,1.54,0,0,1,.3-.45A1.35,1.35,0,0,1,8.4,6.6a1.25,1.25,0,0,1,.44.31,1.57,1.57,0,0,1,.31.45,1.32,1.32,0,0,1,.1.53,1.39,1.39,0,0,1-.1.53A1.52,1.52,0,0,1,8.84,8.86Z"/><path class="cls-2" d="M16.54,21.45h.87a.46.46,0,0,0,.46-.46v-.87a.47.47,0,0,0-.46-.47h-.87a.47.47,0,0,0-.46.47V21A.46.46,0,0,0,16.54,21.45Z"/><path class="cls-2" d="M20.13,17.86H21a.46.46,0,0,0,.46-.46v-.87a.47.47,0,0,0-.46-.47h-.87a.47.47,0,0,0-.46.47v.87A.46.46,0,0,0,20.13,17.86Z"/><path class="cls-2" d="M16.54,17.86h.87a.46.46,0,0,0,.46-.46v-.87a.47.47,0,0,0-.46-.47h-.87a.47.47,0,0,0-.46.47v.87A.46.46,0,0,0,16.54,17.86Z"/></g></g></g></svg>