<svg xmlns="http://www.w3.org/2000/svg" viewBox="0 0 24 24"><defs><style>.cls-1{fill:none;}.cls-2{fill:#1d1d1b;}</style></defs><g id="Слой_2" data-name="Слой 2"><g id="Fill"><g id="Save_Fill" data-name="Save/Fill"><rect class="cls-1" width="24" height="24"/><path class="cls-2" d="M20.77,8.69V19.76a1.84,1.84,0,0,1-1.85,1.85H5.08a1.84,1.84,0,0,1-1.85-1.85V8.69a1.85,1.85,0,0,1,.54-1.31,1.89,1.89,0,0,1,1.31-.54h5.54v4.68a1.39,1.39,0,0,0,2.77,0V6.84h5.53a1.89,1.89,0,0,1,1.31.54A1.85,1.85,0,0,1,20.77,8.69Z"/><path class="cls-2" d="M15.09,6a.4.4,0,0,1-.15.1.47.47,0,0,1-.17,0A.46.46,0,0,1,14.44,6l-2-2v7.5a.45.45,0,0,1-.14.33.52.52,0,0,1-.32.14.47.47,0,0,1-.33-.14.49.49,0,0,1-.13-.33V4l-2,2a.42.42,0,0,1-.15.11.47.47,0,0,1-.17,0,.48.48,0,0,1-.18,0,.42.42,0,0,1-.15-.11.42.42,0,0,1-.13-.32.44.44,0,0,1,.13-.33l2.77-2.77a.39.39,0,0,1,.19-.12H12a.24.24,0,0,1,.14.05.4.4,0,0,1,.15.1L15.1,5.32a.46.46,0,0,1,.13.32A.43.43,0,0,1,15.09,6Z"/></g></g></g></svg>