<svg xmlns="http://www.w3.org/2000/svg" viewBox="0 0 24 24"><defs><style>.cls-1{fill:none;}.cls-2{fill:#1d1d1b;}</style></defs><g id="Слой_2" data-name="Слой 2"><g id="Fill"><g id="Scale_Decrease_Fill" data-name="Scale/Decrease/Fill"><rect class="cls-1" width="24" height="24"/><path class="cls-2" d="M18.75,18.15l-2.62-4.42a6.16,6.16,0,0,0,1.6-3.56,6.22,6.22,0,0,0-.83-3.82A6.38,6.38,0,0,0,8.23,4.09,6.16,6.16,0,0,0,5.29,7.9a6.16,6.16,0,0,0,.65,4.77,6.36,6.36,0,0,0,5.49,3.12,6.23,6.23,0,0,0,1.36-.15l2.6,4.42a1.55,1.55,0,0,0,.53.52,1.49,1.49,0,0,0,.72.19,1.53,1.53,0,0,0,.72-.2l.85-.48a1.43,1.43,0,0,0,.66-.86A1.46,1.46,0,0,0,18.75,18.15ZM13.28,10H9.58a.42.42,0,0,1-.32-.13.47.47,0,0,1-.14-.33.48.48,0,0,1,.46-.46h3.7a.48.48,0,0,1,.46.46.39.39,0,0,1,0,.18.31.31,0,0,1-.1.15.4.4,0,0,1-.15.1A.47.47,0,0,1,13.28,10Z"/></g></g></g></svg>