<svg xmlns="http://www.w3.org/2000/svg" viewBox="0 0 24 24"><defs><style>.cls-1{fill:none;}.cls-2{fill:#1d1d1b;}</style></defs><g id="Слой_2" data-name="Слой 2"><g id="Fill"><g id="Scale_Increase_Fill" data-name="Scale/Increase/Fill"><rect class="cls-1" width="24" height="24"/><path class="cls-2" d="M18.72,18.15l-2.6-4.42a6.22,6.22,0,0,0,.78-7.38A6.39,6.39,0,0,0,6.37,5.7a6.25,6.25,0,0,0-1.23,4.65,6.16,6.16,0,0,0,.8,2.32,6.36,6.36,0,0,0,5.54,3.12,6.3,6.3,0,0,0,1.36-.15l2.59,4.42a1.47,1.47,0,0,0,.88.66,1.44,1.44,0,0,0,1.09-.15l.85-.48a1.43,1.43,0,0,0,.47-1.94Zm-6.84-6.79a.47.47,0,0,1-.14.33.49.49,0,0,1-.33.13.46.46,0,0,1-.32-.13.47.47,0,0,1-.14-.33V10H9.6a.42.42,0,0,1-.32-.13.45.45,0,0,1,0-.65.45.45,0,0,1,.32-.14H11V7.67a.47.47,0,0,1,.14-.33.47.47,0,0,1,.65,0,.51.51,0,0,1,.13.33V9H13.3a.43.43,0,0,1,.32.14.45.45,0,0,1,.14.33.48.48,0,0,1-.46.46H11.91Z"/></g></g></g></svg>