<svg xmlns="http://www.w3.org/2000/svg" viewBox="0 0 24 24"><defs><style>.cls-1{fill:none;}.cls-2{fill:#1d1d1b;}</style></defs><g id="Слой_2" data-name="Слой 2"><g id="Fill"><g id="Search_Fill" data-name="Search/Fill"><rect class="cls-1" width="24" height="24"/><path class="cls-2" d="M18.21,20.09l-.86.49a1.46,1.46,0,0,1-.72.19,1.48,1.48,0,0,1-.71-.19,1.55,1.55,0,0,1-.53-.52l-2.6-4.42a5.61,5.61,0,0,1-1.36.14A6.3,6.3,0,0,1,8.28,15,6.37,6.37,0,0,1,6,12.68,6.26,6.26,0,0,1,5.29,7.9,6.35,6.35,0,0,1,8.22,4.08,6.41,6.41,0,0,1,16.9,6.34a6.22,6.22,0,0,1,.83,3.82,6.34,6.34,0,0,1-1.59,3.57l2.59,4.42a1.47,1.47,0,0,1,.14,1.07A1.42,1.42,0,0,1,18.21,20.09Z"/></g></g></g></svg>