<svg xmlns="http://www.w3.org/2000/svg" viewBox="0 0 24 24"><defs><style>.cls-1{fill:none;}.cls-2{fill:#1d1d1b;}</style></defs><g id="Слой_2" data-name="Слой 2"><g id="Fill"><g id="Settings_Fill" data-name="Settings/Fill"><rect class="cls-1" width="24" height="24"/><path class="cls-2" d="M18.89,10.29H18a5.94,5.94,0,0,0-.51-1.12l.69-.68A1.6,1.6,0,0,0,18.46,8a1.5,1.5,0,0,0,.11-.55,1.46,1.46,0,0,0-.11-.55,1.38,1.38,0,0,0-.31-.47l-.76-.75a1.5,1.5,0,0,0-2,0l-.66.67a6.37,6.37,0,0,0-1.11-.47v-1A1.45,1.45,0,0,0,12.11,3.5H11A1.45,1.45,0,0,0,9.59,4.92v.93a6.43,6.43,0,0,0-1.12.46l-.68-.67a1.38,1.38,0,0,0-.47-.31,1.45,1.45,0,0,0-.55-.1,1.52,1.52,0,0,0-1,.41L5,6.4a1.54,1.54,0,0,0-.34.49,1.43,1.43,0,0,0-.11.58A1.46,1.46,0,0,0,4.65,8,1.48,1.48,0,0,0,5,8.49l.69.68a6.47,6.47,0,0,0-.47,1.12H4.25a1.43,1.43,0,0,0-1.44,1.45v1.08a1.32,1.32,0,0,0,.11.55,1.48,1.48,0,0,0,.31.47,1.38,1.38,0,0,0,.47.31,1.5,1.5,0,0,0,.55.11h.93a6.77,6.77,0,0,0,.46,1.12L5,16.06a1.42,1.42,0,0,0-.42,1,1.49,1.49,0,0,0,.42,1l.76.74a1.45,1.45,0,0,0,1,.41,1.44,1.44,0,0,0,1-.41l.68-.67a6.33,6.33,0,0,0,1.11.46v.92a1.56,1.56,0,0,0,.1.57,1.52,1.52,0,0,0,.31.48,1.58,1.58,0,0,0,.48.33A1.55,1.55,0,0,0,11,21h1.11a1.46,1.46,0,0,0,.55-.11,1.38,1.38,0,0,0,.78-.79,1.46,1.46,0,0,0,.11-.55v-.92a6.53,6.53,0,0,0,1.13-.46l.66.66a1.5,1.5,0,0,0,1,.41,1.48,1.48,0,0,0,1-.41l.78-.76a1.48,1.48,0,0,0,.41-1,1.44,1.44,0,0,0-.41-1l-.7-.7a7.81,7.81,0,0,0,.47-1.12h.92a1.46,1.46,0,0,0,1-.43,1.42,1.42,0,0,0,.42-1V11.74a1.46,1.46,0,0,0-.41-1A1.42,1.42,0,0,0,18.89,10.29Zm-7.32,4.47a2.52,2.52,0,0,1-1.66-.65,2.47,2.47,0,0,1-.8-1.58,2.48,2.48,0,0,1,2-2.69,2.92,2.92,0,0,1,.51,0,2.81,2.81,0,0,1,.5,0A2.48,2.48,0,0,1,14,12.53a2.47,2.47,0,0,1-.8,1.58A2.51,2.51,0,0,1,11.57,14.76Z"/></g></g></g></svg>