<svg xmlns="http://www.w3.org/2000/svg" viewBox="0 0 24 24"><defs><style>.cls-1{fill:none;}.cls-2{fill:#1d1d1b;}</style></defs><g id="Слой_2" data-name="Слой 2"><g id="Fill"><g id="ShopBasket_Fill" data-name="ShopBasket/Fill"><rect class="cls-1" width="24" height="24"/><path class="cls-2" d="M19.68,18.69a1.8,1.8,0,0,1-.27,1,1.91,1.91,0,0,1-.82.72,1.87,1.87,0,0,1-1.07.13,1.77,1.77,0,0,1-1-.49,1.81,1.81,0,0,1-.53-.94,1.9,1.9,0,0,1,.09-1.08,1.83,1.83,0,0,1,1.71-1.15A1.78,1.78,0,0,1,19.53,18,1.65,1.65,0,0,1,19.68,18.69Z"/><path class="cls-2" d="M10.72,18.69a1.89,1.89,0,0,1-1.09,1.76,1.88,1.88,0,0,1-1.07.13,1.84,1.84,0,0,1-1-.49,1.86,1.86,0,0,1-.52-.94,1.82,1.82,0,0,1,.09-1.08,1.83,1.83,0,0,1,1.71-1.15,1.84,1.84,0,0,1,.7.11,2,2,0,0,1,.6.38,1.81,1.81,0,0,1,.4.59A1.62,1.62,0,0,1,10.72,18.69Z"/><path class="cls-2" d="M18.12,7.13H8.64a2.46,2.46,0,0,0-1.25.33V3.39H4.15a.48.48,0,0,0-.46.46.45.45,0,0,0,.14.33.43.43,0,0,0,.32.14H6.46v10.2a2,2,0,0,0,2.18,1.84h9.48a2,2,0,0,0,2.19-1.84V9a2.06,2.06,0,0,0-2.19-1.85ZM9.23,12.67h.92a.45.45,0,0,1,.33.14.43.43,0,0,1,.14.32v.92a.48.48,0,0,1-.47.47H9.23a.47.47,0,0,1-.33-.14.49.49,0,0,1-.13-.33v-.92a.46.46,0,0,1,.13-.32A.47.47,0,0,1,9.23,12.67Zm-.46-2.31V9.44A.44.44,0,0,1,9.23,9h.92a.49.49,0,0,1,.33.13.47.47,0,0,1,.14.33v.92a.47.47,0,0,1-.14.33.44.44,0,0,1-.33.13H9.23a.46.46,0,0,1-.33-.13A.51.51,0,0,1,8.77,10.36Zm4.15,2.31h.93a.48.48,0,0,1,.46.46v.92a.45.45,0,0,1-.14.33.43.43,0,0,1-.32.14h-.93a.43.43,0,0,1-.32-.14.45.45,0,0,1-.14-.33v-.92a.48.48,0,0,1,.46-.46Zm-.46-2.31V9.44a.47.47,0,0,1,.14-.33A.46.46,0,0,1,12.92,9h.93a.46.46,0,0,1,.32.13.47.47,0,0,1,.14.33v.92a.47.47,0,0,1-.14.33.42.42,0,0,1-.32.13h-.93a.42.42,0,0,1-.32-.13A.47.47,0,0,1,12.46,10.36Zm3.69,3.69v-.92a.43.43,0,0,1,.14-.32.45.45,0,0,1,.33-.14h.92a.47.47,0,0,1,.33.14.46.46,0,0,1,.13.32v.92a.49.49,0,0,1-.13.33.47.47,0,0,1-.33.14h-.92a.48.48,0,0,1-.47-.47ZM18,10.36a.51.51,0,0,1-.13.33.46.46,0,0,1-.33.13h-.92a.44.44,0,0,1-.33-.13.47.47,0,0,1-.14-.33V9.44a.47.47,0,0,1,.14-.33A.49.49,0,0,1,16.62,9h.92a.44.44,0,0,1,.46.46Z"/></g></g></g></svg>