<svg xmlns="http://www.w3.org/2000/svg" viewBox="0 0 24 24"><defs><style>.cls-1{fill:none;}.cls-2{fill:#1d1d1b;}</style></defs><g id="Слой_2" data-name="Слой 2"><g id="Fill"><g id="Snow_Fill" data-name="Snow/Fill"><rect class="cls-1" width="24" height="24"/><path class="cls-2" d="M16,7.39a1.11,1.11,0,0,0,.25.36.94.94,0,0,0,.37.25,1.32,1.32,0,0,0,.78.12,1.26,1.26,0,0,0,.7-.37l.62.62A2.17,2.17,0,0,1,16,8.65l-2.91,2.91h6.82a.44.44,0,0,1,.43.43.32.32,0,0,1,0,.17.38.38,0,0,1-.09.15.42.42,0,0,1-.14.09.34.34,0,0,1-.17,0H13.05L16,15.34A2.22,2.22,0,0,1,17.4,15a2.17,2.17,0,0,1,1.33.64l-.62.62a1.29,1.29,0,0,0-.7-.37,1.33,1.33,0,0,0-.79.11,1.14,1.14,0,0,0-.36.26,1,1,0,0,0-.26.36,1.33,1.33,0,0,0-.11.79,1.36,1.36,0,0,0,.37.7l-.62.62A2.21,2.21,0,0,1,15.36,16l-2.92-2.9v6.81a.47.47,0,0,1-.12.32.54.54,0,0,1-.32.13.44.44,0,0,1-.44-.45V13.05L8.65,16A2.15,2.15,0,0,1,9,17.4a2.19,2.19,0,0,1-.63,1.33l-.62-.62a1.27,1.27,0,0,0,.36-.71,1.31,1.31,0,0,0-.1-.78A1.38,1.38,0,0,0,7.4,16a1.34,1.34,0,0,0-.79-.1,1.31,1.31,0,0,0-.71.36l-.62-.62a2.22,2.22,0,0,1,2.77-.28L11,12.45H4.13a.43.43,0,0,1-.3-.13A.39.39,0,0,1,3.7,12a.32.32,0,0,1,0-.17A.36.36,0,0,1,4,11.61a.47.47,0,0,1,.17,0H11L8,8.67A2.18,2.18,0,0,1,6.6,9a2.23,2.23,0,0,1-1.34-.64l.62-.62a1.39,1.39,0,0,0,.71.37A1.35,1.35,0,0,0,7.38,8a1.11,1.11,0,0,0,.36-.25A1.23,1.23,0,0,0,8,7.4a1.38,1.38,0,0,0,.11-.78,1.33,1.33,0,0,0-.37-.7l.62-.62A2.19,2.19,0,0,1,9,6.63a2.15,2.15,0,0,1-.36,1.44L11.55,11V4.13a.47.47,0,0,1,0-.17.33.33,0,0,1,.1-.14.36.36,0,0,1,.14-.1.47.47,0,0,1,.17,0,.43.43,0,0,1,.3.13.44.44,0,0,1,.13.31v6.81L15.33,8a2.2,2.2,0,0,1,.27-2.77l.62.62a1.32,1.32,0,0,0-.35.72A1.36,1.36,0,0,0,16,7.39Z"/></g></g></g></svg>