<svg xmlns="http://www.w3.org/2000/svg" viewBox="0 0 24 24"><defs><style>.cls-1{fill:none;}.cls-2{fill:#1d1d1b;}</style></defs><g id="Слой_2" data-name="Слой 2"><g id="Fill"><g id="Sound_Off_Fill" data-name="Sound/Off/Fill"><rect class="cls-1" width="24" height="24"/><path class="cls-2" d="M14.83,12a1.89,1.89,0,0,1-.41,1.16,1.85,1.85,0,0,1-1.05.63V10.22a1.82,1.82,0,0,1,1.05.65A1.78,1.78,0,0,1,14.83,12Z"/><path class="cls-2" d="M12.45,6.47V17.54a.86.86,0,0,1-.14.47,1,1,0,0,1-.36.33,1.05,1.05,0,0,1-.53.11,1,1,0,0,1-.51-.18L9.6,17.4a2,2,0,0,0-1.1-.34H3.24a.85.85,0,0,1-.68-.25,1.05,1.05,0,0,1-.22-.3.94.94,0,0,1-.07-.37V7.92a.85.85,0,0,1,.29-.67.79.79,0,0,1,.31-.2A1.15,1.15,0,0,1,3.24,7H8.5a2,2,0,0,0,1.1-.34l1.34-.92a1,1,0,0,1,.51-.18,1.08,1.08,0,0,1,.53.11.92.92,0,0,1,.34.34A.85.85,0,0,1,12.45,6.47Z"/><path class="cls-2" d="M21.6,12.9a.48.48,0,0,1,.13.32.51.51,0,0,1-.13.33.46.46,0,0,1-.33.13.51.51,0,0,1-.33-.13l-1-1-1,1a.47.47,0,0,1-.34.13.45.45,0,0,1-.25-.07.68.68,0,0,1-.17-.21.46.46,0,0,1,0-.26.46.46,0,0,1,.12-.24l1-1-1-1a.46.46,0,0,1,0-.64.31.31,0,0,1,.15-.1.43.43,0,0,1,.36,0,.44.44,0,0,1,.15.1l1,1,1-1a.44.44,0,0,1,.15-.1.43.43,0,0,1,.36,0,.31.31,0,0,1,.15.1.46.46,0,0,1,0,.64l-1,1Z"/></g></g></g></svg>