<svg xmlns="http://www.w3.org/2000/svg" viewBox="0 0 24 24"><defs><style>.cls-1{fill:none;}.cls-2{fill:#1d1d1b;}</style></defs><g id="Слой_2" data-name="Слой 2"><g id="Fill"><g id="Star_Fill" data-name="Star/Fill"><rect class="cls-1" width="24" height="24"/><path class="cls-2" d="M17.59,14.26a.79.79,0,0,0-.18.29.82.82,0,0,0,0,.35L18,18.83a1.66,1.66,0,0,1-.1.91,1.63,1.63,0,0,1-.58.72,1.73,1.73,0,0,1-.87.31,1.64,1.64,0,0,1-.89-.22l-3.19-1.77a.7.7,0,0,0-.35-.09.74.74,0,0,0-.36.09L8.49,20.55a1.78,1.78,0,0,1-.9.21,1.67,1.67,0,0,1-1.54-1.93l.64-3.93a.69.69,0,0,0,0-.35.66.66,0,0,0-.17-.29L3.71,11.43a1.75,1.75,0,0,1-.43-.79,1.72,1.72,0,0,1,0-.9A1.74,1.74,0,0,1,3.82,9a1.72,1.72,0,0,1,.82-.38l3.69-.56a.81.81,0,0,0,.33-.14.79.79,0,0,0,.23-.28l1.6-3.44a1.66,1.66,0,0,1,.61-.7,1.67,1.67,0,0,1,1.79,0,1.66,1.66,0,0,1,.61.7l1.61,3.44a.7.7,0,0,0,.23.28.75.75,0,0,0,.33.14l3.69.56a1.72,1.72,0,0,1,.82.38,1.74,1.74,0,0,1,.5.75,1.72,1.72,0,0,1,0,.9,1.75,1.75,0,0,1-.43.79Z"/></g></g></g></svg>