<svg xmlns="http://www.w3.org/2000/svg" viewBox="0 0 24 24"><defs><style>.cls-1{fill:none;}.cls-2{fill:#1d1d1b;}</style></defs><g id="Слой_2" data-name="Слой 2"><g id="Fill"><g id="Stethoscope_Fill" data-name="Stethoscope/Fill"><rect class="cls-1" width="24" height="24"/><path class="cls-2" d="M18.71,16.41v.47a5.08,5.08,0,0,1-10.16,0V14.41a5.07,5.07,0,0,1-4.7-5.06V3.81a1.39,1.39,0,0,1,.4-1,1.38,1.38,0,0,1,1-.4H5.6a.52.52,0,0,1,.16-.29A.51.51,0,0,1,6.08,2h.76a.46.46,0,0,1,.29.11.5.5,0,0,1,.16.28v.92a.47.47,0,0,1-.16.27.46.46,0,0,1-.29.11H6.08a.48.48,0,0,1-.3-.11.46.46,0,0,1-.15-.27H5.26a.45.45,0,0,0-.33.14.42.42,0,0,0-.13.32V9.35a4.15,4.15,0,0,0,3.78,4.14l.36,0c.22,0,.38,0,.56,0a4.21,4.21,0,0,0,2.58-1.39,4.12,4.12,0,0,0,1-2.73V3.83A.46.46,0,0,0,13,3.51a.47.47,0,0,0-.33-.14h-.36a.42.42,0,0,1-.16.27.44.44,0,0,1-.29.11h-.77a.46.46,0,0,1-.29-.11.47.47,0,0,1-.16-.27V2.43a.53.53,0,0,1,.16-.28A.44.44,0,0,1,11.06,2h.77a.44.44,0,0,1,.29.11.47.47,0,0,1,.16.28h.36a1.38,1.38,0,0,1,1,.4,1.4,1.4,0,0,1,.41,1V9.35a5.07,5.07,0,0,1-4.53,5v2.49a4.16,4.16,0,0,0,8.31,0v-.47Z"/><path class="cls-2" d="M18.31,16.52a1.85,1.85,0,1,0-1.85-1.84A1.84,1.84,0,0,0,18.31,16.52Z"/><path class="cls-2" d="M18.31,17a2.35,2.35,0,1,1,2.35-2.34A2.35,2.35,0,0,1,18.31,17Zm0-3.69a1.35,1.35,0,1,0,1.35,1.35A1.36,1.36,0,0,0,18.31,13.33Z"/></g></g></g></svg>