<svg xmlns="http://www.w3.org/2000/svg" viewBox="0 0 24 24"><defs><style>.cls-1{fill:none;}.cls-2{fill:#1d1d1b;}</style></defs><g id="Слой_2" data-name="Слой 2"><g id="Fill"><g id="Target_Fill" data-name="Target/Fill"><rect class="cls-1" width="24" height="24"/><path class="cls-2" d="M21.34,2.68A.44.44,0,0,0,21,2.55a.44.44,0,0,0-.33.13l-2,2V3.22a.57.57,0,0,0,0-.18.46.46,0,0,0-.09-.15.65.65,0,0,0-.15-.1.39.39,0,0,0-.18,0,.51.51,0,0,0-.33.13.45.45,0,0,0-.14.32l-.05,2.39-.66.67a8.87,8.87,0,1,0,.65.66l.72-.72h2.37a.45.45,0,0,0,.32-.14.52.52,0,0,0,.14-.32.47.47,0,0,0,0-.17.44.44,0,0,0-.1-.16.4.4,0,0,0-.15-.1.33.33,0,0,0-.17,0H19.36l2-1.95A.48.48,0,0,0,21.45,3,.43.43,0,0,0,21.34,2.68ZM19.07,12.74A7.84,7.84,0,1,1,4,9.74,7.78,7.78,0,0,1,16.42,6.91l-.92,1a6.45,6.45,0,1,0,.78,8.91,6.5,6.5,0,0,0,1.43-4.06,6.38,6.38,0,0,0-1.56-4.19l1-1A7.72,7.72,0,0,1,19.07,12.74Zm-8.19.39a.48.48,0,0,0,.66,0l.58-.57a.54.54,0,0,1,0,.18.94.94,0,0,1-.2.53.9.9,0,0,1-.46.31.92.92,0,0,1-.57,0,.89.89,0,0,1-.45-.34.88.88,0,0,1-.16-.54,1,1,0,0,1,.17-.54,1,1,0,0,1,.46-.33.89.89,0,0,1,.56,0l-.61.61a.64.64,0,0,0-.11.16.58.58,0,0,0,0,.19.41.41,0,0,0,0,.19A.61.61,0,0,0,10.88,13.13Zm.34-2.24a1.88,1.88,0,0,0-1.12.39,1.84,1.84,0,0,0-.65,1,1.8,1.8,0,0,0,.08,1.19,1.83,1.83,0,0,0,.79.88,1.88,1.88,0,0,0,1.16.23A1.85,1.85,0,0,0,12.54,14,1.78,1.78,0,0,0,13.06,13a1.81,1.81,0,0,0-.23-1.16l1-1a3.16,3.16,0,0,1,.63,1.89,3.25,3.25,0,0,1-2,3,3.29,3.29,0,0,1-1.86.18A3.2,3.2,0,0,1,8.93,15a3.23,3.23,0,0,1,4.24-4.85l-1,1a1.81,1.81,0,0,0-1-.27Z"/></g></g></g></svg>