<svg xmlns="http://www.w3.org/2000/svg" viewBox="0 0 24 24"><defs><style>.cls-1{fill:none;}.cls-2{fill:#1d1d1b;}</style></defs><g id="Слой_2" data-name="Слой 2"><g id="Fill"><g id="Toggle_On_Fill" data-name="Toggle/On/Fill"><rect class="cls-1" width="24" height="24"/><path class="cls-2" d="M14.77,6H9.23a6,6,0,0,0,0,12h5.54a6,6,0,0,0,0-12Zm-4.44,9.49a3.6,3.6,0,0,1-1.17.2A3.7,3.7,0,0,1,5.46,12a3.88,3.88,0,0,1,.47-1.85,3.7,3.7,0,1,1,4.4,5.34Z"/><path class="cls-2" d="M11.9,12a2.78,2.78,0,0,1-.53,1.62,2.75,2.75,0,0,1-1.37,1,2.61,2.61,0,0,1-.87.15,2.77,2.77,0,0,1-2.42-4.12A2.8,2.8,0,0,1,8,9.46a2.75,2.75,0,0,1,1.79-.14A2.78,2.78,0,0,1,11.9,12Z"/></g></g></g></svg>