<svg xmlns="http://www.w3.org/2000/svg" viewBox="0 0 24 24"><defs><style>.cls-1{fill:none;}.cls-2{fill:#1d1d1b;}</style></defs><g id="Слой_2" data-name="Слой 2"><g id="Fill"><g id="Toggle_Off_Fill" data-name="Toggle/Off/Fill"><rect class="cls-1" width="24" height="24"/><path class="cls-2" d="M9.23,18h5.54a6,6,0,0,0,0-12H9.23a6,6,0,0,0,0,12Zm4.44-9.49a3.6,3.6,0,0,1,1.17-.2A3.7,3.7,0,0,1,18.54,12a3.88,3.88,0,0,1-.47,1.85,3.7,3.7,0,1,1-4.4-5.34Z"/><path class="cls-2" d="M12.1,12a2.78,2.78,0,0,1,.53-1.62,2.75,2.75,0,0,1,1.37-1,2.61,2.61,0,0,1,.87-.15,2.77,2.77,0,0,1,2.42,4.12A2.87,2.87,0,0,1,16,14.55,2.78,2.78,0,0,1,12.1,12Z"/></g></g></g></svg>