<svg xmlns="http://www.w3.org/2000/svg" viewBox="0 0 24 24"><defs><style>.cls-1{fill:none;}.cls-2{fill:#1d1d1b;}</style></defs><g id="Слой_2" data-name="Слой 2"><g id="Fill"><g id="User_Fill" data-name="User/Fill"><rect class="cls-1" width="24" height="24"/><path class="cls-2" d="M15.21,6.46a3.22,3.22,0,0,1-2,3,3.33,3.33,0,0,1-1.87.18,3.23,3.23,0,0,1-1.16-5.86A3.3,3.3,0,0,1,12,3.23a3.22,3.22,0,0,1,2.28.95A3.12,3.12,0,0,1,15,5.23,3.25,3.25,0,0,1,15.21,6.46Z"/><path class="cls-2" d="M19.86,20.11a1.76,1.76,0,0,1-.63.49,1.89,1.89,0,0,1-.78.17H5.53a1.8,1.8,0,0,1-1.41-.66,1.64,1.64,0,0,1-.33-.66,1.84,1.84,0,0,1,0-.74,8.41,8.41,0,0,1,16.48,0,1.73,1.73,0,0,1,0,.75A1.63,1.63,0,0,1,19.86,20.11Z"/></g></g></g></svg>