<svg xmlns="http://www.w3.org/2000/svg" viewBox="0 0 24 24"><defs><style>.cls-1{fill:none;}.cls-2{fill:#1d1d1b;}</style></defs><g id="Слой_2" data-name="Слой 2"><g id="Fill"><g id="VideoCamera_Fill" data-name="VideoCamera/Fill"><rect class="cls-1" width="24" height="24"/><path class="cls-2" d="M13.5,6.57h-11A1.4,1.4,0,0,0,1.16,8v8.31a1.4,1.4,0,0,0,1.38,1.39h11a1.4,1.4,0,0,0,1.39-1.39V8a1.36,1.36,0,0,0-.41-1A1.39,1.39,0,0,0,13.5,6.57ZM3,9.83V8.91a.44.44,0,0,1,.13-.33.47.47,0,0,1,.33-.14h.92a.52.52,0,0,1,.32.14.45.45,0,0,1,.14.33v.92a.46.46,0,0,1-.13.32.47.47,0,0,1-.33.14H3.47a.47.47,0,0,1-.33-.14A.42.42,0,0,1,3,9.83Zm5.53,0a.42.42,0,0,1-.13.32.45.45,0,0,1-.33.14H7.16a.47.47,0,0,1-.33-.14.46.46,0,0,1-.13-.32V8.91a.49.49,0,0,1,.13-.33.47.47,0,0,1,.33-.14h.92a.58.58,0,0,1,.33.14.49.49,0,0,1,.13.33Z"/><path class="cls-2" d="M22.39,8.15v7.93a1.37,1.37,0,0,1-.13.59,1.29,1.29,0,0,1-.37.47,1.33,1.33,0,0,1-.92.32h-.25l-3.55-.66A1.39,1.39,0,0,1,16,15.43V8.84a1.39,1.39,0,0,1,1.13-1.36l3.55-.67a1.35,1.35,0,0,1,.6,0,1.55,1.55,0,0,1,.54.28,1.4,1.4,0,0,1,.38.46A1.47,1.47,0,0,1,22.39,8.15Z"/></g></g></g></svg>