<svg xmlns="http://www.w3.org/2000/svg" viewBox="0 0 24 24"><defs><style>.cls-1{fill:none;}.cls-2{fill:#1d1d1b;}</style></defs><g id="Слой_2" data-name="Слой 2"><g id="Fill"><g id="Video_Fill" data-name="Video/Fill"><rect class="cls-1" width="24" height="24"/><path class="cls-2" d="M18.46,4.62H5.54a2.31,2.31,0,0,0-1.63.67,2.28,2.28,0,0,0-.68,1.63V17.08a2.28,2.28,0,0,0,.68,1.63,2.32,2.32,0,0,0,1.63.68H18.46a2.32,2.32,0,0,0,1.63-.68,2.28,2.28,0,0,0,.68-1.63V6.92a2.28,2.28,0,0,0-.68-1.63A2.31,2.31,0,0,0,18.46,4.62Zm-2.61,8.61L10.39,16a1.39,1.39,0,0,1-.69.15A1.35,1.35,0,0,1,9,15.94a1.28,1.28,0,0,1-.48-.5,1.36,1.36,0,0,1-.18-.68V9.22A1.43,1.43,0,0,1,9,8a1.45,1.45,0,0,1,.67-.2,1.39,1.39,0,0,1,.69.15l5.46,2.76a1.38,1.38,0,0,1,.55.52,1.32,1.32,0,0,1,.21.72,1.43,1.43,0,0,1-.2.73A1.45,1.45,0,0,1,15.85,13.23Z"/><path class="cls-2" d="M15.68,12a.5.5,0,0,1-.06.24.52.52,0,0,1-.19.17L10,15.18a.46.46,0,0,1-.23.06.43.43,0,0,1-.22-.06A.44.44,0,0,1,9.35,15a.37.37,0,0,1,0-.23V9.25A.46.46,0,0,1,9.36,9a.52.52,0,0,1,.16-.17.48.48,0,0,1,.24-.06.52.52,0,0,1,.21,0l5.46,2.77a.52.52,0,0,1,.19.17A.5.5,0,0,1,15.68,12Z"/></g></g></g></svg>