<svg xmlns="http://www.w3.org/2000/svg" viewBox="0 0 24 24"><defs><style>.cls-1{fill:none;}.cls-2{fill:#1d1d1b;}</style></defs><g id="Слой_2" data-name="Слой 2"><g id="Fill"><g id="Watch_Fill" data-name="Watch/Fill"><rect class="cls-1" width="24" height="24"/><path class="cls-2" d="M14.77,7.38H9.23A1.84,1.84,0,0,0,7.38,9.22v5.54a1.84,1.84,0,0,0,1.85,1.85h5.54a1.84,1.84,0,0,0,1.84-1.85V9.22a1.84,1.84,0,0,0-1.84-1.84Zm0,6.46a.48.48,0,0,1-.46.46.45.45,0,0,1-.33-.14.42.42,0,0,1-.13-.32v-3.7A.42.42,0,0,1,14,9.82a.45.45,0,0,1,.33-.14.48.48,0,0,1,.46.46Z"/><path class="cls-2" d="M14.2,17.55,14,19.62a1.34,1.34,0,0,1-1.38,1.15H11.5a1.38,1.38,0,0,1-.91-.31,1.31,1.31,0,0,1-.46-.84l-.24-2.07Z"/><path class="cls-2" d="M14.2,6.45H9.89l.23-2.07a1.28,1.28,0,0,1,.47-.84,1.31,1.31,0,0,1,.91-.31h1.1A1.34,1.34,0,0,1,14,4.38Z"/></g></g></g></svg>