<svg xmlns="http://www.w3.org/2000/svg" viewBox="0 0 24 24"><defs><style>.cls-1{fill:none;}.cls-2{fill:#1d1d1b;}</style></defs><g id="Слой_2" data-name="Слой 2"><g id="Fill"><g id="Wi-Fi_On_Fill" data-name="Wi-Fi/On/Fill"><rect class="cls-1" width="24" height="24"/><path class="cls-2" d="M20.31,9l-.57.6A10.94,10.94,0,0,0,16.2,7.15a10.8,10.8,0,0,0-8.4,0A10.94,10.94,0,0,0,4.26,9.59L3.69,9A11.66,11.66,0,0,1,7.48,6.37a11.56,11.56,0,0,1,9,0A11.66,11.66,0,0,1,20.31,9Z"/><path class="cls-2" d="M18.08,11.25l-.58.59A7.52,7.52,0,0,0,15,10.11a7.63,7.63,0,0,0-6,0A7.52,7.52,0,0,0,6.5,11.84l-.58-.59A8.46,8.46,0,0,1,8.69,9.33a8.51,8.51,0,0,1,6.62,0A8.46,8.46,0,0,1,18.08,11.25Z"/><path class="cls-2" d="M15.85,13.57l-.57.59a4.67,4.67,0,0,0-1.5-1,4.58,4.58,0,0,0-3.56,0,4.67,4.67,0,0,0-1.5,1l-.55-.59a5.31,5.31,0,0,1,5.94-1.22,5.51,5.51,0,0,1,1.76,1.22Z"/><path class="cls-2" d="M12,18.55a1.85,1.85,0,1,0-1.85-1.84A1.84,1.84,0,0,0,12,18.55Z"/></g></g></g></svg>