<svg xmlns="http://www.w3.org/2000/svg" viewBox="0 0 24 24"><defs><style>.cls-1{fill:none;}.cls-2{fill:#1d1d1b;}</style></defs><g id="Слой_2" data-name="Слой 2"><g id="Fill"><g id="Wi-Fi_Off_Fill" data-name="Wi-Fi/Off/Fill"><rect class="cls-1" width="24" height="24"/><path class="cls-2" d="M20.31,9.37l-.57.59A10.75,10.75,0,0,0,12,6.68a10.68,10.68,0,0,0-4.21.86A10.86,10.86,0,0,0,4.27,10l-.58-.59A11.66,11.66,0,0,1,7.48,6.77a11.56,11.56,0,0,1,9,0,11.66,11.66,0,0,1,3.79,2.62Z"/><path class="cls-2" d="M18.06,11.66l-.59.59A7.52,7.52,0,0,0,15,10.52a7.63,7.63,0,0,0-8.49,1.73l-.58-.59a8.43,8.43,0,0,1,12.17,0Z"/><path class="cls-2" d="M15.85,14l-.57.59a4.67,4.67,0,0,0-1.5-1,4.58,4.58,0,0,0-3.56,0,4.67,4.67,0,0,0-1.5,1L8.15,14a5.33,5.33,0,0,1,1.76-1.21A5.35,5.35,0,0,1,15.85,14Z"/><path class="cls-2" d="M13.63,17.37a.44.44,0,0,1,0,.64.44.44,0,0,1-.33.14.47.47,0,0,1-.17,0A.42.42,0,0,1,13,18l-1-1-1,1a.47.47,0,0,1-.33.14.43.43,0,0,1-.32-.14.49.49,0,0,1-.11-.14.56.56,0,0,1,0-.36.49.49,0,0,1,.11-.14l1-1-1-1a.42.42,0,0,1-.11-.15.47.47,0,0,1,0-.17.57.57,0,0,1,0-.18.49.49,0,0,1,.11-.14.42.42,0,0,1,.15-.11.47.47,0,0,1,.17,0,.48.48,0,0,1,.18,0,.42.42,0,0,1,.15.11l1,1,1-1a.42.42,0,0,1,.15-.11.48.48,0,0,1,.18,0,.47.47,0,0,1,.17,0,.42.42,0,0,1,.15.11.44.44,0,0,1,0,.64l-1,1Z"/></g></g></g></svg>